<svg width="600" height="300" viewBox="0 0 600 300" fill="none" xmlns="http://www.w3.org/2000/svg">
<rect width="600" height="300" fill="#E22648"/>
<path d="M161.454 190.65V199.8H171.754V205.4H161.454V220H155.054V185.15H173.254V190.65H161.454ZM193.548 220L184.598 207.4V220H178.248V185.15H187.948C196.215 185.15 200.348 188.85 200.348 196.25C200.348 197.9 200.081 199.525 199.548 201.125C199.015 202.708 198.14 204.117 196.923 205.35C195.723 206.583 194.181 207.433 192.298 207.9L201.298 220H193.548ZM187.248 204.25C188.665 204.25 189.873 203.917 190.873 203.25C191.89 202.567 192.656 201.667 193.173 200.55C193.69 199.417 193.948 198.183 193.948 196.85C193.948 194.55 193.415 192.858 192.348 191.775C191.298 190.692 189.548 190.15 187.098 190.15H184.598V204.25H187.248ZM226.155 214.35V220H206.955V185.15H225.155V190.6H213.205V198.75H222.705V204.05H213.205V214.35H226.155ZM251.448 214.35V220H232.248V185.15H250.448V190.6H238.498V198.75H247.998V204.05H238.498V214.35H251.448ZM275.713 220.55C274.163 220.55 272.696 220.367 271.313 220C269.946 219.633 268.746 219.158 267.713 218.575C266.679 217.992 265.863 217.383 265.263 216.75L267.813 211.5C268.196 212 268.779 212.533 269.563 213.1C270.346 213.667 271.238 214.15 272.238 214.55C273.254 214.95 274.263 215.15 275.263 215.15C276.579 215.15 277.679 214.792 278.563 214.075C279.463 213.342 279.913 212.317 279.913 211C279.913 210.15 279.704 209.417 279.288 208.8C278.888 208.167 278.346 207.608 277.663 207.125C276.996 206.625 275.963 205.95 274.563 205.1C272.646 203.933 271.146 202.942 270.063 202.125C268.979 201.292 268.038 200.208 267.238 198.875C266.454 197.525 266.063 195.9 266.063 194C266.063 192.15 266.454 190.517 267.238 189.1C268.038 187.667 269.213 186.55 270.763 185.75C272.313 184.95 274.179 184.55 276.363 184.55C279.913 184.55 282.879 185.633 285.263 187.8L282.463 192.9C282.179 192.5 281.754 192.067 281.188 191.6C280.621 191.117 279.938 190.708 279.138 190.375C278.338 190.025 277.496 189.85 276.613 189.85C275.329 189.85 274.329 190.225 273.613 190.975C272.913 191.708 272.563 192.633 272.563 193.75C272.563 194.6 272.771 195.358 273.188 196.025C273.621 196.675 274.179 197.258 274.863 197.775C275.563 198.292 276.496 198.9 277.663 199.6C279.779 200.85 281.396 201.9 282.513 202.75C283.629 203.6 284.563 204.683 285.313 206C286.079 207.3 286.463 208.9 286.463 210.8C286.463 212.817 286.029 214.558 285.163 216.025C284.296 217.492 283.054 218.617 281.438 219.4C279.821 220.167 277.913 220.55 275.713 220.55ZM311.458 214.35V220H292.258V185.15H310.458V190.6H298.508V198.75H308.008V204.05H298.508V214.35H311.458ZM333.001 220L324.051 207.4V220H317.701V185.15H327.401C335.668 185.15 339.801 188.85 339.801 196.25C339.801 197.9 339.534 199.525 339.001 201.125C338.468 202.708 337.593 204.117 336.376 205.35C335.176 206.583 333.634 207.433 331.751 207.9L340.751 220H333.001ZM326.701 204.25C328.118 204.25 329.326 203.917 330.326 203.25C331.343 202.567 332.109 201.667 332.626 200.55C333.143 199.417 333.401 198.183 333.401 196.85C333.401 194.55 332.868 192.858 331.801 191.775C330.751 190.692 329.001 190.15 326.551 190.15H324.051V204.25H326.701ZM370.308 185.15L356.508 220.175H355.708L341.858 185.15H348.808L354.308 200.5L356.233 206.325L358.158 200.5L363.458 185.15H370.308ZM393.05 214.35V220H373.85V185.15H392.05V190.6H380.1V198.75H389.6V204.05H380.1V214.35H393.05ZM414.593 220L405.643 207.4V220H399.293V185.15H408.993C417.259 185.15 421.393 188.85 421.393 196.25C421.393 197.9 421.126 199.525 420.593 201.125C420.059 202.708 419.184 204.117 417.968 205.35C416.768 206.583 415.226 207.433 413.343 207.9L422.343 220H414.593ZM408.293 204.25C409.709 204.25 410.918 203.917 411.918 203.25C412.934 202.567 413.701 201.667 414.218 200.55C414.734 199.417 414.993 198.183 414.993 196.85C414.993 194.55 414.459 192.858 413.393 191.775C412.343 190.692 410.593 190.15 408.143 190.15H405.643V204.25H408.293ZM436.65 220.55C435.1 220.55 433.634 220.367 432.25 220C430.884 219.633 429.684 219.158 428.65 218.575C427.617 217.992 426.8 217.383 426.2 216.75L428.75 211.5C429.134 212 429.717 212.533 430.5 213.1C431.284 213.667 432.175 214.15 433.175 214.55C434.192 214.95 435.2 215.15 436.2 215.15C437.517 215.15 438.617 214.792 439.5 214.075C440.4 213.342 440.85 212.317 440.85 211C440.85 210.15 440.642 209.417 440.225 208.8C439.825 208.167 439.284 207.608 438.6 207.125C437.934 206.625 436.9 205.95 435.5 205.1C433.584 203.933 432.084 202.942 431 202.125C429.917 201.292 428.975 200.208 428.175 198.875C427.392 197.525 427 195.9 427 194C427 192.15 427.392 190.517 428.175 189.1C428.975 187.667 430.15 186.55 431.7 185.75C433.25 184.95 435.117 184.55 437.3 184.55C440.85 184.55 443.817 185.633 446.2 187.8L443.4 192.9C443.117 192.5 442.692 192.067 442.125 191.6C441.559 191.117 440.875 190.708 440.075 190.375C439.275 190.025 438.434 189.85 437.55 189.85C436.267 189.85 435.267 190.225 434.55 190.975C433.85 191.708 433.5 192.633 433.5 193.75C433.5 194.6 433.709 195.358 434.125 196.025C434.559 196.675 435.117 197.258 435.8 197.775C436.5 198.292 437.434 198.9 438.6 199.6C440.717 200.85 442.334 201.9 443.45 202.75C444.567 203.6 445.5 204.683 446.25 206C447.017 207.3 447.4 208.9 447.4 210.8C447.4 212.817 446.967 214.558 446.1 216.025C445.234 217.492 443.992 218.617 442.375 219.4C440.759 220.167 438.85 220.55 436.65 220.55Z" fill="white"/>
<path d="M208.154 246L205.889 228.812H207.754L209.219 241.986L211.172 228.812H212.822L214.824 241.986L216.064 228.812H217.92L215.889 246H213.887L212.051 233.314L210.107 246H208.154ZM218.447 246L221.055 228.812H223.486L226.328 246H224.424L223.936 242.719H220.82L220.371 246H218.447ZM221.045 241.078H223.682L222.324 231.996H222.295L221.045 241.078ZM229.375 246V238.783L226.387 228.812H228.389L230.381 235.795H230.42L232.148 228.812H234.17L231.396 238.783V246H229.375ZM235.732 246V228.812H237.754V244.33H240.928V246H235.732ZM242.529 246V228.812H244.551V246H242.529ZM249.229 246L246.367 228.812H248.291L249.434 236.088L250.41 242.484H250.449L251.299 236.088L252.285 228.812H254.189L251.582 246H249.229ZM256.006 246V228.812H261.143V230.492H258.027V236.371H260.977V238.051H258.027V244.32H261.182V246H256.006ZM266.162 246.195C265.465 246.195 264.899 246.072 264.463 245.824C264.027 245.57 263.691 245.212 263.457 244.75C263.223 244.288 263.06 243.744 262.969 243.119C262.884 242.488 262.842 241.791 262.842 241.029V239.359H264.805V241.107C264.805 242.312 264.889 243.174 265.059 243.695C265.234 244.21 265.609 244.467 266.182 244.467C266.579 244.467 266.868 244.376 267.051 244.193C267.24 244.005 267.36 243.705 267.412 243.295C267.464 242.885 267.49 242.344 267.49 241.674C267.49 240.906 267.354 240.245 267.08 239.691C266.813 239.138 266.426 238.607 265.918 238.1L264.795 236.977C264.469 236.645 264.15 236.283 263.838 235.893C263.525 235.495 263.265 235.046 263.057 234.545C262.855 234.044 262.754 233.471 262.754 232.826C262.754 231.96 262.845 231.212 263.027 230.58C263.21 229.949 263.542 229.46 264.023 229.115C264.505 228.77 265.189 228.598 266.074 228.598C266.771 228.598 267.327 228.718 267.744 228.959C268.167 229.2 268.483 229.545 268.691 229.994C268.906 230.437 269.046 230.964 269.111 231.576C269.183 232.188 269.219 232.865 269.219 233.607V234.623H267.285V233.471C267.285 232.774 267.256 232.195 267.197 231.732C267.145 231.264 267.035 230.912 266.865 230.678C266.696 230.443 266.432 230.326 266.074 230.326C265.749 230.326 265.482 230.408 265.273 230.57C265.072 230.727 264.925 230.971 264.834 231.303C264.743 231.635 264.697 232.061 264.697 232.582C264.697 233.038 264.753 233.415 264.863 233.715C264.974 234.008 265.14 234.281 265.361 234.535C265.589 234.789 265.866 235.089 266.191 235.434L267.363 236.674C267.982 237.318 268.486 238.041 268.877 238.842C269.274 239.636 269.473 240.561 269.473 241.615C269.473 242.566 269.378 243.383 269.189 244.066C269.007 244.75 268.678 245.277 268.203 245.648C267.728 246.013 267.048 246.195 266.162 246.195ZM275.42 246L279.707 228.734H281.494L277.197 246H275.42ZM290.107 246L287.246 228.812H289.17L290.312 236.088L291.289 242.484H291.328L292.178 236.088L293.164 228.812H295.068L292.461 246H290.107ZM296.885 246V228.812H302.021V230.492H298.906V236.371H301.855V238.051H298.906V244.32H302.061V246H296.885ZM304.268 246V228.812H307.871C308.783 228.812 309.456 228.975 309.893 229.301C310.329 229.62 310.612 230.105 310.742 230.756C310.879 231.4 310.947 232.214 310.947 233.197C310.947 234.258 310.84 235.102 310.625 235.727C310.41 236.352 309.993 236.755 309.375 236.938C309.688 236.99 309.945 237.123 310.146 237.338C310.355 237.553 310.518 237.888 310.635 238.344C310.752 238.799 310.833 239.411 310.879 240.18C310.931 240.941 310.957 241.902 310.957 243.061C310.957 243.171 310.957 243.331 310.957 243.539C310.957 243.747 310.96 243.975 310.967 244.223C310.973 244.47 310.98 244.714 310.986 244.955C310.999 245.196 311.016 245.411 311.035 245.6C311.055 245.782 311.081 245.915 311.113 246H309.102C309.076 245.941 309.053 245.811 309.033 245.609C309.014 245.408 308.997 245.141 308.984 244.809C308.971 244.477 308.962 244.083 308.955 243.627C308.949 243.165 308.945 242.65 308.945 242.084C308.945 241.511 308.945 240.886 308.945 240.209C308.945 239.558 308.916 239.063 308.857 238.725C308.805 238.38 308.675 238.142 308.467 238.012C308.265 237.875 307.939 237.794 307.49 237.768L306.289 237.699V246H304.268ZM306.289 236.215H307.578C307.949 236.215 308.232 236.143 308.428 236C308.63 235.85 308.766 235.557 308.838 235.121C308.91 234.678 308.945 234.018 308.945 233.139V233.021C308.945 232.292 308.91 231.742 308.838 231.371C308.773 230.993 308.643 230.74 308.447 230.609C308.252 230.479 307.956 230.414 307.559 230.414H306.289V236.215ZM316.221 246.195C315.524 246.195 314.958 246.072 314.521 245.824C314.085 245.57 313.75 245.212 313.516 244.75C313.281 244.288 313.118 243.744 313.027 243.119C312.943 242.488 312.9 241.791 312.9 241.029V239.359H314.863V241.107C314.863 242.312 314.948 243.174 315.117 243.695C315.293 244.21 315.667 244.467 316.24 244.467C316.637 244.467 316.927 244.376 317.109 244.193C317.298 244.005 317.419 243.705 317.471 243.295C317.523 242.885 317.549 242.344 317.549 241.674C317.549 240.906 317.412 240.245 317.139 239.691C316.872 239.138 316.484 238.607 315.977 238.1L314.854 236.977C314.528 236.645 314.209 236.283 313.896 235.893C313.584 235.495 313.324 235.046 313.115 234.545C312.913 234.044 312.812 233.471 312.812 232.826C312.812 231.96 312.904 231.212 313.086 230.58C313.268 229.949 313.6 229.46 314.082 229.115C314.564 228.77 315.247 228.598 316.133 228.598C316.829 228.598 317.386 228.718 317.803 228.959C318.226 229.2 318.542 229.545 318.75 229.994C318.965 230.437 319.105 230.964 319.17 231.576C319.242 232.188 319.277 232.865 319.277 233.607V234.623H317.344V233.471C317.344 232.774 317.314 232.195 317.256 231.732C317.204 231.264 317.093 230.912 316.924 230.678C316.755 230.443 316.491 230.326 316.133 230.326C315.807 230.326 315.54 230.408 315.332 230.57C315.13 230.727 314.984 230.971 314.893 231.303C314.801 231.635 314.756 232.061 314.756 232.582C314.756 233.038 314.811 233.415 314.922 233.715C315.033 234.008 315.199 234.281 315.42 234.535C315.648 234.789 315.924 235.089 316.25 235.434L317.422 236.674C318.04 237.318 318.545 238.041 318.936 238.842C319.333 239.636 319.531 240.561 319.531 241.615C319.531 242.566 319.437 243.383 319.248 244.066C319.066 244.75 318.737 245.277 318.262 245.648C317.786 246.013 317.106 246.195 316.221 246.195ZM321.533 246V228.812H323.555V246H321.533ZM329.6 246.195C328.74 246.195 328.06 246.007 327.559 245.629C327.064 245.251 326.709 244.682 326.494 243.92C326.286 243.158 326.182 242.204 326.182 241.059V233.48C326.182 232.491 326.279 231.632 326.475 230.902C326.67 230.173 327.018 229.607 327.52 229.203C328.021 228.799 328.73 228.598 329.648 228.598C330.339 228.598 330.902 228.715 331.338 228.949C331.774 229.177 332.109 229.506 332.344 229.936C332.585 230.359 332.751 230.87 332.842 231.469C332.933 232.068 332.979 232.738 332.979 233.48V241.059C332.979 242.204 332.874 243.158 332.666 243.92C332.464 244.682 332.116 245.251 331.621 245.629C331.133 246.007 330.459 246.195 329.6 246.195ZM329.6 244.457C329.971 244.457 330.254 244.353 330.449 244.145C330.645 243.93 330.778 243.575 330.85 243.08C330.921 242.585 330.957 241.918 330.957 241.078V233.363C330.957 232.335 330.876 231.573 330.713 231.078C330.55 230.583 330.195 230.336 329.648 230.336C329.082 230.336 328.698 230.583 328.496 231.078C328.301 231.566 328.203 232.325 328.203 233.354V241.078C328.203 241.924 328.239 242.595 328.311 243.09C328.382 243.578 328.519 243.93 328.721 244.145C328.923 244.353 329.215 244.457 329.6 244.457ZM335.596 246V228.812H337.119L341.104 240.512L340.898 235.541V228.812H342.686V246H341.201L337.344 234.203L337.461 238.539V246H335.596ZM344.951 238.549V237.133H349.365V238.549H344.951ZM354.727 246V231.518C354.57 231.7 354.329 231.872 354.004 232.035C353.685 232.191 353.35 232.318 352.998 232.416C352.646 232.507 352.35 232.553 352.109 232.553V230.951C352.454 230.899 352.842 230.788 353.271 230.619C353.701 230.443 354.102 230.206 354.473 229.906C354.85 229.607 355.13 229.242 355.312 228.812H356.738V246H354.727ZM360.898 246V244.066H362.607V246H360.898ZM368.643 246.205C367.705 246.205 367.025 246.013 366.602 245.629C366.178 245.245 365.911 244.691 365.801 243.969C365.69 243.246 365.635 242.377 365.635 241.361V233.148C365.635 232.159 365.693 231.329 365.811 230.658C365.934 229.988 366.208 229.483 366.631 229.145C367.054 228.799 367.725 228.627 368.643 228.627C369.561 228.627 370.225 228.799 370.635 229.145C371.045 229.483 371.299 229.988 371.396 230.658C371.501 231.329 371.553 232.159 371.553 233.148V241.361C371.553 242.123 371.53 242.803 371.484 243.402C371.439 244.001 371.328 244.509 371.152 244.926C370.977 245.342 370.69 245.661 370.293 245.883C369.896 246.098 369.346 246.205 368.643 246.205ZM368.623 244.496C368.812 244.496 368.971 244.473 369.102 244.428C369.232 244.376 369.336 244.255 369.414 244.066C369.492 243.871 369.548 243.565 369.58 243.148C369.619 242.725 369.639 242.146 369.639 241.41V233.041C369.639 232.169 369.6 231.544 369.521 231.166C369.45 230.788 369.339 230.554 369.189 230.463C369.04 230.372 368.851 230.326 368.623 230.326C368.402 230.326 368.21 230.372 368.047 230.463C367.891 230.548 367.767 230.779 367.676 231.156C367.591 231.534 367.549 232.159 367.549 233.031V241.41C367.549 242.152 367.565 242.732 367.598 243.148C367.637 243.565 367.699 243.871 367.783 244.066C367.868 244.255 367.979 244.376 368.115 244.428C368.252 244.473 368.421 244.496 368.623 244.496ZM374.434 246V244.066H376.143V246H374.434ZM382.178 246.205C381.24 246.205 380.56 246.013 380.137 245.629C379.714 245.245 379.447 244.691 379.336 243.969C379.225 243.246 379.17 242.377 379.17 241.361V233.148C379.17 232.159 379.229 231.329 379.346 230.658C379.469 229.988 379.743 229.483 380.166 229.145C380.589 228.799 381.26 228.627 382.178 228.627C383.096 228.627 383.76 228.799 384.17 229.145C384.58 229.483 384.834 229.988 384.932 230.658C385.036 231.329 385.088 232.159 385.088 233.148V241.361C385.088 242.123 385.065 242.803 385.02 243.402C384.974 244.001 384.863 244.509 384.688 244.926C384.512 245.342 384.225 245.661 383.828 245.883C383.431 246.098 382.881 246.205 382.178 246.205ZM382.158 244.496C382.347 244.496 382.507 244.473 382.637 244.428C382.767 244.376 382.871 244.255 382.949 244.066C383.027 243.871 383.083 243.565 383.115 243.148C383.154 242.725 383.174 242.146 383.174 241.41V233.041C383.174 232.169 383.135 231.544 383.057 231.166C382.985 230.788 382.874 230.554 382.725 230.463C382.575 230.372 382.386 230.326 382.158 230.326C381.937 230.326 381.745 230.372 381.582 230.463C381.426 230.548 381.302 230.779 381.211 231.156C381.126 231.534 381.084 232.159 381.084 233.031V241.41C381.084 242.152 381.1 242.732 381.133 243.148C381.172 243.565 381.234 243.871 381.318 244.066C381.403 244.255 381.514 244.376 381.65 244.428C381.787 244.473 381.956 244.496 382.158 244.496ZM387.998 246V245.043C387.998 244.385 388.05 243.786 388.154 243.246C388.265 242.706 388.447 242.143 388.701 241.557C388.962 240.971 389.313 240.287 389.756 239.506L391.338 236.703C391.488 236.443 391.608 236.173 391.699 235.893C391.79 235.606 391.862 235.313 391.914 235.014C391.973 234.714 392.012 234.415 392.031 234.115C392.051 233.809 392.061 233.507 392.061 233.207C392.061 232.38 392.028 231.762 391.963 231.352C391.898 230.941 391.787 230.671 391.631 230.541C391.481 230.404 391.273 230.336 391.006 230.336C390.732 230.336 390.511 230.408 390.342 230.551C390.173 230.688 390.049 230.974 389.971 231.41C389.893 231.84 389.854 232.491 389.854 233.363V235.6H387.881V234.389C387.881 233.152 387.946 232.107 388.076 231.254C388.206 230.395 388.503 229.743 388.965 229.301C389.427 228.852 390.156 228.627 391.152 228.627C391.914 228.627 392.497 228.832 392.9 229.242C393.311 229.646 393.59 230.206 393.74 230.922C393.896 231.632 393.975 232.449 393.975 233.373C393.975 233.939 393.939 234.467 393.867 234.955C393.796 235.443 393.682 235.912 393.525 236.361C393.369 236.811 393.161 237.27 392.9 237.738L391.338 240.551C390.973 241.202 390.693 241.732 390.498 242.143C390.309 242.553 390.179 242.93 390.107 243.275C390.036 243.614 390 244.018 390 244.486H393.711V246H387.998Z" fill="#FFAEBD"/>
<rect x="296" y="87" width="6" height="53" fill="white"/>
<rect x="258" y="60" width="84" height="28" rx="7" fill="#E22648" stroke="white" stroke-width="6"/>
<circle cx="328" cy="74" r="6" fill="white"/>
<rect x="266" y="68" width="6" height="12" rx="3" fill="white"/>
<rect x="286" y="68" width="6" height="12" rx="3" fill="white"/>
<rect x="276" y="68" width="6" height="12" rx="3" fill="white"/>
<rect x="296" y="68" width="6" height="12" rx="3" fill="white"/>
<rect x="258" y="99" width="84" height="28" rx="7" fill="#E22648" stroke="white" stroke-width="6"/>
<circle cx="328" cy="113" r="6" fill="white"/>
<rect x="266" y="107" width="6" height="12" rx="3" fill="white"/>
<rect x="286" y="107" width="6" height="12" rx="3" fill="white"/>
<rect x="276" y="107" width="6" height="12" rx="3" fill="white"/>
<rect x="296" y="107" width="6" height="12" rx="3" fill="white"/>
<rect x="255" y="137" width="90" height="6" rx="3" fill="white"/>
<circle cx="299" cy="140" r="5" fill="#E22648" stroke="white" stroke-width="4"/>
</svg>
