<svg width="600" height="300" viewBox="0 0 600 300" fill="none" xmlns="http://www.w3.org/2000/svg">
<g clip-path="url(#clip0_61_124)">
<rect width="600" height="300" fill="#E22648"/>
<rect x="-408.11" y="251.088" width="800" height="40" transform="rotate(-30 -408.11 251.088)" fill="black" fill-opacity="0.06"/>
<rect x="-281.508" y="270.37" width="800" height="40" transform="rotate(-30 -281.508 270.37)" fill="black" fill-opacity="0.06"/>
<rect x="-141.915" y="282.152" width="800" height="40" transform="rotate(-30 -141.915 282.152)" fill="black" fill-opacity="0.06"/>
<rect x="-12.7143" y="299.934" width="800" height="40" transform="rotate(-30 -12.7143 299.934)" fill="black" fill-opacity="0.06"/>
<rect x="114.754" y="318.716" width="800" height="40" transform="rotate(-30 114.754 318.716)" fill="black" fill-opacity="0.06"/>
<rect x="234.429" y="341.998" width="800" height="40" transform="rotate(-30 234.429 341.998)" fill="black" fill-opacity="0.06"/>
<rect x="359.299" y="362.28" width="800" height="40" transform="rotate(-30 359.299 362.28)" fill="black" fill-opacity="0.06"/>
<mask id="path-8-outside-1_61_124" maskUnits="userSpaceOnUse" x="54" y="32" width="505" height="66" fill="black">
<rect fill="white" x="54" y="32" width="505" height="66"/>
<path d="M64.2841 87V43.3636H90.4489V48.0511H69.5682V62.7955H88.4886V67.483H69.5682V87H64.2841ZM105.499 87V43.3636H120.243C123.652 43.3636 126.451 43.946 128.638 45.1108C130.826 46.2614 132.445 47.8452 133.496 49.8622C134.547 51.8793 135.073 54.1733 135.073 56.7443C135.073 59.3153 134.547 61.5952 133.496 63.5838C132.445 65.5724 130.833 67.1349 128.659 68.2713C126.486 69.3935 123.709 69.9545 120.328 69.9545H108.397V65.1818H120.158C122.488 65.1818 124.363 64.8409 125.783 64.1591C127.218 63.4773 128.255 62.5114 128.894 61.2614C129.547 59.9972 129.874 58.4915 129.874 56.7443C129.874 54.9972 129.547 53.4702 128.894 52.1634C128.24 50.8565 127.196 49.848 125.762 49.1378C124.327 48.4134 122.431 48.0511 120.073 48.0511H110.783V87H105.499ZM126.039 67.3977L136.777 87H130.641L120.073 67.3977H126.039ZM149.878 87V43.3636H176.213V48.0511H155.162V62.7955H174.849V67.483H155.162V82.3125H176.554V87H149.878ZM191.737 87V43.3636H218.072V48.0511H197.021V62.7955H216.709V67.483H197.021V82.3125H218.413V87H191.737ZM280.335 54.2727C280.08 52.1136 279.043 50.4375 277.224 49.2443C275.406 48.0511 273.176 47.4545 270.534 47.4545C268.602 47.4545 266.912 47.767 265.463 48.392C264.028 49.017 262.906 49.8764 262.097 50.9702C261.301 52.0639 260.903 53.3068 260.903 54.6989C260.903 55.8636 261.18 56.8651 261.734 57.7031C262.303 58.527 263.027 59.2159 263.908 59.7699C264.788 60.3097 265.712 60.7571 266.678 61.1122C267.643 61.4531 268.531 61.7301 269.341 61.9432L273.773 63.1364C274.909 63.4347 276.173 63.8466 277.565 64.3722C278.972 64.8977 280.314 65.6151 281.592 66.5241C282.885 67.419 283.95 68.5696 284.788 69.9759C285.626 71.3821 286.045 73.108 286.045 75.1534C286.045 77.5114 285.428 79.642 284.192 81.5455C282.97 83.4489 281.18 84.9616 278.822 86.0838C276.479 87.206 273.631 87.767 270.278 87.767C267.153 87.767 264.447 87.2628 262.161 86.2543C259.888 85.2457 258.098 83.8395 256.791 82.0355C255.499 80.2315 254.767 78.1364 254.597 75.75H260.051C260.193 77.3977 260.747 78.7614 261.713 79.8409C262.693 80.9062 263.929 81.7017 265.42 82.2273C266.926 82.7386 268.545 82.9943 270.278 82.9943C272.295 82.9943 274.107 82.6676 275.712 82.0142C277.317 81.3466 278.588 80.4233 279.526 79.2443C280.463 78.0511 280.932 76.6591 280.932 75.0682C280.932 73.6193 280.527 72.4403 279.717 71.5312C278.908 70.6222 277.842 69.8835 276.521 69.3153C275.2 68.7472 273.773 68.25 272.239 67.8239L266.869 66.2898C263.46 65.3097 260.761 63.9105 258.773 62.0923C256.784 60.2741 255.79 57.8949 255.79 54.9545C255.79 52.5114 256.45 50.3807 257.771 48.5625C259.107 46.7301 260.896 45.3097 263.141 44.3011C265.399 43.2784 267.92 42.767 270.705 42.767C273.517 42.767 276.017 43.2713 278.205 44.2798C280.392 45.2741 282.125 46.6378 283.403 48.3707C284.696 50.1037 285.378 52.071 285.449 54.2727H280.335ZM300.733 87V43.3636H327.069V48.0511H306.017V62.7955H325.705V67.483H306.017V82.3125H327.409V87H300.733ZM342.593 87V43.3636H357.337C360.746 43.3636 363.544 43.946 365.732 45.1108C367.919 46.2614 369.539 47.8452 370.59 49.8622C371.641 51.8793 372.167 54.1733 372.167 56.7443C372.167 59.3153 371.641 61.5952 370.59 63.5838C369.539 65.5724 367.926 67.1349 365.753 68.2713C363.58 69.3935 360.803 69.9545 357.422 69.9545H345.49V65.1818H357.252C359.581 65.1818 361.456 64.8409 362.877 64.1591C364.311 63.4773 365.348 62.5114 365.988 61.2614C366.641 59.9972 366.968 58.4915 366.968 56.7443C366.968 54.9972 366.641 53.4702 365.988 52.1634C365.334 50.8565 364.29 49.848 362.855 49.1378C361.421 48.4134 359.525 48.0511 357.167 48.0511H347.877V87H342.593ZM363.132 67.3977L373.871 87H367.735L357.167 67.3977H363.132ZM387.765 43.3636L400.72 80.0966H401.231L414.186 43.3636H419.725L403.703 87H398.248L382.225 43.3636H387.765ZM432.522 87V43.3636H458.858V48.0511H437.806V62.7955H457.494V67.483H437.806V82.3125H459.199V87H432.522ZM474.382 87V43.3636H489.126C492.535 43.3636 495.333 43.946 497.521 45.1108C499.708 46.2614 501.328 47.8452 502.379 49.8622C503.43 51.8793 503.956 54.1733 503.956 56.7443C503.956 59.3153 503.43 61.5952 502.379 63.5838C501.328 65.5724 499.716 67.1349 497.542 68.2713C495.369 69.3935 492.592 69.9545 489.211 69.9545H477.279V65.1818H489.041C491.37 65.1818 493.245 64.8409 494.666 64.1591C496.1 63.4773 497.137 62.5114 497.777 61.2614C498.43 59.9972 498.757 58.4915 498.757 56.7443C498.757 54.9972 498.43 53.4702 497.777 52.1634C497.123 50.8565 496.079 49.848 494.645 49.1378C493.21 48.4134 491.314 48.0511 488.956 48.0511H479.666V87H474.382ZM494.922 67.3977L505.66 87H499.524L488.956 67.3977H494.922ZM542.624 54.2727C542.369 52.1136 541.332 50.4375 539.513 49.2443C537.695 48.0511 535.465 47.4545 532.823 47.4545C530.891 47.4545 529.201 47.767 527.752 48.392C526.317 49.017 525.195 49.8764 524.386 50.9702C523.59 52.0639 523.192 53.3068 523.192 54.6989C523.192 55.8636 523.469 56.8651 524.023 57.7031C524.592 58.527 525.316 59.2159 526.197 59.7699C527.077 60.3097 528.001 60.7571 528.967 61.1122C529.933 61.4531 530.82 61.7301 531.63 61.9432L536.062 63.1364C537.198 63.4347 538.462 63.8466 539.854 64.3722C541.261 64.8977 542.603 65.6151 543.881 66.5241C545.174 67.419 546.239 68.5696 547.077 69.9759C547.915 71.3821 548.335 73.108 548.335 75.1534C548.335 77.5114 547.717 79.642 546.481 81.5455C545.259 83.4489 543.469 84.9616 541.112 86.0838C538.768 87.206 535.92 87.767 532.567 87.767C529.442 87.767 526.737 87.2628 524.45 86.2543C522.177 85.2457 520.387 83.8395 519.08 82.0355C517.788 80.2315 517.056 78.1364 516.886 75.75H522.34C522.482 77.3977 523.036 78.7614 524.002 79.8409C524.982 80.9062 526.218 81.7017 527.71 82.2273C529.215 82.7386 530.835 82.9943 532.567 82.9943C534.585 82.9943 536.396 82.6676 538.001 82.0142C539.606 81.3466 540.877 80.4233 541.815 79.2443C542.752 78.0511 543.221 76.6591 543.221 75.0682C543.221 73.6193 542.816 72.4403 542.006 71.5312C541.197 70.6222 540.131 69.8835 538.81 69.3153C537.489 68.7472 536.062 68.25 534.528 67.8239L529.158 66.2898C525.749 65.3097 523.05 63.9105 521.062 62.0923C519.073 60.2741 518.079 57.8949 518.079 54.9545C518.079 52.5114 518.739 50.3807 520.06 48.5625C521.396 46.7301 523.185 45.3097 525.43 44.3011C527.688 43.2784 530.21 42.767 532.994 42.767C535.806 42.767 538.306 43.2713 540.494 44.2798C542.681 45.2741 544.414 46.6378 545.692 48.3707C546.985 50.1037 547.667 52.071 547.738 54.2727H542.624Z"/>
</mask>
<path d="M64.2841 87H54.2841C54.2841 92.5228 58.7612 97 64.2841 97L64.2841 87ZM64.2841 43.3636V33.3636C58.7612 33.3636 54.2841 37.8408 54.2841 43.3636H64.2841ZM90.4489 43.3636H100.449C100.449 37.8408 95.9717 33.3636 90.4489 33.3636V43.3636ZM90.4489 48.0511V58.0511C95.9717 58.0511 100.449 53.574 100.449 48.0511H90.4489ZM69.5682 48.0511V38.0511C64.0453 38.0511 59.5682 42.5283 59.5682 48.0511H69.5682ZM69.5682 62.7955H59.5682C59.5682 68.3183 64.0453 72.7955 69.5682 72.7955L69.5682 62.7955ZM88.4886 62.7955H98.4886C98.4886 57.2726 94.0115 52.7955 88.4886 52.7955V62.7955ZM88.4886 67.483V77.483C94.0115 77.483 98.4886 73.0058 98.4886 67.483H88.4886ZM69.5682 67.483V57.483C64.0453 57.483 59.5682 61.9601 59.5682 67.483H69.5682ZM69.5682 87V97C75.091 97 79.5682 92.5228 79.5682 87H69.5682ZM74.2841 87V43.3636H54.2841V87H74.2841ZM64.2841 53.3636H90.4489V33.3636H64.2841V53.3636ZM80.4489 43.3636V48.0511H100.449V43.3636H80.4489ZM90.4489 38.0511H69.5682V58.0511H90.4489V38.0511ZM59.5682 48.0511V62.7955H79.5682V48.0511H59.5682ZM69.5682 72.7955H88.4886V52.7955H69.5682V72.7955ZM78.4886 62.7955V67.483H98.4886V62.7955H78.4886ZM88.4886 57.483H69.5682V77.483H88.4886V57.483ZM59.5682 67.483V87H79.5682V67.483H59.5682ZM69.5682 77H64.2841V97H69.5682V77ZM105.499 87H95.4989C95.4989 92.5228 99.9761 97 105.499 97V87ZM105.499 43.3636V33.3636C99.9761 33.3636 95.4989 37.8408 95.4989 43.3636H105.499ZM128.638 45.1108L123.938 53.9375C123.953 53.9454 123.968 53.9534 123.983 53.9612L128.638 45.1108ZM133.496 49.8622L124.628 54.4836L124.628 54.4836L133.496 49.8622ZM133.496 63.5838L124.655 58.9107V58.9107L133.496 63.5838ZM128.659 68.2713L133.247 77.1567C133.263 77.1489 133.278 77.141 133.293 77.133L128.659 68.2713ZM108.397 69.9545H98.3967C98.3967 75.4774 102.874 79.9545 108.397 79.9545V69.9545ZM108.397 65.1818V55.1818C102.874 55.1818 98.3967 59.659 98.3967 65.1818H108.397ZM125.783 64.1591L121.491 55.1272C121.479 55.1327 121.467 55.1383 121.456 55.1439L125.783 64.1591ZM128.894 61.2614L120.01 56.6699C120.004 56.6827 119.997 56.6956 119.99 56.7085L128.894 61.2614ZM125.762 49.1378L121.254 58.0643C121.278 58.0762 121.301 58.088 121.325 58.0997L125.762 49.1378ZM110.783 48.0511V38.0511C105.26 38.0511 100.783 42.5283 100.783 48.0511H110.783ZM110.783 87V97C116.306 97 120.783 92.5228 120.783 87H110.783ZM126.039 67.3977L134.809 62.5932C133.054 59.3895 129.692 57.3977 126.039 57.3977V67.3977ZM136.777 87V97C140.31 97 143.58 95.1361 145.381 92.0968C147.181 89.0574 147.245 85.2936 145.548 82.1955L136.777 87ZM130.641 87L121.839 91.7456C123.584 94.9821 126.964 97 130.641 97V87ZM120.073 67.3977V57.3977C116.552 57.3977 113.291 59.2491 111.486 62.2721C109.682 65.2951 109.6 69.0443 111.271 72.1433L120.073 67.3977ZM115.499 87V43.3636H95.4989V87H115.499ZM105.499 53.3636H120.243V33.3636H105.499V53.3636ZM120.243 53.3636C122.598 53.3636 123.638 53.7777 123.938 53.9375L133.338 36.2841C129.263 34.1143 124.707 33.3636 120.243 33.3636V53.3636ZM123.983 53.9612C124.532 54.2501 124.6 54.4298 124.628 54.4836L142.364 45.2408C140.29 41.2605 137.119 38.2726 133.293 36.2604L123.983 53.9612ZM124.628 54.4836C124.843 54.8968 125.073 55.5704 125.073 56.7443H145.073C145.073 52.7762 144.251 48.8617 142.364 45.2408L124.628 54.4836ZM125.073 56.7443C125.073 57.9214 124.842 58.5564 124.655 58.9107L142.337 68.2569C144.252 64.6339 145.073 60.7093 145.073 56.7443H125.073ZM124.655 58.9107C124.636 58.9473 124.575 59.1226 124.026 59.4096L133.293 77.133C137.091 75.1473 140.254 72.1976 142.337 68.2569L124.655 58.9107ZM124.072 59.3859C123.753 59.5501 122.69 59.9545 120.328 59.9545V79.9545C124.728 79.9545 129.219 79.2368 133.247 77.1567L124.072 59.3859ZM120.328 59.9545H108.397V79.9545H120.328V59.9545ZM118.397 69.9545V65.1818H98.3967V69.9545H118.397ZM108.397 75.1818H120.158V55.1818H108.397V75.1818ZM120.158 75.1818C123.327 75.1818 126.851 74.739 130.11 73.1743L121.456 55.1439C121.699 55.0273 121.758 55.0446 121.523 55.0874C121.288 55.13 120.85 55.1818 120.158 55.1818V75.1818ZM130.075 73.191C133.224 71.6947 136.026 69.2783 137.797 65.8143L119.99 56.7085C120.206 56.2878 120.496 55.9085 120.821 55.6061C121.135 55.3131 121.394 55.173 121.491 55.1272L130.075 73.191ZM137.777 65.8529C139.313 62.8819 139.874 59.7308 139.874 56.7443H119.874C119.874 56.9981 119.85 57.0928 119.856 57.0635C119.86 57.0478 119.871 57.0021 119.895 56.9321C119.92 56.8617 119.957 56.7723 120.01 56.6699L137.777 65.8529ZM139.874 56.7443C139.874 53.7459 139.309 50.633 137.838 47.6912L119.95 56.6355C119.913 56.5625 119.888 56.5002 119.872 56.4534C119.864 56.4304 119.859 56.4124 119.855 56.3998C119.852 56.3873 119.85 56.3808 119.85 56.3809C119.85 56.3811 119.874 56.4922 119.874 56.7443H139.874ZM137.838 47.6912C136.117 44.2487 133.387 41.7543 130.198 40.1758L121.325 58.0997C121.213 58.0444 120.964 57.9001 120.673 57.6192C120.375 57.3311 120.126 56.9886 119.95 56.6355L137.838 47.6912ZM130.269 40.2113C126.938 38.5291 123.321 38.0511 120.073 38.0511V58.0511C120.755 58.0511 121.175 58.1047 121.387 58.1452C121.598 58.1855 121.515 58.1961 121.254 58.0643L130.269 40.2113ZM120.073 38.0511H110.783V58.0511H120.073V38.0511ZM100.783 48.0511V87H120.783V48.0511H100.783ZM110.783 77H105.499V97H110.783V77ZM117.269 72.2023L128.007 91.8045L145.548 82.1955L134.809 62.5932L117.269 72.2023ZM136.777 77H130.641V97H136.777V77ZM139.443 82.2544L128.875 62.6522L111.271 72.1433L121.839 91.7456L139.443 82.2544ZM120.073 77.3977H126.039V57.3977H120.073V77.3977ZM149.878 87H139.878C139.878 92.5228 144.355 97 149.878 97V87ZM149.878 43.3636V33.3636C144.355 33.3636 139.878 37.8408 139.878 43.3636H149.878ZM176.213 43.3636H186.213C186.213 37.8408 181.736 33.3636 176.213 33.3636V43.3636ZM176.213 48.0511V58.0511C181.736 58.0511 186.213 53.574 186.213 48.0511H176.213ZM155.162 48.0511V38.0511C149.639 38.0511 145.162 42.5283 145.162 48.0511H155.162ZM155.162 62.7955H145.162C145.162 68.3183 149.639 72.7955 155.162 72.7955V62.7955ZM174.849 62.7955H184.849C184.849 57.2726 180.372 52.7955 174.849 52.7955V62.7955ZM174.849 67.483V77.483C180.372 77.483 184.849 73.0058 184.849 67.483H174.849ZM155.162 67.483V57.483C149.639 57.483 145.162 61.9601 145.162 67.483H155.162ZM155.162 82.3125H145.162C145.162 87.8353 149.639 92.3125 155.162 92.3125V82.3125ZM176.554 82.3125H186.554C186.554 76.7897 182.077 72.3125 176.554 72.3125V82.3125ZM176.554 87V97C182.077 97 186.554 92.5228 186.554 87H176.554ZM159.878 87V43.3636H139.878V87H159.878ZM149.878 53.3636H176.213V33.3636H149.878V53.3636ZM166.213 43.3636V48.0511H186.213V43.3636H166.213ZM176.213 38.0511H155.162V58.0511H176.213V38.0511ZM145.162 48.0511V62.7955H165.162V48.0511H145.162ZM155.162 72.7955H174.849V52.7955H155.162V72.7955ZM164.849 62.7955V67.483H184.849V62.7955H164.849ZM174.849 57.483H155.162V77.483H174.849V57.483ZM145.162 67.483V82.3125H165.162V67.483H145.162ZM155.162 92.3125H176.554V72.3125H155.162V92.3125ZM166.554 82.3125V87H186.554V82.3125H166.554ZM176.554 77H149.878V97H176.554V77ZM191.737 87H181.737C181.737 92.5228 186.214 97 191.737 97V87ZM191.737 43.3636V33.3636C186.214 33.3636 181.737 37.8408 181.737 43.3636H191.737ZM218.072 43.3636H228.072C228.072 37.8408 223.595 33.3636 218.072 33.3636V43.3636ZM218.072 48.0511V58.0511C223.595 58.0511 228.072 53.574 228.072 48.0511H218.072ZM197.021 48.0511V38.0511C191.498 38.0511 187.021 42.5283 187.021 48.0511H197.021ZM197.021 62.7955H187.021C187.021 68.3183 191.498 72.7955 197.021 72.7955V62.7955ZM216.709 62.7955H226.709C226.709 57.2726 222.232 52.7955 216.709 52.7955V62.7955ZM216.709 67.483V77.483C222.232 77.483 226.709 73.0058 226.709 67.483H216.709ZM197.021 67.483V57.483C191.498 57.483 187.021 61.9601 187.021 67.483H197.021ZM197.021 82.3125H187.021C187.021 87.8353 191.498 92.3125 197.021 92.3125V82.3125ZM218.413 82.3125H228.413C228.413 76.7897 223.936 72.3125 218.413 72.3125V82.3125ZM218.413 87V97C223.936 97 228.413 92.5228 228.413 87H218.413ZM201.737 87V43.3636H181.737V87H201.737ZM191.737 53.3636H218.072V33.3636H191.737V53.3636ZM208.072 43.3636V48.0511H228.072V43.3636H208.072ZM218.072 38.0511H197.021V58.0511H218.072V38.0511ZM187.021 48.0511V62.7955H207.021V48.0511H187.021ZM197.021 72.7955H216.709V52.7955H197.021V72.7955ZM206.709 62.7955V67.483H226.709V62.7955H206.709ZM216.709 57.483H197.021V77.483H216.709V57.483ZM187.021 67.483V82.3125H207.021V67.483H187.021ZM197.021 92.3125H218.413V72.3125H197.021V92.3125ZM208.413 82.3125V87H228.413V82.3125H208.413ZM218.413 77H191.737V97H218.413V77ZM280.335 54.2727L270.405 55.4487C271.001 60.4815 275.267 64.2727 280.335 64.2727V54.2727ZM277.224 49.2443L271.738 57.6048L277.224 49.2443ZM265.463 48.392L261.502 39.2099C261.491 39.2147 261.48 39.2194 261.469 39.2242L265.463 48.392ZM262.097 50.9702L254.059 45.0204C254.042 45.043 254.026 45.0657 254.009 45.0885L262.097 50.9702ZM261.734 57.7031L253.392 63.2174C253.428 63.2721 253.465 63.3265 253.502 63.3805L261.734 57.7031ZM263.908 59.7699L258.583 68.2345C258.616 68.2552 258.649 68.2756 258.682 68.2959L263.908 59.7699ZM266.678 61.1122L263.227 70.498C263.268 70.513 263.308 70.5277 263.349 70.5421L266.678 61.1122ZM269.341 61.9432L271.941 52.287C271.922 52.2821 271.904 52.2772 271.886 52.2724L269.341 61.9432ZM273.773 63.1364L271.173 72.7925C271.193 72.798 271.213 72.8034 271.234 72.8087L273.773 63.1364ZM277.565 64.3722L274.033 73.7276C274.044 73.7315 274.054 73.7354 274.064 73.7393L277.565 64.3722ZM281.592 66.5241L275.797 74.6737C275.831 74.698 275.866 74.7222 275.9 74.7461L281.592 66.5241ZM284.788 69.9759L293.379 64.8564V64.8564L284.788 69.9759ZM284.192 81.5455L275.804 76.1C275.795 76.1147 275.785 76.1294 275.776 76.1442L284.192 81.5455ZM278.822 86.0838L274.525 77.0542C274.518 77.0576 274.511 77.0609 274.504 77.0643L278.822 86.0838ZM262.161 86.2543L258.104 95.3947C258.111 95.3979 258.118 95.401 258.126 95.4041L262.161 86.2543ZM256.791 82.0355L248.663 87.86C248.673 87.874 248.683 87.8881 248.693 87.9021L256.791 82.0355ZM254.597 75.75V65.75C251.821 65.75 249.17 66.9039 247.278 68.9355C245.386 70.9671 244.424 73.6936 244.622 76.4625L254.597 75.75ZM260.051 75.75L270.014 74.8911C269.568 69.7204 265.241 65.75 260.051 65.75V75.75ZM261.713 79.8409L254.261 86.5089C254.291 86.5433 254.322 86.5775 254.354 86.6115L261.713 79.8409ZM265.42 82.2273L262.097 91.6588C262.133 91.6715 262.169 91.6839 262.205 91.6961L265.42 82.2273ZM275.712 82.0142L279.482 91.2762C279.505 91.2667 279.529 91.2571 279.552 91.2474L275.712 82.0142ZM279.526 79.2443L287.353 85.4682C287.365 85.453 287.377 85.4378 287.389 85.4225L279.526 79.2443ZM279.717 71.5312L287.185 64.8804L279.717 71.5312ZM276.521 69.3153L272.57 78.5017L272.57 78.5017L276.521 69.3153ZM272.239 67.8239L269.491 77.4391C269.515 77.4458 269.539 77.4525 269.562 77.459L272.239 67.8239ZM266.869 66.2898L264.106 75.9005C264.112 75.902 264.117 75.9035 264.122 75.905L266.869 66.2898ZM258.773 62.0923L252.025 69.4726V69.4726L258.773 62.0923ZM257.771 48.5625L249.689 42.6733L249.681 42.6845L257.771 48.5625ZM263.141 44.3011L267.239 53.4225C267.248 53.4186 267.257 53.4146 267.266 53.4107L263.141 44.3011ZM278.205 44.2798L274.018 53.3611C274.034 53.3686 274.05 53.3761 274.067 53.3835L278.205 44.2798ZM283.403 48.3707L275.356 54.3072C275.367 54.3214 275.377 54.3356 275.388 54.3497L283.403 48.3707ZM285.449 54.2727V64.2727C288.157 64.2727 290.749 63.1744 292.633 61.2289C294.517 59.2833 295.531 56.657 295.444 53.9503L285.449 54.2727ZM290.266 53.0967C289.663 48.0031 286.998 43.6974 282.711 40.8838L271.738 57.6048C271.554 57.4844 271.187 57.1836 270.862 56.6574C270.536 56.1311 270.431 55.6677 270.405 55.4487L290.266 53.0967ZM282.711 40.8838C278.942 38.4105 274.703 37.4545 270.534 37.4545V57.4545C271.106 57.4545 271.443 57.5192 271.604 57.5623C271.752 57.6019 271.774 57.6286 271.738 57.6048L282.711 40.8838ZM270.534 37.4545C267.538 37.4545 264.449 37.9388 261.502 39.2099L269.424 57.5742C269.375 57.5953 269.667 57.4545 270.534 57.4545V37.4545ZM261.469 39.2242C258.672 40.4427 256.059 42.3185 254.059 45.0204L270.134 56.9199C269.961 57.1531 269.778 57.328 269.626 57.4446C269.479 57.5568 269.404 57.583 269.457 57.5599L261.469 39.2242ZM254.009 45.0885C251.932 47.9443 250.903 51.2597 250.903 54.6989H270.903C270.903 54.9682 270.863 55.3429 270.726 55.7704C270.588 56.2008 270.39 56.5684 270.184 56.8519L254.009 45.0885ZM250.903 54.6989C250.903 57.5042 251.593 60.4954 253.392 63.2174L270.077 52.1888C270.768 53.2348 270.903 54.2231 270.903 54.6989H250.903ZM253.502 63.3805C254.871 65.3653 256.601 66.9875 258.583 68.2345L269.232 51.3053C269.33 51.367 269.458 51.4605 269.595 51.5913C269.733 51.7227 269.859 51.8705 269.966 52.0258L253.502 63.3805ZM258.682 68.2959C260.123 69.1788 261.64 69.9146 263.227 70.498L270.128 51.7264C269.783 51.5996 269.454 51.4406 269.133 51.2439L258.682 68.2959ZM263.349 70.5421C264.518 70.9548 265.672 71.318 266.796 71.6139L271.886 52.2724C271.391 52.1422 270.768 51.9515 270.006 51.6823L263.349 70.5421ZM266.741 71.5993L271.173 72.7925L276.372 53.4802L271.941 52.287L266.741 71.5993ZM271.234 72.8087C271.959 72.9991 272.885 73.2942 274.033 73.7276L281.097 55.0167C279.461 54.399 277.859 53.8702 276.312 53.4641L271.234 72.8087ZM274.064 73.7393C274.62 73.9471 275.195 74.2458 275.797 74.6737L287.388 58.3746C285.432 56.9843 283.323 55.8483 281.066 55.005L274.064 73.7393ZM275.9 74.7461C275.967 74.7924 276.062 74.8667 276.198 75.0953L293.379 64.8564C291.839 62.2725 289.803 60.0457 287.284 58.3022L275.9 74.7461ZM276.198 75.0953C276.134 74.9871 276.088 74.891 276.058 74.8153C276.028 74.7402 276.016 74.6937 276.014 74.6844C276.01 74.6686 276.045 74.8083 276.045 75.1534H296.045C296.045 71.7512 295.343 68.1535 293.379 64.8564L276.198 75.0953ZM276.045 75.1534C276.045 75.6581 275.945 75.8832 275.804 76.1L292.579 86.9909C294.91 83.4009 296.045 79.3647 296.045 75.1534H276.045ZM275.776 76.1442C275.71 76.2473 275.464 76.6073 274.525 77.0542L283.12 95.1134C286.897 93.316 290.231 90.6504 292.608 86.9467L275.776 76.1442ZM274.504 77.0643C273.84 77.382 272.554 77.767 270.278 77.767V97.767C274.707 97.767 279.117 97.0299 283.141 95.1033L274.504 77.0643ZM270.278 77.767C268.206 77.767 266.935 77.4307 266.196 77.1045L258.126 95.4041C261.96 97.0949 266.101 97.767 270.278 97.767V77.767ZM266.217 77.1138C265.365 76.7358 265.045 76.3833 264.89 76.169L248.693 87.9021C251.151 91.2957 254.411 93.7557 258.104 95.3947L266.217 77.1138ZM264.92 76.211C264.787 76.0251 264.621 75.7314 264.571 75.0375L244.622 76.4625C244.913 80.5413 246.21 84.4379 248.663 87.86L264.92 76.211ZM254.597 85.75H260.051V65.75H254.597V85.75ZM250.088 76.6089C250.389 80.0945 251.651 83.5923 254.261 86.5089L269.165 73.173C269.462 73.5038 269.689 73.879 269.838 74.2448C269.981 74.5975 270.01 74.8388 270.014 74.8911L250.088 76.6089ZM254.354 86.6115C256.541 88.9893 259.209 90.641 262.097 91.6588L268.744 72.7957C268.677 72.772 268.704 72.7739 268.787 72.8279C268.875 72.884 268.977 72.9668 269.072 73.0703L254.354 86.6115ZM262.205 91.6961C264.835 92.5894 267.55 92.9943 270.278 92.9943V72.9943C269.541 72.9943 269.017 72.8879 268.636 72.7585L262.205 91.6961ZM270.278 92.9943C273.379 92.9943 276.5 92.49 279.482 91.2762L271.941 72.7522C271.713 72.8452 271.212 72.9943 270.278 72.9943V92.9943ZM279.552 91.2474C282.476 90.0311 285.21 88.1631 287.353 85.4682L271.699 73.0204C271.816 72.8721 271.928 72.7765 271.993 72.7298C272.052 72.6869 272.028 72.7157 271.871 72.781L279.552 91.2474ZM287.389 85.4225C289.781 82.3779 290.932 78.783 290.932 75.0682H270.932C270.932 74.8686 270.964 74.5285 271.103 74.1141C271.245 73.6941 271.45 73.3358 271.662 73.0661L287.389 85.4225ZM290.932 75.0682C290.932 71.6587 289.926 67.9576 287.185 64.8804L272.25 78.1821C271.75 77.6215 271.388 76.9799 271.17 76.3449C270.961 75.7351 270.932 75.2731 270.932 75.0682H290.932ZM287.185 64.8804C285.242 62.6988 282.896 61.1713 280.472 60.129L272.57 78.5017C272.683 78.5503 272.685 78.563 272.613 78.5134C272.538 78.4613 272.404 78.355 272.25 78.1821L287.185 64.8804ZM280.472 60.129C278.696 59.3649 276.838 58.7229 274.915 58.1887L269.562 77.459C270.707 77.7771 271.705 78.1294 272.57 78.5017L280.472 60.129ZM274.986 58.2086L269.617 56.6745L264.122 75.905L269.491 77.4391L274.986 58.2086ZM269.632 56.6791C267.256 55.9957 266.069 55.2137 265.52 54.712L252.025 69.4726C255.454 72.6073 259.665 74.6236 264.106 75.9005L269.632 56.6791ZM265.52 54.712C265.52 54.7115 265.531 54.7213 265.549 54.7423C265.568 54.7633 265.592 54.7929 265.619 54.8307C265.676 54.9108 265.726 55.0007 265.762 55.0883C265.798 55.1744 265.807 55.224 265.806 55.2173C265.804 55.2078 265.79 55.1258 265.79 54.9545H245.79C245.79 60.4163 247.762 65.5751 252.025 69.4726L265.52 54.712ZM265.79 54.9545C265.79 54.6419 265.831 54.5049 265.837 54.4851C265.839 54.4772 265.841 54.473 265.841 54.4717C265.842 54.4703 265.842 54.4699 265.842 54.4697C265.842 54.4695 265.843 54.4677 265.846 54.4638C265.848 54.4598 265.853 54.4521 265.861 54.4405L249.681 42.6845C247.009 46.3618 245.79 50.5936 245.79 54.9545H265.79ZM265.853 54.4517C266.078 54.1431 266.442 53.7808 267.239 53.4225L259.042 35.1798C255.351 36.8385 252.135 39.3171 249.689 42.6733L265.853 54.4517ZM267.266 53.4107C268.077 53.0431 269.168 52.767 270.705 52.767V32.767C266.673 32.767 262.721 33.5137 259.016 35.1916L267.266 53.4107ZM270.705 52.767C272.312 52.767 273.345 53.0511 274.018 53.3611L282.391 35.1985C278.689 33.4915 274.722 32.767 270.705 32.767V52.767ZM274.067 53.3835C274.886 53.7558 275.203 54.0993 275.356 54.3072L291.451 42.4343C289.047 39.1763 285.898 36.7925 282.343 35.1762L274.067 53.3835ZM275.388 54.3497C275.42 54.3925 275.433 54.4164 275.436 54.422C275.439 54.4273 275.437 54.4256 275.436 54.4206C275.434 54.4157 275.436 54.4211 275.44 54.4424C275.444 54.4644 275.451 54.5133 275.454 54.5951L295.444 53.9503C295.308 49.7464 293.959 45.7964 291.419 42.3918L275.388 54.3497ZM285.449 44.2727H280.335V64.2727H285.449V44.2727ZM300.733 87H290.733C290.733 92.5228 295.21 97 300.733 97V87ZM300.733 43.3636V33.3636C295.21 33.3636 290.733 37.8408 290.733 43.3636H300.733ZM327.069 43.3636H337.069C337.069 37.8408 332.591 33.3636 327.069 33.3636V43.3636ZM327.069 48.0511V58.0511C332.591 58.0511 337.069 53.574 337.069 48.0511H327.069ZM306.017 48.0511V38.0511C300.495 38.0511 296.017 42.5283 296.017 48.0511H306.017ZM306.017 62.7955H296.017C296.017 68.3183 300.495 72.7955 306.017 72.7955V62.7955ZM325.705 62.7955H335.705C335.705 57.2726 331.228 52.7955 325.705 52.7955V62.7955ZM325.705 67.483V77.483C331.228 77.483 335.705 73.0058 335.705 67.483H325.705ZM306.017 67.483V57.483C300.495 57.483 296.017 61.9601 296.017 67.483H306.017ZM306.017 82.3125H296.017C296.017 87.8353 300.495 92.3125 306.017 92.3125V82.3125ZM327.409 82.3125H337.409C337.409 76.7897 332.932 72.3125 327.409 72.3125V82.3125ZM327.409 87V97C332.932 97 337.409 92.5228 337.409 87H327.409ZM310.733 87V43.3636H290.733V87H310.733ZM300.733 53.3636H327.069V33.3636H300.733V53.3636ZM317.069 43.3636V48.0511H337.069V43.3636H317.069ZM327.069 38.0511H306.017V58.0511H327.069V38.0511ZM296.017 48.0511V62.7955H316.017V48.0511H296.017ZM306.017 72.7955H325.705V52.7955H306.017V72.7955ZM315.705 62.7955V67.483H335.705V62.7955H315.705ZM325.705 57.483H306.017V77.483H325.705V57.483ZM296.017 67.483V82.3125H316.017V67.483H296.017ZM306.017 92.3125H327.409V72.3125H306.017V92.3125ZM317.409 82.3125V87H337.409V82.3125H317.409ZM327.409 77H300.733V97H327.409V77ZM342.593 87H332.593C332.593 92.5228 337.07 97 342.593 97V87ZM342.593 43.3636V33.3636C337.07 33.3636 332.593 37.8408 332.593 43.3636H342.593ZM365.732 45.1108L361.032 53.9375C361.047 53.9454 361.062 53.9534 361.077 53.9612L365.732 45.1108ZM370.59 49.8622L361.722 54.4836V54.4836L370.59 49.8622ZM370.59 63.5838L361.749 58.9107V58.9107L370.59 63.5838ZM365.753 68.2713L370.341 77.1567C370.356 77.1489 370.372 77.141 370.387 77.133L365.753 68.2713ZM345.49 69.9545H335.49C335.49 75.4774 339.968 79.9545 345.49 79.9545V69.9545ZM345.49 65.1818V55.1818C339.968 55.1818 335.49 59.659 335.49 65.1818H345.49ZM362.877 64.1591L358.584 55.1272C358.573 55.1327 358.561 55.1383 358.549 55.1439L362.877 64.1591ZM365.988 61.2614L357.104 56.6699C357.097 56.6827 357.091 56.6956 357.084 56.7085L365.988 61.2614ZM362.855 49.1378L358.348 58.0643C358.372 58.0762 358.395 58.088 358.419 58.0997L362.855 49.1378ZM347.877 48.0511V38.0511C342.354 38.0511 337.877 42.5283 337.877 48.0511H347.877ZM347.877 87V97C353.4 97 357.877 92.5228 357.877 87H347.877ZM363.132 67.3977L371.903 62.5932C370.148 59.3895 366.785 57.3977 363.132 57.3977V67.3977ZM373.871 87V97C377.404 97 380.674 95.1361 382.475 92.0968C384.275 89.0574 384.339 85.2936 382.641 82.1955L373.871 87ZM367.735 87L358.932 91.7456C360.677 94.9821 364.058 97 367.735 97V87ZM357.167 67.3977V57.3977C353.646 57.3977 350.385 59.2491 348.58 62.2721C346.775 65.2951 346.694 69.0443 348.364 72.1433L357.167 67.3977ZM352.593 87V43.3636H332.593V87H352.593ZM342.593 53.3636H357.337V33.3636H342.593V53.3636ZM357.337 53.3636C359.692 53.3636 360.732 53.7777 361.032 53.9375L370.432 36.2841C366.357 34.1143 361.8 33.3636 357.337 33.3636V53.3636ZM361.077 53.9612C361.626 54.2501 361.694 54.4298 361.722 54.4836L379.458 45.2408C377.384 41.2605 374.213 38.2726 370.387 36.2604L361.077 53.9612ZM361.722 54.4836C361.937 54.8968 362.167 55.5704 362.167 56.7443H382.167C382.167 52.7762 381.345 48.8617 379.458 45.2408L361.722 54.4836ZM362.167 56.7443C362.167 57.9214 361.936 58.5564 361.749 58.9107L379.431 68.2569C381.346 64.6339 382.167 60.7093 382.167 56.7443H362.167ZM361.749 58.9107C361.73 58.9473 361.669 59.1226 361.12 59.4096L370.387 77.133C374.184 75.1473 377.348 72.1976 379.431 68.2569L361.749 58.9107ZM361.165 59.3859C360.847 59.5501 359.784 59.9545 357.422 59.9545V79.9545C361.822 79.9545 366.313 79.2368 370.341 77.1567L361.165 59.3859ZM357.422 59.9545H345.49V79.9545H357.422V59.9545ZM355.49 69.9545V65.1818H335.49V69.9545H355.49ZM345.49 75.1818H357.252V55.1818H345.49V75.1818ZM357.252 75.1818C360.421 75.1818 363.944 74.739 367.204 73.1743L358.549 55.1439C358.792 55.0273 358.852 55.0446 358.616 55.0874C358.382 55.13 357.943 55.1818 357.252 55.1818V75.1818ZM367.169 73.191C370.318 71.6947 373.12 69.2783 374.891 65.8143L357.084 56.7085C357.299 56.2878 357.59 55.9085 357.914 55.6061C358.229 55.3131 358.488 55.173 358.584 55.1272L367.169 73.191ZM374.871 65.8529C376.407 62.8819 376.968 59.7308 376.968 56.7443H356.968C356.968 56.9981 356.944 57.0928 356.95 57.0635C356.953 57.0478 356.964 57.0021 356.989 56.9321C357.014 56.8617 357.051 56.7723 357.104 56.6699L374.871 65.8529ZM376.968 56.7443C376.968 53.7459 376.403 50.633 374.932 47.6912L357.043 56.6355C357.007 56.5625 356.982 56.5002 356.966 56.4534C356.958 56.4304 356.952 56.4124 356.949 56.3998C356.945 56.3873 356.944 56.3808 356.944 56.3809C356.944 56.3811 356.968 56.4922 356.968 56.7443H376.968ZM374.932 47.6912C373.211 44.2487 370.481 41.7543 367.292 40.1758L358.419 58.0997C358.307 58.0444 358.058 57.9001 357.767 57.6192C357.469 57.3311 357.22 56.9886 357.043 56.6355L374.932 47.6912ZM367.363 40.2113C364.032 38.5291 360.414 38.0511 357.167 38.0511V58.0511C357.849 58.0511 358.269 58.1047 358.481 58.1452C358.692 58.1855 358.609 58.1961 358.348 58.0643L367.363 40.2113ZM357.167 38.0511H347.877V58.0511H357.167V38.0511ZM337.877 48.0511V87H357.877V48.0511H337.877ZM347.877 77H342.593V97H347.877V77ZM354.362 72.2023L365.101 91.8045L382.641 82.1955L371.903 62.5932L354.362 72.2023ZM373.871 77H367.735V97H373.871V77ZM376.537 82.2544L365.969 62.6522L348.364 72.1433L358.932 91.7456L376.537 82.2544ZM357.167 77.3977H363.132V57.3977H357.167V77.3977ZM387.765 43.3636L397.196 40.0377C395.786 36.0384 392.006 33.3636 387.765 33.3636V43.3636ZM400.72 80.0966L391.289 83.4225C392.7 87.4218 396.479 90.0966 400.72 90.0966V80.0966ZM401.231 80.0966V90.0966C405.472 90.0966 409.251 87.4218 410.662 83.4225L401.231 80.0966ZM414.186 43.3636V33.3636C409.945 33.3636 406.165 36.0384 404.755 40.0377L414.186 43.3636ZM419.725 43.3636L429.113 46.8105C430.239 43.7431 429.796 40.3189 427.925 37.6395C426.055 34.9601 422.993 33.3636 419.725 33.3636V43.3636ZM403.703 87V97C407.896 97 411.644 94.3835 413.09 90.4469L403.703 87ZM398.248 87L388.861 90.4469C390.307 94.3835 394.055 97 398.248 97V87ZM382.225 43.3636V33.3636C378.958 33.3636 375.896 34.9601 374.026 37.6395C372.155 40.3189 371.712 43.7431 372.838 46.8105L382.225 43.3636ZM378.335 46.6895L391.289 83.4225L410.151 76.7707L397.196 40.0377L378.335 46.6895ZM400.72 90.0966H401.231V70.0966H400.72V90.0966ZM410.662 83.4225L423.616 46.6895L404.755 40.0377L391.8 76.7707L410.662 83.4225ZM414.186 53.3636H419.725V33.3636H414.186V53.3636ZM410.338 39.9168L394.316 83.5531L413.09 90.4469L429.113 46.8105L410.338 39.9168ZM403.703 77H398.248V97H403.703V77ZM407.635 83.5531L391.613 39.9168L372.838 46.8105L388.861 90.4469L407.635 83.5531ZM382.225 53.3636H387.765V33.3636H382.225V53.3636ZM432.522 87H422.522C422.522 92.5228 427 97 432.522 97V87ZM432.522 43.3636V33.3636C427 33.3636 422.522 37.8408 422.522 43.3636H432.522ZM458.858 43.3636H468.858C468.858 37.8408 464.38 33.3636 458.858 33.3636V43.3636ZM458.858 48.0511V58.0511C464.38 58.0511 468.858 53.574 468.858 48.0511H458.858ZM437.806 48.0511V38.0511C432.284 38.0511 427.806 42.5283 427.806 48.0511H437.806ZM437.806 62.7955H427.806C427.806 68.3183 432.284 72.7955 437.806 72.7955V62.7955ZM457.494 62.7955H467.494C467.494 57.2726 463.017 52.7955 457.494 52.7955V62.7955ZM457.494 67.483V77.483C463.017 77.483 467.494 73.0058 467.494 67.483H457.494ZM437.806 67.483V57.483C432.284 57.483 427.806 61.9601 427.806 67.483H437.806ZM437.806 82.3125H427.806C427.806 87.8353 432.284 92.3125 437.806 92.3125V82.3125ZM459.199 82.3125H469.199C469.199 76.7897 464.721 72.3125 459.199 72.3125V82.3125ZM459.199 87V97C464.721 97 469.199 92.5228 469.199 87H459.199ZM442.522 87V43.3636H422.522V87H442.522ZM432.522 53.3636H458.858V33.3636H432.522V53.3636ZM448.858 43.3636V48.0511H468.858V43.3636H448.858ZM458.858 38.0511H437.806V58.0511H458.858V38.0511ZM427.806 48.0511V62.7955H447.806V48.0511H427.806ZM437.806 72.7955H457.494V52.7955H437.806V72.7955ZM447.494 62.7955V67.483H467.494V62.7955H447.494ZM457.494 57.483H437.806V77.483H457.494V57.483ZM427.806 67.483V82.3125H447.806V67.483H427.806ZM437.806 92.3125H459.199V72.3125H437.806V92.3125ZM449.199 82.3125V87H469.199V82.3125H449.199ZM459.199 77H432.522V97H459.199V77ZM474.382 87H464.382C464.382 92.5228 468.859 97 474.382 97V87ZM474.382 43.3636V33.3636C468.859 33.3636 464.382 37.8408 464.382 43.3636H474.382ZM497.521 45.1108L492.821 53.9375C492.836 53.9454 492.851 53.9534 492.866 53.9612L497.521 45.1108ZM502.379 49.8622L493.511 54.4836V54.4836L502.379 49.8622ZM502.379 63.5838L493.538 58.9107V58.9107L502.379 63.5838ZM497.542 68.2713L502.13 77.1567C502.145 77.1489 502.161 77.141 502.176 77.133L497.542 68.2713ZM477.279 69.9545H467.279C467.279 75.4774 471.757 79.9545 477.279 79.9545V69.9545ZM477.279 65.1818V55.1818C471.757 55.1818 467.279 59.659 467.279 65.1818H477.279ZM494.666 64.1591L490.373 55.1272C490.362 55.1327 490.35 55.1383 490.339 55.1439L494.666 64.1591ZM497.777 61.2614L488.893 56.6699C488.886 56.6827 488.88 56.6956 488.873 56.7085L497.777 61.2614ZM494.645 49.1378L490.137 58.0643C490.161 58.0762 490.184 58.088 490.208 58.0997L494.645 49.1378ZM479.666 48.0511V38.0511C474.143 38.0511 469.666 42.5283 469.666 48.0511H479.666ZM479.666 87V97C485.189 97 489.666 92.5228 489.666 87H479.666ZM494.922 67.3977L503.692 62.5932C501.937 59.3895 498.574 57.3977 494.922 57.3977V67.3977ZM505.66 87V97C509.193 97 512.463 95.1361 514.264 92.0968C516.064 89.0574 516.128 85.2936 514.43 82.1955L505.66 87ZM499.524 87L490.722 91.7456C492.466 94.9821 495.847 97 499.524 97V87ZM488.956 67.3977V57.3977C485.435 57.3977 482.174 59.2491 480.369 62.2721C478.565 65.2951 478.483 69.0443 480.153 72.1433L488.956 67.3977ZM484.382 87V43.3636H464.382V87H484.382ZM474.382 53.3636H489.126V33.3636H474.382V53.3636ZM489.126 53.3636C491.481 53.3636 492.521 53.7777 492.821 53.9375L502.221 36.2841C498.146 34.1143 493.589 33.3636 489.126 33.3636V53.3636ZM492.866 53.9612C493.415 54.2501 493.483 54.4298 493.511 54.4836L511.247 45.2408C509.173 41.2605 506.002 38.2726 502.176 36.2604L492.866 53.9612ZM493.511 54.4836C493.726 54.8968 493.956 55.5704 493.956 56.7443H513.956C513.956 52.7762 513.134 48.8617 511.247 45.2408L493.511 54.4836ZM493.956 56.7443C493.956 57.9214 493.725 58.5564 493.538 58.9107L511.22 68.2569C513.135 64.6339 513.956 60.7093 513.956 56.7443H493.956ZM493.538 58.9107C493.519 58.9473 493.458 59.1226 492.909 59.4096L502.176 77.133C505.974 75.1473 509.137 72.1976 511.22 68.2569L493.538 58.9107ZM492.954 59.3859C492.636 59.5501 491.573 59.9545 489.211 59.9545V79.9545C493.611 79.9545 498.102 79.2368 502.13 77.1567L492.954 59.3859ZM489.211 59.9545H477.279V79.9545H489.211V59.9545ZM487.279 69.9545V65.1818H467.279V69.9545H487.279ZM477.279 75.1818H489.041V55.1818H477.279V75.1818ZM489.041 75.1818C492.21 75.1818 495.733 74.739 498.993 73.1743L490.339 55.1439C490.581 55.0273 490.641 55.0446 490.405 55.0874C490.171 55.13 489.733 55.1818 489.041 55.1818V75.1818ZM498.958 73.191C502.107 71.6947 504.909 69.2783 506.68 65.8143L488.873 56.7085C489.088 56.2878 489.379 55.9085 489.703 55.6061C490.018 55.3131 490.277 55.173 490.373 55.1272L498.958 73.191ZM506.66 65.8529C508.196 62.8819 508.757 59.7308 508.757 56.7443H488.757C488.757 56.9981 488.733 57.0928 488.739 57.0635C488.743 57.0478 488.753 57.0021 488.778 56.9321C488.803 56.8617 488.84 56.7723 488.893 56.6699L506.66 65.8529ZM508.757 56.7443C508.757 53.7459 508.192 50.633 506.721 47.6912L488.832 56.6355C488.796 56.5625 488.771 56.5002 488.755 56.4534C488.747 56.4304 488.741 56.4124 488.738 56.3998C488.734 56.3873 488.733 56.3808 488.733 56.3809C488.733 56.3811 488.757 56.4922 488.757 56.7443H508.757ZM506.721 47.6912C505 44.2487 502.27 41.7543 499.081 40.1758L490.208 58.0997C490.096 58.0444 489.847 57.9001 489.556 57.6192C489.258 57.3311 489.009 56.9886 488.832 56.6355L506.721 47.6912ZM499.152 40.2113C495.821 38.5291 492.204 38.0511 488.956 38.0511V58.0511C489.638 58.0511 490.058 58.1047 490.27 58.1452C490.481 58.1855 490.398 58.1961 490.137 58.0643L499.152 40.2113ZM488.956 38.0511H479.666V58.0511H488.956V38.0511ZM469.666 48.0511V87H489.666V48.0511H469.666ZM479.666 77H474.382V97H479.666V77ZM486.151 72.2023L496.89 91.8045L514.43 82.1955L503.692 62.5932L486.151 72.2023ZM505.66 77H499.524V97H505.66V77ZM508.326 82.2544L497.758 62.6522L480.153 72.1433L490.722 91.7456L508.326 82.2544ZM488.956 77.3977H494.922V57.3977H488.956V77.3977ZM542.624 54.2727L532.694 55.4487C533.29 60.4815 537.556 64.2727 542.624 64.2727V54.2727ZM539.513 49.2443L534.027 57.6048L539.513 49.2443ZM527.752 48.392L523.791 39.2099C523.78 39.2147 523.769 39.2194 523.758 39.2242L527.752 48.392ZM524.386 50.9702L516.348 45.0204C516.331 45.043 516.315 45.0657 516.298 45.0885L524.386 50.9702ZM524.023 57.7031L515.681 63.2174C515.717 63.2721 515.754 63.3265 515.791 63.3805L524.023 57.7031ZM526.197 59.7699L520.872 68.2345C520.905 68.2552 520.938 68.2756 520.971 68.2959L526.197 59.7699ZM528.967 61.1122L525.516 70.498C525.557 70.513 525.598 70.5277 525.638 70.5421L528.967 61.1122ZM531.63 61.9432L534.23 52.287C534.211 52.2821 534.193 52.2772 534.175 52.2724L531.63 61.9432ZM536.062 63.1364L533.462 72.7925C533.482 72.798 533.503 72.8034 533.523 72.8087L536.062 63.1364ZM539.854 64.3722L536.322 73.7276C536.333 73.7315 536.343 73.7354 536.354 73.7393L539.854 64.3722ZM543.881 66.5241L538.086 74.6737C538.12 74.698 538.155 74.7222 538.189 74.7461L543.881 66.5241ZM547.077 69.9759L555.668 64.8564L555.668 64.8564L547.077 69.9759ZM546.481 81.5455L538.094 76.1C538.084 76.1147 538.074 76.1294 538.065 76.1442L546.481 81.5455ZM541.112 86.0838L536.814 77.0542C536.807 77.0576 536.8 77.0609 536.793 77.0643L541.112 86.0838ZM524.45 86.2543L520.393 95.3947C520.401 95.3979 520.408 95.401 520.415 95.4041L524.45 86.2543ZM519.08 82.0355L510.952 87.86C510.962 87.874 510.972 87.8881 510.982 87.9021L519.08 82.0355ZM516.886 75.75V65.75C514.11 65.75 511.459 66.9039 509.567 68.9355C507.675 70.9671 506.713 73.6936 506.911 76.4625L516.886 75.75ZM522.34 75.75L532.303 74.8911C531.857 69.7204 527.53 65.75 522.34 65.75V75.75ZM524.002 79.8409L516.55 86.5089C516.581 86.5433 516.612 86.5775 516.643 86.6115L524.002 79.8409ZM527.71 82.2273L524.386 91.6588C524.422 91.6715 524.458 91.6839 524.494 91.6961L527.71 82.2273ZM538.001 82.0142L541.771 91.2762C541.794 91.2667 541.818 91.2571 541.841 91.2474L538.001 82.0142ZM541.815 79.2443L549.642 85.4682C549.654 85.453 549.666 85.4378 549.678 85.4225L541.815 79.2443ZM542.006 71.5312L549.474 64.8804H549.474L542.006 71.5312ZM538.81 69.3153L534.859 78.5017V78.5017L538.81 69.3153ZM534.528 67.8239L531.78 77.4391C531.804 77.4458 531.828 77.4525 531.851 77.459L534.528 67.8239ZM529.158 66.2898L526.395 75.9005C526.401 75.902 526.406 75.9035 526.411 75.905L529.158 66.2898ZM521.062 62.0923L514.314 69.4726V69.4726L521.062 62.0923ZM520.06 48.5625L511.978 42.6733L511.97 42.6845L520.06 48.5625ZM525.43 44.3011L529.529 53.4225C529.537 53.4186 529.546 53.4146 529.555 53.4107L525.43 44.3011ZM540.494 44.2798L536.307 53.3611C536.323 53.3686 536.339 53.3761 536.356 53.3835L540.494 44.2798ZM545.692 48.3707L537.645 54.3072C537.656 54.3214 537.666 54.3356 537.677 54.3497L545.692 48.3707ZM547.738 54.2727V64.2727C550.446 64.2727 553.038 63.1744 554.922 61.2289C556.806 59.2833 557.82 56.657 557.733 53.9503L547.738 54.2727ZM552.555 53.0967C551.952 48.0031 549.287 43.6974 545 40.8838L534.027 57.6048C533.843 57.4844 533.476 57.1836 533.151 56.6574C532.825 56.1311 532.72 55.6677 532.694 55.4487L552.555 53.0967ZM545 40.8838C541.231 38.4105 536.992 37.4545 532.823 37.4545V57.4545C533.395 57.4545 533.732 57.5192 533.893 57.5623C534.041 57.6019 534.063 57.6286 534.027 57.6048L545 40.8838ZM532.823 37.4545C529.827 37.4545 526.738 37.9388 523.791 39.2099L531.713 57.5742C531.664 57.5953 531.956 57.4545 532.823 57.4545V37.4545ZM523.758 39.2242C520.961 40.4427 518.348 42.3185 516.348 45.0204L532.423 56.9199C532.25 57.1531 532.067 57.328 531.915 57.4446C531.768 57.5568 531.693 57.583 531.746 57.5599L523.758 39.2242ZM516.298 45.0885C514.221 47.9443 513.192 51.2597 513.192 54.6989H533.192C533.192 54.9682 533.152 55.3429 533.015 55.7704C532.877 56.2008 532.679 56.5684 532.473 56.8519L516.298 45.0885ZM513.192 54.6989C513.192 57.5042 513.882 60.4954 515.681 63.2174L532.366 52.1888C533.057 53.2348 533.192 54.2231 533.192 54.6989H513.192ZM515.791 63.3805C517.16 65.3653 518.89 66.9875 520.872 68.2345L531.521 51.3053C531.619 51.367 531.747 51.4605 531.884 51.5913C532.022 51.7227 532.148 51.8705 532.256 52.0258L515.791 63.3805ZM520.971 68.2959C522.412 69.1788 523.929 69.9146 525.516 70.498L532.417 51.7264C532.072 51.5996 531.743 51.4406 531.422 51.2439L520.971 68.2959ZM525.638 70.5421C526.808 70.9548 527.961 71.318 529.085 71.6139L534.175 52.2724C533.68 52.1422 533.058 51.9515 532.295 51.6823L525.638 70.5421ZM529.03 71.5993L533.462 72.7925L538.662 53.4802L534.23 52.287L529.03 71.5993ZM533.523 72.8087C534.248 72.9991 535.174 73.2942 536.322 73.7276L543.387 55.0167C541.75 54.399 540.148 53.8702 538.601 53.4641L533.523 72.8087ZM536.354 73.7393C536.909 73.9471 537.484 74.2458 538.086 74.6737L549.677 58.3746C547.721 56.9843 545.612 55.8483 543.355 55.005L536.354 73.7393ZM538.189 74.7461C538.256 74.7924 538.351 74.8667 538.487 75.0953L555.668 64.8564C554.128 62.2725 552.092 60.0457 549.573 58.3022L538.189 74.7461ZM538.487 75.0953C538.423 74.9871 538.377 74.891 538.347 74.8153C538.317 74.7402 538.305 74.6937 538.303 74.6844C538.299 74.6686 538.335 74.8083 538.335 75.1534H558.335C558.335 71.7512 557.633 68.1535 555.668 64.8564L538.487 75.0953ZM538.335 75.1534C538.335 75.6581 538.234 75.8832 538.094 76.1L554.868 86.9909C557.199 83.4009 558.335 79.3647 558.335 75.1534H538.335ZM538.065 76.1442C537.999 76.2473 537.753 76.6073 536.814 77.0542L545.409 95.1134C549.186 93.316 552.52 90.6504 554.897 86.9467L538.065 76.1442ZM536.793 77.0643C536.13 77.382 534.843 77.767 532.567 77.767V97.767C536.996 97.767 541.406 97.0299 545.43 95.1033L536.793 77.0643ZM532.567 77.767C530.495 77.767 529.224 77.4307 528.485 77.1045L520.415 95.4041C524.249 97.0949 528.39 97.767 532.567 97.767V77.767ZM528.506 77.1138C527.654 76.7358 527.334 76.3833 527.179 76.169L510.982 87.9021C513.44 91.2957 516.7 93.7557 520.393 95.3947L528.506 77.1138ZM527.209 76.211C527.076 76.0251 526.91 75.7314 526.86 75.0375L506.911 76.4625C507.202 80.5413 508.5 84.4379 510.952 87.86L527.209 76.211ZM516.886 85.75H522.34V65.75H516.886V85.75ZM512.377 76.6089C512.678 80.0945 513.94 83.5923 516.55 86.5089L531.455 73.173C531.751 73.5038 531.978 73.879 532.127 74.2448C532.27 74.5975 532.299 74.8388 532.303 74.8911L512.377 76.6089ZM516.643 86.6115C518.83 88.9893 521.498 90.641 524.386 91.6588L531.033 72.7957C530.966 72.772 530.993 72.7739 531.077 72.8279C531.164 72.884 531.266 72.9668 531.361 73.0703L516.643 86.6115ZM524.494 91.6961C527.124 92.5894 529.839 92.9943 532.567 92.9943V72.9943C531.83 72.9943 531.306 72.8879 530.925 72.7585L524.494 91.6961ZM532.567 92.9943C535.668 92.9943 538.789 92.49 541.771 91.2762L534.23 72.7522C534.002 72.8452 533.501 72.9943 532.567 72.9943V92.9943ZM541.841 91.2474C544.765 90.0311 547.499 88.1631 549.642 85.4682L533.988 73.0204C534.105 72.8721 534.217 72.7765 534.282 72.7298C534.341 72.6869 534.317 72.7157 534.16 72.781L541.841 91.2474ZM549.678 85.4225C552.07 82.3779 553.221 78.783 553.221 75.0682H533.221C533.221 74.8686 533.253 74.5285 533.392 74.1141C533.534 73.6941 533.74 73.3358 533.951 73.0661L549.678 85.4225ZM553.221 75.0682C553.221 71.6587 552.215 67.9576 549.474 64.8804L534.539 78.1821C534.039 77.6215 533.677 76.9799 533.459 76.3449C533.25 75.7351 533.221 75.2731 533.221 75.0682H553.221ZM549.474 64.8804C547.531 62.6988 545.185 61.1713 542.761 60.129L534.859 78.5017C534.972 78.5503 534.974 78.563 534.902 78.5134C534.827 78.4613 534.693 78.355 534.539 78.1821L549.474 64.8804ZM542.761 60.129C540.985 59.3649 539.127 58.7229 537.204 58.1887L531.851 77.459C532.996 77.7771 533.994 78.1294 534.859 78.5017L542.761 60.129ZM537.275 58.2086L531.906 56.6745L526.411 75.905L531.78 77.4391L537.275 58.2086ZM531.921 56.6791C529.545 55.9957 528.358 55.2137 527.809 54.712L514.314 69.4726C517.743 72.6073 521.954 74.6236 526.395 75.9005L531.921 56.6791ZM527.809 54.712C527.809 54.7115 527.82 54.7213 527.838 54.7423C527.857 54.7633 527.881 54.7929 527.908 54.8307C527.965 54.9108 528.015 55.0007 528.051 55.0883C528.087 55.1744 528.096 55.224 528.095 55.2173C528.093 55.2078 528.079 55.1258 528.079 54.9545H508.079C508.079 60.4163 510.051 65.5751 514.314 69.4726L527.809 54.712ZM528.079 54.9545C528.079 54.6419 528.12 54.5049 528.126 54.4851C528.128 54.4772 528.13 54.473 528.13 54.4717C528.131 54.4703 528.131 54.4699 528.131 54.4697C528.131 54.4695 528.132 54.4677 528.135 54.4638C528.137 54.4598 528.142 54.4521 528.15 54.4405L511.97 42.6845C509.299 46.3618 508.079 50.5936 508.079 54.9545H528.079ZM528.142 54.4517C528.367 54.1431 528.731 53.7808 529.529 53.4225L521.331 35.1798C517.64 36.8385 514.424 39.3171 511.978 42.6733L528.142 54.4517ZM529.555 53.4107C530.366 53.0431 531.457 52.767 532.994 52.767V32.767C528.962 32.767 525.01 33.5137 521.305 35.1916L529.555 53.4107ZM532.994 52.767C534.601 52.767 535.634 53.0511 536.307 53.3611L544.68 35.1985C540.978 33.4915 537.011 32.767 532.994 32.767V52.767ZM536.356 53.3835C537.175 53.7558 537.492 54.0993 537.645 54.3072L553.74 42.4343C551.336 39.1763 548.188 36.7925 544.632 35.1762L536.356 53.3835ZM537.677 54.3497C537.709 54.3925 537.722 54.4164 537.725 54.422C537.728 54.4273 537.726 54.4256 537.725 54.4206C537.723 54.4157 537.725 54.4211 537.729 54.4424C537.733 54.4644 537.74 54.5133 537.743 54.5951L557.733 53.9503C557.597 49.7464 556.248 45.7964 553.708 42.3918L537.677 54.3497ZM547.738 44.2727H542.624V64.2727H547.738V44.2727Z" fill="white" mask="url(#path-8-outside-1_61_124)"/>
<mask id="path-10-outside-2_61_124" maskUnits="userSpaceOnUse" x="60" y="38" width="493" height="54" fill="black">
<rect fill="white" x="60" y="38" width="493" height="54"/>
<path d="M64.2841 87V43.3636H90.4489V48.0511H69.5682V62.7955H88.4886V67.483H69.5682V87H64.2841ZM105.499 87V43.3636H120.243C123.652 43.3636 126.451 43.946 128.638 45.1108C130.826 46.2614 132.445 47.8452 133.496 49.8622C134.547 51.8793 135.073 54.1733 135.073 56.7443C135.073 59.3153 134.547 61.5952 133.496 63.5838C132.445 65.5724 130.833 67.1349 128.659 68.2713C126.486 69.3935 123.709 69.9545 120.328 69.9545H108.397V65.1818H120.158C122.488 65.1818 124.363 64.8409 125.783 64.1591C127.218 63.4773 128.255 62.5114 128.894 61.2614C129.547 59.9972 129.874 58.4915 129.874 56.7443C129.874 54.9972 129.547 53.4702 128.894 52.1634C128.24 50.8565 127.196 49.848 125.762 49.1378C124.327 48.4134 122.431 48.0511 120.073 48.0511H110.783V87H105.499ZM126.039 67.3977L136.777 87H130.641L120.073 67.3977H126.039ZM149.878 87V43.3636H176.213V48.0511H155.162V62.7955H174.849V67.483H155.162V82.3125H176.554V87H149.878ZM191.737 87V43.3636H218.072V48.0511H197.021V62.7955H216.709V67.483H197.021V82.3125H218.413V87H191.737ZM280.335 54.2727C280.08 52.1136 279.043 50.4375 277.224 49.2443C275.406 48.0511 273.176 47.4545 270.534 47.4545C268.602 47.4545 266.912 47.767 265.463 48.392C264.028 49.017 262.906 49.8764 262.097 50.9702C261.301 52.0639 260.903 53.3068 260.903 54.6989C260.903 55.8636 261.18 56.8651 261.734 57.7031C262.303 58.527 263.027 59.2159 263.908 59.7699C264.788 60.3097 265.712 60.7571 266.678 61.1122C267.643 61.4531 268.531 61.7301 269.341 61.9432L273.773 63.1364C274.909 63.4347 276.173 63.8466 277.565 64.3722C278.972 64.8977 280.314 65.6151 281.592 66.5241C282.885 67.419 283.95 68.5696 284.788 69.9759C285.626 71.3821 286.045 73.108 286.045 75.1534C286.045 77.5114 285.428 79.642 284.192 81.5455C282.97 83.4489 281.18 84.9616 278.822 86.0838C276.479 87.206 273.631 87.767 270.278 87.767C267.153 87.767 264.447 87.2628 262.161 86.2543C259.888 85.2457 258.098 83.8395 256.791 82.0355C255.499 80.2315 254.767 78.1364 254.597 75.75H260.051C260.193 77.3977 260.747 78.7614 261.713 79.8409C262.693 80.9062 263.929 81.7017 265.42 82.2273C266.926 82.7386 268.545 82.9943 270.278 82.9943C272.295 82.9943 274.107 82.6676 275.712 82.0142C277.317 81.3466 278.588 80.4233 279.526 79.2443C280.463 78.0511 280.932 76.6591 280.932 75.0682C280.932 73.6193 280.527 72.4403 279.717 71.5312C278.908 70.6222 277.842 69.8835 276.521 69.3153C275.2 68.7472 273.773 68.25 272.239 67.8239L266.869 66.2898C263.46 65.3097 260.761 63.9105 258.773 62.0923C256.784 60.2741 255.79 57.8949 255.79 54.9545C255.79 52.5114 256.45 50.3807 257.771 48.5625C259.107 46.7301 260.896 45.3097 263.141 44.3011C265.399 43.2784 267.92 42.767 270.705 42.767C273.517 42.767 276.017 43.2713 278.205 44.2798C280.392 45.2741 282.125 46.6378 283.403 48.3707C284.696 50.1037 285.378 52.071 285.449 54.2727H280.335ZM300.733 87V43.3636H327.069V48.0511H306.017V62.7955H325.705V67.483H306.017V82.3125H327.409V87H300.733ZM342.593 87V43.3636H357.337C360.746 43.3636 363.544 43.946 365.732 45.1108C367.919 46.2614 369.539 47.8452 370.59 49.8622C371.641 51.8793 372.167 54.1733 372.167 56.7443C372.167 59.3153 371.641 61.5952 370.59 63.5838C369.539 65.5724 367.926 67.1349 365.753 68.2713C363.58 69.3935 360.803 69.9545 357.422 69.9545H345.49V65.1818H357.252C359.581 65.1818 361.456 64.8409 362.877 64.1591C364.311 63.4773 365.348 62.5114 365.988 61.2614C366.641 59.9972 366.968 58.4915 366.968 56.7443C366.968 54.9972 366.641 53.4702 365.988 52.1634C365.334 50.8565 364.29 49.848 362.855 49.1378C361.421 48.4134 359.525 48.0511 357.167 48.0511H347.877V87H342.593ZM363.132 67.3977L373.871 87H367.735L357.167 67.3977H363.132ZM387.765 43.3636L400.72 80.0966H401.231L414.186 43.3636H419.725L403.703 87H398.248L382.225 43.3636H387.765ZM432.522 87V43.3636H458.858V48.0511H437.806V62.7955H457.494V67.483H437.806V82.3125H459.199V87H432.522ZM474.382 87V43.3636H489.126C492.535 43.3636 495.333 43.946 497.521 45.1108C499.708 46.2614 501.328 47.8452 502.379 49.8622C503.43 51.8793 503.956 54.1733 503.956 56.7443C503.956 59.3153 503.43 61.5952 502.379 63.5838C501.328 65.5724 499.716 67.1349 497.542 68.2713C495.369 69.3935 492.592 69.9545 489.211 69.9545H477.279V65.1818H489.041C491.37 65.1818 493.245 64.8409 494.666 64.1591C496.1 63.4773 497.137 62.5114 497.777 61.2614C498.43 59.9972 498.757 58.4915 498.757 56.7443C498.757 54.9972 498.43 53.4702 497.777 52.1634C497.123 50.8565 496.079 49.848 494.645 49.1378C493.21 48.4134 491.314 48.0511 488.956 48.0511H479.666V87H474.382ZM494.922 67.3977L505.66 87H499.524L488.956 67.3977H494.922ZM542.624 54.2727C542.369 52.1136 541.332 50.4375 539.513 49.2443C537.695 48.0511 535.465 47.4545 532.823 47.4545C530.891 47.4545 529.201 47.767 527.752 48.392C526.317 49.017 525.195 49.8764 524.386 50.9702C523.59 52.0639 523.192 53.3068 523.192 54.6989C523.192 55.8636 523.469 56.8651 524.023 57.7031C524.592 58.527 525.316 59.2159 526.197 59.7699C527.077 60.3097 528.001 60.7571 528.967 61.1122C529.933 61.4531 530.82 61.7301 531.63 61.9432L536.062 63.1364C537.198 63.4347 538.462 63.8466 539.854 64.3722C541.261 64.8977 542.603 65.6151 543.881 66.5241C545.174 67.419 546.239 68.5696 547.077 69.9759C547.915 71.3821 548.335 73.108 548.335 75.1534C548.335 77.5114 547.717 79.642 546.481 81.5455C545.259 83.4489 543.469 84.9616 541.112 86.0838C538.768 87.206 535.92 87.767 532.567 87.767C529.442 87.767 526.737 87.2628 524.45 86.2543C522.177 85.2457 520.387 83.8395 519.08 82.0355C517.788 80.2315 517.056 78.1364 516.886 75.75H522.34C522.482 77.3977 523.036 78.7614 524.002 79.8409C524.982 80.9062 526.218 81.7017 527.71 82.2273C529.215 82.7386 530.835 82.9943 532.567 82.9943C534.585 82.9943 536.396 82.6676 538.001 82.0142C539.606 81.3466 540.877 80.4233 541.815 79.2443C542.752 78.0511 543.221 76.6591 543.221 75.0682C543.221 73.6193 542.816 72.4403 542.006 71.5312C541.197 70.6222 540.131 69.8835 538.81 69.3153C537.489 68.7472 536.062 68.25 534.528 67.8239L529.158 66.2898C525.749 65.3097 523.05 63.9105 521.062 62.0923C519.073 60.2741 518.079 57.8949 518.079 54.9545C518.079 52.5114 518.739 50.3807 520.06 48.5625C521.396 46.7301 523.185 45.3097 525.43 44.3011C527.688 43.2784 530.21 42.767 532.994 42.767C535.806 42.767 538.306 43.2713 540.494 44.2798C542.681 45.2741 544.414 46.6378 545.692 48.3707C546.985 50.1037 547.667 52.071 547.738 54.2727H542.624Z"/>
</mask>
<path d="M64.2841 87V43.3636H90.4489V48.0511H69.5682V62.7955H88.4886V67.483H69.5682V87H64.2841ZM105.499 87V43.3636H120.243C123.652 43.3636 126.451 43.946 128.638 45.1108C130.826 46.2614 132.445 47.8452 133.496 49.8622C134.547 51.8793 135.073 54.1733 135.073 56.7443C135.073 59.3153 134.547 61.5952 133.496 63.5838C132.445 65.5724 130.833 67.1349 128.659 68.2713C126.486 69.3935 123.709 69.9545 120.328 69.9545H108.397V65.1818H120.158C122.488 65.1818 124.363 64.8409 125.783 64.1591C127.218 63.4773 128.255 62.5114 128.894 61.2614C129.547 59.9972 129.874 58.4915 129.874 56.7443C129.874 54.9972 129.547 53.4702 128.894 52.1634C128.24 50.8565 127.196 49.848 125.762 49.1378C124.327 48.4134 122.431 48.0511 120.073 48.0511H110.783V87H105.499ZM126.039 67.3977L136.777 87H130.641L120.073 67.3977H126.039ZM149.878 87V43.3636H176.213V48.0511H155.162V62.7955H174.849V67.483H155.162V82.3125H176.554V87H149.878ZM191.737 87V43.3636H218.072V48.0511H197.021V62.7955H216.709V67.483H197.021V82.3125H218.413V87H191.737ZM280.335 54.2727C280.08 52.1136 279.043 50.4375 277.224 49.2443C275.406 48.0511 273.176 47.4545 270.534 47.4545C268.602 47.4545 266.912 47.767 265.463 48.392C264.028 49.017 262.906 49.8764 262.097 50.9702C261.301 52.0639 260.903 53.3068 260.903 54.6989C260.903 55.8636 261.18 56.8651 261.734 57.7031C262.303 58.527 263.027 59.2159 263.908 59.7699C264.788 60.3097 265.712 60.7571 266.678 61.1122C267.643 61.4531 268.531 61.7301 269.341 61.9432L273.773 63.1364C274.909 63.4347 276.173 63.8466 277.565 64.3722C278.972 64.8977 280.314 65.6151 281.592 66.5241C282.885 67.419 283.95 68.5696 284.788 69.9759C285.626 71.3821 286.045 73.108 286.045 75.1534C286.045 77.5114 285.428 79.642 284.192 81.5455C282.97 83.4489 281.18 84.9616 278.822 86.0838C276.479 87.206 273.631 87.767 270.278 87.767C267.153 87.767 264.447 87.2628 262.161 86.2543C259.888 85.2457 258.098 83.8395 256.791 82.0355C255.499 80.2315 254.767 78.1364 254.597 75.75H260.051C260.193 77.3977 260.747 78.7614 261.713 79.8409C262.693 80.9062 263.929 81.7017 265.42 82.2273C266.926 82.7386 268.545 82.9943 270.278 82.9943C272.295 82.9943 274.107 82.6676 275.712 82.0142C277.317 81.3466 278.588 80.4233 279.526 79.2443C280.463 78.0511 280.932 76.6591 280.932 75.0682C280.932 73.6193 280.527 72.4403 279.717 71.5312C278.908 70.6222 277.842 69.8835 276.521 69.3153C275.2 68.7472 273.773 68.25 272.239 67.8239L266.869 66.2898C263.46 65.3097 260.761 63.9105 258.773 62.0923C256.784 60.2741 255.79 57.8949 255.79 54.9545C255.79 52.5114 256.45 50.3807 257.771 48.5625C259.107 46.7301 260.896 45.3097 263.141 44.3011C265.399 43.2784 267.92 42.767 270.705 42.767C273.517 42.767 276.017 43.2713 278.205 44.2798C280.392 45.2741 282.125 46.6378 283.403 48.3707C284.696 50.1037 285.378 52.071 285.449 54.2727H280.335ZM300.733 87V43.3636H327.069V48.0511H306.017V62.7955H325.705V67.483H306.017V82.3125H327.409V87H300.733ZM342.593 87V43.3636H357.337C360.746 43.3636 363.544 43.946 365.732 45.1108C367.919 46.2614 369.539 47.8452 370.59 49.8622C371.641 51.8793 372.167 54.1733 372.167 56.7443C372.167 59.3153 371.641 61.5952 370.59 63.5838C369.539 65.5724 367.926 67.1349 365.753 68.2713C363.58 69.3935 360.803 69.9545 357.422 69.9545H345.49V65.1818H357.252C359.581 65.1818 361.456 64.8409 362.877 64.1591C364.311 63.4773 365.348 62.5114 365.988 61.2614C366.641 59.9972 366.968 58.4915 366.968 56.7443C366.968 54.9972 366.641 53.4702 365.988 52.1634C365.334 50.8565 364.29 49.848 362.855 49.1378C361.421 48.4134 359.525 48.0511 357.167 48.0511H347.877V87H342.593ZM363.132 67.3977L373.871 87H367.735L357.167 67.3977H363.132ZM387.765 43.3636L400.72 80.0966H401.231L414.186 43.3636H419.725L403.703 87H398.248L382.225 43.3636H387.765ZM432.522 87V43.3636H458.858V48.0511H437.806V62.7955H457.494V67.483H437.806V82.3125H459.199V87H432.522ZM474.382 87V43.3636H489.126C492.535 43.3636 495.333 43.946 497.521 45.1108C499.708 46.2614 501.328 47.8452 502.379 49.8622C503.43 51.8793 503.956 54.1733 503.956 56.7443C503.956 59.3153 503.43 61.5952 502.379 63.5838C501.328 65.5724 499.716 67.1349 497.542 68.2713C495.369 69.3935 492.592 69.9545 489.211 69.9545H477.279V65.1818H489.041C491.37 65.1818 493.245 64.8409 494.666 64.1591C496.1 63.4773 497.137 62.5114 497.777 61.2614C498.43 59.9972 498.757 58.4915 498.757 56.7443C498.757 54.9972 498.43 53.4702 497.777 52.1634C497.123 50.8565 496.079 49.848 494.645 49.1378C493.21 48.4134 491.314 48.0511 488.956 48.0511H479.666V87H474.382ZM494.922 67.3977L505.66 87H499.524L488.956 67.3977H494.922ZM542.624 54.2727C542.369 52.1136 541.332 50.4375 539.513 49.2443C537.695 48.0511 535.465 47.4545 532.823 47.4545C530.891 47.4545 529.201 47.767 527.752 48.392C526.317 49.017 525.195 49.8764 524.386 50.9702C523.59 52.0639 523.192 53.3068 523.192 54.6989C523.192 55.8636 523.469 56.8651 524.023 57.7031C524.592 58.527 525.316 59.2159 526.197 59.7699C527.077 60.3097 528.001 60.7571 528.967 61.1122C529.933 61.4531 530.82 61.7301 531.63 61.9432L536.062 63.1364C537.198 63.4347 538.462 63.8466 539.854 64.3722C541.261 64.8977 542.603 65.6151 543.881 66.5241C545.174 67.419 546.239 68.5696 547.077 69.9759C547.915 71.3821 548.335 73.108 548.335 75.1534C548.335 77.5114 547.717 79.642 546.481 81.5455C545.259 83.4489 543.469 84.9616 541.112 86.0838C538.768 87.206 535.92 87.767 532.567 87.767C529.442 87.767 526.737 87.2628 524.45 86.2543C522.177 85.2457 520.387 83.8395 519.08 82.0355C517.788 80.2315 517.056 78.1364 516.886 75.75H522.34C522.482 77.3977 523.036 78.7614 524.002 79.8409C524.982 80.9062 526.218 81.7017 527.71 82.2273C529.215 82.7386 530.835 82.9943 532.567 82.9943C534.585 82.9943 536.396 82.6676 538.001 82.0142C539.606 81.3466 540.877 80.4233 541.815 79.2443C542.752 78.0511 543.221 76.6591 543.221 75.0682C543.221 73.6193 542.816 72.4403 542.006 71.5312C541.197 70.6222 540.131 69.8835 538.81 69.3153C537.489 68.7472 536.062 68.25 534.528 67.8239L529.158 66.2898C525.749 65.3097 523.05 63.9105 521.062 62.0923C519.073 60.2741 518.079 57.8949 518.079 54.9545C518.079 52.5114 518.739 50.3807 520.06 48.5625C521.396 46.7301 523.185 45.3097 525.43 44.3011C527.688 43.2784 530.21 42.767 532.994 42.767C535.806 42.767 538.306 43.2713 540.494 44.2798C542.681 45.2741 544.414 46.6378 545.692 48.3707C546.985 50.1037 547.667 52.071 547.738 54.2727H542.624Z" fill="#D42444"/>
<path d="M64.2841 87H60.2841C60.2841 89.2091 62.075 91 64.2841 91L64.2841 87ZM64.2841 43.3636V39.3636C62.075 39.3636 60.2841 41.1545 60.2841 43.3636H64.2841ZM90.4489 43.3636H94.4489C94.4489 41.1545 92.658 39.3636 90.4489 39.3636V43.3636ZM90.4489 48.0511V52.0511C92.658 52.0511 94.4489 50.2603 94.4489 48.0511H90.4489ZM69.5682 48.0511V44.0511C67.359 44.0511 65.5682 45.842 65.5682 48.0511H69.5682ZM69.5682 62.7955H65.5682C65.5682 65.0046 67.359 66.7955 69.5682 66.7955V62.7955ZM88.4886 62.7955H92.4886C92.4886 60.5863 90.6978 58.7955 88.4886 58.7955V62.7955ZM88.4886 67.483V71.483C90.6978 71.483 92.4886 69.6921 92.4886 67.483H88.4886ZM69.5682 67.483V63.483C67.359 63.483 65.5682 65.2738 65.5682 67.483H69.5682ZM69.5682 87V91C71.7773 91 73.5682 89.2091 73.5682 87H69.5682ZM68.2841 87V43.3636H60.2841V87H68.2841ZM64.2841 47.3636H90.4489V39.3636H64.2841V47.3636ZM86.4489 43.3636V48.0511H94.4489V43.3636H86.4489ZM90.4489 44.0511H69.5682V52.0511H90.4489V44.0511ZM65.5682 48.0511V62.7955H73.5682V48.0511H65.5682ZM69.5682 66.7955H88.4886V58.7955H69.5682V66.7955ZM84.4886 62.7955V67.483H92.4886V62.7955H84.4886ZM88.4886 63.483H69.5682V71.483H88.4886V63.483ZM65.5682 67.483V87H73.5682V67.483H65.5682ZM69.5682 83H64.2841V91H69.5682V83ZM105.499 87H101.499C101.499 89.2091 103.29 91 105.499 91V87ZM105.499 43.3636V39.3636C103.29 39.3636 101.499 41.1545 101.499 43.3636H105.499ZM128.638 45.1108L126.758 48.6415C126.764 48.6447 126.77 48.6478 126.776 48.651L128.638 45.1108ZM133.496 49.8622L129.949 51.7108L129.949 51.7108L133.496 49.8622ZM133.496 63.5838L129.96 61.7146V61.7146L133.496 63.5838ZM128.659 68.2713L130.495 71.8255C130.501 71.8223 130.507 71.8192 130.513 71.816L128.659 68.2713ZM108.397 69.9545H104.397C104.397 72.1637 106.188 73.9545 108.397 73.9545V69.9545ZM108.397 65.1818V61.1818C106.188 61.1818 104.397 62.9727 104.397 65.1818H108.397ZM125.783 64.1591L124.066 60.5463C124.061 60.5485 124.057 60.5508 124.052 60.553L125.783 64.1591ZM128.894 61.2614L125.34 59.4248C125.338 59.4299 125.335 59.4351 125.332 59.4402L128.894 61.2614ZM125.762 49.1378L123.959 52.7084C123.968 52.7132 123.978 52.7179 123.987 52.7226L125.762 49.1378ZM110.783 48.0511V44.0511C108.574 44.0511 106.783 45.842 106.783 48.0511H110.783ZM110.783 87V91C112.992 91 114.783 89.2091 114.783 87H110.783ZM126.039 67.3977L129.547 65.4759C128.845 64.1944 127.5 63.3977 126.039 63.3977V67.3977ZM136.777 87V91C138.19 91 139.499 90.2545 140.219 89.0387C140.939 87.823 140.964 86.3175 140.285 85.0782L136.777 87ZM130.641 87L127.12 88.8982C127.818 90.1928 129.17 91 130.641 91V87ZM120.073 67.3977V63.3977C118.665 63.3977 117.36 64.1383 116.638 65.3475C115.916 66.5567 115.884 68.0564 116.552 69.296L120.073 67.3977ZM109.499 87V43.3636H101.499V87H109.499ZM105.499 47.3636H120.243V39.3636H105.499V47.3636ZM120.243 47.3636C123.231 47.3636 125.326 47.8787 126.758 48.6415L130.518 41.5801C127.576 40.0133 124.074 39.3636 120.243 39.3636V47.3636ZM126.776 48.651C128.308 49.4569 129.307 50.479 129.949 51.7108L137.043 48.0137C135.583 45.2113 133.343 43.0659 130.5 41.5706L126.776 48.651ZM129.949 51.7108C130.666 53.0863 131.073 54.7321 131.073 56.7443H139.073C139.073 53.6145 138.429 50.6722 137.043 48.0137L129.949 51.7108ZM131.073 56.7443C131.073 58.7578 130.665 60.3797 129.96 61.7146L137.032 65.453C138.429 62.8107 139.073 59.8729 139.073 56.7443H131.073ZM129.96 61.7146C129.321 62.9224 128.33 63.93 126.806 64.7266L130.513 71.816C133.336 70.3399 135.569 68.2225 137.032 65.453L129.96 61.7146ZM126.824 64.7171C125.393 65.4561 123.302 65.9545 120.328 65.9545V73.9545C124.117 73.9545 127.579 73.3308 130.495 71.8255L126.824 64.7171ZM120.328 65.9545H108.397V73.9545H120.328V65.9545ZM112.397 69.9545V65.1818H104.397V69.9545H112.397ZM108.397 69.1818H120.158V61.1818H108.397V69.1818ZM120.158 69.1818C122.824 69.1818 125.358 68.8002 127.514 67.7652L124.052 60.553C123.367 60.8817 122.152 61.1818 120.158 61.1818V69.1818ZM127.5 67.7719C129.62 66.7642 131.363 65.2181 132.455 63.0825L125.332 59.4402C125.146 59.8046 124.815 60.1903 124.066 60.5463L127.5 67.7719ZM132.447 63.098C133.454 61.1511 133.874 58.9872 133.874 56.7443H125.874C125.874 57.9957 125.641 58.8433 125.34 59.4248L132.447 63.098ZM133.874 56.7443C133.874 54.4967 133.452 52.3353 132.472 50.3745L125.316 53.9522C125.643 54.605 125.874 55.4977 125.874 56.7443H133.874ZM132.472 50.3745C131.391 48.2134 129.673 46.6105 127.536 45.553L123.987 52.7226C124.72 53.0855 125.09 53.4997 125.316 53.9522L132.472 50.3745ZM127.565 45.5672C125.371 44.4596 122.787 44.0511 120.073 44.0511V52.0511C122.075 52.0511 123.283 52.3671 123.959 52.7084L127.565 45.5672ZM120.073 44.0511H110.783V52.0511H120.073V44.0511ZM106.783 48.0511V87H114.783V48.0511H106.783ZM110.783 83H105.499V91H110.783V83ZM122.531 69.3195L133.269 88.9218L140.285 85.0782L129.547 65.4759L122.531 69.3195ZM136.777 83H130.641V91H136.777V83ZM134.162 85.1018L123.594 65.4995L116.552 69.296L127.12 88.8982L134.162 85.1018ZM120.073 71.3977H126.039V63.3977H120.073V71.3977ZM149.878 87H145.878C145.878 89.2091 147.669 91 149.878 91V87ZM149.878 43.3636V39.3636C147.669 39.3636 145.878 41.1545 145.878 43.3636H149.878ZM176.213 43.3636H180.213C180.213 41.1545 178.422 39.3636 176.213 39.3636V43.3636ZM176.213 48.0511V52.0511C178.422 52.0511 180.213 50.2603 180.213 48.0511H176.213ZM155.162 48.0511V44.0511C152.953 44.0511 151.162 45.842 151.162 48.0511H155.162ZM155.162 62.7955H151.162C151.162 65.0046 152.953 66.7955 155.162 66.7955V62.7955ZM174.849 62.7955H178.849C178.849 60.5863 177.059 58.7955 174.849 58.7955V62.7955ZM174.849 67.483V71.483C177.059 71.483 178.849 69.6921 178.849 67.483H174.849ZM155.162 67.483V63.483C152.953 63.483 151.162 65.2738 151.162 67.483H155.162ZM155.162 82.3125H151.162C151.162 84.5216 152.953 86.3125 155.162 86.3125V82.3125ZM176.554 82.3125H180.554C180.554 80.1034 178.763 78.3125 176.554 78.3125V82.3125ZM176.554 87V91C178.763 91 180.554 89.2091 180.554 87H176.554ZM153.878 87V43.3636H145.878V87H153.878ZM149.878 47.3636H176.213V39.3636H149.878V47.3636ZM172.213 43.3636V48.0511H180.213V43.3636H172.213ZM176.213 44.0511H155.162V52.0511H176.213V44.0511ZM151.162 48.0511V62.7955H159.162V48.0511H151.162ZM155.162 66.7955H174.849V58.7955H155.162V66.7955ZM170.849 62.7955V67.483H178.849V62.7955H170.849ZM174.849 63.483H155.162V71.483H174.849V63.483ZM151.162 67.483V82.3125H159.162V67.483H151.162ZM155.162 86.3125H176.554V78.3125H155.162V86.3125ZM172.554 82.3125V87H180.554V82.3125H172.554ZM176.554 83H149.878V91H176.554V83ZM191.737 87H187.737C187.737 89.2091 189.528 91 191.737 91V87ZM191.737 43.3636V39.3636C189.528 39.3636 187.737 41.1545 187.737 43.3636H191.737ZM218.072 43.3636H222.072C222.072 41.1545 220.282 39.3636 218.072 39.3636V43.3636ZM218.072 48.0511V52.0511C220.282 52.0511 222.072 50.2603 222.072 48.0511H218.072ZM197.021 48.0511V44.0511C194.812 44.0511 193.021 45.842 193.021 48.0511H197.021ZM197.021 62.7955H193.021C193.021 65.0046 194.812 66.7955 197.021 66.7955V62.7955ZM216.709 62.7955H220.709C220.709 60.5863 218.918 58.7955 216.709 58.7955V62.7955ZM216.709 67.483V71.483C218.918 71.483 220.709 69.6921 220.709 67.483H216.709ZM197.021 67.483V63.483C194.812 63.483 193.021 65.2738 193.021 67.483H197.021ZM197.021 82.3125H193.021C193.021 84.5216 194.812 86.3125 197.021 86.3125V82.3125ZM218.413 82.3125H222.413C222.413 80.1034 220.622 78.3125 218.413 78.3125V82.3125ZM218.413 87V91C220.622 91 222.413 89.2091 222.413 87H218.413ZM195.737 87V43.3636H187.737V87H195.737ZM191.737 47.3636H218.072V39.3636H191.737V47.3636ZM214.072 43.3636V48.0511H222.072V43.3636H214.072ZM218.072 44.0511H197.021V52.0511H218.072V44.0511ZM193.021 48.0511V62.7955H201.021V48.0511H193.021ZM197.021 66.7955H216.709V58.7955H197.021V66.7955ZM212.709 62.7955V67.483H220.709V62.7955H212.709ZM216.709 63.483H197.021V71.483H216.709V63.483ZM193.021 67.483V82.3125H201.021V67.483H193.021ZM197.021 86.3125H218.413V78.3125H197.021V86.3125ZM214.413 82.3125V87H222.413V82.3125H214.413ZM218.413 83H191.737V91H218.413V83ZM280.335 54.2727L276.363 54.7431C276.601 56.7562 278.308 58.2727 280.335 58.2727V54.2727ZM277.224 49.2443L275.03 52.5885L277.224 49.2443ZM265.463 48.392L263.879 44.7192C263.874 44.7211 263.87 44.723 263.866 44.7249L265.463 48.392ZM262.097 50.9702L258.882 48.5903C258.875 48.5993 258.868 48.6084 258.862 48.6175L262.097 50.9702ZM261.734 57.7031L258.397 59.9089C258.412 59.9307 258.427 59.9525 258.442 59.9741L261.734 57.7031ZM263.908 59.7699L261.778 63.1557C261.791 63.164 261.804 63.1722 261.817 63.1803L263.908 59.7699ZM266.678 61.1122L265.297 64.8665C265.314 64.8725 265.33 64.8784 265.346 64.8842L266.678 61.1122ZM269.341 61.9432L270.381 58.0807C270.374 58.0788 270.366 58.0768 270.359 58.0749L269.341 61.9432ZM273.773 63.1364L272.733 66.9988C272.741 67.001 272.749 67.0032 272.757 67.0053L273.773 63.1364ZM277.565 64.3722L276.152 68.1143L276.165 68.119L277.565 64.3722ZM281.592 66.5241L279.274 69.784C279.288 69.7937 279.302 69.8034 279.315 69.8129L281.592 66.5241ZM284.788 69.9759L288.224 67.9281V67.9281L284.788 69.9759ZM284.192 81.5455L280.837 79.3673C280.833 79.3732 280.829 79.3791 280.825 79.385L284.192 81.5455ZM278.822 86.0838L277.104 82.472L277.095 82.476L278.822 86.0838ZM262.161 86.2543L260.538 89.9105L260.547 89.9142L262.161 86.2543ZM256.791 82.0355L253.54 84.3653C253.544 84.3709 253.548 84.3765 253.552 84.3821L256.791 82.0355ZM254.597 75.75V71.75C253.486 71.75 252.426 72.2116 251.669 73.0242C250.912 73.8368 250.528 74.9274 250.607 76.035L254.597 75.75ZM260.051 75.75L264.036 75.4064C263.858 73.3381 262.127 71.75 260.051 71.75V75.75ZM261.713 79.8409L258.732 82.5081C258.744 82.5219 258.757 82.5355 258.769 82.5491L261.713 79.8409ZM265.42 82.2273L264.091 85.9999C264.105 86.0049 264.12 86.0099 264.134 86.0148L265.42 82.2273ZM275.712 82.0142L277.22 85.719C277.229 85.7152 277.238 85.7114 277.248 85.7075L275.712 82.0142ZM279.526 79.2443L282.656 81.7339C282.661 81.7278 282.666 81.7217 282.671 81.7156L279.526 79.2443ZM279.717 71.5312L282.704 68.8709L279.717 71.5312ZM276.521 69.3153L274.941 72.9899V72.9899L276.521 69.3153ZM272.239 67.8239L271.14 71.67C271.149 71.6727 271.159 71.6753 271.168 71.6779L272.239 67.8239ZM266.869 66.2898L265.764 70.1341L265.77 70.1359L266.869 66.2898ZM258.773 62.0923L256.074 65.0444L258.773 62.0923ZM257.771 48.5625L254.539 46.2068L254.535 46.2113L257.771 48.5625ZM263.141 44.3011L264.78 47.9497L264.791 47.945L263.141 44.3011ZM278.205 44.2798L276.53 47.9124C276.536 47.9154 276.543 47.9183 276.549 47.9213L278.205 44.2798ZM283.403 48.3707L280.185 50.7453C280.189 50.751 280.193 50.7567 280.197 50.7623L283.403 48.3707ZM285.449 54.2727V58.2727C286.532 58.2727 287.569 57.8334 288.323 57.0552C289.076 56.277 289.482 55.2264 289.447 54.1438L285.449 54.2727ZM284.307 53.8023C283.913 50.4694 282.225 47.7414 279.419 45.9001L275.03 52.5885C275.86 53.1336 276.246 53.7579 276.363 54.7431L284.307 53.8023ZM279.419 45.9001C276.821 44.1949 273.787 43.4545 270.534 43.4545V51.4545C272.565 51.4545 273.992 51.9074 275.03 52.5885L279.419 45.9001ZM270.534 43.4545C268.176 43.4545 265.927 43.8357 263.879 44.7192L267.047 52.0649C267.897 51.6984 269.028 51.4545 270.534 51.4545V43.4545ZM263.866 44.7249C261.886 45.5873 260.167 46.8533 258.882 48.5903L265.312 53.3501C265.645 52.8996 266.171 52.4468 267.061 52.0592L263.866 44.7249ZM258.862 48.6175C257.554 50.4161 256.903 52.488 256.903 54.6989H264.903C264.903 54.1257 265.049 53.7118 265.332 53.3229L258.862 48.6175ZM256.903 54.6989C256.903 56.5199 257.345 58.3172 258.397 59.9089L265.071 55.4974C265.015 55.4129 264.903 55.2074 264.903 54.6989H256.903ZM258.442 59.9741C259.33 61.2623 260.456 62.3245 261.778 63.1557L266.037 56.384C265.598 56.1073 265.275 55.7917 265.027 55.4322L258.442 59.9741ZM261.817 63.1803C262.922 63.8573 264.083 64.4201 265.297 64.8665L268.058 57.3579C267.34 57.0941 266.655 56.762 265.998 56.3595L261.817 63.1803ZM265.346 64.8842C266.393 65.2538 267.387 65.5653 268.323 65.8115L270.359 58.0749C269.675 57.8949 268.893 57.6525 268.009 57.3403L265.346 64.8842ZM268.301 65.8056L272.733 66.9988L274.813 59.2739L270.381 58.0807L268.301 65.8056ZM272.757 67.0053C273.729 67.2604 274.858 67.6256 276.152 68.1143L278.978 60.63C277.488 60.0675 276.089 59.6089 274.788 59.2674L272.757 67.0053ZM276.165 68.119C277.231 68.5175 278.267 69.0674 279.274 69.784L283.91 63.2643C282.361 62.1627 280.712 61.278 278.966 60.6253L276.165 68.119ZM279.315 69.8129C280.118 70.3684 280.795 71.0884 281.352 72.0236L288.224 67.9281C287.106 66.0508 285.652 64.4697 283.869 63.2354L279.315 69.8129ZM281.352 72.0236C281.74 72.6735 282.045 73.6507 282.045 75.1534H290.045C290.045 72.5653 289.513 70.0907 288.224 67.9281L281.352 72.0236ZM282.045 75.1534C282.045 76.77 281.635 78.1385 280.837 79.3673L287.547 83.7236C289.22 81.1456 290.045 78.2527 290.045 75.1534H282.045ZM280.825 79.385C280.066 80.5683 278.894 81.6199 277.104 82.472L280.541 89.6957C283.467 88.3034 285.874 86.3295 287.558 83.7059L280.825 79.385ZM277.095 82.476C275.423 83.2764 273.2 83.767 270.278 83.767V91.767C274.061 91.767 277.534 91.1355 280.55 89.6916L277.095 82.476ZM270.278 83.767C267.574 83.767 265.443 83.3299 263.775 82.5943L260.547 89.9142C263.452 91.1956 266.732 91.767 270.278 91.767V83.767ZM263.783 82.5981C262.079 81.8418 260.877 80.857 260.031 79.6889L253.552 84.3821C255.319 86.822 257.697 88.6497 260.538 89.9104L263.783 82.5981ZM260.043 79.7057C259.214 78.549 258.709 77.1744 258.586 75.465L250.607 76.035C250.826 79.0983 251.783 81.9141 253.54 84.3653L260.043 79.7057ZM254.597 79.75H260.051V71.75H254.597V79.75ZM256.066 76.0936C256.271 78.4764 257.109 80.6938 258.732 82.5081L264.694 77.1737C264.386 76.829 264.115 76.319 264.036 75.4064L256.066 76.0936ZM258.769 82.5491C260.232 84.1395 262.041 85.2774 264.091 85.9999L266.75 78.4546C265.817 78.126 265.154 77.673 264.657 77.1327L258.769 82.5491ZM264.134 86.0148C266.09 86.6789 268.147 86.9943 270.278 86.9943V78.9943C268.944 78.9943 267.763 78.7983 266.707 78.4397L264.134 86.0148ZM270.278 86.9943C272.729 86.9943 275.064 86.5966 277.22 85.719L274.204 78.3094C273.149 78.7386 271.862 78.9943 270.278 78.9943V86.9943ZM277.248 85.7075C279.381 84.8204 281.237 83.5192 282.656 81.7339L276.395 76.7547C275.939 77.3274 275.253 77.8728 274.176 78.3209L277.248 85.7075ZM282.671 81.7156C284.19 79.7818 284.932 77.5087 284.932 75.0682H276.932C276.932 75.8095 276.736 76.3204 276.38 76.773L282.671 81.7156ZM284.932 75.0682C284.932 72.8351 284.286 70.6473 282.704 68.8709L276.73 74.1916C276.768 74.2334 276.932 74.4036 276.932 75.0682H284.932ZM282.704 68.8709C281.441 67.4528 279.864 66.3986 278.102 65.6408L274.941 72.9899C275.821 73.3684 276.374 73.7915 276.73 74.1916L282.704 68.8709ZM278.102 65.6408C276.599 64.9943 274.999 64.4392 273.309 63.9698L271.168 71.6779C272.547 72.0608 273.802 72.5001 274.941 72.9899L278.102 65.6408ZM273.338 63.9778L267.968 62.4437L265.77 70.1359L271.14 71.67L273.338 63.9778ZM267.975 62.4455C264.978 61.5841 262.884 60.4318 261.472 59.1402L256.074 65.0444C258.638 67.3892 261.942 69.0352 265.764 70.134L267.975 62.4455ZM261.472 59.1402C260.393 58.1538 259.79 56.8863 259.79 54.9545H251.79C251.79 58.9034 253.175 62.3945 256.074 65.0444L261.472 59.1402ZM259.79 54.9545C259.79 53.2785 260.227 51.9882 261.007 50.9137L254.535 46.2113C252.674 48.7731 251.79 51.7443 251.79 54.9545H259.79ZM261.004 50.9182C261.895 49.6953 263.115 48.6981 264.78 47.9497L261.501 40.6526C258.678 41.9212 256.318 43.7649 254.539 46.2068L261.004 50.9182ZM264.791 47.945C266.47 47.1843 268.419 46.767 270.705 46.767V38.767C267.422 38.767 264.328 39.3725 261.491 40.6573L264.791 47.945ZM270.705 46.767C273.035 46.767 274.948 47.1832 276.53 47.9124L279.879 40.6473C277.086 39.3594 273.999 38.767 270.705 38.767V46.767ZM276.549 47.9213C278.189 48.6668 279.356 49.6224 280.185 50.7453L286.622 45.9961C284.894 43.6532 282.595 41.8815 279.86 40.6384L276.549 47.9213ZM280.197 50.7623C280.991 51.8266 281.406 53.0009 281.451 54.4017L289.447 54.1438C289.35 51.1412 288.401 48.3808 286.61 45.9792L280.197 50.7623ZM285.449 50.2727H280.335V58.2727H285.449V50.2727ZM300.733 87H296.733C296.733 89.2091 298.524 91 300.733 91V87ZM300.733 43.3636V39.3636C298.524 39.3636 296.733 41.1545 296.733 43.3636H300.733ZM327.069 43.3636H331.069C331.069 41.1545 329.278 39.3636 327.069 39.3636V43.3636ZM327.069 48.0511V52.0511C329.278 52.0511 331.069 50.2603 331.069 48.0511H327.069ZM306.017 48.0511V44.0511C303.808 44.0511 302.017 45.842 302.017 48.0511H306.017ZM306.017 62.7955H302.017C302.017 65.0046 303.808 66.7955 306.017 66.7955V62.7955ZM325.705 62.7955H329.705C329.705 60.5863 327.914 58.7955 325.705 58.7955V62.7955ZM325.705 67.483V71.483C327.914 71.483 329.705 69.6921 329.705 67.483H325.705ZM306.017 67.483V63.483C303.808 63.483 302.017 65.2738 302.017 67.483H306.017ZM306.017 82.3125H302.017C302.017 84.5216 303.808 86.3125 306.017 86.3125V82.3125ZM327.409 82.3125H331.409C331.409 80.1034 329.619 78.3125 327.409 78.3125V82.3125ZM327.409 87V91C329.619 91 331.409 89.2091 331.409 87H327.409ZM304.733 87V43.3636H296.733V87H304.733ZM300.733 47.3636H327.069V39.3636H300.733V47.3636ZM323.069 43.3636V48.0511H331.069V43.3636H323.069ZM327.069 44.0511H306.017V52.0511H327.069V44.0511ZM302.017 48.0511V62.7955H310.017V48.0511H302.017ZM306.017 66.7955H325.705V58.7955H306.017V66.7955ZM321.705 62.7955V67.483H329.705V62.7955H321.705ZM325.705 63.483H306.017V71.483H325.705V63.483ZM302.017 67.483V82.3125H310.017V67.483H302.017ZM306.017 86.3125H327.409V78.3125H306.017V86.3125ZM323.409 82.3125V87H331.409V82.3125H323.409ZM327.409 83H300.733V91H327.409V83ZM342.593 87H338.593C338.593 89.2091 340.384 91 342.593 91V87ZM342.593 43.3636V39.3636C340.384 39.3636 338.593 41.1545 338.593 43.3636H342.593ZM365.732 45.1108L363.852 48.6415C363.858 48.6447 363.864 48.6478 363.87 48.651L365.732 45.1108ZM370.59 49.8622L367.043 51.7108V51.7108L370.59 49.8622ZM370.59 63.5838L367.053 61.7146V61.7146L370.59 63.5838ZM365.753 68.2713L367.588 71.8255C367.594 71.8223 367.601 71.8192 367.607 71.816L365.753 68.2713ZM345.49 69.9545H341.49C341.49 72.1637 343.281 73.9545 345.49 73.9545V69.9545ZM345.49 65.1818V61.1818C343.281 61.1818 341.49 62.9727 341.49 65.1818H345.49ZM362.877 64.1591L361.16 60.5463C361.155 60.5485 361.151 60.5508 361.146 60.553L362.877 64.1591ZM365.988 61.2614L362.434 59.4248C362.431 59.4299 362.429 59.4351 362.426 59.4402L365.988 61.2614ZM362.855 49.1378L361.052 52.7084C361.062 52.7132 361.071 52.7179 361.081 52.7226L362.855 49.1378ZM347.877 48.0511V44.0511C345.668 44.0511 343.877 45.842 343.877 48.0511H347.877ZM347.877 87V91C350.086 91 351.877 89.2091 351.877 87H347.877ZM363.132 67.3977L366.641 65.4759C365.939 64.1944 364.594 63.3977 363.132 63.3977V67.3977ZM373.871 87V91C375.284 91 376.592 90.2545 377.313 89.0387C378.033 87.823 378.058 86.3175 377.379 85.0782L373.871 87ZM367.735 87L364.214 88.8982C364.912 90.1928 366.264 91 367.735 91V87ZM357.167 67.3977V63.3977C355.758 63.3977 354.454 64.1383 353.732 65.3475C353.01 66.5567 352.977 68.0564 353.646 69.296L357.167 67.3977ZM346.593 87V43.3636H338.593V87H346.593ZM342.593 47.3636H357.337V39.3636H342.593V47.3636ZM357.337 47.3636C360.324 47.3636 362.419 47.8787 363.852 48.6415L367.612 41.5801C364.669 40.0133 361.168 39.3636 357.337 39.3636V47.3636ZM363.87 48.651C365.402 49.4569 366.401 50.479 367.043 51.7108L374.137 48.0137C372.677 45.2113 370.437 43.0659 367.594 41.5706L363.87 48.651ZM367.043 51.7108C367.759 53.0863 368.167 54.7321 368.167 56.7443H376.167C376.167 53.6145 375.523 50.6722 374.137 48.0137L367.043 51.7108ZM368.167 56.7443C368.167 58.7578 367.759 60.3797 367.053 61.7146L374.126 65.453C375.523 62.8107 376.167 59.8729 376.167 56.7443H368.167ZM367.053 61.7146C366.415 62.9224 365.423 63.93 363.9 64.7266L367.607 71.816C370.43 70.3399 372.662 68.2225 374.126 65.453L367.053 61.7146ZM363.918 64.7171C362.487 65.4561 360.395 65.9545 357.422 65.9545V73.9545C361.211 73.9545 364.673 73.3308 367.588 71.8255L363.918 64.7171ZM357.422 65.9545H345.49V73.9545H357.422V65.9545ZM349.49 69.9545V65.1818H341.49V69.9545H349.49ZM345.49 69.1818H357.252V61.1818H345.49V69.1818ZM357.252 69.1818C359.917 69.1818 362.452 68.8002 364.608 67.7652L361.146 60.553C360.461 60.8817 359.245 61.1818 357.252 61.1818V69.1818ZM364.594 67.7719C366.714 66.7642 368.457 65.2181 369.549 63.0825L362.426 59.4402C362.24 59.8046 361.909 60.1903 361.16 60.5463L364.594 67.7719ZM369.541 63.098C370.547 61.1511 370.968 58.9872 370.968 56.7443H362.968C362.968 57.9957 362.735 58.8433 362.434 59.4248L369.541 63.098ZM370.968 56.7443C370.968 54.4967 370.546 52.3353 369.565 50.3745L362.41 53.9522C362.736 54.605 362.968 55.4977 362.968 56.7443H370.968ZM369.565 50.3745C368.485 48.2134 366.766 46.6105 364.63 45.553L361.081 52.7226C361.814 53.0855 362.184 53.4997 362.41 53.9522L369.565 50.3745ZM364.658 45.5672C362.465 44.4596 359.88 44.0511 357.167 44.0511V52.0511C359.169 52.0511 360.377 52.3671 361.052 52.7084L364.658 45.5672ZM357.167 44.0511H347.877V52.0511H357.167V44.0511ZM343.877 48.0511V87H351.877V48.0511H343.877ZM347.877 83H342.593V91H347.877V83ZM359.624 69.3195L370.363 88.9218L377.379 85.0782L366.641 65.4759L359.624 69.3195ZM373.871 83H367.735V91H373.871V83ZM371.256 85.1018L360.687 65.4995L353.646 69.296L364.214 88.8982L371.256 85.1018ZM357.167 71.3977H363.132V63.3977H357.167V71.3977ZM387.765 43.3636L391.538 42.0333C390.973 40.4336 389.462 39.3636 387.765 39.3636V43.3636ZM400.72 80.0966L396.948 81.427C397.512 83.0267 399.024 84.0966 400.72 84.0966V80.0966ZM401.231 80.0966V84.0966C402.927 84.0966 404.439 83.0267 405.003 81.427L401.231 80.0966ZM414.186 43.3636V39.3636C412.489 39.3636 410.978 40.4336 410.413 42.0333L414.186 43.3636ZM419.725 43.3636L423.48 44.7424C423.931 43.5154 423.754 42.1457 423.005 41.074C422.257 40.0022 421.033 39.3636 419.725 39.3636V43.3636ZM403.703 87V91C405.38 91 406.879 89.9534 407.458 88.3787L403.703 87ZM398.248 87L394.493 88.3787C395.072 89.9534 396.571 91 398.248 91V87ZM382.225 43.3636V39.3636C380.918 39.3636 379.694 40.0022 378.946 41.074C378.197 42.1457 378.02 43.5154 378.471 44.7424L382.225 43.3636ZM383.993 44.694L396.948 81.427L404.492 78.7662L391.538 42.0333L383.993 44.694ZM400.72 84.0966H401.231V76.0966H400.72V84.0966ZM405.003 81.427L417.958 44.694L410.413 42.0333L397.459 78.7662L405.003 81.427ZM414.186 47.3636H419.725V39.3636H414.186V47.3636ZM415.971 41.9849L399.948 85.6213L407.458 88.3787L423.48 44.7424L415.971 41.9849ZM403.703 83H398.248V91H403.703V83ZM402.003 85.6213L385.98 41.9849L378.471 44.7424L394.493 88.3787L402.003 85.6213ZM382.225 47.3636H387.765V39.3636H382.225V47.3636ZM432.522 87H428.522C428.522 89.2091 430.313 91 432.522 91V87ZM432.522 43.3636V39.3636C430.313 39.3636 428.522 41.1545 428.522 43.3636H432.522ZM458.858 43.3636H462.858C462.858 41.1545 461.067 39.3636 458.858 39.3636V43.3636ZM458.858 48.0511V52.0511C461.067 52.0511 462.858 50.2603 462.858 48.0511H458.858ZM437.806 48.0511V44.0511C435.597 44.0511 433.806 45.842 433.806 48.0511H437.806ZM437.806 62.7955H433.806C433.806 65.0046 435.597 66.7955 437.806 66.7955V62.7955ZM457.494 62.7955H461.494C461.494 60.5863 459.703 58.7955 457.494 58.7955V62.7955ZM457.494 67.483V71.483C459.703 71.483 461.494 69.6921 461.494 67.483H457.494ZM437.806 67.483V63.483C435.597 63.483 433.806 65.2738 433.806 67.483H437.806ZM437.806 82.3125H433.806C433.806 84.5216 435.597 86.3125 437.806 86.3125V82.3125ZM459.199 82.3125H463.199C463.199 80.1034 461.408 78.3125 459.199 78.3125V82.3125ZM459.199 87V91C461.408 91 463.199 89.2091 463.199 87H459.199ZM436.522 87V43.3636H428.522V87H436.522ZM432.522 47.3636H458.858V39.3636H432.522V47.3636ZM454.858 43.3636V48.0511H462.858V43.3636H454.858ZM458.858 44.0511H437.806V52.0511H458.858V44.0511ZM433.806 48.0511V62.7955H441.806V48.0511H433.806ZM437.806 66.7955H457.494V58.7955H437.806V66.7955ZM453.494 62.7955V67.483H461.494V62.7955H453.494ZM457.494 63.483H437.806V71.483H457.494V63.483ZM433.806 67.483V82.3125H441.806V67.483H433.806ZM437.806 86.3125H459.199V78.3125H437.806V86.3125ZM455.199 82.3125V87H463.199V82.3125H455.199ZM459.199 83H432.522V91H459.199V83ZM474.382 87H470.382C470.382 89.2091 472.173 91 474.382 91V87ZM474.382 43.3636V39.3636C472.173 39.3636 470.382 41.1545 470.382 43.3636H474.382ZM497.521 45.1108L495.641 48.6415C495.647 48.6447 495.653 48.6478 495.659 48.651L497.521 45.1108ZM502.379 49.8622L498.832 51.7108V51.7108L502.379 49.8622ZM502.379 63.5838L498.843 61.7146V61.7146L502.379 63.5838ZM497.542 68.2713L499.377 71.8255C499.384 71.8223 499.39 71.8192 499.396 71.816L497.542 68.2713ZM477.279 69.9545H473.279C473.279 72.1637 475.07 73.9545 477.279 73.9545V69.9545ZM477.279 65.1818V61.1818C475.07 61.1818 473.279 62.9727 473.279 65.1818H477.279ZM494.666 64.1591L492.949 60.5463C492.944 60.5485 492.94 60.5508 492.935 60.553L494.666 64.1591ZM497.777 61.2614L494.223 59.4248C494.221 59.4299 494.218 59.4351 494.215 59.4402L497.777 61.2614ZM494.645 49.1378L492.842 52.7084C492.851 52.7132 492.86 52.7179 492.87 52.7226L494.645 49.1378ZM479.666 48.0511V44.0511C477.457 44.0511 475.666 45.842 475.666 48.0511H479.666ZM479.666 87V91C481.875 91 483.666 89.2091 483.666 87H479.666ZM494.922 67.3977L498.43 65.4759C497.728 64.1944 496.383 63.3977 494.922 63.3977V67.3977ZM505.66 87V91C507.073 91 508.381 90.2545 509.102 89.0387C509.822 87.823 509.847 86.3175 509.168 85.0782L505.66 87ZM499.524 87L496.003 88.8982C496.701 90.1928 498.053 91 499.524 91V87ZM488.956 67.3977V63.3977C487.547 63.3977 486.243 64.1383 485.521 65.3475C484.799 66.5567 484.766 68.0564 485.435 69.296L488.956 67.3977ZM478.382 87V43.3636H470.382V87H478.382ZM474.382 47.3636H489.126V39.3636H474.382V47.3636ZM489.126 47.3636C492.113 47.3636 494.208 47.8787 495.641 48.6415L499.401 41.5801C496.458 40.0133 492.957 39.3636 489.126 39.3636V47.3636ZM495.659 48.651C497.191 49.4569 498.19 50.479 498.832 51.7108L505.926 48.0137C504.466 45.2113 502.226 43.0659 499.383 41.5706L495.659 48.651ZM498.832 51.7108C499.548 53.0863 499.956 54.7321 499.956 56.7443H507.956C507.956 53.6145 507.312 50.6722 505.926 48.0137L498.832 51.7108ZM499.956 56.7443C499.956 58.7578 499.548 60.3797 498.843 61.7146L505.915 65.453C507.312 62.8107 507.956 59.8729 507.956 56.7443H499.956ZM498.843 61.7146C498.204 62.9224 497.212 63.93 495.689 64.7266L499.396 71.816C502.219 70.3399 504.451 68.2225 505.915 65.453L498.843 61.7146ZM495.707 64.7171C494.276 65.4561 492.184 65.9545 489.211 65.9545V73.9545C493 73.9545 496.462 73.3308 499.377 71.8255L495.707 64.7171ZM489.211 65.9545H477.279V73.9545H489.211V65.9545ZM481.279 69.9545V65.1818H473.279V69.9545H481.279ZM477.279 69.1818H489.041V61.1818H477.279V69.1818ZM489.041 69.1818C491.706 69.1818 494.241 68.8002 496.397 67.7652L492.935 60.553C492.25 60.8817 491.034 61.1818 489.041 61.1818V69.1818ZM496.383 67.7719C498.503 66.7642 500.246 65.2181 501.338 63.0825L494.215 59.4402C494.029 59.8046 493.698 60.1903 492.949 60.5463L496.383 67.7719ZM501.33 63.098C502.336 61.1511 502.757 58.9872 502.757 56.7443H494.757C494.757 57.9957 494.524 58.8433 494.223 59.4248L501.33 63.098ZM502.757 56.7443C502.757 54.4967 502.335 52.3353 501.354 50.3745L494.199 53.9522C494.525 54.605 494.757 55.4977 494.757 56.7443H502.757ZM501.354 50.3745C500.274 48.2134 498.555 46.6105 496.419 45.553L492.87 52.7226C493.603 53.0855 493.973 53.4997 494.199 53.9522L501.354 50.3745ZM496.448 45.5672C494.254 44.4596 491.67 44.0511 488.956 44.0511V52.0511C490.958 52.0511 492.166 52.3671 492.842 52.7084L496.448 45.5672ZM488.956 44.0511H479.666V52.0511H488.956V44.0511ZM475.666 48.0511V87H483.666V48.0511H475.666ZM479.666 83H474.382V91H479.666V83ZM491.413 69.3195L502.152 88.9218L509.168 85.0782L498.43 65.4759L491.413 69.3195ZM505.66 83H499.524V91H505.66V83ZM503.045 85.1018L492.477 65.4995L485.435 69.296L496.003 88.8982L503.045 85.1018ZM488.956 71.3977H494.922V63.3977H488.956V71.3977ZM542.624 54.2727L538.652 54.7431C538.89 56.7562 540.597 58.2727 542.624 58.2727V54.2727ZM539.513 49.2443L537.319 52.5885L539.513 49.2443ZM527.752 48.392L526.168 44.7192C526.163 44.7211 526.159 44.723 526.155 44.7249L527.752 48.392ZM524.386 50.9702L521.171 48.5903C521.164 48.5993 521.157 48.6084 521.151 48.6175L524.386 50.9702ZM524.023 57.7031L520.687 59.9089C520.701 59.9307 520.716 59.9525 520.731 59.9741L524.023 57.7031ZM526.197 59.7699L524.067 63.1557C524.08 63.164 524.093 63.1722 524.106 63.1803L526.197 59.7699ZM528.967 61.1122L527.586 64.8665C527.603 64.8725 527.619 64.8784 527.635 64.8842L528.967 61.1122ZM531.63 61.9432L532.67 58.0807C532.663 58.0788 532.655 58.0768 532.648 58.0749L531.63 61.9432ZM536.062 63.1364L535.022 66.9988C535.03 67.001 535.038 67.0032 535.046 67.0053L536.062 63.1364ZM539.854 64.3722L538.442 68.1143L538.454 68.119L539.854 64.3722ZM543.881 66.5241L541.563 69.784C541.577 69.7937 541.591 69.8034 541.605 69.8129L543.881 66.5241ZM547.077 69.9759L550.513 67.9281V67.9281L547.077 69.9759ZM546.481 81.5455L543.126 79.3673C543.122 79.3732 543.118 79.3791 543.114 79.385L546.481 81.5455ZM541.112 86.0838L539.393 82.472L539.384 82.476L541.112 86.0838ZM524.45 86.2543L522.827 89.9105L522.836 89.9142L524.45 86.2543ZM519.08 82.0355L515.829 84.3653C515.833 84.3709 515.837 84.3765 515.841 84.3821L519.08 82.0355ZM516.886 75.75V71.75C515.775 71.75 514.715 72.2116 513.958 73.0242C513.202 73.8368 512.817 74.9274 512.896 76.035L516.886 75.75ZM522.34 75.75L526.325 75.4064C526.147 73.3381 524.416 71.75 522.34 71.75V75.75ZM524.002 79.8409L521.021 82.5081C521.033 82.5219 521.046 82.5355 521.058 82.5491L524.002 79.8409ZM527.71 82.2273L526.38 85.9999C526.394 86.0049 526.409 86.0099 526.423 86.0148L527.71 82.2273ZM538.001 82.0142L539.509 85.719C539.518 85.7152 539.528 85.7114 539.537 85.7075L538.001 82.0142ZM541.815 79.2443L544.945 81.7339C544.95 81.7278 544.955 81.7217 544.96 81.7156L541.815 79.2443ZM542.006 71.5312L544.993 68.8709H544.993L542.006 71.5312ZM538.81 69.3153L537.23 72.9899V72.9899L538.81 69.3153ZM534.528 67.8239L533.429 71.67C533.438 71.6727 533.448 71.6753 533.457 71.6779L534.528 67.8239ZM529.158 66.2898L528.053 70.1341L528.06 70.1359L529.158 66.2898ZM521.062 62.0923L518.363 65.0444L521.062 62.0923ZM520.06 48.5625L516.828 46.2068L516.824 46.2113L520.06 48.5625ZM525.43 44.3011L527.069 47.9497L527.08 47.945L525.43 44.3011ZM540.494 44.2798L538.819 47.9124C538.825 47.9154 538.832 47.9183 538.838 47.9213L540.494 44.2798ZM545.692 48.3707L542.474 50.7453C542.478 50.751 542.482 50.7567 542.486 50.7623L545.692 48.3707ZM547.738 54.2727V58.2727C548.821 58.2727 549.858 57.8334 550.612 57.0552C551.365 56.277 551.771 55.2264 551.736 54.1438L547.738 54.2727ZM546.597 53.8023C546.202 50.4694 544.514 47.7414 541.708 45.9001L537.319 52.5885C538.149 53.1336 538.535 53.7579 538.652 54.7431L546.597 53.8023ZM541.708 45.9001C539.11 44.1949 536.076 43.4545 532.823 43.4545V51.4545C534.854 51.4545 536.281 51.9074 537.319 52.5885L541.708 45.9001ZM532.823 43.4545C530.466 43.4545 528.216 43.8357 526.168 44.7192L529.336 52.0649C530.186 51.6984 531.317 51.4545 532.823 51.4545V43.4545ZM526.155 44.7249C524.175 45.5873 522.457 46.8533 521.171 48.5903L527.601 53.3501C527.934 52.8996 528.46 52.4468 529.35 52.0592L526.155 44.7249ZM521.151 48.6175C519.843 50.4161 519.192 52.488 519.192 54.6989H527.192C527.192 54.1257 527.338 53.7118 527.621 53.3229L521.151 48.6175ZM519.192 54.6989C519.192 56.5199 519.634 58.3172 520.687 59.9089L527.36 55.4974C527.304 55.4129 527.192 55.2074 527.192 54.6989H519.192ZM520.731 59.9741C521.619 61.2623 522.746 62.3245 524.067 63.1557L528.327 56.384C527.887 56.1073 527.564 55.7917 527.316 55.4322L520.731 59.9741ZM524.106 63.1803C525.211 63.8573 526.372 64.4201 527.586 64.8665L530.347 57.3579C529.629 57.0941 528.944 56.762 528.287 56.3595L524.106 63.1803ZM527.635 64.8842C528.683 65.2538 529.676 65.5653 530.612 65.8115L532.648 58.0749C531.964 57.8949 531.183 57.6525 530.298 57.3403L527.635 64.8842ZM530.59 65.8056L535.022 66.9988L537.102 59.2739L532.67 58.0807L530.59 65.8056ZM535.046 67.0053C536.018 67.2604 537.147 67.6256 538.442 68.1143L541.267 60.63C539.778 60.0675 538.378 59.6089 537.077 59.2674L535.046 67.0053ZM538.454 68.119C539.52 68.5175 540.556 69.0674 541.563 69.784L546.199 63.2643C544.65 62.1627 543.001 61.278 541.255 60.6253L538.454 68.119ZM541.605 69.8129C542.407 70.3684 543.084 71.0884 543.641 72.0236L550.513 67.9281C549.395 66.0508 547.941 64.4697 546.158 63.2354L541.605 69.8129ZM543.641 72.0236C544.029 72.6735 544.335 73.6507 544.335 75.1534H552.335C552.335 72.5653 551.802 70.0907 550.513 67.9281L543.641 72.0236ZM544.335 75.1534C544.335 76.77 543.924 78.1385 543.126 79.3673L549.836 83.7236C551.51 81.1456 552.335 78.2527 552.335 75.1534H544.335ZM543.114 79.385C542.355 80.5683 541.183 81.6199 539.393 82.472L542.83 89.6957C545.756 88.3034 548.163 86.3295 549.847 83.7059L543.114 79.385ZM539.384 82.476C537.712 83.2764 535.489 83.767 532.567 83.767V91.767C536.35 91.767 539.823 91.1355 542.839 89.6916L539.384 82.476ZM532.567 83.767C529.863 83.767 527.732 83.3299 526.064 82.5943L522.836 89.9142C525.741 91.1956 529.021 91.767 532.567 91.767V83.767ZM526.072 82.5981C524.368 81.8418 523.166 80.857 522.32 79.6889L515.841 84.3821C517.608 86.822 519.986 88.6497 522.827 89.9104L526.072 82.5981ZM522.332 79.7057C521.503 78.549 520.998 77.1744 520.875 75.465L512.896 76.035C513.115 79.0983 514.072 81.9141 515.829 84.3653L522.332 79.7057ZM516.886 79.75H522.34V71.75H516.886V79.75ZM518.355 76.0936C518.56 78.4764 519.398 80.6938 521.021 82.5081L526.983 77.1737C526.675 76.829 526.404 76.319 526.325 75.4064L518.355 76.0936ZM521.058 82.5491C522.522 84.1395 524.33 85.2774 526.38 85.9999L529.039 78.4546C528.106 78.126 527.443 77.673 526.946 77.1327L521.058 82.5491ZM526.423 86.0148C528.379 86.6789 530.436 86.9943 532.567 86.9943V78.9943C531.233 78.9943 530.052 78.7983 528.996 78.4397L526.423 86.0148ZM532.567 86.9943C535.018 86.9943 537.353 86.5966 539.509 85.719L536.493 78.3094C535.438 78.7386 534.151 78.9943 532.567 78.9943V86.9943ZM539.537 85.7075C541.67 84.8204 543.526 83.5192 544.945 81.7339L538.684 76.7547C538.228 77.3274 537.542 77.8728 536.465 78.3209L539.537 85.7075ZM544.96 81.7156C546.479 79.7818 547.221 77.5087 547.221 75.0682H539.221C539.221 75.8095 539.025 76.3204 538.669 76.773L544.96 81.7156ZM547.221 75.0682C547.221 72.8351 546.576 70.6473 544.993 68.8709L539.019 74.1916C539.057 74.2334 539.221 74.4036 539.221 75.0682H547.221ZM544.993 68.8709C543.73 67.4528 542.153 66.3986 540.391 65.6408L537.23 72.9899C538.11 73.3684 538.663 73.7915 539.019 74.1916L544.993 68.8709ZM540.391 65.6408C538.888 64.9943 537.288 64.4392 535.598 63.9698L533.457 71.6779C534.836 72.0608 536.091 72.5001 537.23 72.9899L540.391 65.6408ZM535.627 63.9778L530.257 62.4437L528.06 70.1359L533.429 71.67L535.627 63.9778ZM530.264 62.4455C527.267 61.5841 525.174 60.4318 523.761 59.1402L518.363 65.0444C520.927 67.3892 524.231 69.0352 528.053 70.134L530.264 62.4455ZM523.761 59.1402C522.682 58.1538 522.079 56.8863 522.079 54.9545H514.079C514.079 58.9034 515.464 62.3945 518.363 65.0444L523.761 59.1402ZM522.079 54.9545C522.079 53.2785 522.516 51.9882 523.296 50.9137L516.824 46.2113C514.963 48.7731 514.079 51.7443 514.079 54.9545H522.079ZM523.293 50.9182C524.184 49.6953 525.404 48.6981 527.069 47.9497L523.79 40.6526C520.967 41.9212 518.607 43.7649 516.828 46.2068L523.293 50.9182ZM527.08 47.945C528.759 47.1843 530.708 46.767 532.994 46.767V38.767C529.711 38.767 526.617 39.3725 523.78 40.6573L527.08 47.945ZM532.994 46.767C535.324 46.767 537.237 47.1832 538.819 47.9124L542.168 40.6473C539.375 39.3594 536.288 38.767 532.994 38.767V46.767ZM538.838 47.9213C540.479 48.6668 541.645 49.6224 542.474 50.7453L548.911 45.9961C547.183 43.6532 544.884 41.8815 542.149 40.6384L538.838 47.9213ZM542.486 50.7623C543.28 51.8266 543.695 53.0009 543.74 54.4017L551.736 54.1438C551.639 51.1412 550.69 48.3808 548.899 45.9792L542.486 50.7623ZM547.738 50.2727H542.624V58.2727H547.738V50.2727Z" fill="#D42444" mask="url(#path-10-outside-2_61_124)"/>
<rect x="93" y="126" width="230" height="70" rx="15" fill="#FFB7C4" stroke="#5F0F1D" stroke-width="10"/>
<circle cx="288" cy="161" r="15" fill="#14FF00" stroke="#5F0F1D" stroke-width="10"/>
<rect x="121.681" y="139.496" width="10" height="40" rx="5" transform="rotate(20 121.681 139.496)" fill="#5F0F1D"/>
<rect x="181.681" y="139.496" width="10" height="40" rx="5" transform="rotate(20 181.681 139.496)" fill="#5F0F1D"/>
<rect x="141.681" y="139.496" width="10" height="40" rx="5" transform="rotate(20 141.681 139.496)" fill="#5F0F1D"/>
<rect x="201.681" y="139.496" width="10" height="40" rx="5" transform="rotate(20 201.681 139.496)" fill="#5F0F1D"/>
<rect x="161.681" y="139.496" width="10" height="40" rx="5" transform="rotate(20 161.681 139.496)" fill="#5F0F1D"/>
<rect x="221.681" y="139.496" width="10" height="40" rx="5" transform="rotate(20 221.681 139.496)" fill="#5F0F1D"/>
<rect x="93" y="196" width="230" height="70" rx="15" fill="#FFB7C4" stroke="#5F0F1D" stroke-width="10"/>
<circle cx="288" cy="231" r="15" fill="#FF0000" stroke="#5F0F1D" stroke-width="10"/>
<rect x="121.681" y="209.496" width="10" height="40" rx="5" transform="rotate(20 121.681 209.496)" fill="#5F0F1D"/>
<rect x="181.681" y="209.496" width="10" height="40" rx="5" transform="rotate(20 181.681 209.496)" fill="#5F0F1D"/>
<rect x="141.681" y="209.496" width="10" height="40" rx="5" transform="rotate(20 141.681 209.496)" fill="#5F0F1D"/>
<rect x="201.681" y="209.496" width="10" height="40" rx="5" transform="rotate(20 201.681 209.496)" fill="#5F0F1D"/>
<rect x="161.681" y="209.496" width="10" height="40" rx="5" transform="rotate(20 161.681 209.496)" fill="#5F0F1D"/>
<rect x="221.681" y="209.496" width="10" height="40" rx="5" transform="rotate(20 221.681 209.496)" fill="#5F0F1D"/>
<rect x="275" y="191" width="99" height="10" fill="#5F0F1D"/>
<rect x="379" y="121" width="150" height="9.99999" rx="5" transform="rotate(90 379 121)" fill="#5F0F1D"/>
<circle cx="374" cy="196" r="13" fill="#E22648" stroke="#5F0F1D" stroke-width="10"/>
<circle cx="469.5" cy="160.5" r="29.5" fill="#56E24A" stroke="#5F0F1D" stroke-width="6"/>
<path d="M457 159.5L466.5 169L481.5 154" stroke="#5F0F1D" stroke-width="6" stroke-linecap="round" stroke-linejoin="round"/>
<circle cx="469.5" cy="230.5" r="29.5" fill="#FF0000" stroke="#5F0F1D" stroke-width="6"/>
<path d="M458 219L469.5 230.5M481 242L469.5 230.5M469.5 230.5L481 219L458 242" stroke="#5F0F1D" stroke-width="6" stroke-linecap="round" stroke-linejoin="round"/>
</g>
<defs>
<clipPath id="clip0_61_124">
<rect width="600" height="300" fill="white"/>
</clipPath>
</defs>
</svg>
