<svg width="600" height="300" viewBox="0 0 600 300" fill="none" xmlns="http://www.w3.org/2000/svg">
<rect width="600" height="300" fill="#FFAB19"/>
<path d="M132.911 184.55V220H126.711V205.05L126.936 199.15L125.161 201.85L118.311 209.9L111.461 201.85L109.686 199.15L109.961 205.05V220H103.761V184.55H104.261L118.361 201.175L132.361 184.55H132.911ZM153.609 220.6C150.509 220.6 147.868 219.867 145.684 218.4C143.501 216.917 141.851 214.825 140.734 212.125C139.618 209.408 139.059 206.217 139.059 202.55C139.059 198.917 139.609 195.75 140.709 193.05C141.826 190.333 143.459 188.242 145.609 186.775C147.776 185.292 150.393 184.55 153.459 184.55C156.643 184.55 159.326 185.3 161.509 186.8C163.693 188.283 165.326 190.375 166.409 193.075C167.509 195.775 168.059 198.933 168.059 202.55C168.059 206.217 167.493 209.408 166.359 212.125C165.243 214.825 163.601 216.917 161.434 218.4C159.268 219.867 156.659 220.6 153.609 220.6ZM153.609 215.25C155.093 215.25 156.418 214.775 157.584 213.825C158.768 212.875 159.701 211.433 160.384 209.5C161.068 207.567 161.409 205.2 161.409 202.4C161.409 198.283 160.709 195.15 159.309 193C157.926 190.833 155.976 189.75 153.459 189.75C151.009 189.75 149.109 190.833 147.759 193C146.426 195.15 145.759 198.3 145.759 202.45C145.759 205.283 146.076 207.658 146.709 209.575C147.359 211.475 148.268 212.9 149.434 213.85C150.618 214.783 152.009 215.25 153.609 215.25ZM189.52 220L180.57 207.4V220H174.22V185.15H183.92C192.186 185.15 196.32 188.85 196.32 196.25C196.32 197.9 196.053 199.525 195.52 201.125C194.986 202.708 194.111 204.117 192.895 205.35C191.695 206.583 190.153 207.433 188.27 207.9L197.27 220H189.52ZM183.22 204.25C184.636 204.25 185.845 203.917 186.845 203.25C187.861 202.567 188.628 201.667 189.145 200.55C189.661 199.417 189.92 198.183 189.92 196.85C189.92 194.55 189.386 192.858 188.32 191.775C187.27 190.692 185.52 190.15 183.07 190.15H180.57V204.25H183.22ZM222.127 214.35V220H202.927V185.15H221.127V190.6H209.177V198.75H218.677V204.05H209.177V214.35H222.127ZM249.691 220.6C247.175 220.6 244.841 219.925 242.691 218.575C240.541 217.208 238.808 215.133 237.491 212.35C236.191 209.567 235.541 206.15 235.541 202.1C235.541 198.417 236.191 195.258 237.491 192.625C238.791 189.975 240.55 187.967 242.766 186.6C245 185.233 247.491 184.55 250.241 184.55C251.925 184.55 253.35 184.717 254.516 185.05C255.683 185.367 256.6 185.742 257.266 186.175C257.933 186.592 258.575 187.083 259.191 187.65L256.391 192.9C255.808 192.267 255.291 191.783 254.841 191.45C254.391 191.1 253.816 190.825 253.116 190.625C252.433 190.408 251.558 190.3 250.491 190.3C248.825 190.3 247.391 190.792 246.191 191.775C244.991 192.742 244.075 194.092 243.441 195.825C242.808 197.542 242.491 199.517 242.491 201.75C242.491 204.55 242.816 206.942 243.466 208.925C244.133 210.908 245.025 212.4 246.141 213.4C247.275 214.4 248.541 214.9 249.941 214.9C251.425 214.9 252.733 214.692 253.866 214.275C255.016 213.858 255.891 213.333 256.491 212.7L259.241 217.65C258.225 218.483 256.991 219.183 255.541 219.75C254.108 220.317 252.158 220.6 249.691 220.6ZM276.07 220.6C272.97 220.6 270.329 219.867 268.145 218.4C265.962 216.917 264.312 214.825 263.195 212.125C262.079 209.408 261.52 206.217 261.52 202.55C261.52 198.917 262.07 195.75 263.17 193.05C264.287 190.333 265.92 188.242 268.07 186.775C270.237 185.292 272.854 184.55 275.92 184.55C279.104 184.55 281.787 185.3 283.97 186.8C286.154 188.283 287.787 190.375 288.87 193.075C289.97 195.775 290.52 198.933 290.52 202.55C290.52 206.217 289.954 209.408 288.82 212.125C287.704 214.825 286.062 216.917 283.895 218.4C281.729 219.867 279.12 220.6 276.07 220.6ZM276.07 215.25C277.554 215.25 278.879 214.775 280.045 213.825C281.229 212.875 282.162 211.433 282.845 209.5C283.529 207.567 283.87 205.2 283.87 202.4C283.87 198.283 283.17 195.15 281.77 193C280.387 190.833 278.437 189.75 275.92 189.75C273.47 189.75 271.57 190.833 270.22 193C268.887 195.15 268.22 198.3 268.22 202.45C268.22 205.283 268.537 207.658 269.17 209.575C269.82 211.475 270.729 212.9 271.895 213.85C273.079 214.783 274.47 215.25 276.07 215.25ZM321.33 185.15V220.7H320.83L304.13 201.65L302.58 199.65L302.83 204.5V220H296.68V184.55H297.23L313.68 203.75L315.43 206.025L315.18 201.25V185.15H321.33ZM338.587 185.15C343.687 185.15 347.595 186.583 350.312 189.45C353.029 192.3 354.387 196.533 354.387 202.15C354.387 205.8 353.77 208.967 352.537 211.65C351.32 214.317 349.52 216.375 347.137 217.825C344.77 219.275 341.904 220 338.537 220H329.587V185.15H338.587ZM338.387 214.5C340.687 214.5 342.545 213.933 343.962 212.8C345.379 211.667 346.387 210.192 346.987 208.375C347.587 206.542 347.887 204.517 347.887 202.3C347.887 198.767 347.137 195.858 345.637 193.575C344.154 191.292 341.737 190.15 338.387 190.15H336.037V214.5H338.387ZM359.958 185.15H366.358V220H359.958V185.15ZM393.86 190.8H385.81V220H379.36V190.8H371.31V185.15H393.86V190.8ZM398.825 185.15H405.225V220H398.825V185.15ZM425.777 220.6C422.677 220.6 420.036 219.867 417.852 218.4C415.669 216.917 414.019 214.825 412.902 212.125C411.786 209.408 411.227 206.217 411.227 202.55C411.227 198.917 411.777 195.75 412.877 193.05C413.994 190.333 415.627 188.242 417.777 186.775C419.944 185.292 422.561 184.55 425.627 184.55C428.811 184.55 431.494 185.3 433.677 186.8C435.861 188.283 437.494 190.375 438.577 193.075C439.677 195.775 440.227 198.933 440.227 202.55C440.227 206.217 439.661 209.408 438.527 212.125C437.411 214.825 435.769 216.917 433.602 218.4C431.436 219.867 428.827 220.6 425.777 220.6ZM425.777 215.25C427.261 215.25 428.586 214.775 429.752 213.825C430.936 212.875 431.869 211.433 432.552 209.5C433.236 207.567 433.577 205.2 433.577 202.4C433.577 198.283 432.877 195.15 431.477 193C430.094 190.833 428.144 189.75 425.627 189.75C423.177 189.75 421.277 190.833 419.927 193C418.594 195.15 417.927 198.3 417.927 202.45C417.927 205.283 418.244 207.658 418.877 209.575C419.527 211.475 420.436 212.9 421.602 213.85C422.786 214.783 424.177 215.25 425.777 215.25ZM471.038 185.15V220.7H470.538L453.838 201.65L452.288 199.65L452.538 204.5V220H446.388V184.55H446.938L463.388 203.75L465.138 206.025L464.888 201.25V185.15H471.038ZM487.944 220.55C486.394 220.55 484.927 220.367 483.544 220C482.177 219.633 480.977 219.158 479.944 218.575C478.911 217.992 478.094 217.383 477.494 216.75L480.044 211.5C480.427 212 481.011 212.533 481.794 213.1C482.577 213.667 483.469 214.15 484.469 214.55C485.486 214.95 486.494 215.15 487.494 215.15C488.811 215.15 489.911 214.792 490.794 214.075C491.694 213.342 492.144 212.317 492.144 211C492.144 210.15 491.936 209.417 491.519 208.8C491.119 208.167 490.577 207.608 489.894 207.125C489.227 206.625 488.194 205.95 486.794 205.1C484.877 203.933 483.377 202.942 482.294 202.125C481.211 201.292 480.269 200.208 479.469 198.875C478.686 197.525 478.294 195.9 478.294 194C478.294 192.15 478.686 190.517 479.469 189.1C480.269 187.667 481.444 186.55 482.994 185.75C484.544 184.95 486.411 184.55 488.594 184.55C492.144 184.55 495.111 185.633 497.494 187.8L494.694 192.9C494.411 192.5 493.986 192.067 493.419 191.6C492.852 191.117 492.169 190.708 491.369 190.375C490.569 190.025 489.727 189.85 488.844 189.85C487.561 189.85 486.561 190.225 485.844 190.975C485.144 191.708 484.794 192.633 484.794 193.75C484.794 194.6 485.002 195.358 485.419 196.025C485.852 196.675 486.411 197.258 487.094 197.775C487.794 198.292 488.727 198.9 489.894 199.6C492.011 200.85 493.627 201.9 494.744 202.75C495.861 203.6 496.794 204.683 497.544 206C498.311 207.3 498.694 208.9 498.694 210.8C498.694 212.817 498.261 214.558 497.394 216.025C496.527 217.492 495.286 218.617 493.669 219.4C492.052 220.167 490.144 220.55 487.944 220.55Z" fill="#311F00"/>
<path d="M208.154 246L205.889 228.812H207.754L209.219 241.986L211.172 228.812H212.822L214.824 241.986L216.064 228.812H217.92L215.889 246H213.887L212.051 233.314L210.107 246H208.154ZM218.447 246L221.055 228.812H223.486L226.328 246H224.424L223.936 242.719H220.82L220.371 246H218.447ZM221.045 241.078H223.682L222.324 231.996H222.295L221.045 241.078ZM229.375 246V238.783L226.387 228.812H228.389L230.381 235.795H230.42L232.148 228.812H234.17L231.396 238.783V246H229.375ZM235.732 246V228.812H237.754V244.33H240.928V246H235.732ZM242.529 246V228.812H244.551V246H242.529ZM249.229 246L246.367 228.812H248.291L249.434 236.088L250.41 242.484H250.449L251.299 236.088L252.285 228.812H254.189L251.582 246H249.229ZM256.006 246V228.812H261.143V230.492H258.027V236.371H260.977V238.051H258.027V244.32H261.182V246H256.006ZM266.162 246.195C265.465 246.195 264.899 246.072 264.463 245.824C264.027 245.57 263.691 245.212 263.457 244.75C263.223 244.288 263.06 243.744 262.969 243.119C262.884 242.488 262.842 241.791 262.842 241.029V239.359H264.805V241.107C264.805 242.312 264.889 243.174 265.059 243.695C265.234 244.21 265.609 244.467 266.182 244.467C266.579 244.467 266.868 244.376 267.051 244.193C267.24 244.005 267.36 243.705 267.412 243.295C267.464 242.885 267.49 242.344 267.49 241.674C267.49 240.906 267.354 240.245 267.08 239.691C266.813 239.138 266.426 238.607 265.918 238.1L264.795 236.977C264.469 236.645 264.15 236.283 263.838 235.893C263.525 235.495 263.265 235.046 263.057 234.545C262.855 234.044 262.754 233.471 262.754 232.826C262.754 231.96 262.845 231.212 263.027 230.58C263.21 229.949 263.542 229.46 264.023 229.115C264.505 228.77 265.189 228.598 266.074 228.598C266.771 228.598 267.327 228.718 267.744 228.959C268.167 229.2 268.483 229.545 268.691 229.994C268.906 230.437 269.046 230.964 269.111 231.576C269.183 232.188 269.219 232.865 269.219 233.607V234.623H267.285V233.471C267.285 232.774 267.256 232.195 267.197 231.732C267.145 231.264 267.035 230.912 266.865 230.678C266.696 230.443 266.432 230.326 266.074 230.326C265.749 230.326 265.482 230.408 265.273 230.57C265.072 230.727 264.925 230.971 264.834 231.303C264.743 231.635 264.697 232.061 264.697 232.582C264.697 233.038 264.753 233.415 264.863 233.715C264.974 234.008 265.14 234.281 265.361 234.535C265.589 234.789 265.866 235.089 266.191 235.434L267.363 236.674C267.982 237.318 268.486 238.041 268.877 238.842C269.274 239.636 269.473 240.561 269.473 241.615C269.473 242.566 269.378 243.383 269.189 244.066C269.007 244.75 268.678 245.277 268.203 245.648C267.728 246.013 267.048 246.195 266.162 246.195ZM275.42 246L279.707 228.734H281.494L277.197 246H275.42ZM290.107 246L287.246 228.812H289.17L290.312 236.088L291.289 242.484H291.328L292.178 236.088L293.164 228.812H295.068L292.461 246H290.107ZM296.885 246V228.812H302.021V230.492H298.906V236.371H301.855V238.051H298.906V244.32H302.061V246H296.885ZM304.268 246V228.812H307.871C308.783 228.812 309.456 228.975 309.893 229.301C310.329 229.62 310.612 230.105 310.742 230.756C310.879 231.4 310.947 232.214 310.947 233.197C310.947 234.258 310.84 235.102 310.625 235.727C310.41 236.352 309.993 236.755 309.375 236.938C309.688 236.99 309.945 237.123 310.146 237.338C310.355 237.553 310.518 237.888 310.635 238.344C310.752 238.799 310.833 239.411 310.879 240.18C310.931 240.941 310.957 241.902 310.957 243.061C310.957 243.171 310.957 243.331 310.957 243.539C310.957 243.747 310.96 243.975 310.967 244.223C310.973 244.47 310.98 244.714 310.986 244.955C310.999 245.196 311.016 245.411 311.035 245.6C311.055 245.782 311.081 245.915 311.113 246H309.102C309.076 245.941 309.053 245.811 309.033 245.609C309.014 245.408 308.997 245.141 308.984 244.809C308.971 244.477 308.962 244.083 308.955 243.627C308.949 243.165 308.945 242.65 308.945 242.084C308.945 241.511 308.945 240.886 308.945 240.209C308.945 239.558 308.916 239.063 308.857 238.725C308.805 238.38 308.675 238.142 308.467 238.012C308.265 237.875 307.939 237.794 307.49 237.768L306.289 237.699V246H304.268ZM306.289 236.215H307.578C307.949 236.215 308.232 236.143 308.428 236C308.63 235.85 308.766 235.557 308.838 235.121C308.91 234.678 308.945 234.018 308.945 233.139V233.021C308.945 232.292 308.91 231.742 308.838 231.371C308.773 230.993 308.643 230.74 308.447 230.609C308.252 230.479 307.956 230.414 307.559 230.414H306.289V236.215ZM316.221 246.195C315.524 246.195 314.958 246.072 314.521 245.824C314.085 245.57 313.75 245.212 313.516 244.75C313.281 244.288 313.118 243.744 313.027 243.119C312.943 242.488 312.9 241.791 312.9 241.029V239.359H314.863V241.107C314.863 242.312 314.948 243.174 315.117 243.695C315.293 244.21 315.667 244.467 316.24 244.467C316.637 244.467 316.927 244.376 317.109 244.193C317.298 244.005 317.419 243.705 317.471 243.295C317.523 242.885 317.549 242.344 317.549 241.674C317.549 240.906 317.412 240.245 317.139 239.691C316.872 239.138 316.484 238.607 315.977 238.1L314.854 236.977C314.528 236.645 314.209 236.283 313.896 235.893C313.584 235.495 313.324 235.046 313.115 234.545C312.913 234.044 312.812 233.471 312.812 232.826C312.812 231.96 312.904 231.212 313.086 230.58C313.268 229.949 313.6 229.46 314.082 229.115C314.564 228.77 315.247 228.598 316.133 228.598C316.829 228.598 317.386 228.718 317.803 228.959C318.226 229.2 318.542 229.545 318.75 229.994C318.965 230.437 319.105 230.964 319.17 231.576C319.242 232.188 319.277 232.865 319.277 233.607V234.623H317.344V233.471C317.344 232.774 317.314 232.195 317.256 231.732C317.204 231.264 317.093 230.912 316.924 230.678C316.755 230.443 316.491 230.326 316.133 230.326C315.807 230.326 315.54 230.408 315.332 230.57C315.13 230.727 314.984 230.971 314.893 231.303C314.801 231.635 314.756 232.061 314.756 232.582C314.756 233.038 314.811 233.415 314.922 233.715C315.033 234.008 315.199 234.281 315.42 234.535C315.648 234.789 315.924 235.089 316.25 235.434L317.422 236.674C318.04 237.318 318.545 238.041 318.936 238.842C319.333 239.636 319.531 240.561 319.531 241.615C319.531 242.566 319.437 243.383 319.248 244.066C319.066 244.75 318.737 245.277 318.262 245.648C317.786 246.013 317.106 246.195 316.221 246.195ZM321.533 246V228.812H323.555V246H321.533ZM329.6 246.195C328.74 246.195 328.06 246.007 327.559 245.629C327.064 245.251 326.709 244.682 326.494 243.92C326.286 243.158 326.182 242.204 326.182 241.059V233.48C326.182 232.491 326.279 231.632 326.475 230.902C326.67 230.173 327.018 229.607 327.52 229.203C328.021 228.799 328.73 228.598 329.648 228.598C330.339 228.598 330.902 228.715 331.338 228.949C331.774 229.177 332.109 229.506 332.344 229.936C332.585 230.359 332.751 230.87 332.842 231.469C332.933 232.068 332.979 232.738 332.979 233.48V241.059C332.979 242.204 332.874 243.158 332.666 243.92C332.464 244.682 332.116 245.251 331.621 245.629C331.133 246.007 330.459 246.195 329.6 246.195ZM329.6 244.457C329.971 244.457 330.254 244.353 330.449 244.145C330.645 243.93 330.778 243.575 330.85 243.08C330.921 242.585 330.957 241.918 330.957 241.078V233.363C330.957 232.335 330.876 231.573 330.713 231.078C330.55 230.583 330.195 230.336 329.648 230.336C329.082 230.336 328.698 230.583 328.496 231.078C328.301 231.566 328.203 232.325 328.203 233.354V241.078C328.203 241.924 328.239 242.595 328.311 243.09C328.382 243.578 328.519 243.93 328.721 244.145C328.923 244.353 329.215 244.457 329.6 244.457ZM335.596 246V228.812H337.119L341.104 240.512L340.898 235.541V228.812H342.686V246H341.201L337.344 234.203L337.461 238.539V246H335.596ZM344.951 238.549V237.133H349.365V238.549H344.951ZM354.727 246V231.518C354.57 231.7 354.329 231.872 354.004 232.035C353.685 232.191 353.35 232.318 352.998 232.416C352.646 232.507 352.35 232.553 352.109 232.553V230.951C352.454 230.899 352.842 230.788 353.271 230.619C353.701 230.443 354.102 230.206 354.473 229.906C354.85 229.607 355.13 229.242 355.312 228.812H356.738V246H354.727ZM360.898 246V244.066H362.607V246H360.898ZM368.643 246.205C367.705 246.205 367.025 246.013 366.602 245.629C366.178 245.245 365.911 244.691 365.801 243.969C365.69 243.246 365.635 242.377 365.635 241.361V233.148C365.635 232.159 365.693 231.329 365.811 230.658C365.934 229.988 366.208 229.483 366.631 229.145C367.054 228.799 367.725 228.627 368.643 228.627C369.561 228.627 370.225 228.799 370.635 229.145C371.045 229.483 371.299 229.988 371.396 230.658C371.501 231.329 371.553 232.159 371.553 233.148V241.361C371.553 242.123 371.53 242.803 371.484 243.402C371.439 244.001 371.328 244.509 371.152 244.926C370.977 245.342 370.69 245.661 370.293 245.883C369.896 246.098 369.346 246.205 368.643 246.205ZM368.623 244.496C368.812 244.496 368.971 244.473 369.102 244.428C369.232 244.376 369.336 244.255 369.414 244.066C369.492 243.871 369.548 243.565 369.58 243.148C369.619 242.725 369.639 242.146 369.639 241.41V233.041C369.639 232.169 369.6 231.544 369.521 231.166C369.45 230.788 369.339 230.554 369.189 230.463C369.04 230.372 368.851 230.326 368.623 230.326C368.402 230.326 368.21 230.372 368.047 230.463C367.891 230.548 367.767 230.779 367.676 231.156C367.591 231.534 367.549 232.159 367.549 233.031V241.41C367.549 242.152 367.565 242.732 367.598 243.148C367.637 243.565 367.699 243.871 367.783 244.066C367.868 244.255 367.979 244.376 368.115 244.428C368.252 244.473 368.421 244.496 368.623 244.496ZM374.434 246V244.066H376.143V246H374.434ZM382.178 246.205C381.24 246.205 380.56 246.013 380.137 245.629C379.714 245.245 379.447 244.691 379.336 243.969C379.225 243.246 379.17 242.377 379.17 241.361V233.148C379.17 232.159 379.229 231.329 379.346 230.658C379.469 229.988 379.743 229.483 380.166 229.145C380.589 228.799 381.26 228.627 382.178 228.627C383.096 228.627 383.76 228.799 384.17 229.145C384.58 229.483 384.834 229.988 384.932 230.658C385.036 231.329 385.088 232.159 385.088 233.148V241.361C385.088 242.123 385.065 242.803 385.02 243.402C384.974 244.001 384.863 244.509 384.688 244.926C384.512 245.342 384.225 245.661 383.828 245.883C383.431 246.098 382.881 246.205 382.178 246.205ZM382.158 244.496C382.347 244.496 382.507 244.473 382.637 244.428C382.767 244.376 382.871 244.255 382.949 244.066C383.027 243.871 383.083 243.565 383.115 243.148C383.154 242.725 383.174 242.146 383.174 241.41V233.041C383.174 232.169 383.135 231.544 383.057 231.166C382.985 230.788 382.874 230.554 382.725 230.463C382.575 230.372 382.386 230.326 382.158 230.326C381.937 230.326 381.745 230.372 381.582 230.463C381.426 230.548 381.302 230.779 381.211 231.156C381.126 231.534 381.084 232.159 381.084 233.031V241.41C381.084 242.152 381.1 242.732 381.133 243.148C381.172 243.565 381.234 243.871 381.318 244.066C381.403 244.255 381.514 244.376 381.65 244.428C381.787 244.473 381.956 244.496 382.158 244.496ZM390.488 246.195C389.31 246.195 388.493 245.814 388.037 245.053C387.581 244.291 387.354 243.096 387.354 241.469V240.609H389.258V241.4C389.258 242.169 389.287 242.781 389.346 243.236C389.404 243.686 389.525 244.008 389.707 244.203C389.889 244.392 390.166 244.486 390.537 244.486C390.915 244.486 391.195 244.379 391.377 244.164C391.559 243.943 391.68 243.594 391.738 243.119C391.803 242.637 391.836 242.012 391.836 241.244C391.836 240.378 391.787 239.695 391.689 239.193C391.592 238.686 391.419 238.324 391.172 238.109C390.931 237.895 390.586 237.787 390.137 237.787H389.658V236.176H390.117C390.553 236.176 390.895 236.098 391.143 235.941C391.39 235.779 391.562 235.476 391.66 235.033C391.764 234.59 391.816 233.952 391.816 233.119C391.816 232.338 391.764 231.749 391.66 231.352C391.562 230.954 391.419 230.688 391.23 230.551C391.042 230.408 390.814 230.336 390.547 230.336C390.273 230.336 390.046 230.417 389.863 230.58C389.681 230.743 389.544 231.029 389.453 231.439C389.368 231.843 389.326 232.413 389.326 233.148V233.559H387.393V233.021C387.393 231.524 387.62 230.417 388.076 229.701C388.538 228.985 389.359 228.627 390.537 228.627C391.715 228.627 392.552 229.005 393.047 229.76C393.548 230.508 393.799 231.628 393.799 233.119C393.799 234.07 393.662 234.89 393.389 235.58C393.122 236.264 392.679 236.719 392.061 236.947C392.49 237.143 392.835 237.455 393.096 237.885C393.356 238.308 393.545 238.809 393.662 239.389C393.779 239.968 393.838 240.593 393.838 241.264C393.838 242.911 393.584 244.145 393.076 244.965C392.575 245.785 391.712 246.195 390.488 246.195Z" fill="#855400"/>
<rect x="255" y="68" width="90" height="8" rx="4" fill="#311F00"/>
<rect x="255" y="98" width="90" height="8" rx="4" fill="#311F00"/>
<rect x="255" y="128" width="90" height="8" rx="4" fill="#311F00"/>
<circle cx="275" cy="72" r="11.5" fill="#FFAB19" stroke="#311F00" stroke-width="7"/>
<circle cx="325" cy="102" r="11.5" fill="#FFAB19" stroke="#311F00" stroke-width="7"/>
<circle cx="288" cy="132" r="11.5" fill="#FFAB19" stroke="#311F00" stroke-width="7"/>
</svg>
