<?xml version="1.0" encoding="UTF-8" standalone="no"?>
<!DOCTYPE svg PUBLIC "-//W3C//DTD SVG 1.1//EN" "http://www.w3.org/Graphics/SVG/1.1/DTD/svg11.dtd">
<!-- Created with Vectornator (http://vectornator.io/) -->
<svg height="100%" stroke-miterlimit="10" style="fill-rule:nonzero;clip-rule:evenodd;stroke-linecap:round;stroke-linejoin:round;" version="1.1" viewBox="0 0 600 300" width="100%" xml:space="preserve" xmlns="http://www.w3.org/2000/svg" xmlns:vectornator="http://vectornator.io" xmlns:xlink="http://www.w3.org/1999/xlink">
<defs>
<path d="M153.195 155.061C158.066 158.08 161.873 161.458 164.617 165.197C167.361 168.936 169.282 173.703 170.38 179.5C171.478 185.297 172.026 192.723 172.026 201.778C172.026 208.57 172.181 213.578 172.489 216.802C172.798 220.026 173.416 222.479 174.342 224.159C175.268 225.84 176.382 226.938 177.686 227.452C178.989 227.967 181.219 228.464 184.374 228.944C186.981 229.287 189.142 230.556 190.857 232.752C192.572 234.947 193.43 237.828 193.43 241.395C193.43 249.696 188.388 253.846 178.303 253.846C172.061 253.846 166.487 252.543 161.582 249.936C156.677 247.329 152.887 243.642 150.211 238.874C147.536 234.106 146.164 228.635 146.095 222.461C145.889 212.034 145.684 203.665 145.478 197.354C145.272 191.042 144.963 186.961 144.552 185.108C143.523 180.512 141.996 177.048 139.973 174.715C137.949 172.383 135.308 170.205 132.049 168.181C128.791 166.157 126.475 164.339 125.103 162.727C123.731 161.115 123.045 158.56 123.045 155.061C123.045 149.985 125.035 146.177 129.014 143.639C133.953 140.552 137.469 137.928 139.561 135.767C141.653 133.606 143.128 130.828 143.986 127.432C144.843 124.037 145.341 120.332 145.478 116.319C145.615 112.306 145.821 102.65 146.095 87.3523C146.301 77.8854 149.302 70.3221 155.099 64.6626C160.896 59.003 168.631 56.1732 178.303 56.1732C188.388 56.1732 193.43 60.255 193.43 68.4185C193.43 72.1229 192.589 75.0384 190.909 77.165C189.228 79.2917 187.05 80.5265 184.374 80.8695C180.396 81.4183 177.617 82.2415 176.039 83.3391C174.462 84.4367 173.433 86.5633 172.952 89.719C172.472 92.8746 172.164 98.9801 172.026 108.035C171.889 116.885 171.357 124.139 170.431 129.799C169.505 135.459 167.687 140.278 164.978 144.257C162.268 148.235 158.34 151.837 153.195 155.061Z" id="Fill"/>
<path d="M454.553 155.061C450.849 152.729 447.83 150.293 445.498 147.755C443.165 145.217 441.245 142.13 439.735 138.494C438.226 134.858 437.163 130.554 436.545 125.58C435.928 120.606 435.619 114.758 435.619 108.035C435.619 101.518 435.482 96.5276 435.208 93.0633C434.933 89.5989 434.385 87.0779 433.561 85.5C432.738 83.9222 431.589 82.8418 430.114 82.2587C428.639 81.6755 426.393 81.2125 423.374 80.8695C420.836 80.5265 418.692 79.2917 416.943 77.165C415.193 75.0384 414.319 72.1229 414.319 68.4185C414.319 60.255 419.292 56.1732 429.239 56.1732C435.619 56.1732 441.227 57.4595 446.064 60.032C450.9 62.6045 454.707 66.2747 457.486 71.0424C460.264 75.8102 461.688 81.2468 461.756 87.3523C462.168 110.128 462.648 122.647 463.197 124.911C464.294 129.439 465.907 132.886 468.033 135.253C470.16 137.619 472.732 139.712 475.751 141.53C478.769 143.348 481.016 145.148 482.491 146.932C483.966 148.716 484.703 151.425 484.703 155.061C484.703 160.206 482.748 163.979 478.838 166.38C474.036 169.33 470.554 171.92 468.393 174.149C466.232 176.379 464.723 179.157 463.866 182.484C463.008 185.811 462.494 190.802 462.322 197.456C462.151 204.111 461.962 212.446 461.756 222.461C461.55 231.928 458.515 239.526 452.649 245.254C446.784 250.982 438.981 253.846 429.239 253.846C424.437 253.846 420.75 252.783 418.178 250.656C415.605 248.53 414.319 245.443 414.319 241.395C414.319 239.131 414.73 237.056 415.554 235.17C416.377 233.283 417.457 231.825 418.795 230.796C420.133 229.767 421.659 229.15 423.374 228.944C426.461 228.533 428.759 228.018 430.268 227.401C431.778 226.783 432.927 225.617 433.716 223.902C434.505 222.187 435.019 219.666 435.259 216.339C435.499 213.012 435.619 208.158 435.619 201.778C435.757 192.311 436.305 184.903 437.266 179.552C438.226 174.201 440.044 169.605 442.719 165.763C445.395 161.921 449.339 158.354 454.553 155.061Z" id="Fill_2"/>
<path d="M230.46 204.134L294.911 239.012C297.001 240.164 299.231 240.74 301.601 240.74C303.972 240.74 306.216 240.164 308.332 239.012L372.743 204.134C376.949 201.83 380.023 199.185 381.965 196.198C383.907 193.211 384.878 188.986 384.878 183.521L384.878 115.694C384.878 111.221 383.987 107.47 382.206 104.443C380.424 101.416 377.538 98.8045 373.547 96.6079L317.694 66.1903C312.578 63.3776 307.22 61.9713 301.621 61.9713C296.023 61.9713 290.652 63.3776 285.509 66.1903L229.696 96.6079C225.705 98.8045 222.812 101.416 221.017 104.443C219.222 107.47 218.325 111.221 218.325 115.694L218.325 183.521C218.325 188.986 219.303 193.211 221.258 196.198C223.214 199.185 226.281 201.83 230.46 204.134ZM242.193 188.262C240.21 187.164 238.824 185.985 238.034 184.726C237.244 183.467 236.849 181.887 236.849 179.985L236.849 125.619L291.938 155.796L291.938 215.787L242.193 188.262ZM361.05 188.262L311.305 215.787L311.305 155.796L366.354 125.619L366.354 179.985C366.354 181.887 365.959 183.467 365.169 184.726C364.379 185.985 363.006 187.164 361.05 188.262ZM301.621 138.839L247.457 109.225L265.016 99.501L319.342 129.075L301.621 138.839ZM339.111 118.427L284.946 88.7724L293.987 83.7497C299.077 80.9638 304.166 80.9638 309.256 83.7497L355.786 109.225L339.111 118.427Z" id="Fill_3"/>
</defs>
<clipPath id="ArtboardFrame">
<rect height="300" width="600" x="0" y="0"/>
</clipPath>
<g clip-path="url(#ArtboardFrame)" id="無標題" vectornator:layerName="無標題">
<path d="M0 300L0 0L600 0L600 300L0 300Z" fill="#406aff" fill-rule="nonzero" opacity="1" stroke="none" vectornator:layerName="path"/>
<g opacity="0.498704" vectornator:layerName="編組 2">
<path d="M211.828 307.533C218.75 284.682 288.775 272.188 290.042 252.258C291.31 232.327 218.923 276.528 213.746 264.817C208.568 253.106 288.504 193.952 330.81 176.659C356.303 166.24 376.414 180.965 347.062 203.755C327.425 219.002 336.667 232.103 354.735 223.142C372.805 214.179 382.417 237.294 357.454 257.048C332.494 276.802 203.998 333.394 211.829 307.533L211.828 307.533ZM401.809 248.694C421.194 219.554 458.252 237.732 434.765 268.29C413.98 295.323 347.224 323.339 343.961 308.293C341.565 297.243 379.004 282.979 401.809 248.694ZM561.225 307.505C529.667 338.349 503.013 368.409 484.242 367.479C464.739 366.512 482.159 328.906 515.274 300.058C538.736 279.618 515.824 269.247 493.324 281.45C466.133 296.198 444.938 286.33 480.031 253.994C515.123 221.656 568.407 197.86 597.473 203.961C626.536 210.062 556.648 228.697 553.875 253.381C551.151 277.636 593.536 228.671 615.635 244.96C637.086 260.768 590.534 278.86 561.224 307.505L561.225 307.505ZM207.565 215.804C211.129 233.366 167.635 288.7 114.296 303.288C60.6827 317.953 10.2742 323.655 8.11188 310.971C5.96457 298.363 39.9703 288.838 82.214 268.432C102.637 258.567 81.029 250.253 67.7327 255.583C23.7551 273.206 27.1908 246.274 64.3211 227.286C93.3348 212.448 117.875 204.665 132.413 201.094C153.5 195.915 157.894 209.637 145.856 217.381C122.358 232.495 133.657 246.446 154.692 234.719C168.015 227.289 201.8 187.399 207.565 215.804ZM227.189 200.712C214.721 205.741 211.486 196.524 211.486 189.078C211.486 181.629 223.956 178.838 230.886 183.026C237.814 187.215 235.873 197.212 227.189 200.712ZM578.087 168.947C573.331 180.036 520.018 181.808 480.374 217.628C466.11 230.516 448.626 214.774 452.777 202.693C456.925 190.612 469.602 187.427 489.446 179.656C509.286 171.882 484.056 161.52 451.318 177.085C432.591 185.986 412.526 170.981 435.138 155.527C454.037 142.611 497.585 138.908 496.396 127.829C495.737 121.676 464.124 136.478 458.38 123.213C453.605 112.19 464.921 99.5212 496.543 96.9483C528.759 94.3289 553.815 101.004 554.189 116.95C554.614 135.002 516.817 139.894 533.799 145.474C550.878 151.083 586.469 149.397 578.087 168.946L578.087 168.947ZM386.74 207.577C380.373 203.116 380.176 197.427 386.943 189.536C395.717 179.302 410.358 179.778 414.659 183.521C418.959 187.263 409.238 196.955 405.526 202.539C401.813 208.121 394.938 213.319 386.74 207.577ZM387.131 146.098C349.383 155.191 328.143 139.947 336.598 129.534C345.731 118.288 367.591 118.313 369.309 96.2953C372.519 55.0967 412.742 47.8067 395.578 76.5684C389.568 86.6457 398.395 93.0309 403.569 80.1472C406.694 72.3719 421.512 61.7013 429.343 57.7555C464.884 39.8524 493.22 65.8634 467.801 73.0928C451.261 77.7967 436.4 89.1084 426.908 115.014C421.851 128.819 403.712 142.104 387.132 146.098L387.131 146.098ZM499.606 62.6121C485.297 44.1824 529.502 43.1512 545.826 37.6152C562.152 32.0782 528.51 29.2677 498.915 29.5781C469.317 29.8874 473.796 6.98619 507.436-4.23242C559.12-21.4662 605.192-3.56923 565.589 7.86572C550.818 12.133 561.317 24.4414 577.712 22.6662C608.672 19.3128 631.618 34.7087 626.408 46.7371C620.528 60.3102 605.978 51.1721 591.265 50.1582C576.552 49.1421 589.288 63.6726 608.34 73.6771C641.065 90.8614 613.688 120.09 585.587 93.6668C545.549 56.0187 510.321 76.4117 499.607 62.6121L499.606 62.6121ZM351.161 17.9308C372.288-25.5353 415.665-21.265 409.575-6.42822C403.486 8.40861 428.534-3.67841 440.137-0.973088C451.738 1.7292 458.618 22.0495 415.538 25.9599C362.463 30.7821 361.221 83.5299 343.497 72.5155C331.309 64.9444 343.329 34.0425 351.161 17.9298L351.161 17.9308ZM34.3 214.636C-1.08441 220.763-8.92108 208.487 5.81105 198.663C14.9461 192.567 50.5212 173.131 24.5388 171.227C-1.44665 169.323 17.9192 144.432 48.4351 121.26C78.9499 98.0867 145.618 85.568 142.706 105.111C139.79 124.653 61.2838 134.029 75.4209 154.653C81.5608 163.611 111.59 126.458 124.921 147.835C138.254 169.213 56.4825 210.797 34.301 214.636L34.3 214.636ZM264.607 178.016C253.312 187.65 230.214 173.738 250.99 154.647C255.8 150.228 268.161 145.996 260.776 141.635C238.465 128.459 170.464 196.899 159.215 174.445C153.807 163.648 180.927 139.503 210.53 124.419C232.383 113.284 224.415 92.8853 191.979 112.984C159.543 133.084 153.82 109.392 171.788 93.8427C189.755 78.2951 304.547 24.4454 312.368 53.2224C318.456 75.605 254.321 71.5055 262.302 85.9663C268.161 96.5773 312.764 68.4019 328.553 86.7003C343.834 104.405 286.636 116.135 290.298 126.751C293.19 135.128 320.56 123.324 321.09 143.833C321.5 159.726 291.943 154.707 264.608 178.016L264.607 178.016ZM105.922 34.9392C99.0553 71.3307 35.4338 105.257 11.0238 114.38C-27.3839 128.727-67.5174 123.944-44.8614 112.205C-22.2063 100.463 37.3463 61.586 6.69405 58.9171C-8.39128 57.6029-25.4423 46.3276 6.69405 19.5848C27.0945 2.60672 98.1934-20.8536 102.077-5.85298C105.96 9.14863 20.5181 35.2384 47.0564 37.8487C73.5947 40.457 109.131 17.9217 105.922 34.9392ZM199.61 48.0008C178.88 58.4419 159.708 71.086 137.64 75.8587C108.858 82.0822 137.245 42.8469 164.874 30.1179C177.248 24.4181 162.431 16.8208 150.523 22.6449C118.166 38.4705 104.093 26.3127 137.508 3.92298C145.815-1.64436 171.483-14.8242 202.65-18.8499C234.112-22.9169 233.294-11.2475 223.558-6.87203C209.557-0.581847 199.967 13.055 237.504 1.53712C304.607-19.051 344.357-15.6229 329.081 1.53712C314.812 17.5618 266.713 14.2095 199.61 48.0008Z" fill="#ffffff" fill-opacity="0.5" fill-rule="evenodd" opacity="0.1" stroke="none" vectornator:layerName="path"/>
<path d="M211.828 307.533C218.75 284.682 288.775 272.188 290.042 252.258C291.31 232.327 218.923 276.528 213.746 264.817C208.568 253.106 288.504 193.952 330.81 176.659C356.303 166.24 376.414 180.965 347.062 203.755C327.425 219.002 336.667 232.103 354.735 223.142C372.805 214.179 382.417 237.294 357.454 257.048C332.494 276.802 203.998 333.394 211.829 307.533L211.828 307.533ZM401.809 248.694C421.194 219.554 458.252 237.732 434.765 268.29C413.98 295.323 347.224 323.339 343.961 308.293C341.565 297.243 379.004 282.979 401.809 248.694ZM561.225 307.505C529.667 338.349 503.013 368.409 484.242 367.479C464.739 366.512 482.159 328.906 515.274 300.058C538.736 279.618 515.824 269.247 493.324 281.45C466.133 296.198 444.938 286.33 480.031 253.994C515.123 221.656 568.407 197.86 597.473 203.961C626.536 210.062 556.648 228.697 553.875 253.381C551.151 277.636 593.536 228.671 615.635 244.96C637.086 260.768 590.534 278.86 561.224 307.505L561.225 307.505ZM207.565 215.804C211.129 233.366 167.635 288.7 114.296 303.288C60.6827 317.953 10.2742 323.655 8.11188 310.971C5.96457 298.363 39.9703 288.838 82.214 268.432C102.637 258.567 81.029 250.253 67.7327 255.583C23.7551 273.206 27.1908 246.274 64.3211 227.286C93.3348 212.448 117.875 204.665 132.413 201.094C153.5 195.915 157.894 209.637 145.856 217.381C122.358 232.495 133.657 246.446 154.692 234.719C168.015 227.289 201.8 187.399 207.565 215.804ZM227.189 200.712C214.721 205.741 211.486 196.524 211.486 189.078C211.486 181.629 223.956 178.838 230.886 183.026C237.814 187.215 235.873 197.212 227.189 200.712ZM578.087 168.947C573.331 180.036 520.018 181.808 480.374 217.628C466.11 230.516 448.626 214.774 452.777 202.693C456.925 190.612 469.602 187.427 489.446 179.656C509.286 171.882 484.056 161.52 451.318 177.085C432.591 185.986 412.526 170.981 435.138 155.527C454.037 142.611 497.585 138.908 496.396 127.829C495.737 121.676 464.124 136.478 458.38 123.213C453.605 112.19 464.921 99.5212 496.543 96.9483C528.759 94.3289 553.815 101.004 554.189 116.95C554.614 135.002 516.817 139.894 533.799 145.474C550.878 151.083 586.469 149.397 578.087 168.946L578.087 168.947ZM386.74 207.577C380.373 203.116 380.176 197.427 386.943 189.536C395.717 179.302 410.358 179.778 414.659 183.521C418.959 187.263 409.238 196.955 405.526 202.539C401.813 208.121 394.938 213.319 386.74 207.577ZM387.131 146.098C349.383 155.191 328.143 139.947 336.598 129.534C345.731 118.288 367.591 118.313 369.309 96.2953C372.519 55.0967 412.742 47.8067 395.578 76.5684C389.568 86.6457 398.395 93.0309 403.569 80.1472C406.694 72.3719 421.512 61.7013 429.343 57.7555C464.884 39.8524 493.22 65.8634 467.801 73.0928C451.261 77.7967 436.4 89.1084 426.908 115.014C421.851 128.819 403.712 142.104 387.132 146.098L387.131 146.098ZM499.606 62.6121C485.297 44.1824 529.502 43.1512 545.826 37.6152C562.152 32.0782 528.51 29.2677 498.915 29.5781C469.317 29.8874 473.796 6.98619 507.436-4.23242C559.12-21.4662 605.192-3.56923 565.589 7.86572C550.818 12.133 561.317 24.4414 577.712 22.6662C608.672 19.3128 631.618 34.7087 626.408 46.7371C620.528 60.3102 605.978 51.1721 591.265 50.1582C576.552 49.1421 589.288 63.6726 608.34 73.6771C641.065 90.8614 613.688 120.09 585.587 93.6668C545.549 56.0187 510.321 76.4117 499.607 62.6121L499.606 62.6121ZM351.161 17.9308C372.288-25.5353 415.665-21.265 409.575-6.42822C403.486 8.40861 428.534-3.67841 440.137-0.973088C451.738 1.7292 458.618 22.0495 415.538 25.9599C362.463 30.7821 361.221 83.5299 343.497 72.5155C331.309 64.9444 343.329 34.0425 351.161 17.9298L351.161 17.9308ZM34.3 214.636C-1.08441 220.763-8.92108 208.487 5.81105 198.663C14.9461 192.567 50.5212 173.131 24.5388 171.227C-1.44665 169.323 17.9192 144.432 48.4351 121.26C78.9499 98.0867 145.618 85.568 142.706 105.111C139.79 124.653 61.2838 134.029 75.4209 154.653C81.5608 163.611 111.59 126.458 124.921 147.835C138.254 169.213 56.4825 210.797 34.301 214.636L34.3 214.636ZM264.607 178.016C253.312 187.65 230.214 173.738 250.99 154.647C255.8 150.228 268.161 145.996 260.776 141.635C238.465 128.459 170.464 196.899 159.215 174.445C153.807 163.648 180.927 139.503 210.53 124.419C232.383 113.284 224.415 92.8853 191.979 112.984C159.543 133.084 153.82 109.392 171.788 93.8427C189.755 78.2951 304.547 24.4454 312.368 53.2224C318.456 75.605 254.321 71.5055 262.302 85.9663C268.161 96.5773 312.764 68.4019 328.553 86.7003C343.834 104.405 286.636 116.135 290.298 126.751C293.19 135.128 320.56 123.324 321.09 143.833C321.5 159.726 291.943 154.707 264.608 178.016L264.607 178.016ZM105.922 34.9392C99.0553 71.3307 35.4338 105.257 11.0238 114.38C-27.3839 128.727-67.5174 123.944-44.8614 112.205C-22.2063 100.463 37.3463 61.586 6.69405 58.9171C-8.39128 57.6029-25.4423 46.3276 6.69405 19.5848C27.0945 2.60672 98.1934-20.8536 102.077-5.85298C105.96 9.14863 20.5181 35.2384 47.0564 37.8487C73.5947 40.457 109.131 17.9217 105.922 34.9392ZM199.61 48.0008C178.88 58.4419 159.708 71.086 137.64 75.8587C108.858 82.0822 137.245 42.8469 164.874 30.1179C177.248 24.4181 162.431 16.8208 150.523 22.6449C118.166 38.4705 104.093 26.3127 137.508 3.92298C145.815-1.64436 171.483-14.8242 202.65-18.8499C234.112-22.9169 233.294-11.2475 223.558-6.87203C209.557-0.581847 199.967 13.055 237.504 1.53712C304.607-19.051 344.357-15.6229 329.081 1.53712C314.812 17.5618 266.713 14.2095 199.61 48.0008Z" fill="#ffffff" fill-opacity="0.5" fill-rule="evenodd" opacity="0.1" stroke="none" vectornator:layerName="path"/>
</g>
<g opacity="1" vectornator:layerName="編組 4">
<g opacity="1" vectornator:layerName="編組 3">
<g opacity="1" vectornator:layerName="編組 1">
<g opacity="1">
<use fill="#ffffff" fill-rule="nonzero" stroke="none" xlink:href="#Fill"/>
<mask height="213.963" id="StrokeMask" maskUnits="userSpaceOnUse" width="86.6744" x="114.9" y="48.0282">
<rect fill="#ffffff" height="213.963" stroke="none" width="86.6744" x="114.9" y="48.0282"/>
<use fill="#000000" fill-rule="evenodd" stroke="none" xlink:href="#Fill"/>
</mask>
<use fill="none" mask="url(#StrokeMask)" stroke="#000000" stroke-linecap="butt" stroke-linejoin="miter" stroke-opacity="0.1" stroke-width="16.29" xlink:href="#Fill"/>
</g>
<g opacity="1">
<use fill="#ffffff" fill-rule="nonzero" stroke="none" xlink:href="#Fill_2"/>
<mask height="213.963" id="StrokeMask_2" maskUnits="userSpaceOnUse" width="86.6744" x="406.174" y="48.0282">
<rect fill="#ffffff" height="213.963" stroke="none" width="86.6744" x="406.174" y="48.0282"/>
<use fill="#000000" fill-rule="evenodd" stroke="none" xlink:href="#Fill_2"/>
</mask>
<use fill="none" mask="url(#StrokeMask_2)" stroke="#000000" stroke-linecap="butt" stroke-linejoin="miter" stroke-opacity="0.1" stroke-width="16.29" xlink:href="#Fill_2"/>
</g>
</g>
<g opacity="1" vectornator:layerName="Text 3">
<use fill="#ffffff" stroke="none" xlink:href="#Fill_3"/>
<mask height="590.436" id="StrokeMask_3" maskUnits="userSpaceOnUse" width="578.221" x="12.4908" y="-143.863">
<rect fill="#ffffff" height="590.436" stroke="none" width="578.221" x="12.4908" y="-143.863"/>
<use fill="#000000" fill-rule="evenodd" stroke="none" xlink:href="#Fill_3"/>
</mask>
<use fill="none" mask="url(#StrokeMask_3)" stroke="#000000" stroke-linecap="butt" stroke-linejoin="miter" stroke-opacity="0.1" stroke-width="18.0438" xlink:href="#Fill_3"/>
</g>
</g>
<g opacity="1" vectornator:layerName="編組 1">
<g opacity="1" vectornator:layerName="編組 1">
<path d="M153.195 155.061C158.066 158.08 161.873 161.458 164.617 165.197C167.361 168.936 169.282 173.703 170.38 179.5C171.478 185.297 172.026 192.723 172.026 201.778C172.026 208.57 172.181 213.578 172.489 216.802C172.798 220.026 173.416 222.479 174.342 224.159C175.268 225.84 176.382 226.938 177.686 227.452C178.989 227.967 181.219 228.464 184.374 228.944C186.981 229.287 189.142 230.556 190.857 232.752C192.572 234.947 193.43 237.828 193.43 241.395C193.43 249.696 188.388 253.846 178.303 253.846C172.061 253.846 166.487 252.543 161.582 249.936C156.677 247.329 152.887 243.642 150.211 238.874C147.536 234.106 146.164 228.635 146.095 222.461C145.889 212.034 145.684 203.665 145.478 197.354C145.272 191.042 144.963 186.961 144.552 185.108C143.523 180.512 141.996 177.048 139.973 174.715C137.949 172.383 135.308 170.205 132.049 168.181C128.791 166.157 126.475 164.339 125.103 162.727C123.731 161.115 123.045 158.56 123.045 155.061C123.045 149.985 125.035 146.177 129.014 143.639C133.953 140.552 137.469 137.928 139.561 135.767C141.653 133.606 143.128 130.828 143.986 127.432C144.843 124.037 145.341 120.332 145.478 116.319C145.615 112.306 145.821 102.65 146.095 87.3523C146.301 77.8854 149.302 70.3221 155.099 64.6626C160.896 59.003 168.631 56.1732 178.303 56.1732C188.388 56.1732 193.43 60.255 193.43 68.4185C193.43 72.1229 192.589 75.0384 190.909 77.165C189.228 79.2917 187.05 80.5265 184.374 80.8695C180.396 81.4183 177.617 82.2415 176.039 83.3391C174.462 84.4367 173.433 86.5633 172.952 89.719C172.472 92.8746 172.164 98.9801 172.026 108.035C171.889 116.885 171.357 124.139 170.431 129.799C169.505 135.459 167.687 140.278 164.978 144.257C162.268 148.235 158.34 151.837 153.195 155.061Z" fill="#ffffff" fill-rule="nonzero" opacity="1" stroke="none"/>
<path d="M454.553 155.061C450.849 152.729 447.83 150.293 445.498 147.755C443.165 145.217 441.245 142.13 439.735 138.494C438.226 134.858 437.163 130.554 436.545 125.58C435.928 120.606 435.619 114.758 435.619 108.035C435.619 101.518 435.482 96.5276 435.208 93.0633C434.933 89.5989 434.385 87.0779 433.561 85.5C432.738 83.9222 431.589 82.8418 430.114 82.2587C428.639 81.6755 426.393 81.2125 423.374 80.8695C420.836 80.5265 418.692 79.2917 416.943 77.165C415.193 75.0384 414.319 72.1229 414.319 68.4185C414.319 60.255 419.292 56.1732 429.239 56.1732C435.619 56.1732 441.227 57.4595 446.064 60.032C450.9 62.6045 454.707 66.2747 457.486 71.0424C460.264 75.8102 461.688 81.2468 461.756 87.3523C462.168 110.128 462.648 122.647 463.197 124.911C464.294 129.439 465.907 132.886 468.033 135.253C470.16 137.619 472.732 139.712 475.751 141.53C478.769 143.348 481.016 145.148 482.491 146.932C483.966 148.716 484.703 151.425 484.703 155.061C484.703 160.206 482.748 163.979 478.838 166.38C474.036 169.33 470.554 171.92 468.393 174.149C466.232 176.379 464.723 179.157 463.866 182.484C463.008 185.811 462.494 190.802 462.322 197.456C462.151 204.111 461.962 212.446 461.756 222.461C461.55 231.928 458.515 239.526 452.649 245.254C446.784 250.982 438.981 253.846 429.239 253.846C424.437 253.846 420.75 252.783 418.178 250.656C415.605 248.53 414.319 245.443 414.319 241.395C414.319 239.131 414.73 237.056 415.554 235.17C416.377 233.283 417.457 231.825 418.795 230.796C420.133 229.767 421.659 229.15 423.374 228.944C426.461 228.533 428.759 228.018 430.268 227.401C431.778 226.783 432.927 225.617 433.716 223.902C434.505 222.187 435.019 219.666 435.259 216.339C435.499 213.012 435.619 208.158 435.619 201.778C435.757 192.311 436.305 184.903 437.266 179.552C438.226 174.201 440.044 169.605 442.719 165.763C445.395 161.921 449.339 158.354 454.553 155.061Z" fill="#ffffff" fill-rule="nonzero" opacity="1" stroke="none"/>
</g>
<path d="M230.46 204.134L294.911 239.012C297.001 240.164 299.231 240.74 301.601 240.74C303.972 240.74 306.216 240.164 308.332 239.012L372.743 204.134C376.949 201.83 380.023 199.185 381.965 196.198C383.907 193.211 384.878 188.986 384.878 183.521L384.878 115.694C384.878 111.221 383.987 107.47 382.206 104.443C380.424 101.416 377.538 98.8045 373.547 96.6079L317.694 66.1903C312.578 63.3776 307.22 61.9713 301.621 61.9713C296.023 61.9713 290.652 63.3776 285.509 66.1903L229.696 96.6079C225.705 98.8045 222.812 101.416 221.017 104.443C219.222 107.47 218.325 111.221 218.325 115.694L218.325 183.521C218.325 188.986 219.303 193.211 221.258 196.198C223.214 199.185 226.281 201.83 230.46 204.134ZM242.193 188.262C240.21 187.164 238.824 185.985 238.034 184.726C237.244 183.467 236.849 181.887 236.849 179.985L236.849 125.619L291.938 155.796L291.938 215.787L242.193 188.262ZM361.05 188.262L311.305 215.787L311.305 155.796L366.354 125.619L366.354 179.985C366.354 181.887 365.959 183.467 365.169 184.726C364.379 185.985 363.006 187.164 361.05 188.262ZM301.621 138.839L247.457 109.225L265.016 99.501L319.342 129.075L301.621 138.839ZM339.111 118.427L284.946 88.7724L293.987 83.7497C299.077 80.9638 304.166 80.9638 309.256 83.7497L355.786 109.225L339.111 118.427Z" fill="#ffffff" opacity="1" stroke="none" vectornator:layerName="Text 3"/>
</g>
</g>
</g>
</svg>
