<svg xmlns="http://www.w3.org/2000/svg" viewBox="-2 0 50 50" width="50px" height="50px">

<!-- banner piecce -->
<!-- the stroke back because we cant do outset lines only -->
<polygon points="0,0 24,0 48,24 48,48"
style="fill:#f33;stroke:#711;stroke-width:2px"
/>
<!-- the front red piece -->
<polygon points="0,0 24,0 48,24 48,48"
style="fill:#f33;"
/>

<!-- star -->
<!-- rotate(0) translate(-346,-170) -->
<!-- rotate(15) translate(-342,-176) -->
<g transform="rotate(15) translate(-342,-176) ">
    <path
        d="M368.10317,186.24601c-0.89549,-0.10408 -1.07772,-1.32523 -0.25164,-1.68622l1.74779,-0.76128c0.76889,-0.33438 1.30107,-1.05327 1.39661,-1.88493l0.21782,-1.8939c0.10408,-0.89549 1.32523,-1.07773 1.68486,-0.25143l0.76264,1.74759c0.33418,0.76753 1.05306,1.29971 1.88472,1.39525l1.89391,0.21782c0.89549,0.10408 1.07773,1.32523 0.25164,1.68622l-1.74779,0.76128c-0.76753,0.33418 -1.29972,1.05306 -1.39504,1.88608l-0.21918,1.8941c-0.10272,0.89529 -1.32387,1.07752 -1.68486,0.25143l-0.76128,-1.74779c-0.33438,-0.76889 -1.05327,-1.30108 -1.88628,-1.3964zM365.39042,181.04766c-0.32488,-0.03643 -0.39119,-0.48078 -0.09149,-0.61311l0.63552,-0.27545c0.27959,-0.12259 0.47384,-0.38342 0.50815,-0.68642l0.07923,-0.68845c0.03624,-0.3262 0.48058,-0.39251 0.61311,-0.09149l0.27545,0.63552c0.12259,0.27959 0.38322,0.47253 0.68642,0.50816l0.68958,0.0777c0.32528,0.03907 0.39158,0.48342 0.09149,0.61311l-0.63665,0.27697c-0.27959,0.12259 -0.47252,0.38322 -0.50815,0.68642l-0.07791,0.68826c-0.03907,0.32528 -0.48341,0.39159 -0.61311,0.09149l-0.27677,-0.63533c-0.12128,-0.27978 -0.38322,-0.47252 -0.68642,-0.50815zM376.75686,189.46159c-0.32499,-0.03645 -0.39133,-0.48093 -0.09133,-0.61199l0.63554,-0.27687c0.27988,-0.12132 0.47268,-0.38335 0.5072,-0.68513l0.08057,-0.68888c0.03625,-0.32631 0.48073,-0.39264 0.61199,-0.09133l0.27687,0.63554c0.12112,0.27856 0.38335,0.47268 0.68645,0.507l0.68869,0.07925c0.32519,0.03776 0.39152,0.48225 0.09133,0.61199l-0.63535,0.27819c-0.27968,0.12264 -0.47419,0.38222 -0.50851,0.68532l-0.07925,0.68869c-0.03776,0.32519 -0.48226,0.39152 -0.612,0.09133l-0.27818,-0.63535c-0.12132,-0.27988 -0.38184,-0.47155 -0.68513,-0.50719zM368.56436,190.37136c-0.40946,0.06111 -0.79138,-0.22162 -0.85248,-0.63109c-0.06111,-0.40946 0.22162,-0.79138 0.63109,-0.85248c0.40946,-0.06111 0.79138,0.22162 0.85248,0.63108c0.06111,0.40946 -0.22163,0.79138 -0.63109,0.85249zM377.02681,181.01991c-0.68409,0.10209 -1.31897,-0.36937 -1.42081,-1.05181c-0.10209,-0.68409 0.36772,-1.31872 1.05181,-1.42081c0.68244,-0.10184 1.31872,0.36772 1.42081,1.05181c0.10184,0.68244 -0.36937,1.31897 -1.05181,1.42081z"
        data-paper-data="{&quot;index&quot;:null}" fill="#ffffff" fill-rule="evenodd" stroke="none"
        stroke-width="1" stroke-linecap="butt"
    />
</g>

</svg>