<?xml version="1.0" encoding="utf-8"?>
<svg xmlns="http://www.w3.org/2000/svg" viewBox="0 0 300 150" width="300px" height="150px" xmlns:bx="https://boxy-svg.com">
  <defs>
    <linearGradient id="gradient-0-0" href="#gradient-0" gradientUnits="userSpaceOnUse" x1="150" y1="0" x2="150" y2="186" gradientTransform="matrix(1, 0, 0, 0.806452, 0, 0)"/>
    <linearGradient id="gradient-0" bx:pinned="true">
      <stop offset="0" style="stop-color: rgb(110, 12, 161);"/>
      <stop offset="1" style="stop-color: rgb(70, 0, 150);"/>
    </linearGradient>
    <linearGradient id="gradient-1-0" href="#gradient-1" gradientUnits="userSpaceOnUse" x1="150" y1="9" x2="150" y2="177" gradientTransform="matrix(1, 0, 0, 0.797018, 0, 0.877339)"/>
    <linearGradient id="gradient-1" bx:pinned="true">
      <title>Fill</title>
      <stop style="stop-color: rgb(137, 47, 227);" offset="0"/>
      <stop style="stop-color: rgb(92, 37, 212);" offset="1"/>
    </linearGradient>
  </defs>
  <rect width="300" height="150" style="paint-order: fill; fill-rule: nonzero; stroke-width: 1; fill: url(&quot;#gradient-0-0&quot;);"/>
  <rect x="10" y="8.05" width="280" height="133.899" style="stroke-width: 1; fill: url(&quot;#gradient-1-0&quot;);"/>
  <g transform="matrix(1.3632019758224487, 0, 0, 1.3632019758224487, -184.20086944402559, -169.32135262074098)" style="">
    <g fill="#ffffff" stroke-width="0" stroke-miterlimit="10">
      <path d="M209.67697,207.59346c0,0 -1.26253,-3.19291 -1.49144,-4.03073c-0.12859,-0.47063 0.19312,-0.80917 0.5589,-0.75374c0.85487,0.12953 4.20241,1.0318 4.20241,1.0318c0,0 2.40065,-1.76589 3.14005,-2.1785c0.38909,-0.21713 0.9677,-0.03302 1.03159,0.35241c0.13613,0.82118 0.25581,3.85613 0.25581,3.85613c0,0 2.63763,2.01982 3.31945,2.63076c0.36447,0.32657 0.40551,0.97908 0.04491,1.16825c-0.77059,0.40425 -3.93267,1.51873 -3.93267,1.51873c0,0 -0.84053,2.79195 -1.18848,3.52241c-0.18658,0.3917 -0.77833,0.54363 -1.06619,0.24702c-0.60794,-0.62642 -2.60773,-3.15409 -2.60773,-3.15409c0,0 -2.77008,0.03582 -3.57065,-0.0254c-0.4493,-0.03436 -0.90017,-0.46527 -0.76917,-0.79687c0.29751,-0.75306 2.07321,-3.38818 2.07321,-3.38818z" stroke="none"/>
      <path d="M207.15213,163.83207c-0.54208,-11.43582 -0.59332,-12.89528 -0.59332,-12.89528c0,0 -1.19091,-8.1839 7.094,-8.31382c7.31397,-0.11469 7.01474,8.26736 7.01474,8.26736c0,0 -0.00001,1.08737 -0.45843,13.54842c-0.39903,10.84665 -2.19115,28.19668 -2.19115,28.19668c0,0 -0.16933,4.18256 -4.64088,4.15323c-4.24149,-0.02934 -4.29994,-4.30927 -4.29994,-4.30927c0,0 -1.36027,-16.73319 -1.92502,-28.64734z" stroke="#460096"/>
      <path d="M 234.518 211.103 C 224.953 202.99 225.937 186.587 230.423 174.867 C 236.108 160.015 256.533 146.386 279.235 155.475 C 281.367 156.329 285.254 159.664 283.271 163.231 C 281.326 166.73 276.987 165.189 273.701 163.594 C 269.89 161.745 261.42 160.288 251.64 164.943 C 245.755 167.744 242.253 172.275 240.213 178.126 L 265.018 178.3 C 265.018 178.3 271.155 178.231 270.612 183.399 C 270.085 188.426 264.724 187.86 264.724 187.86 L 238.221 187.3 C 237.561 192.833 237.907 198.684 241.665 202.471 C 246.946 207.795 257.41 206.176 263.137 203.877 C 267.599 202.086 270.006 204.316 270.879 206.658 C 271.752 209 268.976 211.41 266.388 212.916 C 263.085 214.837 244.084 219.216 234.518 211.103 Z" stroke="#460096"/>
    </g>
  </g>
</svg>