<?xml version="1.0" encoding="UTF-8" standalone="no"?>
<!-- Created with Inkscape (http://www.inkscape.org/) -->

<svg version="1.1" id="svg1" width="324" height="162" viewBox="0 0 324 162" sodipodi:docname="paintUtilsThumbnail.svg"
    xml:space="preserve" inkscape:version="1.4.2 (f4327f4, 2025-05-13)"
    xmlns:inkscape="http://www.inkscape.org/namespaces/inkscape"
    xmlns:sodipodi="http://sodipodi.sourceforge.net/DTD/sodipodi-0.dtd" xmlns:xlink="http://www.w3.org/1999/xlink"
    xmlns="http://www.w3.org/2000/svg" xmlns:svg="http://www.w3.org/2000/svg">
    <sodipodi:namedview id="namedview1" pagecolor="#ffffff" bordercolor="#000000" borderopacity="0.25"
        inkscape:showpageshadow="2" inkscape:pageopacity="0.0" inkscape:pagecheckerboard="0"
        inkscape:deskcolor="#d1d1d1" inkscape:zoom="2.4907407" inkscape:cx="84.713755" inkscape:cy="56.810409"
        inkscape:window-width="1920" inkscape:window-height="1009" inkscape:window-x="-8" inkscape:window-y="50"
        inkscape:window-maximized="1" inkscape:current-layer="layer2" />
    <defs id="defs1" />
    <g inkscape:groupmode="layer" inkscape:label="Image" id="g1">
        <rect style="fill:#d9d9d9;fill-opacity:1" id="rect37" width="324" height="162" x="0.40148699" y="-0.40148699" />
    </g>
    <g inkscape:groupmode="layer" id="layer1" inkscape:label="Image 1">
        <ellipse style="fill:#d1d1d1;fill-opacity:1;stroke-width:1.00475" id="path15" cx="21.680298" cy="101.37547"
            rx="21.278999" ry="18.669146" />
        <ellipse style="fill:#d1d1d1;stroke-width:1.30674;fill-opacity:1" id="path16" cx="41.353165" cy="98.163582"
            rx="27.301115" ry="27.100372" />
        <ellipse style="fill:#d1d1d1;fill-opacity:1" id="path17" cx="71.464684" cy="103.18216" rx="16.460966"
            ry="16.059479" />
        <ellipse style="fill:#d1d1d1;fill-opacity:1" id="path19" cx="108.40149" cy="99.368027" rx="29.710037"
            ry="27.100372" />
        <ellipse style="fill:#d1d1d1;stroke-width:1.21811;fill-opacity:1" id="ellipse20" cx="151.3606" cy="84.111519"
            rx="32.520447" ry="36.736061" />
        <ellipse style="fill:#d1d1d1;stroke-width:1.15314;fill-opacity:1" id="ellipse21" cx="201.54646" cy="92.743484"
            rx="32.520447" ry="32.921936" />
        <ellipse style="fill:#d1d1d1;stroke-width:0.868364;fill-opacity:1" id="ellipse22" cx="250.92937" cy="99.769508"
            rx="32.520447" ry="18.669147" />
        <ellipse style="fill:#d1d1d1;stroke-width:0.601883;fill-opacity:1" id="ellipse23" cx="291.6803" cy="99.167282"
            rx="15.45725" ry="18.86989" />
        <path id="ellipse24" style="fill:#d1d1d1;stroke-width:0.548271;fill-opacity:1"
            d="m 315.36719,90.736328 a 15.45725,15.657994 0 0 0 -15.45703,15.658202 15.45725,15.657994 0 0 0 15.45703,15.6582 15.45725,15.657994 0 0 0 9.23437,-3.10156 v -0.67773 -2.88282 c 0,-0.85291 -1e-5,-1.70568 0,-2.55859 10e-6,-0.90883 -4e-5,-1.81773 0,-2.72656 5e-5,-1.05467 -3.2e-4,-2.10939 0,-3.16406 10e-4,-0.87758 0.002,-1.75525 0.004,-2.63282 0.003,-0.97301 0.006,-1.94696 0.0176,-2.91992 0.0107,-0.80279 0.0243,-1.605933 0.0586,-2.408201 -0.0139,-0.16188 -0.0256,-0.324034 -0.0352,-0.486328 -0.11047,-0.494661 -0.21718,-0.98959 -0.2871,-1.492188 -0.17981,-1.105722 -0.34141,-2.221873 -0.25,-3.345703 0.003,-0.05658 0.007,-0.113344 0.01,-0.169922 a 15.45725,15.657994 0 0 0 -8.75195,-2.75 z" />
        <rect style="fill:#d1d1d1;fill-opacity:1" id="rect24" width="324" height="61.026024" x="0.40148699"
            y="101.17472" />
    </g>
    <g inkscape:groupmode="layer" id="layer2" inkscape:label="Image 2">
        <ellipse style="fill:#cacaca;fill-opacity:1;stroke-width:1.00475" id="path15-8" cx="21.825468" cy="131.3792"
            rx="21.278999" ry="18.669146" />
        <ellipse style="fill:#cacaca;fill-opacity:1;stroke-width:1.30674" id="path16-2" cx="41.498333" cy="128.16731"
            rx="27.301115" ry="27.100372" />
        <ellipse style="fill:#cacaca;fill-opacity:1" id="path17-4" cx="71.609856" cy="133.18588" rx="16.460966"
            ry="16.059479" />
        <ellipse style="fill:#cacaca;fill-opacity:1" id="path19-5" cx="108.54666" cy="129.37175" rx="29.710037"
            ry="27.100372" />
        <ellipse style="fill:#cacaca;fill-opacity:1;stroke-width:1.21811" id="ellipse20-5" cx="151.50575" cy="114.11524"
            rx="32.520447" ry="36.736061" />
        <ellipse style="fill:#cacaca;fill-opacity:1;stroke-width:1.15314" id="ellipse21-1" cx="201.69162" cy="122.74721"
            rx="32.520447" ry="32.921936" />
        <ellipse style="fill:#cacaca;fill-opacity:1;stroke-width:0.868364" id="ellipse22-7" cx="251.07454"
            cy="129.77324" rx="32.520447" ry="18.669147" />
        <ellipse style="fill:#cacaca;fill-opacity:1;stroke-width:0.601883" id="ellipse23-1" cx="291.82547"
            cy="129.17101" rx="15.45725" ry="18.86989" />
        <path id="ellipse24-1" style="fill:#cacaca;fill-opacity:1;stroke-width:0.548271"
            d="m 315.51236,120.74005 a 15.45725,15.657994 0 0 0 -15.45703,15.6582 15.45725,15.657994 0 0 0 15.45703,15.6582 15.45725,15.657994 0 0 0 9.23437,-3.10156 v -0.67773 -2.88282 c 0,-0.85291 -1e-5,-1.70568 0,-2.55859 10e-6,-0.90883 -4e-5,-1.81773 0,-2.72656 5e-5,-1.05467 -3.2e-4,-2.10939 0,-3.16406 10e-4,-0.87758 0.002,-1.75525 0.004,-2.63282 0.003,-0.97301 0.006,-1.94696 0.0176,-2.91992 0.0107,-0.80279 0.0243,-1.60593 0.0586,-2.4082 -0.0139,-0.16188 -0.0256,-0.32403 -0.0352,-0.48632 -0.11047,-0.49467 -0.21718,-0.98959 -0.2871,-1.49219 -0.17981,-1.10572 -0.34141,-2.22188 -0.25,-3.34571 0.003,-0.0566 0.007,-0.11334 0.01,-0.16992 a 15.45725,15.657994 0 0 0 -8.75195,-2.75 z" />
        <rect style="fill:#cacaca;fill-opacity:1;stroke-width:0.71635" id="rect24-5" width="324" height="31.315987"
            x="0.54665631" y="131.17845" />
        
        
        <g>
        <g transform="translate(-254.69979,-329.66606)">
    <g stroke-miterlimit="10">
        <path
            d="M394.80151,398.25277c15.68449,-8.66775 22.66435,-2.89446 27.61904,0.88935c8.31615,5.29173 -5.11873,16.17296 -1.67814,22.0061c3.81618,6.46991 15.94309,3.27732 23.3559,9.85855c7.3827,6.55451 5.6606,12.94668 -0.36933,19.77641c-5.54399,6.27933 -23.04723,16.87112 -42.64922,10.30066c-18.69363,-6.26598 -24.75818,-23.52837 -25.12946,-32.22482c0.25955,-13.87953 3.16673,-21.93851 18.85122,-30.60626z"
            fill="#b59873" stroke="#b59873" stroke-width="2.5" stroke-linecap="round" stroke-linejoin="miter" />
        <path
            d="M403.55292,404.25856c1.76246,-8.52558 16.79892,-5.07474 14.30875,2.99369c-2.27308,7.36505 -17.01851,4.47544 -14.30875,-2.99369z"
            fill="#fe2712" stroke="none" stroke-width="0.5" stroke-linecap="butt" stroke-linejoin="miter" />
        <path
            d="M390.57391,418.7593c-1.89044,1.37455 -3.38262,-0.49068 -3.38262,-0.49068c-0.75092,-1.16198 -2.19888,-2.10348 -2.25275,-3.48593c-0.17597,-4.51553 5.32457,-7.4807 9.13932,-6.53874c1.45162,0.35845 3.31549,0.65757 4.02923,1.97144c2.67778,4.92935 -3.36977,9.20163 -7.53319,8.54391z"
            fill="#fb9902" stroke="none" stroke-width="0.5" stroke-linecap="butt" stroke-linejoin="miter" />
        <path
            d="M380.55932,430.99712c-0.13103,-0.43819 -0.13103,-0.7883 -0.13103,-0.7883c0.1021,-2.93394 -0.45328,-4.8184 2.66672,-6.82962c5.21828,-3.36383 12.13376,2.70864 10.6109,8.31701c-1.37723,5.07208 -11.8983,8.70949 -13.23735,1.31701c-0.12117,-0.66897 -0.07916,-1.35117 0.09075,-2.0161z"
            fill="#fefe33" stroke="none" stroke-width="0.5" stroke-linecap="butt" stroke-linejoin="miter" />
        <path
            d="M389.89625,442.89332c1.95716,-8.79329 17.73553,-1.20007 13.19098,6.3687c-2.38859,3.97811 -9.01336,2.7514 -11.4411,-0.15616c-1.59957,-1.91571 -2.93021,-4.46483 -1.74988,-6.21253z"
            fill="#66b032" stroke="none" stroke-width="0.5" stroke-linecap="butt" stroke-linejoin="miter" />
        <path
            d="M408.85287,450.04082c2.11446,-3.06898 8.01747,-4.64334 10.89699,-1.97199c7.49374,6.95199 -7.97586,14.90025 -11.56458,7.80379c-1.26279,-2.49707 -0.68162,-4.52141 0.66759,-5.8318z"
            fill="#0247fe" stroke="none" stroke-width="0.5" stroke-linecap="butt" stroke-linejoin="miter" />
        <path
            d="M451.07046,432.35198c-11.04479,-14.50801 -33.01498,-49.22612 -26.57523,-51.43592c4.00074,-1.37285 16.62579,16.61804 31.93313,46.93528c0.07151,0.14163 -2.81189,2.21537 -2.81189,2.21537c0,0 -2.52719,2.30999 -2.54601,2.28527z"
            fill="#b59873" stroke="#b59873" stroke-width="2.5" stroke-linecap="round" stroke-linejoin="miter" />
        <path d="M464.241,439.8723l-5.74738,-8.68931l-5.28,3.9551l6.25401,8.33867z" fill="#b59873" stroke="#b59873"
            stroke-width="2.5" stroke-linecap="round" stroke-linejoin="round" />
        <path
            d="M459.31197,447.89966c-2.61232,-0.25779 -5.51066,-6.97849 -1.09116,-9.44942c5.37979,-3.00783 6.94616,0.15741 9.2546,4.09159c1.24294,2.11829 0.43264,5.06483 -2.08467,9.07911c-0.77331,1.23318 -2.25558,-3.34401 -6.07877,-3.72129z"
            fill="#2d231f" stroke="#2d231f" stroke-width="2.5" stroke-linecap="round" stroke-linejoin="miter" />
        <path
            d="M426.55908,446.56715c-0.08249,-1.60458 0.14515,-2.75749 1.99719,-4.60072c2.88905,-2.8753 8.74139,-3.56167 11.32183,0.20504c3.57324,5.21594 -2.9515,11.6624 -8.16892,10.72003c-1.51025,-0.27278 -3.41915,-0.49789 -4.23985,-1.79469c-1.17316,-1.85373 -1.36437,-3.36397 -0.91025,-4.52966z"
            fill="#8601af" stroke="none" stroke-width="0.5" stroke-linecap="butt" stroke-linejoin="miter" />
    </g>
</g>
        </g>
    </g>
    <text xml:space="preserve" style="text-align:start;writing-mode:lr-tb;direction:ltr;text-anchor:start;white-space:pre;inline-size:61.0788;display:inline;fill:#999999;fill-opacity:1" x="118.43866" y="18.066914" id="text37" transform="matrix(1.9306682,0,0,1.9306682,-137.81661,-3.1098946)">
        <tspan x="66.43866" y="18.066914" id="tspan2">
            <tspan style="font-family:'Comic Sans MS';-inkscape-font-specification:'Comic Sans MS'" id="tspan1">Paint Utils</tspan>
        </tspan>
    </text>
</svg>