<?xml version="1.0" encoding="UTF-8"?>
<svg xmlns="http://www.w3.org/2000/svg" xmlns:xlink="http://www.w3.org/1999/xlink" width="600px" height="300px" viewBox="0 0 600 300" version="1.1">
<g id="surface1">
<path style=" stroke:none;fill-rule:nonzero;fill:rgb(47.843137%,47.843137%,47.843137%);fill-opacity:1;" d="M 0.710938 0 L 599.730469 0 L 599.730469 299.507812 L 0.101562 299.058594 Z M 0.710938 0 "/>
<path style=" stroke:none;fill-rule:nonzero;fill:rgb(57.647059%,57.647059%,57.647059%);fill-opacity:1;" d="M 599.292969 0.375 L 598.894531 82.007812 C 598.894531 82.007812 531.992188 60.824219 482.617188 62.191406 C 433.238281 63.554688 376.539062 115.625 302 116.742188 C 227.460938 117.855469 192.617188 66.511719 116.308594 64.4375 C 40.003906 62.363281 0 82.007812 0 82.007812 L 0 0.375 Z M 599.292969 0.375 "/>
<path style=" stroke:none;fill-rule:nonzero;fill:rgb(33.333333%,33.333333%,33.333333%);fill-opacity:1;" d="M 0.199219 298.941406 L 0.199219 179.617188 C 0.199219 179.617188 80.511719 168.199219 131.8125 171.097656 C 223.847656 176.292969 230.171875 202.773438 295.058594 203.410156 C 359.945312 204.050781 345.703125 178.191406 482.816406 174.542969 C 556.855469 172.570312 599.546875 179.84375 599.546875 179.84375 L 599.546875 299.394531 Z M 0.199219 298.941406 "/>
<path style="fill:none;stroke-width:7.5;stroke-linecap:square;stroke-linejoin:miter;stroke:rgb(0%,0%,0%);stroke-opacity:0.501961;stroke-miterlimit:10;" d="M 146.079319 239.527677 L 144.555882 233.570646 L 137.217991 233.570646 L 135.884007 239.293302 C 135.69846 240.248381 134.219944 240.726896 131.450413 240.726896 C 129.971898 240.726896 128.878148 240.642912 128.169163 240.474943 C 127.466038 240.305021 127.114476 240.174162 127.114476 240.076506 L 135.280491 208.838224 C 135.280491 208.592131 137.38596 208.467131 141.598851 208.467131 C 145.817601 208.467131 147.926976 208.592131 147.926976 208.838224 L 155.911351 240.123381 C 155.911351 240.338224 155.202366 240.510099 153.784398 240.637052 C 152.372288 240.756193 151.249241 240.81674 150.413304 240.81674 C 150.413304 240.81674 146.294163 240.387052 146.079319 239.527677 Z M 138.372288 227.711271 L 143.221898 227.711271 L 141.139866 218.156584 L 140.868382 218.156584 Z M 165.048069 240.771818 C 161.971898 240.681974 160.432835 240.512052 160.432835 240.265959 L 158.212132 228.041349 C 157.413304 228.041349 157.567601 222.482756 157.567601 222.086271 C 157.567601 221.131193 157.753148 220.176115 158.126194 219.221037 C 158.678929 217.869474 159.538304 217.193693 160.704319 217.193693 C 161.874241 217.193693 162.921116 217.469084 163.839085 218.021818 C 164.764866 218.574552 165.384007 219.127287 165.696507 219.680021 C 167.632054 218.021818 169.936741 217.193693 172.610569 217.193693 C 175.290257 217.193693 177.227757 217.916349 178.423069 219.365568 C 179.626194 220.806974 180.225804 223.174162 180.225804 226.467131 L 180.225804 240.310881 C 180.225804 240.678068 178.909398 240.861662 176.278538 240.861662 C 173.651585 240.861662 172.339085 240.678068 172.339085 240.310881 L 172.339085 226.97299 C 172.339085 225.433927 171.801976 224.664396 170.725804 224.664396 C 170.413304 224.664396 169.981663 224.797209 169.428929 225.060881 C 168.876194 225.320646 168.520726 225.512052 168.364476 225.639006 L 168.364476 240.447599 C 168.364476 240.447599 167.259007 240.771818 165.048069 240.771818 Z M 192.592991 240.447599 C 192.592991 240.693693 191.184788 240.81674 188.366429 240.81674 C 185.553929 240.81674 184.147679 240.707365 184.147679 240.492521 L 184.147679 217.832365 C 184.147679 217.623381 185.553929 217.517912 188.366429 217.517912 C 191.184788 217.517912 192.592991 217.607756 192.592991 217.787443 Z M 192.592991 215.064787 C 192.592991 215.281584 191.184788 215.390959 188.366429 215.390959 C 185.553929 215.390959 184.147679 215.297209 184.147679 215.111662 L 184.147679 208.467131 C 184.147679 208.162443 185.553929 208.008146 188.366429 208.008146 C 191.184788 208.008146 192.592991 208.101896 192.592991 208.287443 Z M 217.657444 240.492521 C 217.657444 240.707365 216.341038 240.81674 213.708226 240.81674 C 211.077366 240.81674 209.76096 240.678068 209.76096 240.402677 L 209.76096 226.97299 C 209.76096 225.433927 209.253148 224.664396 208.237523 224.664396 C 207.716038 224.664396 207.024632 225.00424 206.165257 225.683927 L 206.165257 240.447599 C 206.165257 240.75424 204.848851 240.906584 202.217991 240.906584 C 199.585179 240.906584 198.268773 240.738615 198.268773 240.402677 L 198.268773 225.312834 L 197.116429 225.312834 C 196.100804 225.312834 195.592991 224.252287 195.592991 222.131193 C 195.592991 221.176115 195.778538 220.205412 196.151585 219.221037 C 196.643773 217.869474 197.442601 217.193693 198.548069 217.193693 C 199.655491 217.193693 200.721898 217.484709 201.749241 218.06674 C 202.782444 218.650724 203.407444 219.203459 203.624241 219.724943 C 205.534398 218.037443 207.649632 217.193693 209.967991 217.193693 C 212.294163 217.193693 214.163304 217.914396 215.575413 219.355802 C 217.239476 217.914396 219.239476 217.193693 221.577366 217.193693 C 226.655491 217.193693 229.194554 220.283537 229.194554 226.467131 L 229.194554 240.492521 C 229.194554 240.709318 227.878148 240.81674 225.245335 240.81674 C 222.614476 240.81674 221.298069 240.678068 221.298069 240.402677 L 221.298069 226.97299 C 221.298069 225.433927 220.790257 224.664396 219.774632 224.664396 C 219.221898 224.664396 218.516819 225.00424 217.657444 225.683927 Z M 236.022679 223.971037 C 235.163304 222.431974 234.733616 221.180021 234.733616 220.211271 C 234.733616 219.244474 234.995335 218.623381 235.516819 218.346037 C 237.264866 217.576506 239.669163 217.193693 242.727757 217.193693 C 245.79221 217.193693 247.956273 217.908537 249.217991 219.338224 C 250.47971 220.767912 251.110569 222.883146 251.110569 225.683927 C 251.110569 225.683927 253.950413 228.681974 254.245335 229.301115 C 254.540257 229.914396 254.344944 235.359709 254.344944 236.435881 C 254.344944 237.512052 254.075413 238.572599 253.534398 239.617521 C 252.993382 240.662443 252.262913 241.185881 251.344944 241.185881 C 249.680882 241.185881 248.339085 240.740568 247.325413 239.851896 C 246.868382 239.478849 246.516819 239.031584 246.270726 238.508146 C 244.852757 240.293302 242.649632 241.185881 239.663304 241.185881 C 237.421116 241.185881 235.532444 240.387052 233.993382 238.789396 C 232.456273 237.189787 231.686741 235.297209 231.686741 233.109709 C 231.686741 228.09799 234.684788 225.594084 240.680882 225.594084 L 243.223851 225.594084 L 243.223851 225.125334 C 243.223851 224.324552 243.091038 223.810881 242.827366 223.582365 C 242.567601 223.355802 241.962132 223.240568 241.007054 223.240568 C 239.835179 223.240568 238.173069 223.484709 236.022679 223.971037 Z M 240.266819 234.012052 C 240.634007 234.365568 241.102757 234.543302 241.673069 234.543302 C 242.243382 234.543302 242.76096 234.312834 243.223851 233.849943 L 243.223851 230.297209 L 241.925023 230.297209 C 240.454319 230.297209 239.717991 231.021818 239.717991 232.471037 C 239.717991 232.471037 239.899632 233.656584 240.266819 234.012052 Z M 267.587132 240.447599 C 267.587132 240.818693 266.294163 241.006193 263.710179 241.006193 C 260.634007 240.87924 259.096898 240.678068 259.096898 240.402677 L 259.096898 224.070646 L 256.743382 224.070646 C 256.124241 224.070646 255.815648 223.006193 255.815648 220.87924 C 255.815648 220.326506 255.870335 219.650724 255.977757 218.851896 C 256.085179 218.051115 256.311741 217.652677 256.653538 217.652677 L 259.096898 217.652677 L 259.096898 213.588224 C 259.096898 212.974943 260.393773 212.668302 262.989476 212.668302 C 265.591038 212.668302 266.891819 212.914396 266.891819 213.406584 L 266.891819 216.363615 L 266.936741 217.652677 L 270.868382 217.652677 C 271.389866 217.652677 271.651585 218.730802 271.651585 220.889006 C 271.651585 223.039396 271.389866 224.115568 270.868382 224.115568 L 267.587132 224.115568 Z M 282.397679 240.447599 C 282.397679 240.693693 280.987523 240.81674 278.169163 240.81674 C 275.356663 240.81674 273.950413 240.707365 273.950413 240.492521 L 273.950413 217.832365 C 273.950413 217.623381 275.356663 217.517912 278.169163 217.517912 C 280.987523 217.517912 282.397679 217.607756 282.397679 217.787443 Z M 282.397679 215.064787 C 282.397679 215.281584 280.987523 215.390959 278.169163 215.390959 C 275.356663 215.390959 273.950413 215.297209 273.950413 215.111662 L 273.950413 208.467131 C 273.950413 208.162443 275.356663 208.008146 278.169163 208.008146 C 280.987523 208.008146 282.397679 208.101896 282.397679 208.287443 Z M 288.559788 238.00424 C 286.63596 235.883146 285.675023 232.945646 285.675023 229.189787 C 285.675023 225.433927 286.63596 222.496427 288.559788 220.375334 C 290.481663 218.25424 293.075413 217.193693 296.337132 217.193693 C 299.600804 217.193693 302.184788 218.25424 304.089085 220.375334 C 305.993382 222.496427 306.946507 225.433927 306.946507 229.189787 C 306.946507 232.945646 305.993382 235.883146 304.089085 238.00424 C 302.184788 240.125334 299.600804 241.185881 296.337132 241.185881 C 293.075413 241.185881 290.481663 240.125334 288.559788 238.00424 Z M 296.356663 224.898771 C 294.620335 224.898771 293.751194 226.314787 293.751194 229.144865 C 293.751194 231.974943 294.620335 233.389006 296.356663 233.389006 C 298.098851 233.389006 298.969944 231.974943 298.969944 229.144865 C 298.969944 226.314787 298.098851 224.898771 296.356663 224.898771 Z M 319.868382 240.447599 C 319.868382 240.662443 318.762913 240.771818 316.550023 240.771818 C 313.473851 240.681974 311.936741 240.514006 311.936741 240.265959 L 311.936741 225.312834 L 310.737523 225.312834 C 309.938694 225.312834 309.415257 224.637052 309.169163 223.28549 C 309.102757 222.883146 309.069554 222.482756 309.069554 222.086271 C 309.069554 221.131193 309.255101 220.176115 309.628148 219.221037 C 310.180882 217.869474 311.040257 217.193693 312.206273 217.193693 C 313.378148 217.193693 314.423069 217.469084 315.342991 218.021818 C 316.268773 218.574552 316.887913 219.127287 317.200413 219.680021 C 319.134007 218.021818 321.438694 217.193693 324.112523 217.193693 C 326.79221 217.193693 328.72971 217.916349 329.926976 219.365568 C 331.128148 220.806974 331.72971 223.174162 331.72971 226.467131 L 331.72971 240.310881 C 331.72971 240.678068 330.413304 240.861662 327.780491 240.861662 C 325.155491 240.861662 323.842991 240.678068 323.842991 240.310881 L 323.842991 226.97299 C 323.842991 225.433927 323.303929 224.664396 322.22971 224.664396 C 321.91721 224.664396 321.483616 224.797209 320.930882 225.060881 C 320.378148 225.320646 320.024632 225.512052 319.868382 225.639006 Z M 341.518773 231.91049 C 337.673069 230.344084 335.749241 227.773771 335.749241 224.205412 C 335.749241 221.928068 336.579319 220.19174 338.237523 218.994474 C 339.901585 217.793302 341.893773 217.193693 344.214085 217.193693 C 346.538304 217.193693 348.507054 217.439787 350.116429 217.931974 C 351.733616 218.424162 352.54221 219.070646 352.54221 219.869474 C 352.54221 220.543302 352.212132 221.435881 351.550023 222.547209 C 350.889866 223.652677 350.434788 224.250334 350.188694 224.340177 C 348.866429 223.607756 347.436741 223.240568 345.899632 223.240568 C 345.069554 223.240568 344.655491 223.531584 344.655491 224.115568 C 344.655491 224.480802 344.813694 224.797209 345.132054 225.060881 C 345.458226 225.320646 346.050023 225.640959 346.907444 226.025724 C 347.774632 226.41049 348.489476 226.758146 349.053929 227.070646 C 349.624241 227.377287 350.264866 227.806974 350.973851 228.359709 C 352.452366 229.525724 353.190648 231.049162 353.190648 232.930021 C 353.190648 235.387052 352.374241 237.37924 350.739476 238.906584 C 349.110569 240.426115 346.649632 241.185881 343.356663 241.185881 C 341.175023 241.185881 339.192601 240.81674 337.409398 240.076506 C 335.624241 239.338224 334.731663 238.322599 334.731663 237.031584 C 334.731663 236.172209 334.938694 235.267912 335.352757 234.318693 C 335.768773 233.361662 336.192601 232.728849 336.624241 232.416349 C 336.624241 232.416349 341.085179 234.678068 342.528538 234.678068 C 342.528538 234.678068 343.116429 232.650724 341.518773 231.91049 Z M 341.518773 231.91049 " transform="matrix(2,0,0,2,-180.08442,-211.25848)"/>
<path style=" stroke:none;fill-rule:nonzero;fill:rgb(100%,100%,100%);fill-opacity:1;" d="M 120.742188 270.375 C 115.394531 270.375 112.503906 269.515625 112.074219 267.796875 L 109.027344 255.882812 L 94.351562 255.882812 L 91.683594 267.328125 C 91.3125 269.238281 88.355469 270.195312 82.816406 270.195312 C 79.859375 270.195312 77.671875 270.027344 76.253906 269.691406 C 74.847656 269.351562 74.144531 269.089844 74.144531 268.894531 L 90.476562 206.417969 C 90.476562 205.925781 94.6875 205.675781 103.113281 205.675781 C 111.550781 205.675781 115.769531 205.925781 115.769531 206.417969 L 131.738281 268.988281 C 131.738281 269.417969 130.320312 269.761719 127.484375 270.015625 C 124.660156 270.253906 122.414062 270.375 120.742188 270.375 Z M 96.660156 244.164062 L 106.359375 244.164062 L 102.195312 225.054688 L 101.652344 225.054688 Z M 156.644531 269.636719 C 156.644531 270.066406 154.433594 270.285156 150.011719 270.285156 C 143.859375 270.105469 140.78125 269.769531 140.78125 269.273438 L 140.78125 239.367188 L 138.382812 239.367188 C 136.785156 239.367188 135.742188 238.015625 135.246094 235.3125 C 135.117188 234.507812 135.050781 233.707031 135.050781 232.914062 C 135.050781 231.003906 135.421875 229.09375 136.167969 227.183594 C 137.273438 224.480469 138.992188 223.128906 141.324219 223.128906 C 143.664062 223.128906 145.757812 223.679688 147.59375 224.785156 C 149.445312 225.890625 150.683594 226.996094 151.308594 228.101562 C 155.179688 224.785156 159.789062 223.128906 165.136719 223.128906 C 170.496094 223.128906 174.371094 224.574219 176.761719 227.472656 C 179.167969 230.355469 180.367188 235.089844 180.367188 241.675781 L 180.367188 269.363281 C 180.367188 270.097656 177.734375 270.464844 172.472656 270.464844 C 167.21875 270.464844 164.59375 270.097656 164.59375 269.363281 L 164.59375 242.6875 C 164.59375 239.609375 163.519531 238.070312 161.367188 238.070312 C 160.742188 238.070312 159.878906 238.335938 158.773438 238.863281 C 157.667969 239.382812 156.957031 239.765625 156.644531 240.019531 Z M 205.101562 269.636719 C 205.101562 270.128906 202.285156 270.375 196.648438 270.375 C 191.023438 270.375 188.210938 270.15625 188.210938 269.726562 L 188.210938 224.40625 C 188.210938 223.988281 191.023438 223.777344 196.648438 223.777344 C 202.285156 223.777344 205.101562 223.957031 205.101562 224.316406 Z M 205.101562 218.871094 C 205.101562 219.304688 202.285156 219.523438 196.648438 219.523438 C 191.023438 219.523438 188.210938 219.335938 188.210938 218.964844 L 188.210938 205.675781 C 188.210938 205.066406 191.023438 204.757812 196.648438 204.757812 C 202.285156 204.757812 205.101562 204.945312 205.101562 205.316406 Z M 255.230469 269.726562 C 255.230469 270.15625 252.597656 270.375 247.332031 270.375 C 242.070312 270.375 239.4375 270.097656 239.4375 269.546875 L 239.4375 242.6875 C 239.4375 239.609375 238.421875 238.070312 236.390625 238.070312 C 235.347656 238.070312 233.964844 238.75 232.246094 240.109375 L 232.246094 269.636719 C 232.246094 270.25 229.613281 270.554688 224.351562 270.554688 C 219.085938 270.554688 216.453125 270.21875 216.453125 269.546875 L 216.453125 239.367188 L 214.148438 239.367188 C 212.117188 239.367188 211.101562 237.246094 211.101562 233.003906 C 211.101562 231.09375 211.472656 229.152344 212.21875 227.183594 C 213.203125 224.480469 214.800781 223.128906 217.011719 223.128906 C 219.226562 223.128906 221.359375 223.710938 223.414062 224.875 C 225.480469 226.042969 226.730469 227.148438 227.164062 228.191406 C 230.984375 224.816406 235.214844 223.128906 239.851562 223.128906 C 244.503906 223.128906 248.242188 224.570312 251.066406 227.453125 C 254.394531 224.570312 258.394531 223.128906 263.070312 223.128906 C 273.226562 223.128906 278.304688 229.308594 278.304688 241.675781 L 278.304688 269.726562 C 278.304688 270.160156 275.671875 270.375 270.40625 270.375 C 265.144531 270.375 262.511719 270.097656 262.511719 269.546875 L 262.511719 242.6875 C 262.511719 239.609375 261.496094 238.070312 259.464844 238.070312 C 258.359375 238.070312 256.949219 238.75 255.230469 240.109375 Z M 291.960938 236.683594 C 290.242188 233.605469 289.382812 231.101562 289.382812 229.164062 C 289.382812 227.230469 289.90625 225.988281 290.949219 225.433594 C 294.445312 223.894531 299.253906 223.128906 305.371094 223.128906 C 311.5 223.128906 315.828125 224.558594 318.351562 227.417969 C 320.875 230.277344 322.136719 234.507812 322.136719 240.109375 L 322.136719 254.691406 L 325.273438 254.691406 C 326.316406 254.691406 327.136719 255.308594 327.722656 256.546875 C 328.3125 257.773438 328.605469 259.460938 328.605469 261.613281 C 328.605469 263.765625 328.066406 265.886719 326.984375 267.976562 C 325.902344 270.066406 324.441406 271.113281 322.605469 271.113281 C 319.277344 271.113281 316.59375 270.222656 314.566406 268.445312 C 313.652344 267.699219 312.949219 266.804688 312.457031 265.757812 C 309.621094 269.328125 305.214844 271.113281 299.242188 271.113281 C 294.757812 271.113281 290.980469 269.515625 287.902344 266.320312 C 284.828125 263.121094 283.289062 259.335938 283.289062 254.960938 C 283.289062 244.9375 289.285156 239.929688 301.277344 239.929688 L 306.363281 239.929688 L 306.363281 238.992188 C 306.363281 237.390625 306.097656 236.363281 305.570312 235.90625 C 305.050781 235.453125 303.839844 235.222656 301.929688 235.222656 C 299.585938 235.222656 296.261719 235.710938 291.960938 236.683594 Z M 299.351562 253.683594 C 299.351562 255.027344 299.714844 256.054688 300.449219 256.765625 C 301.183594 257.472656 302.121094 257.828125 303.261719 257.828125 C 304.402344 257.828125 305.4375 257.367188 306.363281 256.441406 L 306.363281 249.335938 L 303.765625 249.335938 C 300.824219 249.335938 299.351562 250.785156 299.351562 253.683594 Z M 355.089844 269.636719 C 355.089844 270.378906 352.503906 270.753906 347.335938 270.753906 C 341.183594 270.5 338.109375 270.097656 338.109375 269.546875 L 338.109375 236.882812 L 333.402344 236.882812 C 332.164062 236.882812 331.546875 234.753906 331.546875 230.5 C 331.546875 229.394531 331.65625 228.042969 331.871094 226.445312 C 332.085938 224.84375 332.539062 224.046875 333.222656 224.046875 L 338.109375 224.046875 L 338.109375 215.917969 C 338.109375 214.691406 340.703125 214.078125 345.894531 214.078125 C 351.097656 214.078125 353.699219 214.570312 353.699219 215.554688 L 353.699219 221.46875 L 353.789062 224.046875 L 361.652344 224.046875 C 362.695312 224.046875 363.21875 226.203125 363.21875 230.519531 C 363.21875 234.820312 362.695312 236.972656 361.652344 236.972656 L 355.089844 236.972656 Z M 384.710938 269.636719 C 384.710938 270.128906 381.890625 270.375 376.253906 270.375 C 370.628906 270.375 367.816406 270.15625 367.816406 269.726562 L 367.816406 224.40625 C 367.816406 223.988281 370.628906 223.777344 376.253906 223.777344 C 381.890625 223.777344 384.710938 223.957031 384.710938 224.316406 Z M 384.710938 218.871094 C 384.710938 219.304688 381.890625 219.523438 376.253906 219.523438 C 370.628906 219.523438 367.816406 219.335938 367.816406 218.964844 L 367.816406 205.675781 C 367.816406 205.066406 370.628906 204.757812 376.253906 204.757812 C 381.890625 204.757812 384.710938 204.945312 384.710938 205.316406 Z M 397.035156 264.75 C 393.1875 260.507812 391.265625 254.632812 391.265625 247.121094 C 391.265625 239.609375 393.1875 233.734375 397.035156 229.492188 C 400.878906 225.25 406.066406 223.128906 412.589844 223.128906 C 419.117188 223.128906 424.285156 225.25 428.09375 229.492188 C 431.902344 233.734375 433.808594 239.609375 433.808594 247.121094 C 433.808594 254.632812 431.902344 260.507812 428.09375 264.75 C 424.285156 268.992188 419.117188 271.113281 412.589844 271.113281 C 406.066406 271.113281 400.878906 268.992188 397.035156 264.75 Z M 412.628906 238.539062 C 409.15625 238.539062 407.417969 241.371094 407.417969 247.03125 C 407.417969 252.691406 409.15625 255.519531 412.628906 255.519531 C 416.113281 255.519531 417.855469 252.691406 417.855469 247.03125 C 417.855469 241.371094 416.113281 238.539062 412.628906 238.539062 Z M 459.652344 269.636719 C 459.652344 270.066406 457.441406 270.285156 453.015625 270.285156 C 446.863281 270.105469 443.789062 269.769531 443.789062 269.273438 L 443.789062 239.367188 L 441.390625 239.367188 C 439.792969 239.367188 438.746094 238.015625 438.253906 235.3125 C 438.121094 234.507812 438.054688 233.707031 438.054688 232.914062 C 438.054688 231.003906 438.425781 229.09375 439.171875 227.183594 C 440.277344 224.480469 441.996094 223.128906 444.328125 223.128906 C 446.671875 223.128906 448.761719 223.679688 450.601562 224.785156 C 452.453125 225.890625 453.691406 226.996094 454.316406 228.101562 C 458.183594 224.785156 462.792969 223.128906 468.140625 223.128906 C 473.5 223.128906 477.375 224.574219 479.769531 227.472656 C 482.171875 230.355469 483.375 235.089844 483.375 241.675781 L 483.375 269.363281 C 483.375 270.097656 480.742188 270.464844 475.476562 270.464844 C 470.226562 270.464844 467.601562 270.097656 467.601562 269.363281 L 467.601562 242.6875 C 467.601562 239.609375 466.523438 238.070312 464.375 238.070312 C 463.75 238.070312 462.882812 238.335938 461.777344 238.863281 C 460.671875 239.382812 459.964844 239.765625 459.652344 240.019531 Z M 504.972656 258.097656 C 506.820312 258.097656 507.746094 257.457031 507.746094 256.167969 C 507.746094 255.246094 506.148438 254.042969 502.953125 252.5625 C 495.261719 249.429688 491.414062 244.289062 491.414062 237.152344 C 491.414062 232.597656 493.074219 229.125 496.390625 226.734375 C 499.71875 224.328125 503.703125 223.128906 508.34375 223.128906 C 512.992188 223.128906 516.929688 223.621094 520.148438 224.605469 C 523.382812 225.589844 525 226.882812 525 228.480469 C 525 229.828125 524.335938 231.613281 523.015625 233.835938 C 521.695312 236.046875 520.785156 237.242188 520.292969 237.421875 C 517.648438 235.957031 514.789062 235.222656 511.714844 235.222656 C 510.054688 235.222656 509.226562 235.804688 509.226562 236.972656 C 509.226562 237.703125 509.542969 238.335938 510.179688 238.863281 C 510.832031 239.382812 512.015625 240.023438 513.730469 240.792969 C 515.460938 241.5625 516.894531 242.257812 518.023438 242.882812 C 519.164062 243.496094 520.445312 244.355469 521.863281 245.460938 C 524.820312 247.792969 526.296875 250.839844 526.296875 254.601562 C 526.296875 259.515625 524.664062 263.5 521.394531 266.554688 C 518.136719 269.59375 513.214844 271.113281 506.628906 271.113281 C 502.265625 271.113281 498.300781 270.375 494.734375 268.894531 C 491.164062 267.417969 489.378906 265.386719 489.378906 262.804688 C 489.378906 261.085938 489.792969 259.277344 490.621094 257.378906 C 491.453125 255.464844 492.300781 254.199219 493.164062 253.574219 C 493.164062 253.574219 502.085938 258.097656 504.972656 258.097656 Z M 504.972656 258.097656 "/>
<path style=" stroke:none;fill-rule:nonzero;fill:rgb(0%,0%,0%);fill-opacity:0.501961;" d="M 217.550781 111.066406 C 217.550781 65.40625 254.5625 28.394531 300.222656 28.394531 C 345.878906 28.394531 382.890625 65.40625 382.890625 111.066406 C 382.890625 156.722656 345.878906 193.734375 300.222656 193.734375 C 254.5625 193.734375 217.550781 156.722656 217.550781 111.066406 Z M 217.550781 111.066406 "/>
<path style=" stroke:none;fill-rule:nonzero;fill:rgb(100%,100%,100%);fill-opacity:1;" d="M 223.476562 111.066406 C 223.476562 68.679688 257.835938 34.320312 300.222656 34.320312 C 342.605469 34.320312 376.964844 68.679688 376.964844 111.066406 C 376.964844 153.449219 342.605469 187.808594 300.222656 187.808594 C 257.835938 187.808594 223.476562 153.449219 223.476562 111.066406 Z M 223.476562 111.066406 "/>
<path style=" stroke:none;fill-rule:nonzero;fill:rgb(26.666667%,26.666667%,26.666667%);fill-opacity:1;" d="M 229.402344 111.066406 C 229.402344 71.953125 261.109375 40.246094 300.222656 40.246094 C 339.332031 40.246094 371.042969 71.953125 371.042969 111.066406 C 371.042969 150.179688 339.332031 181.886719 300.222656 181.886719 C 261.109375 181.886719 229.402344 150.179688 229.402344 111.066406 Z M 229.402344 111.066406 "/>
<path style=" stroke:none;fill-rule:nonzero;fill:rgb(47.843137%,47.843137%,47.843137%);fill-opacity:1;" d="M 235.925781 111.066406 C 235.925781 75.554688 264.710938 46.769531 300.222656 46.769531 C 335.730469 46.769531 364.515625 75.554688 364.515625 111.066406 C 364.515625 146.574219 335.730469 175.359375 300.222656 175.359375 C 264.710938 175.359375 235.925781 146.574219 235.925781 111.066406 Z M 235.925781 111.066406 "/>
<path style="fill-rule:nonzero;fill:rgb(53.72549%,53.72549%,53.72549%);fill-opacity:1;stroke-width:1.75;stroke-linecap:butt;stroke-linejoin:miter;stroke:rgb(47.843137%,47.843137%,47.843137%);stroke-opacity:1;stroke-miterlimit:10;" d="M 217.903538 176.031584 C 214.786351 171.519865 215.91721 165.334318 220.428929 162.217131 C 224.942601 159.099943 231.128148 160.230802 234.245335 164.742521 C 237.362523 169.256193 236.231663 175.44174 231.717991 178.558927 C 227.206273 181.676115 221.020726 180.545256 217.903538 176.031584 Z M 217.903538 176.031584 " transform="matrix(2,0,0,2,-180.08442,-211.25848)"/>
<path style="fill-rule:nonzero;fill:rgb(61.568627%,61.568627%,61.568627%);fill-opacity:1;stroke-width:1.75;stroke-linecap:butt;stroke-linejoin:miter;stroke:rgb(47.843137%,47.843137%,47.843137%);stroke-opacity:1;stroke-miterlimit:10;" d="M 220.35471 170.375334 C 216.839085 165.28549 218.114476 158.308927 223.204319 154.793302 C 228.294163 151.277677 235.270726 152.553068 238.786351 157.642912 C 242.301976 162.732756 241.026585 169.709318 235.936741 173.224943 C 230.846898 176.740568 223.870335 175.465177 220.35471 170.375334 Z M 220.35471 170.375334 " transform="matrix(2,0,0,2,-180.08442,-211.25848)"/>
<path style="fill-rule:nonzero;fill:rgb(68.235294%,68.235294%,68.235294%);fill-opacity:1;stroke-width:1.75;stroke-linecap:butt;stroke-linejoin:miter;stroke:rgb(47.843137%,47.843137%,47.843137%);stroke-opacity:1;stroke-miterlimit:10;" d="M 224.817601 166.478849 C 220.69846 160.515959 222.192601 152.344084 228.155491 148.224943 C 234.118382 144.105802 242.290257 145.599943 246.409398 151.562834 C 250.528538 157.523771 249.034398 165.697599 243.071507 169.81674 C 237.108616 173.935881 228.936741 172.44174 224.817601 166.478849 Z M 224.817601 166.478849 " transform="matrix(2,0,0,2,-180.08442,-211.25848)"/>
<path style="fill-rule:nonzero;fill:rgb(72.941176%,72.941176%,72.941176%);fill-opacity:1;stroke-width:1.75;stroke-linecap:butt;stroke-linejoin:miter;stroke:rgb(47.843137%,47.843137%,47.843137%);stroke-opacity:1;stroke-miterlimit:10;" d="M 231.018773 164.369474 C 226.557835 157.91049 228.176976 149.056974 234.63596 144.594084 C 241.094944 140.133146 249.94846 141.750334 254.411351 148.211271 C 258.872288 154.670256 257.253148 163.523771 250.794163 167.984709 C 244.335179 172.447599 235.481663 170.828459 231.018773 164.369474 Z M 231.018773 164.369474 " transform="matrix(2,0,0,2,-180.08442,-211.25848)"/>
<path style=" stroke:none;fill-rule:nonzero;fill:rgb(100%,100%,100%);fill-opacity:1;" d="M 291.292969 121.75 C 281.484375 107.554688 285.042969 88.097656 299.242188 78.289062 C 313.4375 68.480469 332.894531 72.039062 342.703125 86.234375 C 352.507812 100.433594 348.949219 119.890625 334.753906 129.699219 C 320.558594 139.503906 301.101562 135.945312 291.292969 121.75 Z M 291.292969 121.75 "/>
<path style="fill:none;stroke-width:10;stroke-linecap:round;stroke-linejoin:miter;stroke:rgb(26.666667%,26.666667%,26.666667%);stroke-opacity:1;stroke-miterlimit:10;" d="M 155.421116 168.064787 L 168.208226 166.783537 L 175.41721 178.328459 " transform="matrix(2,0,0,2,-180.08442,-211.25848)"/>
<path style="fill:none;stroke-width:10;stroke-linecap:round;stroke-linejoin:miter;stroke:rgb(26.666667%,26.666667%,26.666667%);stroke-opacity:1;stroke-miterlimit:10;" d="M 174.128148 157.969084 L 163.493382 160.228849 L 154.553929 149.998381 " transform="matrix(2,0,0,2,-180.08442,-211.25848)"/>
<path style=" stroke:none;fill-rule:nonzero;fill:rgb(0%,0%,0%);fill-opacity:0.25098;" d="M 100.933594 129.523438 C 100.933594 117.125 100.933594 89.433594 100.933594 83.167969 C 100.933594 80.710938 102.714844 78.363281 104.417969 78.363281 C 107.882812 78.363281 120.632812 78.363281 127.117188 78.363281 C 129.441406 78.363281 130.960938 81.875 130.960938 85.210938 C 130.960938 92.28125 130.960938 119.097656 130.960938 130.484375 C 130.960938 133.671875 128.609375 135.648438 126.753906 135.648438 C 123.289062 135.648438 111.523438 135.648438 105.136719 135.648438 C 102.617188 135.648438 100.933594 133.207031 100.933594 129.523438 Z M 100.933594 129.523438 "/>
<path style=" stroke:none;fill-rule:nonzero;fill:rgb(0%,0%,0%);fill-opacity:0.25098;" d="M 95.304688 59.023438 C 95.304688 46.875 105.15625 37.027344 117.300781 37.027344 C 129.449219 37.027344 139.300781 46.875 139.300781 59.023438 C 139.300781 71.171875 129.449219 81.019531 117.300781 81.019531 C 105.15625 81.019531 95.304688 71.171875 95.304688 59.023438 Z M 95.304688 59.023438 "/>
<path style="fill:none;stroke-width:10;stroke-linecap:round;stroke-linejoin:miter;stroke:rgb(26.666667%,26.666667%,26.666667%);stroke-opacity:1;stroke-miterlimit:10;" d="M 130.055882 167.967131 L 131.69846 157.221037 L 144.428929 152.47299 " transform="matrix(2,0,0,2,-180.08442,-211.25848)"/>
<path style="fill:none;stroke-width:10;stroke-linecap:round;stroke-linejoin:miter;stroke:rgb(26.666667%,26.666667%,26.666667%);stroke-opacity:1;stroke-miterlimit:10;" d="M 142.559788 171.103849 L 134.692601 181.265959 L 121.35471 178.555021 " transform="matrix(2,0,0,2,-180.08442,-211.25848)"/>
<path style="fill:none;stroke-width:7.5;stroke-linecap:round;stroke-linejoin:miter;stroke:rgb(69.411765%,69.411765%,69.411765%);stroke-opacity:1;stroke-miterlimit:10;" d="M 154.028538 170.424162 L 166.077366 174.898771 L 167.471898 188.437834 " transform="matrix(2,0,0,2,-180.08442,-211.25848)"/>
<path style="fill:none;stroke-width:7.5;stroke-linecap:round;stroke-linejoin:miter;stroke:rgb(69.411765%,69.411765%,69.411765%);stroke-opacity:1;stroke-miterlimit:10;" d="M 169.569554 163.125334 L 158.786351 161.740568 L 153.735569 149.127287 " transform="matrix(2,0,0,2,-180.08442,-211.25848)"/>
<path style=" stroke:none;fill-rule:nonzero;fill:rgb(100%,100%,100%);fill-opacity:1;" d="M 100.921875 129.800781 C 100.921875 117.398438 100.921875 89.707031 100.921875 83.441406 C 100.921875 80.984375 102.699219 78.636719 104.40625 78.636719 C 107.871094 78.636719 120.617188 78.636719 127.101562 78.636719 C 129.425781 78.636719 130.945312 82.148438 130.945312 85.484375 C 130.945312 92.558594 130.945312 119.371094 130.945312 130.761719 C 130.945312 133.945312 128.59375 135.925781 126.742188 135.925781 C 123.277344 135.925781 111.511719 135.925781 105.125 135.925781 C 102.605469 135.925781 100.921875 133.480469 100.921875 129.800781 Z M 100.921875 129.800781 "/>
<path style=" stroke:none;fill-rule:nonzero;fill:rgb(100%,100%,100%);fill-opacity:1;" d="M 95.292969 59.296875 C 95.292969 47.148438 105.140625 37.300781 117.289062 37.300781 C 129.4375 37.300781 139.285156 47.148438 139.285156 59.296875 C 139.285156 71.445312 129.4375 81.292969 117.289062 81.292969 C 105.140625 81.292969 95.292969 71.445312 95.292969 59.296875 Z M 95.292969 59.296875 "/>
<path style="fill:none;stroke-width:7.5;stroke-linecap:round;stroke-linejoin:miter;stroke:rgb(100%,100%,100%);stroke-opacity:1;stroke-miterlimit:10;" d="M 127.030491 164.824552 L 128.41721 154.041349 L 141.030491 148.990568 " transform="matrix(2,0,0,2,-180.08442,-211.25848)"/>
<path style="fill:none;stroke-width:7.5;stroke-linecap:round;stroke-linejoin:miter;stroke:rgb(100%,100%,100%);stroke-opacity:1;stroke-miterlimit:10;" d="M 142.960179 173.017912 L 138.485569 185.064787 L 124.946507 186.459318 " transform="matrix(2,0,0,2,-180.08442,-211.25848)"/>
<path style="fill:none;stroke-width:10;stroke-linecap:round;stroke-linejoin:miter;stroke:rgb(26.666667%,26.666667%,26.666667%);stroke-opacity:1;stroke-miterlimit:10;" d="M 339.069554 168.064787 L 351.856663 166.783537 L 359.063694 178.328459 " transform="matrix(2,0,0,2,-180.08442,-211.25848)"/>
<path style="fill:none;stroke-width:10;stroke-linecap:round;stroke-linejoin:miter;stroke:rgb(26.666667%,26.666667%,26.666667%);stroke-opacity:1;stroke-miterlimit:10;" d="M 357.774632 157.969084 L 347.141819 160.228849 L 338.200413 149.998381 " transform="matrix(2,0,0,2,-180.08442,-211.25848)"/>
<path style=" stroke:none;fill-rule:nonzero;fill:rgb(0%,0%,0%);fill-opacity:0.25098;" d="M 468.230469 129.523438 C 468.230469 117.125 468.230469 89.433594 468.230469 83.167969 C 468.230469 80.710938 470.007812 78.363281 471.710938 78.363281 C 475.175781 78.363281 487.925781 78.363281 494.410156 78.363281 C 496.734375 78.363281 498.253906 81.875 498.253906 85.210938 C 498.253906 92.28125 498.253906 119.097656 498.253906 130.484375 C 498.253906 133.671875 495.902344 135.648438 494.050781 135.648438 C 490.585938 135.648438 478.816406 135.648438 472.433594 135.648438 C 469.910156 135.648438 468.230469 133.207031 468.230469 129.523438 Z M 468.230469 129.523438 "/>
<path style=" stroke:none;fill-rule:nonzero;fill:rgb(0%,0%,0%);fill-opacity:0.25098;" d="M 462.601562 59.023438 C 462.601562 46.875 472.449219 37.027344 484.597656 37.027344 C 496.746094 37.027344 506.59375 46.875 506.59375 59.023438 C 506.59375 71.171875 496.746094 81.019531 484.597656 81.019531 C 472.449219 81.019531 462.601562 71.171875 462.601562 59.023438 Z M 462.601562 59.023438 "/>
<path style="fill:none;stroke-width:10;stroke-linecap:round;stroke-linejoin:miter;stroke:rgb(26.666667%,26.666667%,26.666667%);stroke-opacity:1;stroke-miterlimit:10;" d="M 313.704319 167.967131 L 315.346898 157.221037 L 328.075413 152.47299 " transform="matrix(2,0,0,2,-180.08442,-211.25848)"/>
<path style="fill:none;stroke-width:10;stroke-linecap:round;stroke-linejoin:miter;stroke:rgb(26.666667%,26.666667%,26.666667%);stroke-opacity:1;stroke-miterlimit:10;" d="M 326.206273 171.103849 L 318.341038 181.265959 L 305.003148 178.555021 " transform="matrix(2,0,0,2,-180.08442,-211.25848)"/>
<path style="fill:none;stroke-width:7.5;stroke-linecap:round;stroke-linejoin:miter;stroke:rgb(69.411765%,69.411765%,69.411765%);stroke-opacity:1;stroke-miterlimit:10;" d="M 337.676976 170.424162 L 349.723851 174.898771 L 351.118382 188.437834 " transform="matrix(2,0,0,2,-180.08442,-211.25848)"/>
<path style="fill:none;stroke-width:7.5;stroke-linecap:round;stroke-linejoin:miter;stroke:rgb(69.411765%,69.411765%,69.411765%);stroke-opacity:1;stroke-miterlimit:10;" d="M 353.216038 163.125334 L 342.434788 161.740568 L 337.382054 149.127287 " transform="matrix(2,0,0,2,-180.08442,-211.25848)"/>
<path style=" stroke:none;fill-rule:nonzero;fill:rgb(100%,100%,100%);fill-opacity:1;" d="M 468.21875 129.800781 C 468.21875 117.398438 468.21875 89.707031 468.21875 83.441406 C 468.21875 80.984375 469.996094 78.636719 471.699219 78.636719 C 475.164062 78.636719 487.914062 78.636719 494.398438 78.636719 C 496.722656 78.636719 498.242188 82.148438 498.242188 85.484375 C 498.242188 92.558594 498.242188 119.371094 498.242188 130.761719 C 498.242188 133.945312 495.890625 135.925781 494.039062 135.925781 C 490.570312 135.925781 478.804688 135.925781 472.421875 135.925781 C 469.898438 135.925781 468.21875 133.480469 468.21875 129.800781 Z M 468.21875 129.800781 "/>
<path style=" stroke:none;fill-rule:nonzero;fill:rgb(100%,100%,100%);fill-opacity:1;" d="M 462.589844 59.296875 C 462.589844 47.148438 472.4375 37.300781 484.585938 37.300781 C 496.734375 37.300781 506.582031 47.148438 506.582031 59.296875 C 506.582031 71.445312 496.734375 81.292969 484.585938 81.292969 C 472.4375 81.292969 462.589844 71.445312 462.589844 59.296875 Z M 462.589844 59.296875 "/>
<path style="fill:none;stroke-width:7.5;stroke-linecap:round;stroke-linejoin:miter;stroke:rgb(100%,100%,100%);stroke-opacity:1;stroke-miterlimit:10;" d="M 310.678929 164.824552 L 312.063694 154.041349 L 324.676976 148.990568 " transform="matrix(2,0,0,2,-180.08442,-211.25848)"/>
<path style="fill:none;stroke-width:7.5;stroke-linecap:round;stroke-linejoin:miter;stroke:rgb(100%,100%,100%);stroke-opacity:1;stroke-miterlimit:10;" d="M 326.606663 173.017912 L 322.132054 185.064787 L 308.594944 186.459318 " transform="matrix(2,0,0,2,-180.08442,-211.25848)"/>
</g>
</svg>
