<?xml version="1.0" encoding="utf-8"?>
<svg viewBox="13.8 66.7 595.4 295.4" width="595.4" height="295.4" xmlns="http://www.w3.org/2000/svg">
  <g transform="matrix(2.015109062194824, 0, 0, 2.015109062194824, -342.1850280761719, -189.287353515625)">
    <g data-paper-data="{&quot;isPaintingLayer&quot;:true}" fill-rule="nonzero" stroke-linejoin="miter" stroke-miterlimit="10" stroke-dasharray="" stroke-dashoffset="0" style="mix-blend-mode: normal">
      <path d="M176.62181,274.1891v-148.3782h296.75639v148.3782z" fill="#9400ff" stroke="none" stroke-width="0" stroke-linecap="butt"/>
      <g data-paper-data="{&quot;index&quot;:null}" stroke="none" stroke-linecap="butt">
        <path d="M211.07178,153.1471v34.55383l-33.8763,32.52124l5.86892,-61.7065z" data-paper-data="{&quot;index&quot;:null}" fill="#a72bff" stroke-width="0"/>
        <path d="M475.11684,153.57116v33.8763l-33.19878,33.19877l-33.8763,-32.52124v-34.55383z" fill="#a72bff" stroke-width="0"/>
        <path d="M408.71929,153.57116v33.8763l-33.19878,33.19877l-33.8763,-32.52124v-34.55383z" fill="#a72bff" stroke-width="0"/>
        <path d="M341.64422,153.57116v33.8763l-33.19877,33.19877l-33.8763,-32.52124v-34.55383z" fill="#a72bff" stroke-width="0"/>
        <path d="M275.24667,153.57116v33.8763l-33.19878,33.19877l-33.8763,-32.52124v-34.55383z" fill="#a72bff" stroke-width="0"/>
        <g fill="#9400ff" stroke-width="0">
          <path d="M211.07178,154.1471v14.55383l-33.8763,32.52124l5.86892,-41.7065z" data-paper-data="{&quot;index&quot;:null}"/>
          <path d="M475.11684,154.57116v13.8763l-33.19878,33.19877l-33.8763,-32.52124v-14.55383z"/>
          <path d="M413.05262,148.90449l-4.33333,19.54297l-33.19878,33.19877l-33.8763,-32.52124v-14.55383z"/>
          <path d="M341.64422,154.57116v13.8763l-33.19877,33.19877l-33.8763,-32.52124l-2.66667,-21.55383z"/>
          <path d="M275.24667,154.57116v13.8763l-33.19878,33.19877l-33.8763,-32.52124v-14.55383z"/>
        </g>
        <g fill="none" stroke-width="1" font-family="sans-serif" font-weight="normal" font-size="12" text-anchor="start"/>
      </g>
      <g data-paper-data="{&quot;index&quot;:null}" stroke="none" stroke-width="0" stroke-linecap="butt">
        <path d="M211.07178,126.1471v25.55383l-33.8763,32.52124l5.86892,-61.7065z" data-paper-data="{&quot;index&quot;:null}" fill="#a72bff"/>
        <path d="M475.11684,131c0,6.10201 0,20.44744 0,20.44744l-33.19878,33.19877l-33.8763,-32.52124c0,0 0,-21.67136 0,-27.79163c0,-3.01896 67.07508,1.72159 67.07508,6.66667z" fill="#a72bff"/>
        <path d="M408.71929,124.57116v26.8763l-33.19878,33.19877l-33.8763,-32.52124v-27.55383z" fill="#a72bff"/>
        <path d="M341.64422,123.90449v27.54297l-33.19877,33.19877l-33.8763,-32.52124v-27.2205z" fill="#a72bff"/>
        <path d="M275.24667,124.90449v26.54297l-33.19878,33.19877l-33.8763,-32.52124l0.33333,-26.2205z" fill="#a72bff"/>
        <g fill="#9400ff">
          <path d="M211.07178,123.48044v9.2205l-33.8763,32.52124l5.86892,-41.7065z" data-paper-data="{&quot;index&quot;:null}"/>
          <path d="M 462.791 125.299 C 467.903 126.661 477.08 130.484 477.08 130.484 L 441.918 165.646 L 408.042 133.125 C 408.042 133.125 405.248 124.651 408.968 123.597 C 415.171 121.841 456.902 123.731 462.791 125.299 Z"/>
          <path d="M408.71929,124.33335c0,2.47382 0,8.1141 0,8.1141l-33.19878,33.19877l-33.8763,-32.52124c0,0 0,-4.72518 0,-7.12496c0,-2.45043 67.07507,-3.75136 67.07507,-1.66667z"/>
          <path d="M341.64422,124.57116v7.8763l-33.19877,33.19877l-33.8763,-32.52124v-8.88716z"/>
          <path d="M275.24667,125.66669c0,2.28589 0,6.78077 0,6.78077l-33.19878,33.19877l-33.8763,-32.52124c0,0 0,-5.28639 0,-7.79163c0,-2.33388 67.07508,-2.00502 67.07508,0.33333z"/>
        </g>
        <g fill="#a72bff">
          <path d="M 177.195 148.222 C 177.195 148.222 170.627 130.322 176.63 124.559 C 181.791 119.605 205.181 121.356 201.159 125.217 C 194.906 131.22 177.195 148.222 177.195 148.222 Z" data-paper-data="{&quot;index&quot;:null}"/>
          <path d="M464.58436,125.97993c-6.12524,6.12524 -22.6663,22.6663 -22.6663,22.6663c0,0 -17.18514,-16.49774 -23.43914,-22.50157c-4.17328,-4.00635 50.28083,-4.34013 46.10543,-0.16473z"/>
          <path d="M397.55226,126.61449c-6.1082,6.1082 -22.03174,22.03174 -22.03174,22.03174c0,0 -17.15886,-16.47251 -23.41266,-22.47615c-4.1808,-4.01357 49.79308,-3.90427 45.4444,0.44441z"/>
          <path d="M331.01472,126.07695c-6.12344,6.12344 -22.56928,22.56928 -22.56928,22.56928c0,0 -16.28588,-15.63445 -22.52013,-21.61932c-4.42705,-4.24997 49.29177,-5.15231 45.08941,-0.94995z"/>
          <path d="M265.14928,125.54485c-6.12956,6.12956 -23.10138,23.10138 -23.10138,23.10138c0,0 -17.95083,-17.2328 -24.20056,-23.23253c-3.95176,-3.79369 51.35438,-3.92127 47.30195,0.13115z"/>
        </g>
      </g>
      <g stroke="none" stroke-width="0" stroke-linecap="butt">
        <path d="M441.06765,274.61323v-34.55383l33.8763,-32.52125l-5.86892,61.7065z" data-paper-data="{&quot;index&quot;:null}" fill="#a72bff"/>
        <path d="M177.02258,274.18917v-33.8763l33.19877,-33.19877l33.8763,32.52124v34.55383z" fill="#a72bff"/>
        <path d="M243.42013,274.18917v-33.8763l33.19877,-33.19877l33.8763,32.52124v34.55383z" fill="#a72bff"/>
        <path d="M310.49521,274.18917v-33.8763l33.19878,-33.19877l33.8763,32.52124v34.55383z" fill="#a72bff"/>
        <path d="M376.89276,274.18917v-33.8763l33.19877,-33.19877l33.87631,32.52124v34.55383z" fill="#a72bff"/>
        <g fill="#9400ff">
          <path d="M441.06765,273.61323v-14.55383l33.8763,-32.52124l-5.86892,41.7065z" data-paper-data="{&quot;index&quot;:null}"/>
          <path d="M177.02258,273.18917v-13.8763l33.19877,-33.19878l33.8763,32.52124v14.55383z"/>
          <path d="M243.42013,273.18917v-13.8763l33.19877,-33.19878l33.8763,32.52124v14.55383z"/>
          <path d="M310.49521,273.18917v-13.8763l33.19878,-33.19878l33.8763,32.52124v14.55383z"/>
          <path d="M376.89276,273.18917v-13.8763l33.19877,-33.19878l33.87631,32.52124v14.55383z"/>
        </g>
        <g fill="#a72bff">
          <path d="M 474.944 243.538 C 474.944 243.538 481.235 262.801 479.102 270.845 C 476.193 281.815 441.068 276.059 441.068 276.059 L 474.944 243.538 Z" data-paper-data="{&quot;index&quot;:null}"/>
          <path d="M177.02258,276.3129l33.19877,-33.19878l33.8763,32.52124z"/>
          <path d="M243.42013,276.3129l33.19877,-33.19878l33.8763,32.52124z"/>
          <path d="M310.49521,276.3129l33.19878,-33.19878l33.8763,32.52124z"/>
          <path d="M376.89276,276.3129l33.19877,-33.19878l33.87631,32.52124z"/>
        </g>
      </g>
      <path d="M 218.822 226.014 C 218.822 229.429 217.345 232.026 214.392 233.802 C 216.003 234.391 217.351 235.408 218.435 236.855 C 219.518 238.302 220.06 240.348 220.06 242.993 C 220.06 245.639 219.081 247.735 217.123 249.28 C 215.17 250.82 212.37 251.59 208.724 251.59 L 197.09 251.59 C 196.535 251.59 196.076 251.403 195.713 251.029 C 195.349 250.65 195.168 250.147 195.168 249.52 L 195.168 217.978 C 195.168 217.62 195.226 217.384 195.341 217.268 C 195.457 217.153 195.696 217.095 196.059 217.095 L 207.296 217.095 C 214.98 217.095 218.822 220.068 218.822 226.014 Z M 204.631 225.081 L 204.631 231.533 L 204.879 231.533 C 208.031 231.533 209.606 230.483 209.606 228.382 C 209.606 227.232 209.301 226.396 208.691 225.873 C 208.086 225.345 207.079 225.081 205.671 225.081 L 204.631 225.081 Z M 204.631 237.35 L 204.631 243.752 L 205.522 243.752 C 206.936 243.752 207.97 243.491 208.625 242.969 C 209.279 242.441 209.606 241.602 209.606 240.452 C 209.606 239.303 209.301 238.5 208.691 238.043 C 208.086 237.581 207.079 237.35 205.671 237.35 L 204.631 237.35 Z M 234.3 252.085 C 231.049 252.085 228.305 250.977 226.066 248.76 C 223.833 246.538 222.716 243.466 222.716 239.545 C 222.716 235.617 223.792 232.455 225.942 230.056 C 228.098 227.658 230.818 226.459 234.102 226.459 C 237.386 226.459 239.921 227.298 241.709 228.976 C 243.502 230.648 244.399 232.683 244.399 235.081 C 244.399 240.405 241.343 243.068 235.232 243.068 L 231.833 243.068 C 231.833 244.052 232.103 244.734 232.642 245.114 C 233.186 245.488 233.987 245.675 235.043 245.675 C 237.342 245.675 239.525 245.15 241.594 244.099 C 241.627 244.066 241.775 244.297 242.039 244.792 C 242.826 246.206 243.219 247.396 243.219 248.364 C 243.219 249.333 242.908 249.965 242.287 250.262 C 242.287 250.262 237.551 252.085 234.3 252.085 Z M 236.123 236.022 C 236.123 234.641 235.45 233.951 234.102 233.951 C 233.481 233.951 232.947 234.14 232.501 234.52 C 232.056 234.894 231.833 235.441 231.833 236.162 L 231.833 237.696 L 234.498 237.696 C 235.582 237.696 236.123 237.138 236.123 236.022 Z M 258.943 251.293 C 258.943 251.689 257.563 251.887 254.802 251.887 C 251.518 251.755 249.876 251.541 249.876 251.244 L 249.876 233.802 L 247.36 233.802 C 246.7 233.802 246.37 232.669 246.37 230.403 C 246.37 229.809 246.427 229.086 246.543 228.233 C 246.658 227.375 246.898 226.946 247.261 226.946 L 249.876 226.946 L 249.876 222.615 C 249.876 221.954 251.262 221.624 254.034 221.624 C 256.812 221.624 258.201 221.888 258.201 222.416 L 258.201 225.568 L 258.25 226.946 L 262.442 226.946 C 262.997 226.946 263.275 228.098 263.275 230.403 C 263.275 232.702 262.997 233.852 262.442 233.852 L 258.943 233.852 L 258.943 251.293 Z M 277.079 251.293 C 277.079 251.689 275.698 251.887 272.937 251.887 C 269.653 251.755 268.011 251.541 268.011 251.244 L 268.011 233.802 L 265.495 233.802 C 264.835 233.802 264.505 232.669 264.505 230.403 C 264.505 229.809 264.563 229.086 264.678 228.233 C 264.794 227.375 265.033 226.946 265.396 226.946 L 268.011 226.946 L 268.011 222.615 C 268.011 221.954 269.397 221.624 272.17 221.624 C 274.947 221.624 276.336 221.888 276.336 222.416 L 276.336 225.568 L 276.386 226.946 L 280.577 226.946 C 281.133 226.946 281.41 228.098 281.41 230.403 C 281.41 232.702 281.133 233.852 280.577 233.852 L 277.079 233.852 L 277.079 251.293 Z M 302.508 250.262 C 300.434 251.478 297.772 252.085 294.521 252.085 C 291.27 252.085 288.526 250.977 286.287 248.76 C 284.054 246.538 282.937 243.466 282.937 239.545 C 282.937 235.617 284.013 232.455 286.163 230.056 C 288.319 227.658 291.039 226.459 294.323 226.459 C 297.607 226.459 300.142 227.298 301.93 228.976 C 303.723 230.648 304.62 232.683 304.62 235.081 C 304.62 240.405 301.564 243.068 295.453 243.068 L 292.054 243.068 C 292.054 244.052 292.324 244.734 292.863 245.114 C 293.407 245.488 294.207 245.675 295.264 245.675 C 297.563 245.675 299.746 245.15 301.814 244.099 C 301.847 244.066 301.996 244.297 302.26 244.792 C 303.047 246.206 303.44 247.396 303.44 248.364 C 303.44 249.333 303.129 249.965 302.508 250.262 Z M 296.344 236.022 C 296.344 234.641 295.671 233.951 294.323 233.951 C 293.701 233.951 293.168 234.14 292.722 234.52 C 292.277 234.894 292.054 235.441 292.054 236.162 L 292.054 237.696 L 294.719 237.696 C 295.803 237.696 296.344 237.138 296.344 236.022 Z M 318.62 251.541 C 318.62 251.772 317.124 251.887 314.132 251.887 C 311.145 251.821 309.652 251.689 309.652 251.491 L 309.652 235.131 L 308.323 235.131 C 307.795 235.131 307.374 234.812 307.061 234.174 C 306.747 233.53 306.591 232.732 306.591 231.781 C 306.591 228.233 307.644 226.459 309.751 226.459 C 311.23 226.459 312.462 226.91 313.447 227.812 C 314.431 228.714 314.924 229.74 314.924 230.89 C 315.611 229.542 316.538 228.467 317.704 227.664 C 318.87 226.861 320.061 226.459 321.277 226.459 C 323.185 226.459 324.337 226.952 324.734 227.936 C 324.827 228.2 324.874 228.588 324.874 229.099 C 324.874 229.605 324.717 230.516 324.403 231.83 C 324.095 233.145 323.776 234.099 323.446 234.693 C 323.116 235.282 322.918 235.576 322.852 235.576 C 322.792 235.576 322.489 235.452 321.945 235.205 C 321.4 234.957 320.916 234.834 320.493 234.834 C 319.244 234.834 318.62 235.821 318.62 237.796 L 318.62 251.541 Z M 340.106 243.117 L 340.106 225.568 L 336.608 225.568 C 336.047 225.568 335.651 224.861 335.42 223.448 C 335.326 222.76 335.28 222.056 335.28 221.336 C 335.28 220.61 335.326 219.903 335.42 219.215 C 335.651 217.802 336.047 217.095 336.608 217.095 L 353.167 217.095 C 353.722 217.095 354.099 217.802 354.297 219.215 C 354.429 219.903 354.495 220.61 354.495 221.336 C 354.495 222.056 354.429 222.76 354.297 223.448 C 354.099 224.861 353.722 225.568 353.167 225.568 L 349.867 225.568 L 349.867 243.117 L 353.315 243.117 C 353.871 243.117 354.264 243.821 354.495 245.229 C 354.627 245.922 354.693 246.632 354.693 247.358 C 354.693 248.078 354.627 248.783 354.495 249.47 C 354.264 250.884 353.871 251.59 353.315 251.59 L 336.707 251.59 C 336.146 251.59 335.766 250.884 335.568 249.47 C 335.436 248.783 335.37 248.078 335.37 247.358 C 335.37 246.632 335.436 245.922 335.568 245.229 C 335.766 243.821 336.146 243.117 336.707 243.117 L 340.106 243.117 Z M 368.046 251.293 C 368.046 251.524 366.864 251.64 364.498 251.64 C 361.215 251.541 359.573 251.359 359.573 251.095 L 359.573 235.131 L 358.286 235.131 C 357.433 235.131 356.875 234.407 356.611 232.961 C 356.545 232.537 356.512 232.111 356.512 231.682 C 356.512 230.664 356.71 229.647 357.106 228.629 C 357.7 227.183 358.621 226.459 359.87 226.459 C 361.118 226.459 362.235 226.756 363.22 227.35 C 364.204 227.939 364.861 228.527 365.191 229.116 C 367.26 227.345 369.721 226.459 372.576 226.459 C 375.436 226.459 377.507 227.232 378.788 228.778 C 380.07 230.318 380.711 232.845 380.711 236.36 L 380.711 251.145 C 380.711 251.541 379.305 251.739 376.495 251.739 C 373.689 251.739 372.287 251.541 372.287 251.145 L 372.287 236.904 C 372.287 235.26 371.712 234.438 370.562 234.438 C 370.232 234.438 369.77 234.578 369.176 234.858 C 368.588 235.139 368.211 235.345 368.046 235.477 L 368.046 251.293 Z M 395.497 260.559 C 395.497 260.79 394.091 260.905 391.281 260.905 C 388.475 260.905 387.073 260.79 387.073 260.559 L 387.073 235.18 L 385.398 235.18 C 384.606 235.18 384.061 234.457 383.764 233.01 C 383.665 232.554 383.616 231.965 383.616 231.244 C 383.616 230.518 383.847 229.663 384.309 228.679 C 384.969 227.232 386.02 226.509 387.461 226.509 C 388.418 226.509 389.298 226.731 390.101 227.177 C 390.904 227.617 391.462 228.027 391.776 228.406 C 392.089 228.78 392.246 229 392.246 229.066 C 394.446 227.361 396.828 226.509 399.391 226.509 C 401.954 226.509 404.154 227.501 405.991 229.487 C 407.834 231.473 408.755 234.545 408.755 238.703 C 408.755 242.861 407.834 246.082 405.991 248.364 C 404.154 250.647 401.822 251.788 398.995 251.788 C 397.713 251.788 396.547 251.722 395.497 251.59 L 395.497 260.559 Z M 397.518 235.131 C 396.957 235.131 396.415 235.312 395.893 235.675 L 395.893 244.396 C 396.448 244.462 396.899 244.495 397.246 244.495 C 397.592 244.495 397.865 244.495 398.063 244.495 C 399.405 244.363 400.076 242.639 400.076 239.322 C 400.076 236.528 399.223 235.131 397.518 235.131 Z M 412.006 227.243 C 412.006 226.886 413.417 226.707 416.239 226.707 C 419.066 226.707 420.48 226.886 420.48 227.243 L 420.48 241.632 C 420.48 243.277 421.005 244.099 422.055 244.099 C 422.847 244.099 423.736 243.755 424.72 243.068 L 424.72 227.243 C 424.72 226.919 426.115 226.756 428.903 226.756 C 431.698 226.756 433.095 226.919 433.095 227.243 L 433.095 243.406 L 434.382 243.406 C 435.498 243.406 436.057 244.476 436.057 246.615 C 436.057 247.699 435.826 248.799 435.364 249.916 C 434.709 251.362 433.823 252.085 432.707 252.085 C 430.501 252.085 428.873 251.181 427.823 249.371 L 427.773 249.421 C 425.771 251.197 423.62 252.085 421.321 252.085 C 418.131 252.085 415.779 251.288 414.267 249.693 C 412.76 248.098 412.006 245.46 412.006 241.781 L 412.006 227.243 Z M 450.399 251.293 C 450.399 251.689 449.018 251.887 446.257 251.887 C 442.973 251.755 441.331 251.541 441.331 251.244 L 441.331 233.802 L 438.815 233.802 C 438.155 233.802 437.825 232.669 437.825 230.403 C 437.825 229.809 437.883 229.086 437.998 228.233 C 438.114 227.375 438.353 226.946 438.716 226.946 L 441.331 226.946 L 441.331 222.615 C 441.331 221.954 442.717 221.624 445.49 221.624 C 448.267 221.624 449.656 221.888 449.656 222.416 L 449.656 225.568 L 449.706 226.946 L 453.897 226.946 C 454.452 226.946 454.73 228.098 454.73 230.403 C 454.73 232.702 454.452 233.852 453.897 233.852 L 450.399 233.852 L 450.399 251.293 Z" fill="none" stroke-opacity="0.50588" stroke="#000000" stroke-width="10" stroke-linecap="square"/>
      <path d="M 218.873 226.014 C 218.873 229.429 217.396 232.026 214.443 233.802 C 216.054 234.391 217.402 235.408 218.485 236.855 C 219.569 238.302 220.111 240.348 220.111 242.993 C 220.111 245.639 219.132 247.735 217.174 249.28 C 215.221 250.82 212.421 251.59 208.775 251.59 L 197.141 251.59 C 196.586 251.59 196.126 251.403 195.763 251.029 C 195.4 250.65 195.219 250.147 195.219 249.52 L 195.219 217.978 C 195.219 217.62 195.277 217.384 195.392 217.268 C 195.508 217.153 195.747 217.095 196.11 217.095 L 207.347 217.095 C 215.031 217.095 218.873 220.068 218.873 226.014 L 218.873 226.014 Z M 204.682 225.081 L 204.682 231.533 L 204.93 231.533 C 208.082 231.533 209.657 230.483 209.657 228.382 C 209.657 227.232 209.352 226.396 208.742 225.873 C 208.137 225.345 207.13 225.081 205.722 225.081 L 204.682 225.081 Z M 204.682 237.35 L 204.682 243.752 L 205.573 243.752 C 206.987 243.752 208.021 243.491 208.676 242.969 C 209.33 242.441 209.657 241.602 209.657 240.452 C 209.657 239.303 209.352 238.5 208.742 238.043 C 208.137 237.581 207.13 237.35 205.722 237.35 L 204.682 237.35 Z M 242.338 250.262 C 240.264 251.478 237.602 252.085 234.351 252.085 C 231.1 252.085 228.356 250.977 226.117 248.76 C 223.884 246.538 222.767 243.466 222.767 239.545 C 222.767 235.617 223.843 232.455 225.993 230.056 C 228.149 227.658 230.869 226.459 234.153 226.459 C 237.437 226.459 239.972 227.298 241.76 228.976 C 243.553 230.648 244.45 232.683 244.45 235.081 C 244.45 240.405 241.394 243.068 235.283 243.068 L 231.884 243.068 C 231.884 244.052 232.154 244.734 232.693 245.114 C 233.237 245.488 234.037 245.675 235.094 245.675 C 237.393 245.675 239.576 245.15 241.644 244.099 C 241.677 244.066 241.826 244.297 242.09 244.792 C 242.877 246.206 243.27 247.396 243.27 248.364 C 243.27 249.333 242.959 249.965 242.338 250.262 L 242.338 250.262 Z M 236.174 236.022 C 236.174 234.641 235.501 233.951 234.153 233.951 C 233.531 233.951 232.998 234.14 232.552 234.52 C 232.107 234.894 231.884 235.441 231.884 236.162 L 231.884 237.696 L 234.549 237.696 C 235.633 237.696 236.174 237.138 236.174 236.022 L 236.174 236.022 Z M 258.994 251.293 C 258.994 251.689 257.614 251.887 254.853 251.887 C 251.569 251.755 249.927 251.541 249.927 251.244 L 249.927 233.802 L 247.411 233.802 C 246.751 233.802 246.421 232.669 246.421 230.403 C 246.421 229.809 246.478 229.086 246.594 228.233 C 246.709 227.375 246.949 226.946 247.312 226.946 L 249.927 226.946 L 249.927 222.614 C 249.927 221.954 251.313 221.624 254.085 221.624 C 256.863 221.624 258.252 221.888 258.252 222.416 L 258.252 225.568 L 258.301 226.946 L 262.493 226.946 C 263.048 226.946 263.326 228.098 263.326 230.403 C 263.326 232.702 263.048 233.852 262.493 233.852 L 258.994 233.852 L 258.994 251.293 Z M 277.13 251.293 C 277.13 251.689 275.749 251.887 272.988 251.887 C 269.704 251.755 268.062 251.541 268.062 251.244 L 268.062 233.802 L 265.546 233.802 C 264.886 233.802 264.556 232.669 264.556 230.403 C 264.556 229.809 264.614 229.086 264.729 228.233 C 264.845 227.375 265.084 226.946 265.447 226.946 L 268.062 226.946 L 268.062 222.614 C 268.062 221.954 269.448 221.624 272.221 221.624 C 274.998 221.624 276.387 221.888 276.387 222.416 L 276.387 225.568 L 276.437 226.946 L 280.628 226.946 C 281.183 226.946 281.461 228.098 281.461 230.403 C 281.461 232.702 281.183 233.852 280.628 233.852 L 277.13 233.852 L 277.13 251.293 Z M 302.558 250.262 C 300.485 251.478 297.823 252.085 294.572 252.085 C 291.321 252.085 288.576 250.977 286.338 248.76 C 284.105 246.538 282.988 243.466 282.988 239.545 C 282.988 235.617 284.063 232.455 286.214 230.056 C 288.37 227.658 291.09 226.459 294.374 226.459 C 297.658 226.459 300.193 227.298 301.981 228.976 C 303.774 230.648 304.671 232.683 304.671 235.081 C 304.671 240.405 301.615 243.068 295.504 243.068 L 292.105 243.068 C 292.105 244.052 292.375 244.734 292.914 245.114 C 293.458 245.488 294.258 245.675 295.314 245.675 C 297.614 245.675 299.797 245.15 301.865 244.099 C 301.898 244.066 302.047 244.297 302.311 244.792 C 303.097 246.206 303.491 247.396 303.491 248.364 C 303.491 249.333 303.18 249.965 302.558 250.262 L 302.558 250.262 Z M 296.395 236.022 C 296.395 234.641 295.721 233.951 294.374 233.951 C 293.752 233.951 293.219 234.14 292.773 234.52 C 292.328 234.894 292.105 235.441 292.105 236.162 L 292.105 237.696 L 294.77 237.696 C 295.853 237.696 296.395 237.138 296.395 236.022 L 296.395 236.022 Z M 318.671 251.541 C 318.671 251.772 317.175 251.887 314.182 251.887 C 311.196 251.821 309.702 251.689 309.702 251.491 L 309.702 235.131 L 308.374 235.131 C 307.846 235.131 307.425 234.812 307.112 234.174 C 306.798 233.53 306.641 232.732 306.641 231.781 C 306.641 228.233 307.695 226.459 309.801 226.459 C 311.281 226.459 312.513 226.91 313.498 227.812 C 314.482 228.714 314.975 229.74 314.975 230.89 C 315.662 229.542 316.589 228.467 317.755 227.664 C 318.921 226.861 320.112 226.459 321.327 226.459 C 323.236 226.459 324.388 226.952 324.784 227.936 C 324.878 228.2 324.925 228.588 324.925 229.099 C 324.925 229.605 324.768 230.516 324.454 231.83 C 324.146 233.145 323.827 234.099 323.497 234.693 C 323.167 235.282 322.969 235.576 322.903 235.576 C 322.843 235.576 322.54 235.452 321.996 235.205 C 321.451 234.957 320.967 234.834 320.544 234.834 C 319.295 234.834 318.671 235.821 318.671 237.796 L 318.671 251.541 Z M 340.157 243.117 L 340.157 225.568 L 336.659 225.568 C 336.098 225.568 335.702 224.861 335.471 223.448 C 335.377 222.76 335.331 222.056 335.331 221.336 C 335.331 220.61 335.377 219.903 335.471 219.215 C 335.702 217.802 336.098 217.095 336.659 217.095 L 353.218 217.095 C 353.773 217.095 354.15 217.802 354.348 219.215 C 354.48 219.903 354.546 220.61 354.546 221.336 C 354.546 222.056 354.48 222.76 354.348 223.448 C 354.15 224.861 353.773 225.568 353.218 225.568 L 349.918 225.568 L 349.918 243.117 L 353.366 243.117 C 353.922 243.117 354.315 243.821 354.546 245.229 C 354.678 245.922 354.744 246.632 354.744 247.358 C 354.744 248.078 354.678 248.782 354.546 249.47 C 354.315 250.884 353.922 251.59 353.366 251.59 L 336.758 251.59 C 336.197 251.59 335.817 250.884 335.619 249.47 C 335.487 248.782 335.421 248.078 335.421 247.358 C 335.421 246.632 335.487 245.922 335.619 245.229 C 335.817 243.821 336.197 243.117 336.758 243.117 L 340.157 243.117 Z M 368.097 251.293 C 368.097 251.524 366.914 251.64 364.549 251.64 C 361.266 251.541 359.624 251.359 359.624 251.095 L 359.624 235.131 L 358.337 235.131 C 357.484 235.131 356.926 234.407 356.662 232.961 C 356.596 232.537 356.563 232.111 356.563 231.682 C 356.563 230.664 356.761 229.647 357.157 228.629 C 357.751 227.183 358.672 226.459 359.921 226.459 C 361.169 226.459 362.286 226.756 363.27 227.35 C 364.255 227.939 364.912 228.527 365.242 229.116 C 367.31 227.345 369.772 226.459 372.627 226.459 C 375.487 226.459 377.558 227.232 378.839 228.778 C 380.121 230.318 380.762 232.845 380.762 236.36 L 380.762 251.145 C 380.762 251.541 379.356 251.739 376.546 251.739 C 373.74 251.739 372.338 251.541 372.338 251.145 L 372.338 236.904 C 372.338 235.26 371.763 234.438 370.613 234.438 C 370.283 234.438 369.821 234.578 369.227 234.858 C 368.639 235.139 368.262 235.345 368.097 235.477 L 368.097 251.293 Z M 395.548 260.559 C 395.548 260.79 394.142 260.905 391.332 260.905 C 388.526 260.905 387.124 260.79 387.124 260.559 L 387.124 235.18 L 385.449 235.18 C 384.657 235.18 384.112 234.457 383.815 233.01 C 383.716 232.554 383.667 231.965 383.667 231.244 C 383.667 230.518 383.898 229.663 384.36 228.679 C 385.02 227.232 386.07 226.509 387.512 226.509 C 388.469 226.509 389.349 226.731 390.152 227.177 C 390.955 227.617 391.513 228.027 391.827 228.406 C 392.14 228.78 392.297 229 392.297 229.066 C 394.497 227.361 396.879 226.509 399.442 226.509 C 402.005 226.509 404.205 227.501 406.042 229.487 C 407.885 231.473 408.806 234.545 408.806 238.703 C 408.806 242.861 407.885 246.082 406.042 248.364 C 404.205 250.647 401.873 251.788 399.046 251.788 C 397.764 251.788 396.598 251.722 395.548 251.59 L 395.548 260.559 Z M 397.569 235.131 C 397.008 235.131 396.466 235.312 395.944 235.675 L 395.944 244.396 C 396.499 244.462 396.95 244.495 397.297 244.495 C 397.643 244.495 397.916 244.495 398.114 244.495 C 399.456 244.363 400.127 242.639 400.127 239.322 C 400.127 236.528 399.274 235.131 397.569 235.131 L 397.569 235.131 Z M 412.057 227.243 C 412.057 226.886 413.468 226.707 416.29 226.707 C 419.117 226.707 420.53 226.886 420.53 227.243 L 420.53 241.632 C 420.53 243.277 421.056 244.099 422.106 244.099 C 422.898 244.099 423.787 243.755 424.771 243.068 L 424.771 227.243 C 424.771 226.919 426.166 226.756 428.954 226.756 C 431.748 226.756 433.146 226.919 433.146 227.243 L 433.146 243.406 L 434.433 243.406 C 435.549 243.406 436.107 244.476 436.107 246.615 C 436.107 247.699 435.876 248.799 435.414 249.916 C 434.76 251.362 433.874 252.085 432.758 252.085 C 430.552 252.085 428.924 251.181 427.873 249.371 L 427.824 249.421 C 425.822 251.197 423.671 252.085 421.372 252.085 C 418.182 252.085 415.83 251.288 414.318 249.693 C 412.811 248.098 412.057 245.46 412.057 241.781 L 412.057 227.243 Z M 450.45 251.293 C 450.45 251.689 449.069 251.887 446.308 251.887 C 443.024 251.755 441.382 251.541 441.382 251.244 L 441.382 233.802 L 438.866 233.802 C 438.206 233.802 437.876 232.669 437.876 230.403 C 437.876 229.809 437.933 229.086 438.049 228.233 C 438.164 227.375 438.404 226.946 438.767 226.946 L 441.382 226.946 L 441.382 222.614 C 441.382 221.954 442.768 221.624 445.54 221.624 C 448.318 221.624 449.707 221.888 449.707 222.416 L 449.707 225.568 L 449.756 226.946 L 453.948 226.946 C 454.503 226.946 454.781 228.098 454.781 230.403 C 454.781 232.702 454.503 233.852 453.948 233.852 L 450.45 233.852 L 450.45 251.293 Z" fill="#ffffff" stroke="none" stroke-width="1" stroke-linecap="square"/>
      <path d="M332.32975,141.5l8.2045,0.03016c7.96319,0.06032 8.20451,0.09049 8.71729,0.45245c1.83998,1.41769 1.80982,3.74029 -0.12066,5.03731c-0.57311,0.39213 -0.84457,0.42229 -3.28783,0.42229h-2.6544v23.55778v23.5276h2.62424c2.9862,0 3.71012,0.24131 4.40389,1.47802c0.78426,1.38752 0.39214,2.9862 -0.96523,3.9816c-0.51279,0.39213 -0.7541,0.39213 -8.71729,0.45245l-8.2045,0.06033l-0.84458,-0.42229c-0.87475,-0.48262 -1.659,-1.62883 -1.659,-2.56391c0,-0.6636 0.7541,-2.02096 1.35736,-2.47341c0.45246,-0.36197 0.84457,-0.39213 3.28782,-0.45245l2.77505,-0.06033v-23.5276v-23.5276l-2.77505,-0.06034c-2.44325,-0.06032 -2.83537,-0.09049 -3.28782,-0.45244c-0.60327,-0.42229 -1.35736,-1.77966 -1.35736,-2.47342c0,-0.93508 0.75408,-2.11145 1.659,-2.5639z" fill="none" stroke="#6900b4" stroke-width="10" stroke-linecap="butt"/>
      <path d="M313.38701,154.68151h21.23517v16.31851v16.28836l-21.53682,-0.03016c-21.35583,-0.06032 -21.53682,-0.06034 -22.20041,-0.45246c-0.36197,-0.21115 -0.84457,-0.69376 -1.05573,-1.11605l-0.42229,-0.72392v-13.96576c0,-13.4228 0.03017,-13.96576 0.36197,-14.65951c0.45246,-0.81441 0.72392,-1.08589 1.62883,-1.41768c0.57311,-0.18099 4.67535,-0.24131 21.98926,-0.24131zM305.78578,162.2526c-0.48262,0.30163 -0.9954,1.35736 -3.80061,7.57106c-3.49898,7.75204 -3.67996,8.26483 -2.8957,9.10941c0.87475,0.93508 2.23211,0.96523 3.01637,0.03016c0.24131,-0.30163 0.60326,-0.96523 0.78425,-1.47802l0.3318,-0.93508h3.61963h3.61964l0.42229,1.0859c0.54295,1.47802 1.11606,1.9908 2.20194,1.9908c0.69376,0 0.9049,-0.09049 1.35736,-0.60327c0.39213,-0.42229 0.54295,-0.78424 0.54295,-1.26687c0,-0.48262 -0.87475,-2.71472 -2.86555,-7.14878c-3.77045,-8.47597 -3.58947,-8.11401 -4.19275,-8.41564c-0.69376,-0.39213 -1.44786,-0.36196 -2.14162,0.06032z" fill="none" stroke="#6900b4" stroke-width="10" stroke-linecap="butt"/>
      <path d="M306.90183,168.04402c0.12066,0.12065 1.96062,4.6452 1.96062,4.79602c0,0.12065 -0.9049,0.18097 -2.05112,0.18097c-1.5685,0 -2.02096,-0.06032 -1.96063,-0.24131c0.06032,-0.12065 0.51279,-1.2367 1.05573,-2.50358c0.54295,-1.23671 0.9954,-2.26227 0.9954,-2.23211z" fill="none" stroke="#6900b4" stroke-width="10" stroke-linecap="butt"/>
      <path d="M345.93354,171.00005v-16.34867l6.27402,0.06033c5.91207,0.06032 6.3042,0.0905 6.90747,0.45246c0.36196,0.21115 0.84458,0.69376 1.05573,1.11605l0.42228,0.72392v13.99591v13.96576l-0.42228,0.72392c-0.21115,0.42229 -0.69377,0.9049 -1.05573,1.11605c-0.63343,0.39213 -0.9954,0.39214 -6.90747,0.45246l-6.27402,0.06032z" fill="none" stroke="#6900b4" stroke-width="10" stroke-linecap="butt"/>
      <path d="M332.32975,141.5l8.2045,0.03016c7.96319,0.06032 8.20451,0.09049 8.71729,0.45245c1.83998,1.41769 1.80982,3.74029 -0.12066,5.03731c-0.57311,0.39213 -0.84457,0.42229 -3.28783,0.42229h-2.6544v23.55778v23.5276h2.62424c2.9862,0 3.71012,0.24131 4.40389,1.47802c0.78426,1.38752 0.39214,2.9862 -0.96523,3.9816c-0.51279,0.39213 -0.7541,0.39213 -8.71729,0.45245l-8.2045,0.06033l-0.84458,-0.42229c-0.87475,-0.48262 -1.659,-1.62883 -1.659,-2.56391c0,-0.6636 0.7541,-2.02096 1.35736,-2.47341c0.45246,-0.36197 0.84457,-0.39213 3.28782,-0.45245l2.77505,-0.06033v-23.5276v-23.5276l-2.77505,-0.06034c-2.44325,-0.06032 -2.83537,-0.09049 -3.28782,-0.45244c-0.60327,-0.42229 -1.35736,-1.77966 -1.35736,-2.47342c0,-0.93508 0.75408,-2.11145 1.659,-2.5639z" fill="#ffffff" stroke="none" stroke-width="1" stroke-linecap="butt"/>
      <path d="M333.61245,154.68151v32.60686c0,0 -42.06389,-0.0905 -42.72748,-0.48262c-0.36197,-0.21115 -0.84458,-0.69377 -1.05573,-1.11606l-0.42229,-0.72392v-13.96576c0,-13.4228 0.03016,-13.96576 0.36196,-14.65951c0.45246,-0.81441 0.72392,-1.08589 1.62883,-1.41768c0.57311,-0.18099 42.21471,-0.24131 42.21471,-0.24131zM305.78578,162.2526c-0.48262,0.30163 -0.9954,1.35736 -3.80061,7.57106c-3.49898,7.75204 -3.67996,8.26483 -2.8957,9.10941c0.87475,0.93508 2.23211,0.96523 3.01637,0.03016c0.24131,-0.30163 0.60326,-0.96523 0.78425,-1.47802l0.3318,-0.93508h3.61963h3.61964l0.42229,1.0859c0.54295,1.47802 1.11606,1.9908 2.20194,1.9908c0.69376,0 0.9049,-0.09049 1.35736,-0.60327c0.39213,-0.42229 0.54295,-0.78424 0.54295,-1.26687c0,-0.48262 -0.87475,-2.71472 -2.86555,-7.14878c-3.77045,-8.47597 -3.58947,-8.11401 -4.19275,-8.41564c-0.69376,-0.39213 -1.44786,-0.36196 -2.14162,0.06032z" fill="#ffffff" stroke="none" stroke-width="1" stroke-linecap="butt"/>
      <path d="M306.90183,168.04402c0.12066,0.12065 1.96062,4.6452 1.96062,4.79602c0,0.12065 -0.9049,0.18097 -2.05112,0.18097c-1.5685,0 -2.02096,-0.06032 -1.96063,-0.24131c0.06032,-0.12065 0.51279,-1.2367 1.05573,-2.50358c0.54295,-1.23671 0.9954,-2.26227 0.9954,-2.23211z" fill="#ffffff" stroke="none" stroke-width="1" stroke-linecap="butt"/>
      <path d="M346.94327,154.65138c0,0 11.56849,0.15082 12.17176,0.51279c0.36196,0.21115 0.84458,0.69376 1.05573,1.11605l0.42228,0.72392v13.99591v13.96576l-0.42228,0.72392c-0.21115,0.42229 -0.69377,0.9049 -1.05573,1.11605c-0.63343,0.39213 -12.17176,0.51279 -12.17176,0.51279z" fill="#ffffff" stroke="none" stroke-width="1" stroke-linecap="butt"/>
      <path d="M233.72533,186.94172c0,0 -16.61345,1.98983 -17.17281,1.84227c-0.31876,-0.07728 -0.75733,-0.28982 -0.96344,-0.49779l-0.40408,-0.35023l-0.94139,-7.60493l-0.94343,-7.62135l0.30648,-0.43819c0.14918,-0.25195 0.52269,-0.56501 0.81298,-0.71769c0.48316,-0.25993 17.10368,-2.40073 17.10368,-2.40073z" data-paper-data="{&quot;index&quot;:null}" fill="none" stroke="#6900b4" stroke-width="7.5" stroke-linecap="butt"/>
      <path d="M229.19312,169.44153c0,0 17.60308,-2.09565 18.13503,-1.96138c0.31876,0.07728 0.75733,0.28982 0.96344,0.49779l0.40408,0.35023l0.94343,7.62135l0.94139,7.60493l-0.30648,0.43819c-0.14918,0.25195 -0.52269,0.56501 -0.81298,0.71769c-0.5065,0.2795 -18.0659,2.51984 -18.0659,2.51984z" fill="none" stroke="#6900b4" stroke-width="7.5" stroke-linecap="butt"/>
      <path d="M230.04264,169.33637c0,0 16.75356,-1.9905 17.28551,-1.85622c0.31876,0.07728 0.75733,0.28982 0.96344,0.49779l0.40408,0.35023l0.94343,7.62135l0.94139,7.60493l-0.30648,0.43819c-0.14918,0.25195 -0.52269,0.56501 -0.81298,0.71769c-0.5065,0.2795 -17.21638,2.41468 -17.21638,2.41468z" fill="#ffffff" stroke="none" stroke-width="1" stroke-linecap="butt"/>
      <path d="M232.87581,187.04688c0,0 -15.76393,1.88467 -16.32329,1.73711c-0.31876,-0.07728 -0.75733,-0.28982 -0.96344,-0.49779l-0.40408,-0.35023l-0.94139,-7.60493l-0.94343,-7.62135l0.30648,-0.43819c0.14918,-0.25195 0.52269,-0.56501 0.81298,-0.71769c0.48315,-0.25993 16.25416,-2.29557 16.25416,-2.29557z" data-paper-data="{&quot;index&quot;:null}" fill="#ffffff" stroke="none" stroke-width="1" stroke-linecap="butt"/>
      <path d="M202.35859,170.97368l-0.87585,-7.07543l7.07543,-0.87585z" fill="none" stroke="#6900b4" stroke-width="7.5" stroke-linecap="butt"/>
      <path d="M263.07735,184.88858l0.87585,7.07543l-7.07543,0.87585z" data-paper-data="{&quot;index&quot;:null}" fill="none" stroke="#6900b4" stroke-width="7.5" stroke-linecap="butt"/>
      <path d="M202.3586,170.97368l-0.87585,-7.07543l7.07543,-0.87585z" fill="#ffffff" stroke="none" stroke-width="0" stroke-linecap="butt"/>
      <path d="M263.07735,184.88858l0.87585,7.07543l-7.07543,0.87585z" data-paper-data="{&quot;index&quot;:null}" fill="#ffffff" stroke="none" stroke-width="0" stroke-linecap="butt"/>
      <path d="M212.92274,198.28094l-7.07543,0.87585l-0.87585,-7.07543z" data-paper-data="{&quot;index&quot;:null}" fill="none" stroke="#6900b4" stroke-width="7.5" stroke-linecap="butt"/>
      <path d="M252.5132,157.5813l7.07543,-0.87585l0.87585,7.07543z" data-paper-data="{&quot;index&quot;:null}" fill="none" stroke="#6900b4" stroke-width="7.5" stroke-linecap="butt"/>
      <path d="M212.92274,198.28094l-7.07543,0.87585l-0.87585,-7.07543z" data-paper-data="{&quot;index&quot;:null}" fill="#ffffff" stroke="none" stroke-width="0" stroke-linecap="butt"/>
      <path d="M252.5132,157.5813l7.07543,-0.87585l0.87585,7.07543z" data-paper-data="{&quot;index&quot;:null}" fill="#ffffff" stroke="none" stroke-width="0" stroke-linecap="butt"/>
      <path d="M230.44681,172.21225c0.45098,-0.35725 0.98511,-0.4449 1.50696,-0.2296c0.45036,0.15955 0.31808,-0.05652 3.70641,5.57415c1.78545,2.94399 2.59053,4.45607 2.63253,4.79536c0.042,0.33929 -0.03442,0.6094 -0.27335,0.94041c-0.27346,0.39987 -0.41645,0.48438 -0.90418,0.54475c-0.7634,0.0945 -1.24533,-0.25724 -1.75565,-1.24907l-0.3581,-0.68459l-2.55834,0.32081l-2.55933,0.31267l-0.12982,0.63736c-0.08261,0.37625 -0.30051,0.92356 -0.44391,1.15661c-0.46998,0.72562 -1.43232,0.81942 -2.12866,0.23817c-0.62485,-0.52551 -0.55303,-0.92523 1.2322,-6.67959c1.43137,-4.6125 1.7202,-5.42341 2.03324,-5.67746z" data-paper-data="{&quot;noHover&quot;:false,&quot;origItem&quot;:[&quot;Path&quot;,{&quot;applyMatrix&quot;:true,&quot;segments&quot;:[[[337.25594,198.23165],[0,0],[-1.27458,0.7966]],[[327.21866,218.22657],[7.40846,-16.41018],[-9.24068,20.47288]],[[319.57122,242.28421],[-2.0712,-2.23052],[2.31018,2.4695]],[[327.53732,242.36387],[-2.0712,2.46948],[0.6373,-0.7966]],[[329.6085,238.46047],[-0.47798,1.35426],[0,0]],[330.48478,235.99097],[340.0441,235.99097],[349.60342,235.99097],[[350.71868,238.85877],[0,0],[1.4339,3.9034]],[[356.53394,244.11641],[-2.8678,0],[1.8322,0]],[[360.11868,242.52319],[-1.19492,1.35424],[1.0356,-1.11526]],[[361.55258,239.17743],[0,1.27458],[0,-1.27458]],[[353.98478,220.29777],[5.25764,11.71018],[-9.95762,-22.38474]],[[342.91188,198.07235],[1.59322,0.7966],[-1.8322,-1.0356]],[[337.25594,198.23167],[1.8322,-1.11524],[0,0]]],&quot;closed&quot;:true,&quot;fillColor&quot;:[0,0,0,1]}]}" fill="#6900b4" stroke="none" stroke-width="0.5" stroke-linecap="butt"/>
      <path d="M231.74197,176.21261c0.09532,0.07432 1.78262,3.09505 1.79574,3.20108c0.0105,0.08482 -0.62042,0.20598 -1.42623,0.30573c-1.10269,0.1365 -1.42603,0.13347 -1.39937,0.00098c0.03191,-0.09007 0.25287,-0.91406 0.52432,-1.85194c0.27408,-0.91668 0.50291,-1.67705 0.50554,-1.65584z" fill="#ffffff" stroke="none" stroke-width="1" stroke-linecap="butt"/>
      <path d="M407.11429,167.23674c0.78406,-5.50864 5.88531,-9.33866 11.39395,-8.5546c5.50864,0.78406 9.33867,5.88531 8.55461,11.39395c-0.78406,5.50864 -5.88531,9.33866 -11.39395,8.5546c-5.50864,-0.78406 -9.33866,-5.88531 -8.5546,-11.39395z" fill="none" stroke="#6900b4" stroke-width="7.5" stroke-linecap="butt"/>
      <path d="M394.76977,183.1443c0.78406,-5.50864 5.88532,-9.33866 11.39395,-8.5546c5.50864,0.78406 9.33866,5.88531 8.5546,11.39395c-0.78406,5.50864 -5.88531,9.33866 -11.39395,8.5546c-5.50864,-0.78406 -9.33867,-5.88531 -8.55461,-11.39395z" fill="none" stroke="#6900b4" stroke-width="7.5" stroke-linecap="butt"/>
      <path d="M414.53013,185.95687c0.78406,-5.50864 5.88531,-9.33867 11.39395,-8.55461c5.50864,0.78406 9.33867,5.88532 8.55461,11.39395c-0.78406,5.50864 -5.88531,9.33866 -11.39395,8.5546c-5.50864,-0.78406 -9.33866,-5.88531 -8.5546,-11.39395z" fill="none" stroke="#6900b4" stroke-width="7.5" stroke-linecap="butt"/>
      <path d="M407.11429,167.23674c0.78406,-5.50864 5.88531,-9.33866 11.39395,-8.5546c5.50864,0.78406 9.33867,5.88531 8.55461,11.39395c-0.78406,5.50864 -5.88531,9.33866 -11.39395,8.5546c-5.50864,-0.78406 -9.33866,-5.88531 -8.5546,-11.39395z" fill="#00ff01" stroke="none" stroke-width="NaN" stroke-linecap="butt"/>
      <path d="M394.76976,183.1443c0.78406,-5.50864 5.88532,-9.33867 11.39395,-8.55461c5.50864,0.78406 9.33866,5.88532 8.5546,11.39395c-0.78406,5.50864 -5.88532,9.33866 -11.39395,8.5546c-5.50864,-0.78406 -9.33866,-5.88531 -8.5546,-11.39395z" fill="#ff0000" stroke="none" stroke-width="NaN" stroke-linecap="butt"/>
      <path d="M414.53013,185.95687c0.78406,-5.50864 5.88531,-9.33867 11.39395,-8.55461c5.50864,0.78406 9.33867,5.88532 8.55461,11.39395c-0.78406,5.50864 -5.88531,9.33866 -11.39395,8.5546c-5.50864,-0.78406 -9.33866,-5.88531 -8.5546,-11.39395z" fill="#0071ff" stroke="none" stroke-width="NaN" stroke-linecap="butt"/>
    </g>
  </g>
</svg>