<?xml version="1.0" encoding="UTF-8"?>
<svg xmlns="http://www.w3.org/2000/svg" xmlns:xlink="http://www.w3.org/1999/xlink" width="604px" height="300px" viewBox="0 0 600 300" version="1.1">
<g id="surface1">
<path style=" stroke:none;fill-rule:nonzero;fill:rgb(50.588235%,3.137255%,0.392157%);fill-opacity:1;" d="M 0 299.988281 L 0 0 L 600 0 L 600 299.988281 Z M 0 299.988281 "/>
<path style=" stroke:none;fill-rule:nonzero;fill:rgb(70.196078%,3.921569%,0.784314%);fill-opacity:1;" d="M 15.5 71.871094 L 15.5 10.179688 L 77.1875 10.179688 L 77.1875 71.871094 Z M 15.5 71.871094 "/>
<path style=" stroke:none;fill-rule:nonzero;fill:rgb(77.647059%,4.313725%,0%);fill-opacity:1;" d="M 88.234375 71.871094 L 88.234375 10.179688 L 149.925781 10.179688 L 149.925781 71.871094 Z M 88.234375 71.871094 "/>
<path style=" stroke:none;fill-rule:nonzero;fill:rgb(77.647059%,4.313725%,0%);fill-opacity:1;" d="M 160.050781 71.871094 L 160.050781 10.179688 L 221.738281 10.179688 L 221.738281 71.871094 Z M 160.050781 71.871094 "/>
<path style=" stroke:none;fill-rule:nonzero;fill:rgb(77.647059%,4.313725%,0%);fill-opacity:1;" d="M 232.789062 71.871094 L 232.789062 10.179688 L 294.476562 10.179688 L 294.476562 71.871094 Z M 232.789062 71.871094 "/>
<path style=" stroke:none;fill-rule:nonzero;fill:rgb(70.196078%,3.921569%,0.784314%);fill-opacity:1;" d="M 305.523438 71.871094 L 305.523438 10.179688 L 367.210938 10.179688 L 367.210938 71.871094 Z M 305.523438 71.871094 "/>
<path style=" stroke:none;fill-rule:nonzero;fill:rgb(77.647059%,4.313725%,0%);fill-opacity:1;" d="M 378.261719 71.871094 L 378.261719 10.179688 L 439.949219 10.179688 L 439.949219 71.871094 Z M 378.261719 71.871094 "/>
<path style=" stroke:none;fill-rule:nonzero;fill:rgb(70.196078%,3.921569%,0.784314%);fill-opacity:1;" d="M 450.074219 71.871094 L 450.074219 10.179688 L 511.765625 10.179688 L 511.765625 71.871094 Z M 450.074219 71.871094 "/>
<path style=" stroke:none;fill-rule:nonzero;fill:rgb(70.196078%,3.921569%,0.784314%);fill-opacity:1;" d="M 522.8125 71.871094 L 522.8125 10.179688 L 584.5 10.179688 L 584.5 71.871094 Z M 522.8125 71.871094 "/>
<path style=" stroke:none;fill-rule:nonzero;fill:rgb(77.647059%,4.313725%,0%);fill-opacity:1;" d="M 15.5 144.84375 L 15.5 83.15625 L 77.1875 83.15625 L 77.1875 144.84375 Z M 15.5 144.84375 "/>
<path style=" stroke:none;fill-rule:nonzero;fill:rgb(70.196078%,3.921569%,0.784314%);fill-opacity:1;" d="M 88.234375 144.84375 L 88.234375 83.15625 L 149.925781 83.15625 L 149.925781 144.84375 Z M 88.234375 144.84375 "/>
<path style=" stroke:none;fill-rule:nonzero;fill:rgb(70.196078%,3.921569%,0.784314%);fill-opacity:1;" d="M 160.050781 144.84375 L 160.050781 83.15625 L 221.738281 83.15625 L 221.738281 144.84375 Z M 160.050781 144.84375 "/>
<path style=" stroke:none;fill-rule:nonzero;fill:rgb(77.647059%,4.313725%,0%);fill-opacity:1;" d="M 232.789062 144.84375 L 232.789062 83.15625 L 294.476562 83.15625 L 294.476562 144.84375 Z M 232.789062 144.84375 "/>
<path style=" stroke:none;fill-rule:nonzero;fill:rgb(77.647059%,4.313725%,0%);fill-opacity:1;" d="M 305.523438 144.84375 L 305.523438 83.15625 L 367.210938 83.15625 L 367.210938 144.84375 Z M 305.523438 144.84375 "/>
<path style=" stroke:none;fill-rule:nonzero;fill:rgb(77.647059%,4.313725%,0%);fill-opacity:1;" d="M 378.261719 144.84375 L 378.261719 83.15625 L 439.949219 83.15625 L 439.949219 144.84375 Z M 378.261719 144.84375 "/>
<path style=" stroke:none;fill-rule:nonzero;fill:rgb(70.196078%,3.921569%,0.784314%);fill-opacity:1;" d="M 450.074219 144.84375 L 450.074219 83.15625 L 511.765625 83.15625 L 511.765625 144.84375 Z M 450.074219 144.84375 "/>
<path style=" stroke:none;fill-rule:nonzero;fill:rgb(77.647059%,4.313725%,0%);fill-opacity:1;" d="M 522.8125 144.84375 L 522.8125 83.15625 L 584.5 83.15625 L 584.5 144.84375 Z M 522.8125 144.84375 "/>
<path style=" stroke:none;fill-rule:nonzero;fill:rgb(70.196078%,3.921569%,0.784314%);fill-opacity:1;" d="M 15.5 216.832031 L 15.5 155.144531 L 77.1875 155.144531 L 77.1875 216.832031 Z M 15.5 216.832031 "/>
<path style=" stroke:none;fill-rule:nonzero;fill:rgb(70.196078%,3.921569%,0.784314%);fill-opacity:1;" d="M 88.234375 216.832031 L 88.234375 155.144531 L 149.925781 155.144531 L 149.925781 216.832031 Z M 88.234375 216.832031 "/>
<path style=" stroke:none;fill-rule:nonzero;fill:rgb(77.647059%,4.313725%,0%);fill-opacity:1;" d="M 160.050781 216.832031 L 160.050781 155.144531 L 221.738281 155.144531 L 221.738281 216.832031 Z M 160.050781 216.832031 "/>
<path style=" stroke:none;fill-rule:nonzero;fill:rgb(77.647059%,4.313725%,0%);fill-opacity:1;" d="M 232.789062 216.832031 L 232.789062 155.144531 L 294.476562 155.144531 L 294.476562 216.832031 Z M 232.789062 216.832031 "/>
<path style=" stroke:none;fill-rule:nonzero;fill:rgb(70.196078%,3.921569%,0.784314%);fill-opacity:1;" d="M 305.523438 216.832031 L 305.523438 155.144531 L 367.210938 155.144531 L 367.210938 216.832031 Z M 305.523438 216.832031 "/>
<path style=" stroke:none;fill-rule:nonzero;fill:rgb(70.196078%,3.921569%,0.784314%);fill-opacity:1;" d="M 378.261719 216.832031 L 378.261719 155.144531 L 439.949219 155.144531 L 439.949219 216.832031 Z M 378.261719 216.832031 "/>
<path style=" stroke:none;fill-rule:nonzero;fill:rgb(77.647059%,4.313725%,0%);fill-opacity:1;" d="M 450.074219 216.832031 L 450.074219 155.144531 L 511.765625 155.144531 L 511.765625 216.832031 Z M 450.074219 216.832031 "/>
<path style=" stroke:none;fill-rule:nonzero;fill:rgb(70.196078%,3.921569%,0.784314%);fill-opacity:1;" d="M 522.8125 216.832031 L 522.8125 155.144531 L 584.5 155.144531 L 584.5 216.832031 Z M 522.8125 216.832031 "/>
<path style=" stroke:none;fill-rule:nonzero;fill:rgb(70.196078%,3.921569%,0.784314%);fill-opacity:1;" d="M 15.5 289.804688 L 15.5 228.117188 L 77.1875 228.117188 L 77.1875 289.804688 Z M 15.5 289.804688 "/>
<path style=" stroke:none;fill-rule:nonzero;fill:rgb(70.196078%,3.921569%,0.784314%);fill-opacity:1;" d="M 88.234375 289.804688 L 88.234375 228.117188 L 149.925781 228.117188 L 149.925781 289.804688 Z M 88.234375 289.804688 "/>
<path style=" stroke:none;fill-rule:nonzero;fill:rgb(77.647059%,4.313725%,0%);fill-opacity:1;" d="M 160.050781 289.804688 L 160.050781 228.117188 L 221.738281 228.117188 L 221.738281 289.804688 Z M 160.050781 289.804688 "/>
<path style=" stroke:none;fill-rule:nonzero;fill:rgb(77.647059%,4.313725%,0%);fill-opacity:1;" d="M 232.789062 289.804688 L 232.789062 228.117188 L 294.476562 228.117188 L 294.476562 289.804688 Z M 232.789062 289.804688 "/>
<path style=" stroke:none;fill-rule:nonzero;fill:rgb(77.647059%,4.313725%,0%);fill-opacity:1;" d="M 305.523438 289.804688 L 305.523438 228.117188 L 367.210938 228.117188 L 367.210938 289.804688 Z M 305.523438 289.804688 "/>
<path style=" stroke:none;fill-rule:nonzero;fill:rgb(70.196078%,3.921569%,0.784314%);fill-opacity:1;" d="M 378.261719 289.804688 L 378.261719 228.117188 L 439.949219 228.117188 L 439.949219 289.804688 Z M 378.261719 289.804688 "/>
<path style=" stroke:none;fill-rule:nonzero;fill:rgb(70.196078%,3.921569%,0.784314%);fill-opacity:1;" d="M 450.074219 289.804688 L 450.074219 228.117188 L 511.765625 228.117188 L 511.765625 289.804688 Z M 450.074219 289.804688 "/>
<path style=" stroke:none;fill-rule:nonzero;fill:rgb(77.647059%,4.313725%,0%);fill-opacity:1;" d="M 522.8125 289.804688 L 522.8125 228.117188 L 584.5 228.117188 L 584.5 289.804688 Z M 522.8125 289.804688 "/>
<path style=" stroke:none;fill-rule:nonzero;fill:rgb(100%,100%,100%);fill-opacity:1;" d="M 123.777344 64.394531 C 126.34375 65.324219 129.109375 68.265625 129.109375 68.265625 L 115.242188 68.265625 "/>
<path style=" stroke:none;fill-rule:nonzero;fill:rgb(100%,100%,100%);fill-opacity:1;" d="M 123.738281 15.84375 C 125.785156 18.109375 123.402344 20.859375 123.402344 20.859375 C 123.402344 20.859375 122.566406 22.527344 123.632812 23.003906 C 123.648438 30.976562 123.261719 47.519531 123.261719 47.796875 C 123.261719 48.195312 124.15625 64.472656 124.242188 64.785156 C 124.386719 65.300781 124.898438 65.769531 124.898438 65.769531 C 124.09375 65.671875 123.445312 64.886719 123.445312 64.886719 C 123.644531 65.582031 124.351562 66.046875 124.351562 66.046875 C 123.746094 65.972656 123.136719 66.019531 122.863281 66.019531 C 122.613281 66.019531 119.4375 66.820312 118.195312 68.265625 L 110.699219 68.265625 C 110.546875 68.265625 104.242188 61.628906 104.042969 53.789062 C 103.84375 45.949219 105.988281 38.398438 107.617188 34.894531 C 109.511719 30.828125 112.675781 23.113281 112.902344 22.195312 C 113.125 21.277344 112.910156 17.546875 114.34375 15.691406 C 115.339844 14.40625 117.289062 13.785156 118.582031 13.785156 C 119.871094 13.785156 122.601562 14.585938 123.738281 15.84375 "/>
<path style=" stroke:none;fill-rule:nonzero;fill:rgb(100%,100%,100%);fill-opacity:1;" d="M 123.980469 23.5625 C 123.980469 23.5625 125.226562 25.257812 126.179688 27.277344 C 128.265625 31.894531 129.605469 38.746094 128.863281 46.949219 C 128.175781 54.511719 127.53125 59.367188 125.320312 63.21875 C 125.019531 63.746094 126.191406 64.421875 126.191406 64.421875 C 125.695312 64.421875 125.035156 64.484375 125.035156 64.484375 C 125.085938 65.109375 126.117188 65.296875 126.117188 65.296875 C 124.6875 65.996094 124.265625 65.003906 124.265625 65.003906 C 124.503906 65.585938 124.835938 65.886719 124.835938 65.886719 C 124.4375 65.910156 123.445312 65.007812 123.445312 65.007812 C 123.445312 65.683594 124.351562 66.171875 124.351562 66.171875 C 118.449219 66.207031 115.664062 59.003906 116.109375 56.957031 C 116.558594 54.910156 120.679688 35.089844 120.945312 30.695312 C 121.207031 26.304688 123.980469 23.5625 123.980469 23.5625 "/>
<path style=" stroke:none;fill-rule:nonzero;fill:rgb(100%,100%,100%);fill-opacity:1;" d="M 121.578125 20.597656 C 121.519531 20.605469 124.101562 19.152344 124.296875 17.976562 C 124.445312 17.078125 123.476562 16.085938 123.738281 15.84375 C 123.914062 15.679688 124.300781 16.542969 125.0625 16.929688 C 125.875 17.339844 127.015625 17.941406 128.898438 18.203125 C 130.777344 18.464844 132.398438 18.96875 133.085938 19.699219 C 133.777344 20.429688 134.128906 21.234375 134.128906 21.234375 C 134.128906 21.234375 133.253906 19.867188 128.039062 20.394531 C 124.035156 20.597656 123.734375 21.203125 123.136719 21.585938 C 122.539062 21.964844 123.253906 20.355469 121.578125 20.597656 "/>
<path style="fill:none;stroke-width:15;stroke-linecap:butt;stroke-linejoin:miter;stroke:rgb(0%,0%,0%);stroke-opacity:0.501961;stroke-miterlimit:10;" d="M 200.869141 157.999444 C 200.869141 136.388116 218.388672 118.870537 240 118.870537 C 261.611328 118.870537 279.130859 136.388116 279.130859 157.999444 C 279.130859 179.610772 261.611328 197.130303 240 197.130303 C 218.388672 197.130303 200.869141 179.610772 200.869141 157.999444 Z M 200.869141 157.999444 " transform="matrix(2,0,0,2,-180,-210.0067)"/>
<path style=" stroke:none;fill-rule:nonzero;fill:rgb(100%,100%,100%);fill-opacity:1;" d="M 23.5 136.84375 L 23.5 91.15625 L 69.1875 91.15625 L 69.1875 136.84375 Z M 23.5 136.84375 "/>
<path style=" stroke:none;fill-rule:nonzero;fill:rgb(100%,100%,100%);fill-opacity:1;" d="M 506.15625 141.242188 C 505.644531 141.242188 505.128906 141.046875 504.738281 140.65625 L 454.683594 90.597656 C 453.902344 89.816406 453.902344 88.546875 454.683594 87.765625 C 455.46875 86.980469 456.738281 86.980469 457.519531 87.765625 L 507.574219 137.816406 C 508.355469 138.601562 508.355469 139.871094 507.574219 140.652344 C 507.183594 141.042969 506.667969 141.242188 506.15625 141.242188 Z M 506.15625 141.242188 "/>
<path style=" stroke:none;fill-rule:nonzero;fill:rgb(100%,100%,100%);fill-opacity:1;" d="M 475.738281 97.789062 C 475.738281 103.878906 470.800781 108.816406 464.707031 108.816406 C 458.617188 108.816406 453.679688 103.878906 453.679688 97.789062 C 453.679688 91.695312 458.617188 86.757812 464.707031 86.757812 C 470.800781 86.757812 475.738281 91.695312 475.738281 97.789062 Z M 475.738281 97.789062 "/>
<path style=" stroke:none;fill-rule:nonzero;fill:rgb(100%,100%,100%);fill-opacity:1;" d="M 474.210938 120.558594 C 468.28125 119.15625 464.609375 113.21875 466.007812 107.289062 C 467.410156 101.359375 473.351562 97.6875 479.277344 99.089844 C 485.207031 100.488281 488.878906 106.429688 487.476562 112.359375 C 486.078125 118.285156 480.136719 121.957031 474.210938 120.558594 Z M 474.210938 120.558594 "/>
<path style=" stroke:none;fill-rule:nonzero;fill:rgb(100%,100%,100%);fill-opacity:1;" d="M 499.804688 121.851562 C 499.804688 127.945312 494.867188 132.882812 488.773438 132.882812 C 482.683594 132.882812 477.742188 127.945312 477.742188 121.851562 C 477.742188 115.761719 482.683594 110.824219 488.773438 110.824219 C 494.867188 110.824219 499.804688 115.761719 499.804688 121.851562 Z M 499.804688 121.851562 "/>
<path style="fill:none;stroke-width:7.5;stroke-linecap:square;stroke-linejoin:miter;stroke:rgb(0%,0%,0%);stroke-opacity:0.501961;stroke-miterlimit:10;" d="M 171.175781 240.390069 C 171.175781 240.944756 169.800781 241.2221 167.052734 241.2221 C 164.304688 241.2221 162.929688 240.944756 162.929688 240.390069 L 162.929688 219.483819 L 157.931641 219.483819 C 157.460938 219.483819 157.128906 218.845147 156.935547 217.567803 C 156.851562 216.954522 156.808594 216.329522 156.808594 215.69085 C 156.808594 215.054131 156.851562 214.429131 156.935547 213.81585 C 157.128906 212.540459 157.460938 211.903741 157.931641 211.903741 L 176.050781 211.903741 C 176.521484 211.903741 176.853516 212.540459 177.046875 213.81585 C 177.132812 214.429131 177.173828 215.054131 177.173828 215.69085 C 177.173828 216.329522 177.132812 216.954522 177.046875 217.567803 C 176.853516 218.845147 176.521484 219.483819 176.050781 219.483819 L 171.175781 219.483819 Z M 186.962891 240.806084 C 186.962891 241.026788 185.691406 241.136163 183.150391 241.136163 C 180.611328 241.136163 179.341797 241.040459 179.341797 240.8471 L 179.341797 220.399834 C 179.341797 220.202569 180.611328 220.104913 183.150391 220.104913 C 185.691406 220.104913 186.962891 220.188897 186.962891 220.358819 Z M 186.962891 217.897881 C 186.962891 218.095147 185.691406 218.192803 183.150391 218.192803 C 180.611328 218.192803 179.341797 218.108819 179.341797 217.938897 L 179.341797 211.944756 C 179.341797 211.667413 180.611328 211.528741 183.150391 211.528741 C 185.691406 211.528741 186.962891 211.610772 186.962891 211.776788 Z M 198.291016 240.720147 C 198.291016 240.970147 196.875 241.095147 194.041016 241.095147 C 191.822266 241.067803 190.712891 240.958428 190.712891 240.765069 L 190.712891 212.401788 C 190.712891 211.985772 192.056641 211.776788 194.748047 211.776788 C 197.111328 211.862725 198.291016 212.001397 198.291016 212.194756 Z M 211.033203 241.4721 C 208.285156 241.4721 205.966797 240.5346 204.078125 238.661553 C 202.191406 236.786553 201.246094 234.19085 201.246094 230.872491 C 201.246094 227.554131 202.154297 224.882256 203.972656 222.854913 C 205.791016 220.827569 208.089844 219.813897 210.865234 219.813897 C 213.644531 219.813897 215.791016 220.522881 217.300781 221.938897 C 218.8125 223.356866 219.568359 225.077569 219.568359 227.104913 C 219.568359 231.602959 216.988281 233.851006 211.826172 233.851006 L 208.953125 233.851006 C 208.953125 234.684991 209.183594 235.261163 209.640625 235.579522 C 210.097656 235.897881 210.771484 236.058038 211.658203 236.058038 C 213.601562 236.058038 215.447266 235.612725 217.199219 234.726006 C 217.226562 234.698663 217.351562 234.893975 217.570312 235.309991 C 218.238281 236.50335 218.572266 237.509209 218.572266 238.329522 C 218.572266 239.147881 218.308594 239.681084 217.779297 239.931084 C 217.779297 239.931084 213.78125 241.4721 211.033203 241.4721 Z M 212.574219 227.892022 C 212.574219 226.727959 212.003906 226.143975 210.865234 226.143975 C 210.339844 226.143975 209.888672 226.306084 209.513672 226.626397 C 209.140625 226.944756 208.953125 227.4096 208.953125 228.020928 L 208.953125 229.311944 L 211.201172 229.311944 C 212.115234 229.311944 212.574219 228.839288 212.574219 227.893975 Z M 245.728516 232.351006 L 244.951172 225.688897 C 244.951172 225.298272 246.210938 226.040459 247.013672 225.915459 C 247.820312 225.790459 248.488281 225.727959 249.017578 225.727959 L 250.638672 225.854913 C 251.695312 226.020928 252.224609 226.311944 252.224609 226.727959 L 252.056641 239.763116 C 251.501953 240.153741 250.382812 240.536553 248.701172 240.913506 C 247.023438 241.286553 245.101562 241.4721 242.9375 241.4721 C 238.910156 241.4721 235.662109 240.167413 233.191406 237.558038 C 230.720703 234.948663 229.484375 231.116631 229.484375 226.061944 C 229.484375 221.759209 230.691406 218.261163 233.103516 215.569756 C 235.521484 212.874444 238.867188 211.528741 243.144531 211.528741 C 245.087891 211.528741 246.841797 211.716241 248.412109 212.093194 C 249.980469 212.464288 251.056641 212.970147 251.640625 213.606866 C 251.667969 213.831475 251.681641 214.247491 251.681641 214.858819 C 251.681641 215.468194 251.472656 216.335381 251.054688 217.460381 C 250.638672 218.585381 250.166016 219.427178 249.636719 219.981866 C 249.111328 220.538506 248.730469 220.81585 248.494141 220.81585 C 248.259766 220.81585 248.009766 220.712334 247.746094 220.505303 C 247.482422 220.296319 246.958984 220.073663 246.179688 219.839288 C 245.404297 219.602959 244.654297 219.483819 243.933594 219.483819 C 242.210938 219.483819 240.816406 220.040459 239.75 221.151788 C 238.681641 222.259209 238.148438 223.979913 238.148438 226.311944 C 238.148438 228.643975 238.695312 230.415459 239.789062 231.624444 C 240.888672 232.831475 242.152344 233.434991 243.582031 233.434991 C 245.011719 233.434991 245.728516 233.073663 245.728516 232.351006 Z M 265.09375 241.015069 C 265.09375 241.208428 263.830078 241.304131 261.300781 241.304131 C 258.775391 241.249444 257.513672 241.140069 257.513672 240.974053 L 257.513672 227.145928 L 256.390625 227.145928 C 255.941406 227.145928 255.585938 226.874444 255.322266 226.331475 C 255.060547 225.790459 254.929688 225.116631 254.929688 224.313897 C 254.929688 221.313897 255.818359 219.813897 257.59375 219.813897 C 258.845703 219.813897 259.884766 220.198663 260.716797 220.964288 C 261.550781 221.726006 261.966797 222.593194 261.966797 223.561944 C 262.548828 222.423272 263.333984 221.515069 264.320312 220.837334 C 265.306641 220.155694 266.3125 219.813897 267.339844 219.813897 C 268.951172 219.813897 269.921875 220.231866 270.253906 221.06585 C 270.337891 221.286553 270.380859 221.610772 270.380859 222.042413 C 270.380859 222.4721 270.248047 223.243584 269.984375 224.354913 C 269.71875 225.466241 269.449219 226.272881 269.169922 226.774834 C 268.896484 227.272881 268.730469 227.520928 268.671875 227.520928 C 268.617188 227.520928 268.361328 227.419366 267.900391 227.212334 C 267.441406 227.001397 267.033203 226.895928 266.673828 226.895928 C 265.621094 226.895928 265.09375 227.727959 265.09375 229.392022 Z M 280.085938 240.806084 C 280.085938 241.026788 278.814453 241.136163 276.273438 241.136163 C 273.734375 241.136163 272.464844 241.040459 272.464844 240.8471 L 272.464844 220.399834 C 272.464844 220.202569 273.734375 220.104913 276.273438 220.104913 C 278.814453 220.104913 280.085938 220.188897 280.085938 220.358819 Z M 280.085938 217.897881 C 280.085938 218.095147 278.814453 218.192803 276.273438 218.192803 C 273.734375 218.192803 272.464844 218.108819 272.464844 217.938897 L 272.464844 211.944756 C 272.464844 211.667413 273.734375 211.528741 276.273438 211.528741 C 278.814453 211.528741 280.085938 211.610772 280.085938 211.776788 Z M 294.369141 212.153741 C 294.369141 211.735772 295.464844 211.528741 297.658203 211.528741 C 298.410156 211.528741 299.277344 211.577569 300.259766 211.675225 C 301.246094 211.770928 301.740234 211.901788 301.740234 212.067803 L 301.740234 234.018975 L 303.199219 234.018975 C 303.894531 234.018975 304.351562 234.642022 304.572266 235.890069 C 304.628906 236.25335 304.658203 236.745538 304.658203 237.368584 C 304.658203 237.993584 304.462891 238.749444 304.074219 239.636163 C 303.517578 240.860772 302.628906 241.4721 301.410156 241.4721 C 300.490234 241.4721 299.677734 241.292413 298.96875 240.933038 C 298.263672 240.569756 297.787109 240.194756 297.535156 239.804131 L 297.160156 239.265069 C 295.634766 240.735772 293.71875 241.4721 291.414062 241.4721 C 289.109375 241.4721 287.136719 240.515069 285.498047 238.599053 C 283.859375 236.681084 283.041016 234.009209 283.041016 230.581475 C 283.041016 227.151788 283.902344 224.499444 285.625 222.626397 C 287.345703 220.751397 289.498047 219.813897 292.080078 219.813897 C 292.830078 219.813897 293.591797 219.897881 294.369141 220.063897 Z M 292.996094 226.479913 C 291.439453 226.479913 290.662109 227.880303 290.662109 230.684991 C 290.662109 232.101006 290.884766 233.122491 291.328125 233.749444 C 291.771484 234.372491 292.265625 234.684991 292.808594 234.684991 C 293.349609 234.684991 293.871094 234.448663 294.369141 233.974053 L 294.369141 226.895928 C 293.896484 226.618584 293.439453 226.479913 292.996094 226.479913 Z M 308.240234 233.556084 C 310.486328 234.919366 312.263672 235.601006 313.568359 235.601006 C 314.400391 235.601006 314.818359 235.308038 314.818359 234.726006 C 314.818359 234.308038 314.095703 233.767022 312.652344 233.099053 C 309.181641 231.684991 307.447266 229.366631 307.447266 226.143975 C 307.447266 224.089288 308.195312 222.522881 309.693359 221.44085 C 311.195312 220.356866 312.992188 219.813897 315.087891 219.813897 C 317.185547 219.813897 318.962891 220.036553 320.419922 220.479913 C 321.878906 220.925225 322.607422 221.507256 322.607422 222.229913 C 322.607422 222.839288 322.308594 223.643975 321.712891 224.643975 C 321.115234 225.643975 320.705078 226.186944 320.482422 226.270928 C 319.289062 225.602959 317.998047 225.268975 316.607422 225.268975 C 315.859375 225.268975 315.484375 225.5346 315.484375 226.061944 C 315.484375 226.393975 315.630859 226.679131 315.921875 226.917413 C 316.212891 227.149834 316.746094 227.442803 317.523438 227.790459 C 318.302734 228.136163 318.947266 228.448663 319.458984 228.726006 C 319.974609 229.005303 320.550781 229.393975 321.1875 229.895928 C 322.523438 230.950616 323.191406 232.323663 323.191406 234.018975 C 323.191406 236.239678 322.455078 238.036553 320.980469 239.413506 C 319.509766 240.786553 317.289062 241.4721 314.320312 241.4721 C 312.347656 241.4721 310.556641 241.140069 308.947266 240.476006 C 307.335938 239.808038 306.53125 238.892022 306.53125 237.726006 C 306.53125 236.944756 306.71875 236.126397 307.089844 235.265069 C 307.466797 234.403741 307.849609 233.833428 308.240234 233.556084 Z M 308.240234 233.556084 " transform="matrix(2,0,0,2,-180,-210.0067)"/>
<path style="fill:none;stroke-width:7.5;stroke-linecap:butt;stroke-linejoin:miter;stroke:rgb(100%,100%,100%);stroke-opacity:1;stroke-miterlimit:10;" d="M 200.869141 157.999444 C 200.869141 136.388116 218.388672 118.870537 240 118.870537 C 261.611328 118.870537 279.130859 136.388116 279.130859 157.999444 C 279.130859 179.610772 261.611328 197.130303 240 197.130303 C 218.388672 197.130303 200.869141 179.610772 200.869141 157.999444 Z M 200.869141 157.999444 " transform="matrix(2,0,0,2,-180,-210.0067)"/>
<path style=" stroke:none;fill-rule:nonzero;fill:rgb(100%,100%,100%);fill-opacity:1;" d="M 162.351562 270.773438 C 162.351562 271.882812 159.601562 272.4375 154.105469 272.4375 C 148.609375 272.4375 145.859375 271.882812 145.859375 270.773438 L 145.859375 228.960938 L 135.863281 228.960938 C 134.921875 228.960938 134.257812 227.683594 133.871094 225.128906 C 133.703125 223.902344 133.617188 222.652344 133.617188 221.375 C 133.617188 220.101562 133.703125 218.851562 133.871094 217.625 C 134.257812 215.074219 134.921875 213.800781 135.863281 213.800781 L 172.101562 213.800781 C 173.042969 213.800781 173.707031 215.074219 174.09375 217.625 C 174.265625 218.851562 174.347656 220.101562 174.347656 221.375 C 174.347656 222.652344 174.265625 223.902344 174.09375 225.128906 C 173.707031 227.683594 173.042969 228.960938 172.101562 228.960938 L 162.351562 228.960938 Z M 193.925781 271.605469 C 193.925781 272.046875 191.382812 272.265625 186.300781 272.265625 C 181.222656 272.265625 178.683594 272.074219 178.683594 271.6875 L 178.683594 230.792969 C 178.683594 230.398438 181.222656 230.203125 186.300781 230.203125 C 191.382812 230.203125 193.925781 230.371094 193.925781 230.710938 Z M 193.925781 225.789062 C 193.925781 226.183594 191.382812 226.378906 186.300781 226.378906 C 181.222656 226.378906 178.683594 226.210938 178.683594 225.871094 L 178.683594 213.882812 C 178.683594 213.328125 181.222656 213.050781 186.300781 213.050781 C 191.382812 213.050781 193.925781 213.214844 193.925781 213.546875 Z M 216.582031 271.433594 C 216.582031 271.933594 213.75 272.183594 208.082031 272.183594 C 203.644531 272.128906 201.425781 271.910156 201.425781 271.523438 L 201.425781 214.796875 C 201.425781 213.964844 204.113281 213.546875 209.496094 213.546875 C 214.222656 213.71875 216.582031 213.996094 216.582031 214.382812 Z M 255.558594 269.855469 C 252.0625 271.910156 247.5625 272.9375 242.066406 272.9375 C 236.570312 272.9375 231.933594 271.0625 228.15625 267.316406 C 224.382812 263.566406 222.492188 258.375 222.492188 251.738281 C 222.492188 245.101562 224.308594 239.757812 227.945312 235.703125 C 231.582031 231.648438 236.179688 229.621094 241.730469 229.621094 C 247.289062 229.621094 251.582031 231.039062 254.601562 233.871094 C 257.625 236.707031 259.136719 240.148438 259.136719 244.203125 C 259.136719 253.199219 253.976562 257.695312 243.652344 257.695312 L 237.90625 257.695312 C 237.90625 259.363281 238.367188 260.515625 239.28125 261.152344 C 240.195312 261.789062 241.542969 262.109375 243.316406 262.109375 C 247.203125 262.109375 250.894531 261.21875 254.398438 259.445312 C 254.453125 259.390625 254.703125 259.78125 255.140625 260.613281 C 256.476562 263 257.144531 265.011719 257.144531 266.652344 C 257.144531 268.289062 256.617188 269.355469 255.558594 269.855469 Z M 245.148438 245.777344 C 245.148438 243.449219 244.007812 242.28125 241.730469 242.28125 C 240.679688 242.28125 239.777344 242.605469 239.027344 243.246094 C 238.28125 243.882812 237.90625 244.8125 237.90625 246.035156 L 237.90625 248.617188 L 242.402344 248.617188 C 244.230469 248.617188 245.148438 247.671875 245.148438 245.78125 Z M 311.457031 254.695312 L 311.617188 243.371094 C 311.617188 242.589844 312.421875 242.074219 314.027344 241.824219 C 315.640625 241.574219 316.976562 241.449219 318.035156 241.449219 L 321.277344 241.703125 C 323.390625 242.035156 324.449219 242.617188 324.449219 243.449219 L 324.113281 269.519531 C 323.003906 270.300781 320.765625 271.066406 317.402344 271.820312 C 314.046875 272.566406 310.203125 272.9375 305.875 272.9375 C 297.820312 272.9375 291.324219 270.328125 286.382812 265.109375 C 281.441406 259.890625 278.96875 252.226562 278.96875 242.117188 C 278.96875 233.511719 281.382812 226.515625 286.207031 221.132812 C 291.042969 215.742188 297.734375 213.050781 306.289062 213.050781 C 310.175781 213.050781 313.683594 213.425781 316.824219 214.179688 C 319.960938 214.921875 322.113281 215.933594 323.28125 217.207031 C 323.335938 217.65625 323.363281 218.488281 323.363281 219.710938 C 323.363281 220.929688 322.945312 222.664062 322.109375 224.914062 C 321.277344 227.164062 320.332031 228.847656 319.273438 229.957031 C 318.222656 231.070312 317.460938 231.625 316.988281 231.625 C 316.519531 231.625 316.019531 231.417969 315.492188 231.003906 C 314.964844 230.585938 313.917969 230.140625 312.359375 229.671875 C 310.808594 229.199219 309.308594 228.960938 307.867188 228.960938 C 304.421875 228.960938 301.632812 230.074219 299.5 232.296875 C 297.363281 234.511719 296.296875 237.953125 296.296875 242.617188 C 296.296875 247.28125 297.390625 250.824219 299.578125 253.242188 C 301.777344 255.65625 304.304688 256.863281 307.164062 256.863281 C 310.023438 256.863281 311.457031 256.140625 311.457031 254.695312 Z M 350.1875 272.023438 C 350.1875 272.410156 347.660156 272.601562 342.601562 272.601562 C 337.550781 272.492188 335.027344 272.273438 335.027344 271.941406 L 335.027344 244.285156 L 332.78125 244.285156 C 331.882812 244.285156 331.171875 243.742188 330.644531 242.65625 C 330.121094 241.574219 329.859375 240.226562 329.859375 238.621094 C 329.859375 232.621094 331.636719 229.621094 335.1875 229.621094 C 337.691406 229.621094 339.769531 230.390625 341.433594 231.921875 C 343.101562 233.445312 343.933594 235.175781 343.933594 237.117188 C 345.097656 234.839844 346.667969 233.023438 348.640625 231.667969 C 350.613281 230.304688 352.625 229.621094 354.679688 229.621094 C 357.902344 229.621094 359.84375 230.457031 360.507812 232.125 C 360.675781 232.566406 360.761719 233.214844 360.761719 234.078125 C 360.761719 234.9375 360.496094 236.480469 359.96875 238.703125 C 359.4375 240.925781 358.898438 242.539062 358.339844 243.542969 C 357.792969 244.539062 357.460938 245.035156 357.34375 245.035156 C 357.234375 245.035156 356.722656 244.832031 355.800781 244.417969 C 354.882812 243.996094 354.066406 243.785156 353.347656 243.785156 C 351.242188 243.785156 350.1875 245.449219 350.1875 248.777344 Z M 380.171875 271.605469 C 380.171875 272.046875 377.628906 272.265625 372.546875 272.265625 C 367.46875 272.265625 364.929688 272.074219 364.929688 271.6875 L 364.929688 230.792969 C 364.929688 230.398438 367.46875 230.203125 372.546875 230.203125 C 377.628906 230.203125 380.171875 230.371094 380.171875 230.710938 Z M 380.171875 225.789062 C 380.171875 226.183594 377.628906 226.378906 372.546875 226.378906 C 367.46875 226.378906 364.929688 226.210938 364.929688 225.871094 L 364.929688 213.882812 C 364.929688 213.328125 367.46875 213.050781 372.546875 213.050781 C 377.628906 213.050781 380.171875 213.214844 380.171875 213.546875 Z M 408.738281 214.300781 C 408.738281 213.464844 410.929688 213.050781 415.316406 213.050781 C 416.820312 213.050781 418.554688 213.148438 420.519531 213.34375 C 422.492188 213.535156 423.480469 213.796875 423.480469 214.128906 L 423.480469 258.03125 L 426.398438 258.03125 C 427.789062 258.03125 428.703125 259.277344 429.144531 261.773438 C 429.257812 262.5 429.316406 263.484375 429.316406 264.730469 C 429.316406 265.980469 428.925781 267.492188 428.148438 269.265625 C 427.035156 271.714844 425.257812 272.9375 422.820312 272.9375 C 420.980469 272.9375 419.355469 272.578125 417.9375 271.859375 C 416.527344 271.132812 415.574219 270.382812 415.070312 269.601562 L 414.320312 268.523438 C 411.269531 271.464844 407.4375 272.9375 402.828125 272.9375 C 398.21875 272.9375 394.273438 271.023438 390.996094 267.191406 C 387.71875 263.355469 386.082031 258.011719 386.082031 251.15625 C 386.082031 244.296875 387.804688 238.992188 391.25 235.246094 C 394.691406 231.496094 398.996094 229.621094 404.160156 229.621094 C 405.660156 229.621094 407.183594 229.789062 408.738281 230.121094 Z M 405.992188 242.953125 C 402.878906 242.953125 401.324219 245.753906 401.324219 251.363281 C 401.324219 254.195312 401.769531 256.238281 402.65625 257.492188 C 403.542969 258.738281 404.53125 259.363281 405.617188 259.363281 C 406.699219 259.363281 407.742188 258.890625 408.738281 257.941406 L 408.738281 243.785156 C 407.792969 243.230469 406.878906 242.953125 405.992188 242.953125 Z M 436.480469 257.105469 C 440.972656 259.832031 444.527344 261.195312 447.136719 261.195312 C 448.800781 261.195312 449.636719 260.609375 449.636719 259.445312 C 449.636719 258.609375 448.191406 257.527344 445.304688 256.191406 C 438.363281 253.363281 434.894531 248.726562 434.894531 242.28125 C 434.894531 238.171875 436.390625 235.039062 439.386719 232.875 C 442.390625 230.707031 445.984375 229.621094 450.175781 229.621094 C 454.371094 229.621094 457.925781 230.066406 460.839844 230.953125 C 463.757812 231.84375 465.214844 233.007812 465.214844 234.453125 C 465.214844 235.671875 464.617188 237.28125 463.425781 239.28125 C 462.230469 241.28125 461.410156 242.367188 460.964844 242.535156 C 458.578125 241.199219 455.996094 240.53125 453.214844 240.53125 C 451.71875 240.53125 450.96875 241.0625 450.96875 242.117188 C 450.96875 242.78125 451.261719 243.351562 451.84375 243.828125 C 452.425781 244.292969 453.492188 244.878906 455.046875 245.574219 C 456.605469 246.265625 457.894531 246.890625 458.917969 247.445312 C 459.949219 248.003906 461.101562 248.78125 462.375 249.785156 C 465.046875 251.894531 466.382812 254.640625 466.382812 258.03125 C 466.382812 262.472656 464.910156 266.066406 461.960938 268.820312 C 459.019531 271.566406 454.578125 272.9375 448.640625 272.9375 C 444.695312 272.9375 441.113281 272.273438 437.894531 270.945312 C 434.671875 269.609375 433.0625 267.777344 433.0625 265.445312 C 433.0625 263.882812 433.4375 262.246094 434.179688 260.523438 C 434.933594 258.800781 435.699219 257.660156 436.480469 257.105469 Z M 436.480469 257.105469 "/>
<path style=" stroke:none;fill-rule:nonzero;fill:rgb(100%,100%,100%);fill-opacity:1;" d="M 528.109375 208.113281 L 553.65625 163.863281 L 579.203125 208.113281 Z M 528.109375 208.113281 "/>
<path style=" stroke:none;fill-rule:nonzero;fill:rgb(89.803922%,4.313725%,0%);fill-opacity:1;" d="M 221.738281 105.992188 C 221.738281 62.769531 256.777344 27.734375 300 27.734375 C 343.222656 27.734375 378.261719 62.769531 378.261719 105.992188 C 378.261719 149.214844 343.222656 184.253906 300 184.253906 C 256.777344 184.253906 221.738281 149.214844 221.738281 105.992188 Z M 221.738281 105.992188 "/>
<path style="fill:none;stroke-width:2;stroke-linecap:butt;stroke-linejoin:miter;stroke:rgb(100%,100%,100%);stroke-opacity:1;stroke-miterlimit:10;" d="M 216.974609 181.024834 L 216.974609 134.976006 L 263.025391 134.976006 L 263.025391 181.024834 Z M 216.974609 181.024834 " transform="matrix(2,0,0,2,-180,-210.0067)"/>
<path style="fill:none;stroke-width:2;stroke-linecap:round;stroke-linejoin:miter;stroke:rgb(100%,100%,100%);stroke-opacity:1;stroke-miterlimit:10;" d="M 262.626953 165.675225 L 217.771484 165.675225 " transform="matrix(2,0,0,2,-180,-210.0067)"/>
<path style="fill:none;stroke-width:2;stroke-linecap:round;stroke-linejoin:miter;stroke:rgb(100%,100%,100%);stroke-opacity:1;stroke-miterlimit:10;" d="M 247.675781 180.587334 L 247.675781 135.413506 " transform="matrix(2,0,0,2,-180,-210.0067)"/>
<path style="fill:none;stroke-width:2;stroke-linecap:round;stroke-linejoin:miter;stroke:rgb(100%,100%,100%);stroke-opacity:1;stroke-miterlimit:10;" d="M 232.324219 180.587334 L 232.324219 135.413506 " transform="matrix(2,0,0,2,-180,-210.0067)"/>
<path style="fill:none;stroke-width:2;stroke-linecap:round;stroke-linejoin:miter;stroke:rgb(100%,100%,100%);stroke-opacity:1;stroke-miterlimit:10;" d="M 217.412109 150.325616 L 262.587891 150.325616 " transform="matrix(2,0,0,2,-180,-210.0067)"/>
<path style=" stroke:none;fill-rule:nonzero;fill:rgb(100%,100%,100%);fill-opacity:1;" d="M 289.660156 116.332031 L 289.660156 95.652344 L 310.339844 95.652344 L 310.339844 116.332031 Z M 289.660156 116.332031 "/>
<path style=" stroke:none;fill-rule:nonzero;fill:rgb(100%,100%,100%);fill-opacity:1;" d="M 289.660156 147.191406 L 289.660156 126.511719 L 310.339844 126.511719 L 310.339844 147.191406 Z M 289.660156 147.191406 "/>
<path style=" stroke:none;fill-rule:nonzero;fill:rgb(100%,100%,100%);fill-opacity:1;" d="M 289.660156 85.472656 L 289.660156 64.796875 L 310.339844 64.796875 L 310.339844 85.472656 Z M 289.660156 85.472656 "/>
<path style=" stroke:none;fill-rule:nonzero;fill:rgb(100%,100%,100%);fill-opacity:1;" d="M 258.800781 85.472656 L 258.800781 64.796875 L 279.480469 64.796875 L 279.480469 85.472656 Z M 258.800781 85.472656 "/>
<path style=" stroke:none;fill-rule:nonzero;fill:rgb(100%,100%,100%);fill-opacity:1;" d="M 320.203125 85.472656 L 320.203125 64.796875 L 340.878906 64.796875 L 340.878906 85.472656 Z M 320.203125 85.472656 "/>
</g>
</svg>
