<?xml version="1.0" encoding="UTF-8"?>
<svg xmlns="http://www.w3.org/2000/svg" xmlns:xlink="http://www.w3.org/1999/xlink" width="600px" height="300px" viewBox="0 0 600 300" version="1.1">
<g id="surface1">
<path style=" stroke:none;fill-rule:nonzero;fill:rgb(32.54902%,30.196078%,75.686275%);fill-opacity:1;" d="M 0 299.214844 L 0 0.0234375 L 599.171875 0.0234375 L 599.171875 299.214844 Z M 0 299.214844 "/>
<path style=" stroke:none;fill-rule:nonzero;fill:rgb(25.882353%,24.313725%,60.784314%);fill-opacity:1;" d="M 425.398438 217.863281 C 431.953125 182.019531 426.503906 146.660156 409.472656 114.96875 C 404.378906 105.457031 393.386719 90.953125 385.417969 83.222656 C 369.105469 67.375 350.195312 56.203125 329.28125 49.941406 C 322.792969 48.007812 307.742188 45.359375 300.667969 44.914062 C 256.582031 42.082031 215.914062 60.148438 191.804688 93.246094 C 170.277344 122.8125 164.984375 161.570312 177.773438 195.726562 C 180.929688 204.089844 182.746094 207.484375 188.835938 216.246094 C 194.972656 225.085938 197.621094 228.117188 204.378906 233.871094 C 224.40625 251.089844 251.195312 258.25 276.878906 253.296875 C 307.886719 247.351562 331.03125 223.699219 333.902344 195.175781 C 336.019531 174.214844 328.449219 155.761719 313.421875 145.195312 C 304.808594 139.105469 293.28125 136.773438 282.875 139.019531 C 278.222656 140.03125 273.378906 142.257812 270.515625 144.679688 C 269.339844 145.714844 268.46875 146.644531 268.582031 146.726562 C 268.65625 146.835938 270.539062 146.667969 272.714844 146.292969 C 278.078125 145.4375 283.671875 146.476562 288.609375 149.21875 C 293.632812 152.011719 295.917969 154.050781 299.929688 159.4375 C 303.230469 163.804688 303.515625 164.363281 305.003906 168.691406 C 310.882812 185.882812 302.09375 204.332031 283.558594 213.578125 C 273.175781 218.734375 263.949219 220.105469 253.585938 218.046875 C 239.621094 215.242188 228.839844 208.058594 220.457031 196.070312 C 215.105469 188.363281 211.8125 180.039062 210.121094 170.121094 C 206.207031 146.796875 213.992188 123.632812 231.597656 106.421875 C 235.28125 102.835938 236.664062 101.714844 243.035156 97.558594 C 248.175781 94.203125 251.457031 92.304688 254.320312 91.125 C 271.667969 83.679688 289.011719 81.757812 307.789062 85.171875 C 332.703125 89.632812 354.582031 103.828125 369.445312 125.230469 C 379.363281 139.507812 385.164062 154.480469 387.671875 172.28125 C 392.5625 206.835938 381.472656 242.308594 357.691406 268.085938 C 350.273438 276.109375 347.734375 278.300781 336.753906 285.875 C 325.835938 293.460938 322.675781 293.222656 312.871094 297.269531 C 311.714844 297.746094 309.386719 299.050781 309.386719 299.050781 L 214.027344 299.179688 C 214.027344 299.179688 212.003906 298.730469 210.800781 298.273438 C 203.335938 295.457031 196.101562 293.992188 189.203125 289.886719 C 144.253906 263.128906 117.167969 214.703125 116.390625 159.648438 C 115.910156 124.195312 126.835938 89.808594 147.808594 61.003906 C 159.117188 45.40625 171.3125 33.582031 187.792969 22.078125 C 202.203125 12.070312 216.019531 7 231.691406 1.761719 C 233.804688 1.058594 237.730469 0.148438 237.730469 0.148438 L 346.792969 0.347656 C 346.792969 0.347656 349.757812 1.273438 351.234375 1.761719 C 355.921875 3.316406 360.570312 3.054688 365.175781 4.980469 C 372.75 8.164062 388.015625 16.347656 394.824219 20.929688 C 411.328125 31.984375 424.921875 44.308594 437.597656 59.59375 C 443.417969 66.648438 455.113281 84.347656 459.113281 92.128906 C 468.515625 110.5 475.152344 129.328125 478.742188 148.058594 C 485.6875 184.324219 483.347656 220.703125 471.929688 255.703125 C 466.472656 272.367188 459.570312 284.484375 450.164062 299.136719 C 448.976562 298.996094 385.34375 299.582031 381.472656 298.890625 C 405.097656 275.09375 419.617188 249.433594 425.398438 217.863281 Z M 425.398438 217.863281 "/>
<path style=" stroke:none;fill-rule:nonzero;fill:rgb(25.882353%,24.313725%,60.784314%);fill-opacity:1;" d="M 139.433594 9.976562 C 98 49.855469 75.511719 104.457031 76.878906 161.917969 C 77.132812 172.730469 77.746094 179.613281 79.382812 189.683594 C 82.800781 211.128906 89.0625 230.4375 98.6875 249.359375 C 107.097656 265.871094 122.613281 286.105469 135.757812 299.261719 C 129.515625 299.09375 69.1875 298.65625 66.648438 299.195312 C 59.847656 289.535156 54.71875 283.347656 49.265625 272.589844 C 31.347656 237.285156 21.757812 195.496094 22.210938 154.6875 C 22.839844 98.105469 40.996094 44.019531 74.425781 0.171875 C 95.9375 0.171875 147.941406 0.261719 151.878906 0 C 147.878906 3.273438 142.875 6.65625 139.433594 9.976562 Z M 139.433594 9.976562 "/>
<path style=" stroke:none;fill-rule:nonzero;fill:rgb(25.882353%,24.313725%,60.784314%);fill-opacity:1;" d="M 515.703125 247.332031 C 529.0625 191.277344 522.144531 129.332031 496.828125 78.382812 C 490.179688 64.917969 478.378906 46.371094 469.753906 35.742188 C 461.164062 25.148438 444.035156 8.964844 434.109375 0.242188 C 458.460938 0.242188 482.339844 0.242188 506.699219 0.242188 C 508.933594 3.253906 520.875 13.167969 523.820312 17.40625 C 535.082031 33.621094 541.984375 45.660156 549.554688 62.328125 C 583.050781 136.011719 583.621094 224.246094 556.429688 299.007812 C 547.171875 299.144531 497.445312 298.996094 497.445312 298.996094 C 503.855469 284.730469 511.871094 263.429688 515.703125 247.332031 Z M 515.703125 247.332031 "/>
<path style="fill:none;stroke-width:10;stroke-linecap:butt;stroke-linejoin:miter;stroke:rgb(0%,0%,0%);stroke-opacity:0.494118;stroke-miterlimit:10;" d="M 201.51982 166.276447 C 197.01982 144.838947 210.748336 123.813556 232.185836 119.311603 C 253.621382 114.811603 274.646773 128.540119 279.148726 149.977619 C 283.648726 171.413166 269.920211 192.440509 248.482711 196.940509 C 227.047164 201.440509 206.01982 187.711994 201.51982 166.276447 Z M 201.51982 166.276447 " transform="matrix(2,0,0,2,-180.41464,-210.3693)"/>
<path style="fill:none;stroke-width:10;stroke-linecap:butt;stroke-linejoin:miter;stroke:rgb(0%,0%,0%);stroke-opacity:0.494118;stroke-miterlimit:10;" d="M 243.615523 175.858478 C 243.189742 173.827228 244.490523 171.835041 246.521773 171.409259 L 280.541304 164.266681 C 282.572554 163.8409 284.564742 165.141681 284.990523 167.172931 L 286.679976 175.217853 C 287.105757 177.249103 285.804976 179.241291 283.773726 179.667072 L 249.754195 186.80965 C 247.722945 187.235431 245.730757 185.93465 245.304976 183.9034 Z M 243.615523 175.858478 " transform="matrix(2,0,0,2,-180.41464,-210.3693)"/>
<path style="fill:none;stroke-width:10;stroke-linecap:butt;stroke-linejoin:miter;stroke:rgb(0%,0%,0%);stroke-opacity:0.494118;stroke-miterlimit:10;" d="M 265.469039 197.069416 C 263.437789 197.49715 261.445601 196.196369 261.017867 194.165119 L 253.877242 160.145588 C 253.449507 158.114338 254.750289 156.12215 256.781539 155.694416 L 264.826461 154.004963 C 266.857711 153.579181 268.849898 154.879963 269.277632 156.911213 L 276.420211 190.930744 C 276.845992 192.961994 275.545211 194.954181 273.513961 195.381916 Z M 265.469039 197.069416 " transform="matrix(2,0,0,2,-180.41464,-210.3693)"/>
<path style=" stroke:none;fill-rule:nonzero;fill:rgb(35.686275%,32.941176%,81.568627%);fill-opacity:1;" d="M 222.625 122.183594 C 213.625 79.308594 241.082031 37.257812 283.957031 28.253906 C 326.828125 19.253906 368.878906 46.710938 377.882812 89.585938 C 386.882812 132.457031 359.425781 174.511719 316.550781 183.511719 C 273.679688 192.511719 231.625 165.054688 222.625 122.183594 Z M 222.625 122.183594 "/>
<path style=" stroke:none;fill-rule:nonzero;fill:rgb(100%,100%,100%);fill-opacity:1;" d="M 284.613281 168.078125 C 250.261719 159.4375 229.421875 124.589844 238.058594 90.242188 C 246.699219 55.894531 281.546875 35.050781 315.894531 43.691406 C 350.242188 52.328125 371.085938 87.175781 362.445312 121.523438 C 353.808594 155.875 318.960938 176.714844 284.613281 168.078125 Z M 284.613281 168.078125 "/>
<path style=" stroke:none;fill-rule:nonzero;fill:rgb(35.686275%,32.941176%,81.568627%);fill-opacity:1;" d="M 306.605469 101.003906 C 305.726562 102.449219 300.847656 101.292969 300.753906 99.511719 C 300.519531 95.105469 300.660156 73.613281 300.660156 73.613281 C 300.660156 73.613281 312.332031 54.679688 314.628906 50.890625 C 315.566406 49.347656 316.65625 49.621094 316.75 51.425781 C 317.304688 61.910156 318.179688 78.574219 318.179688 78.574219 C 318.179688 78.574219 308.855469 97.296875 306.605469 101.003906 Z M 306.605469 101.003906 "/>
<path style=" stroke:none;fill-rule:nonzero;fill:rgb(35.686275%,32.941176%,81.568627%);fill-opacity:1;" d="M 293.660156 105.386719 C 294.859375 105.539062 295.949219 109.886719 294.855469 110.542969 C 292.144531 112.160156 277.464844 118.6875 277.464844 118.6875 C 274.988281 118.375 261.707031 116.710938 258.5625 116.316406 C 257.277344 116.15625 257.097656 115.285156 258.207031 114.625 C 260.929688 112.996094 274.90625 104.644531 274.90625 104.644531 C 274.90625 104.644531 290.582031 105.003906 293.660156 105.386719 Z M 293.660156 105.386719 "/>
<path style=" stroke:none;fill-rule:nonzero;fill:rgb(35.686275%,32.941176%,81.568627%);fill-opacity:1;" d="M 290.125 108.007812 C 288.953125 102.417969 292.535156 96.929688 298.128906 95.757812 C 303.71875 94.582031 309.207031 98.164062 310.378906 103.757812 C 311.554688 109.351562 307.972656 114.835938 302.378906 116.011719 C 296.785156 117.183594 291.300781 113.601562 290.125 108.007812 Z M 290.125 108.007812 "/>
<path style=" stroke:none;fill-rule:nonzero;fill:rgb(35.686275%,32.941176%,81.568627%);fill-opacity:1;" d="M 306.816406 141.347656 C 305.964844 137.285156 308.566406 133.300781 312.628906 132.449219 L 380.667969 118.164062 C 384.730469 117.3125 388.714844 119.914062 389.566406 123.976562 L 392.945312 140.066406 C 393.796875 144.128906 391.195312 148.113281 387.132812 148.964844 L 319.09375 163.25 C 315.03125 164.101562 311.046875 161.5 310.195312 157.4375 Z M 306.816406 141.347656 "/>
<path style=" stroke:none;fill-rule:nonzero;fill:rgb(35.686275%,32.941176%,81.568627%);fill-opacity:1;" d="M 350.523438 183.769531 C 346.460938 184.625 342.476562 182.023438 341.621094 177.960938 L 327.339844 109.921875 C 326.484375 105.859375 329.085938 101.875 333.148438 101.019531 L 349.238281 97.640625 C 353.300781 96.789062 357.285156 99.390625 358.140625 103.453125 L 372.425781 171.492188 C 373.277344 175.554688 370.675781 179.539062 366.613281 180.394531 Z M 350.523438 183.769531 "/>
<path style=" stroke:none;fill-rule:nonzero;fill:rgb(100%,100%,100%);fill-opacity:1;" d="M 354.183594 175.570312 C 350.25 176.394531 346.394531 173.878906 345.570312 169.945312 L 334.078125 115.226562 C 333.253906 111.292969 335.773438 107.4375 339.703125 106.613281 L 345.488281 105.398438 C 349.417969 104.574219 353.273438 107.089844 354.101562 111.023438 L 365.589844 165.742188 C 366.414062 169.675781 363.898438 173.53125 359.964844 174.355469 Z M 354.183594 175.570312 "/>
<path style=" stroke:none;fill-rule:nonzero;fill:rgb(100%,100%,100%);fill-opacity:1;" d="M 315.015625 145.007812 C 314.191406 141.074219 316.710938 137.21875 320.640625 136.394531 L 375.363281 124.90625 C 379.292969 124.078125 383.152344 126.597656 383.976562 130.527344 L 385.191406 136.3125 C 386.015625 140.246094 383.496094 144.101562 379.566406 144.925781 L 324.84375 156.414062 C 320.914062 157.238281 317.058594 154.722656 316.230469 150.789062 Z M 315.015625 145.007812 "/>
<path style="fill:none;stroke-width:10;stroke-linecap:square;stroke-linejoin:miter;stroke:rgb(0%,0%,0%);stroke-opacity:0.501961;stroke-miterlimit:10;" d="M 115.17607 153.249103 C 115.133101 153.833088 113.664351 154.018634 110.765914 153.805744 C 107.869429 153.592853 106.443648 153.194416 106.484664 152.612384 L 108.099898 130.585041 L 102.838179 130.200275 C 102.342086 130.163166 102.039351 129.463947 101.931929 128.100666 C 101.892867 127.454181 101.898726 126.794025 101.949507 126.118244 C 101.998336 125.444416 102.088179 124.790119 102.220992 124.157306 C 102.525679 122.823322 102.928023 122.174884 103.424117 122.211994 L 122.512007 123.612384 C 123.008101 123.647541 123.310836 124.348713 123.416304 125.711994 C 123.455367 126.358478 123.451461 127.018634 123.400679 127.692463 C 123.351851 128.366291 123.260054 129.020588 123.127242 129.6534 C 122.822554 130.987384 122.422164 131.635822 121.92607 131.598713 L 116.791304 131.223713 Z M 131.773726 154.907306 C 131.756148 155.139728 130.408492 155.159259 127.728804 154.963947 C 125.053023 154.766681 123.724898 154.565509 123.73857 154.360431 L 125.318648 132.813556 C 125.334273 132.614338 126.678023 132.612384 129.351851 132.807697 C 132.031539 133.004963 133.365523 133.188556 133.353804 133.360431 Z M 133.543257 130.770588 C 133.527632 130.977619 132.179976 130.981525 129.500289 130.784259 C 126.826461 130.588947 125.496382 130.401447 125.510054 130.225666 L 125.972945 123.909259 C 125.994429 123.616291 127.342086 123.569416 130.015914 123.764728 C 132.695601 123.961994 134.029586 124.149494 134.015914 124.325275 Z M 155.603804 156.696369 C 155.588179 156.9034 154.328414 156.913166 151.826461 156.729572 C 149.324507 156.545978 148.08232 156.323322 148.101851 156.061603 L 149.037398 143.290119 C 149.14482 141.827228 148.717086 141.061603 147.750289 140.989338 C 147.254195 140.954181 146.572554 141.227619 145.70732 141.813556 L 144.678023 155.852619 C 144.656539 156.143634 143.39482 156.198322 140.892867 156.014728 C 138.390914 155.831134 137.150679 155.579181 137.174117 155.258869 L 138.226851 140.911213 L 137.129195 140.831134 C 136.164351 140.760822 135.754195 139.7159 135.902632 137.700275 C 135.969039 136.792072 136.213179 135.881916 136.637007 134.969806 C 137.199507 133.719806 138.006148 133.131916 139.058882 133.210041 C 140.109664 133.286213 141.103804 133.637775 142.039351 134.264728 C 142.982711 134.889728 143.537398 135.460041 143.70732 135.971759 C 145.640914 134.499103 147.711226 133.844806 149.916304 134.004963 C 152.129195 134.167072 153.855757 134.983478 155.097945 136.454181 C 156.781539 135.198322 158.732711 134.651447 160.955367 134.815509 C 165.785445 135.169025 167.982711 138.286213 167.55107 144.165119 L 166.574507 157.501056 C 166.558882 157.708088 165.299117 157.717853 162.797164 157.534259 C 160.295211 157.350666 159.053023 157.128009 159.072554 156.866291 L 160.008101 144.094806 C 160.115523 142.631916 159.685836 141.866291 158.720992 141.794025 C 158.195601 141.756916 157.500289 142.030353 156.635054 142.616291 Z M 186.961226 158.032306 C 185.037398 158.975666 182.625289 159.342853 179.728804 159.129963 C 176.83232 158.917072 174.461226 157.753009 172.617476 155.635822 C 170.773726 153.512775 169.980757 150.702228 170.236617 147.206134 C 170.494429 143.710041 171.656539 140.9659 173.726851 138.973713 C 175.804976 136.977619 178.304976 136.086994 181.230757 136.301838 C 184.156539 136.516681 186.361617 137.428791 187.845992 139.036213 C 189.330367 140.643634 189.994429 142.516681 189.838179 144.6534 C 189.490523 149.391681 186.597945 151.55965 181.158492 151.161213 L 178.123336 150.938556 C 178.058882 151.817463 178.254195 152.444416 178.709273 152.817463 C 179.170211 153.188556 179.869429 153.409259 180.806929 153.479572 C 182.857711 153.629963 184.838179 153.303791 186.746382 152.501056 C 186.777632 152.475666 186.89482 152.686603 187.095992 153.137775 C 187.70732 154.452228 187.980757 155.542072 187.916304 156.4034 C 187.853804 157.266681 187.535445 157.80965 186.961226 158.032306 Z M 182.406539 144.944416 C 182.496382 143.7159 181.941695 143.057697 180.742476 142.969806 C 180.187789 142.928791 179.697554 143.063556 179.273726 143.370197 C 178.853804 143.678791 178.621382 144.1534 178.574507 144.794025 L 178.474898 146.155353 L 180.847945 146.329181 C 181.814742 146.401447 182.334273 145.938556 182.406539 144.944416 Z M 182.406539 144.944416 " transform="matrix(2,0,0,2,-180.41464,-210.3693)"/>
<path style=" stroke:none;fill-rule:nonzero;fill:rgb(100%,100%,100%);fill-opacity:1;" d="M 49.9375 96.128906 C 49.851562 97.296875 46.914062 97.667969 41.117188 97.242188 C 35.324219 96.816406 32.472656 96.019531 32.554688 94.855469 L 35.785156 50.800781 L 25.261719 50.03125 C 24.269531 49.957031 23.664062 48.558594 23.449219 45.832031 C 23.371094 44.539062 23.382812 43.21875 23.484375 41.867188 C 23.582031 40.519531 23.761719 39.210938 24.027344 37.945312 C 24.636719 35.277344 25.441406 33.980469 26.433594 34.054688 L 64.609375 36.855469 C 65.601562 36.925781 66.207031 38.328125 66.417969 41.054688 C 66.496094 42.347656 66.488281 43.667969 66.386719 45.015625 C 66.289062 46.363281 66.105469 47.671875 65.839844 48.9375 C 65.230469 51.605469 64.429688 52.902344 63.4375 52.828125 L 53.167969 52.078125 Z M 83.132812 99.445312 C 83.097656 99.910156 80.402344 99.949219 75.042969 99.558594 C 69.691406 99.164062 67.035156 98.761719 67.0625 98.351562 L 70.222656 55.257812 C 70.253906 54.859375 72.941406 54.855469 78.289062 55.246094 C 83.648438 55.640625 86.316406 56.007812 86.292969 56.351562 Z M 86.671875 51.171875 C 86.640625 51.585938 83.945312 51.59375 78.585938 51.199219 C 73.238281 50.808594 70.578125 50.433594 70.605469 50.082031 L 71.53125 37.449219 C 71.574219 36.863281 74.269531 36.769531 79.617188 37.160156 C 84.976562 37.554688 87.644531 37.929688 87.617188 38.28125 Z M 130.792969 103.023438 C 130.761719 103.4375 128.242188 103.457031 123.238281 103.089844 C 118.234375 102.722656 115.75 102.277344 115.789062 101.753906 L 117.660156 76.210938 C 117.875 73.285156 117.019531 71.753906 115.085938 71.609375 C 114.09375 71.539062 112.730469 72.085938 111 73.257812 L 108.941406 101.335938 C 108.898438 101.917969 106.375 102.027344 101.371094 101.660156 C 96.367188 101.292969 93.886719 100.789062 93.933594 100.148438 L 96.039062 71.453125 L 93.84375 71.292969 C 91.914062 71.152344 91.09375 69.0625 91.390625 65.03125 C 91.523438 63.214844 92.011719 61.394531 92.859375 59.570312 C 93.984375 57.070312 95.597656 55.894531 97.703125 56.050781 C 99.804688 56.203125 101.792969 56.90625 103.664062 58.160156 C 105.550781 59.410156 106.660156 60.550781 107 61.574219 C 110.867188 58.628906 115.007812 57.320312 119.417969 57.640625 C 123.84375 57.964844 127.296875 59.597656 129.78125 62.539062 C 133.148438 60.027344 137.050781 58.933594 141.496094 59.261719 C 151.15625 59.96875 155.550781 66.203125 154.6875 77.960938 L 152.734375 104.632812 C 152.703125 105.046875 150.183594 105.066406 145.179688 104.699219 C 140.175781 104.332031 137.691406 103.886719 137.730469 103.363281 L 139.601562 77.820312 C 139.816406 74.894531 138.957031 73.363281 137.027344 73.21875 C 135.976562 73.144531 134.585938 73.691406 132.855469 74.863281 Z M 193.507812 105.695312 C 189.660156 107.582031 184.835938 108.316406 179.042969 107.890625 C 173.25 107.464844 168.507812 105.136719 164.820312 100.902344 C 161.132812 96.65625 159.546875 91.035156 160.058594 84.042969 C 160.574219 77.050781 162.898438 71.5625 167.039062 67.578125 C 171.195312 63.585938 176.195312 61.804688 182.046875 62.234375 C 187.898438 62.664062 192.308594 64.488281 195.277344 67.703125 C 198.246094 70.917969 199.574219 74.664062 199.261719 78.9375 C 198.566406 88.414062 192.78125 92.75 181.902344 91.953125 L 175.832031 91.507812 C 175.703125 93.265625 176.09375 94.519531 177.003906 95.265625 C 177.925781 96.007812 179.324219 96.449219 181.199219 96.589844 C 185.300781 96.890625 189.261719 96.238281 193.078125 94.632812 C 193.140625 94.582031 193.375 95.003906 193.777344 95.90625 C 195 98.535156 195.546875 100.714844 195.417969 102.4375 C 195.292969 104.164062 194.65625 105.25 193.507812 105.695312 Z M 184.398438 79.519531 C 184.578125 77.0625 183.46875 75.746094 181.070312 75.570312 C 179.960938 75.488281 178.980469 75.757812 178.132812 76.371094 C 177.292969 76.988281 176.828125 77.9375 176.734375 79.21875 L 176.535156 81.941406 L 181.28125 82.289062 C 183.214844 82.433594 184.253906 81.507812 184.398438 79.519531 Z M 184.398438 79.519531 "/>
<path style="fill:none;stroke-width:10;stroke-linecap:square;stroke-linejoin:miter;stroke:rgb(0%,0%,0%);stroke-opacity:0.505882;stroke-miterlimit:10;" d="M 189.154586 213.797931 C 191.021773 213.680744 192.681929 213.8409 194.135054 214.2784 C 195.590132 214.710041 196.345992 215.376056 196.402632 216.270588 C 196.459273 217.167072 196.187789 218.295978 195.590132 219.659259 C 194.996382 221.016681 194.469039 221.710041 194.012007 221.739338 C 193.883101 221.74715 193.730757 221.688556 193.554976 221.561603 C 193.379195 221.430744 192.984664 221.301838 192.375289 221.170978 C 191.763961 221.042072 191.240523 220.991291 190.803023 221.018634 C 189.320601 221.112384 188.158492 221.713947 187.316695 222.819416 C 186.472945 223.926838 186.121382 225.563556 186.256148 227.727619 C 186.392867 229.887775 186.961226 231.463947 187.961226 232.454181 C 188.963179 233.444416 190.178023 233.895588 191.609664 233.805744 C 192.197554 233.768634 192.849898 233.643634 193.566695 233.430744 C 194.289351 233.2159 194.795211 232.948322 195.084273 232.624103 C 195.133101 232.569416 195.232711 232.538166 195.383101 232.5284 C 195.537398 232.518634 195.842086 232.790119 196.299117 233.3409 C 196.758101 233.889728 197.199507 234.618244 197.617476 235.530353 C 198.037398 236.442463 198.262007 237.1534 198.295211 237.663166 C 198.357711 238.661213 197.638961 239.504963 196.137007 240.192463 C 194.638961 240.876056 192.840132 241.284259 190.740523 241.417072 C 187.36357 241.629963 184.512007 240.616291 182.185836 238.376056 C 179.857711 236.129963 178.556929 232.838947 178.283492 228.501056 C 178.010054 224.159259 178.912398 220.678791 180.994429 218.055744 C 183.078414 215.428791 185.799117 214.008869 189.154586 213.797931 Z M 194.408492 227.094806 C 193.611617 225.858478 201.556929 224.022541 201.506148 223.2159 C 201.455367 222.411213 201.638961 221.878009 202.056929 221.620197 C 203.478804 220.889728 205.461226 220.442463 208.008101 220.282306 C 210.553023 220.12215 212.388961 220.604572 213.513961 221.729572 C 214.638961 222.850666 215.273726 224.577228 215.422164 226.907306 L 215.804976 232.975666 L 217.109664 232.893634 C 217.547164 232.866291 217.900679 233.100666 218.172164 233.594806 C 218.449507 234.088947 218.615523 234.786213 218.672164 235.686603 C 218.728804 236.583088 218.560836 237.479572 218.164351 238.378009 C 217.773726 239.276447 217.195601 239.749103 216.428023 239.797931 C 215.047164 239.883869 213.910445 239.585041 213.015914 238.895588 C 212.61357 238.612384 212.297164 238.256916 212.064742 237.833088 C 210.978804 239.393634 209.195601 240.253009 206.715132 240.409259 C 204.845992 240.5284 203.228804 239.963947 201.86357 238.7159 C 200.502242 237.463947 199.765914 235.926838 199.650679 234.104572 C 199.387007 229.93465 201.750289 227.692463 206.73857 227.378009 L 208.853804 227.245197 L 208.828414 226.858478 C 208.787398 226.194416 208.650679 225.772541 208.420211 225.594806 C 208.189742 225.415119 207.678023 225.350666 206.885054 225.399494 C 205.912398 225.461994 194.408492 227.094806 194.408492 227.094806 Z M 206.295211 233.149494 C 206.330367 233.711994 206.510054 234.129963 206.83232 234.407306 C 207.160445 234.682697 207.558882 234.805744 208.031539 234.776447 C 208.506148 234.74715 208.92607 234.526447 209.287398 234.116291 L 209.099898 231.159259 L 208.025679 231.227619 C 206.797164 231.305744 206.219039 231.946369 206.295211 233.149494 Z M 228.058882 238.366291 C 228.072554 238.598713 226.775679 238.795978 224.166304 238.960041 C 222.115523 239.063556 221.084273 239.026447 221.072554 238.846759 L 219.424117 212.702228 C 219.400679 212.315509 220.629195 212.045978 223.109664 211.887775 C 225.291304 211.829181 226.388961 211.887775 226.400679 212.067463 Z M 237.226851 228.540119 C 237.385054 231.047931 238.412398 232.241291 240.304976 232.12215 C 241.535445 232.044025 242.545211 231.737384 243.33232 231.202228 C 243.719039 231.176838 244.072554 231.817463 244.396773 233.12215 C 244.722945 234.422931 244.902632 235.30965 244.931929 235.786213 C 244.961226 236.256916 244.916304 236.575275 244.799117 236.737384 C 243.496382 237.667072 241.668257 238.206134 239.310836 238.354572 C 236.959273 238.503009 234.898726 237.753009 233.135054 236.104572 C 231.373336 234.450275 230.398726 232.110431 230.20732 229.079181 C 230.015914 226.045978 230.674117 223.542072 232.179976 221.571369 C 233.689742 219.600666 235.795211 218.530353 238.496382 218.360431 C 241.195601 218.188556 243.111617 218.721759 244.244429 219.960041 C 244.492476 220.227619 244.635054 220.637775 244.670211 221.190509 C 244.703414 221.739338 244.642867 222.417072 244.48857 223.221759 C 244.133101 224.887775 243.590132 225.874103 242.861617 226.176838 C 242.760054 226.210041 242.61357 226.231525 242.420211 226.243244 C 242.230757 226.256916 241.986617 226.116291 241.683882 225.825275 C 240.621382 224.889728 239.789351 224.442463 239.183882 224.479572 C 238.584273 224.516681 238.086226 224.858478 237.687789 225.503009 C 237.293257 226.143634 237.138961 227.155353 237.226851 228.540119 Z M 246.42607 218.471759 C 246.408492 218.194416 247.498336 217.985431 249.697554 217.846759 C 251.898726 217.708088 253.010054 217.7784 253.027632 218.055744 L 253.734664 229.266681 C 253.814742 230.547931 254.263961 231.163166 255.08232 231.112384 C 255.699507 231.073322 256.375289 230.760822 257.109664 230.176838 L 256.330367 217.848713 C 256.314742 217.594806 257.392867 217.399494 259.566695 217.262775 C 261.744429 217.126056 262.840132 217.182697 262.855757 217.436603 L 263.650679 230.030353 L 264.652632 229.9659 C 265.523726 229.911213 266.010054 230.717853 266.115523 232.383869 C 266.168257 233.229572 266.043257 234.096759 265.73857 234.989338 C 265.299117 236.149494 264.64482 236.756916 263.775679 236.811603 C 262.056929 236.919025 260.742476 236.294025 259.836226 234.936603 L 259.799117 234.977619 C 258.326461 236.460041 256.695601 237.256916 254.902632 237.370197 C 252.418257 237.5284 250.547164 237.022541 249.289351 235.852619 C 248.037398 234.68465 247.320601 232.667072 247.138961 229.799884 Z M 275.670211 235.364338 C 275.685836 235.594806 274.387007 235.794025 271.777632 235.958088 C 269.726851 236.061603 268.697554 236.022541 268.685836 235.842853 L 267.035445 209.698322 C 267.012007 209.313556 268.240523 209.042072 270.720992 208.885822 C 272.904586 208.825275 274.000289 208.885822 274.012007 209.065509 Z M 280.683882 221.366291 C 279.887007 220.129963 279.465132 219.108478 279.412398 218.301838 C 279.361617 217.49715 279.547164 216.963947 279.965132 216.706134 C 281.385054 215.975666 283.369429 215.530353 285.914351 215.368244 C 288.461226 215.208088 290.295211 215.690509 291.420211 216.815509 C 292.545211 217.936603 293.181929 219.663166 293.328414 221.995197 L 293.711226 228.063556 L 295.015914 227.979572 C 295.453414 227.952228 295.808882 228.186603 296.080367 228.680744 C 296.355757 229.174884 296.523726 229.87215 296.580367 230.772541 C 296.637007 231.669025 296.467086 232.565509 296.072554 233.463947 C 295.681929 234.362384 295.101851 234.835041 294.334273 234.883869 C 292.955367 234.971759 291.816695 234.670978 290.922164 233.983478 C 290.521773 233.698322 290.203414 233.342853 289.970992 232.919025 C 288.887007 234.481525 287.103804 235.3409 284.621382 235.49715 C 282.754195 235.614338 281.137007 235.049884 279.771773 233.801838 C 278.410445 232.549884 277.672164 231.012775 277.556929 229.190509 C 277.295211 225.020588 279.656539 222.7784 284.64482 222.463947 L 286.760054 222.331134 L 286.736617 221.944416 C 286.693648 221.280353 286.556929 220.858478 286.326461 220.680744 C 286.095992 220.501056 285.584273 220.436603 284.791304 220.487384 C 283.818648 220.547931 282.449507 220.8409 280.683882 221.366291 Z M 284.203414 228.235431 C 284.23857 228.797931 284.416304 229.2159 284.740523 229.493244 C 285.066695 229.768634 285.467086 229.893634 285.937789 229.862384 C 286.414351 229.833088 286.83232 229.612384 287.193648 229.202228 L 287.008101 226.245197 L 285.933882 226.313556 C 284.703414 226.391681 284.127242 227.032306 284.203414 228.235431 Z M 307.814742 233.413166 C 307.834273 233.721759 306.76982 233.944416 304.617476 234.081134 C 302.053023 234.139728 300.762007 234.051838 300.748336 233.821369 L 299.890914 220.231525 L 297.929976 220.354572 C 297.416304 220.387775 297.103804 219.520588 296.992476 217.754963 C 296.963179 217.292072 296.972945 216.725666 297.01982 216.055744 C 297.068648 215.381916 297.232711 215.036213 297.515914 215.018634 L 299.554976 214.889728 L 299.342086 211.514728 C 299.308882 211.001056 300.373336 210.674884 302.533492 210.538166 C 304.697554 210.401447 305.791304 210.540119 305.818648 210.950275 L 305.972945 213.407306 L 306.078414 214.477619 L 309.344039 214.272541 C 309.777632 214.245197 310.05107 215.128009 310.164351 216.924884 C 310.277632 218.7159 310.117476 219.626056 309.683882 219.6534 L 306.959273 219.825275 Z M 320.138961 232.637775 C 320.152632 232.842853 318.986617 233.018634 316.642867 233.167072 C 314.303023 233.315509 313.127242 233.297931 313.115523 233.118244 L 311.92607 214.264728 C 311.914351 214.088947 313.080367 213.926838 315.420211 213.7784 C 317.763961 213.631916 318.939742 213.631916 318.949507 213.782306 Z M 318.806929 211.518634 C 318.818648 211.700275 317.652632 211.864338 315.306929 212.010822 C 312.967086 212.159259 311.793257 212.155353 311.783492 212.001056 L 311.433882 206.473713 C 311.418257 206.2159 312.580367 206.012775 314.920211 205.866291 C 317.263961 205.717853 318.441695 205.721759 318.451461 205.876056 Z M 325.131148 230.282306 C 323.422164 228.612384 322.469039 226.217853 322.271773 223.098713 C 322.074507 219.975666 322.719039 217.479572 324.20732 215.612384 C 325.697554 213.745197 327.80107 212.727619 330.513961 212.555744 C 333.226851 212.385822 335.429976 213.131916 337.127242 214.797931 C 338.828414 216.463947 339.777632 218.858478 339.974898 221.981525 C 340.172164 225.102619 339.531539 227.596759 338.053023 229.467853 C 336.578414 231.333088 334.484664 232.350666 331.771773 232.522541 C 329.058882 232.694416 326.845992 231.946369 325.131148 230.282306 Z M 330.935836 218.963947 C 329.492476 219.055744 324.762007 215.516681 324.910445 217.874103 C 325.058882 220.225666 329.937789 226.120197 331.383101 226.0284 C 332.830367 225.936603 333.480757 224.7159 333.33232 222.362384 C 333.183882 220.004963 332.385054 218.87215 330.935836 218.963947 Z M 351.314742 230.670978 C 351.326461 230.850666 350.410445 230.999103 348.568648 231.114338 C 346.004195 231.198322 344.717086 231.137775 344.703414 230.932697 L 343.918257 218.493244 L 342.916304 218.557697 C 342.252242 218.598713 341.781539 218.063556 341.504195 216.948322 C 341.431929 216.62215 341.385054 216.292072 341.365523 215.956134 C 341.314742 215.165119 341.418257 214.362384 341.678023 213.549884 C 342.068648 212.393634 342.752242 211.784259 343.724898 211.723713 C 344.697554 211.661213 345.58232 211.838947 346.377242 212.253009 C 347.174117 212.663166 347.715132 213.088947 348.002242 213.530353 C 349.525679 212.049884 351.400679 211.239338 353.623336 211.098713 C 355.851851 210.958088 357.504195 211.458088 358.578414 212.598713 C 359.652632 213.737384 360.275679 215.674884 360.449507 218.413166 L 361.17607 229.932697 C 361.195601 230.241291 360.109664 230.463947 357.920211 230.602619 C 355.734664 230.739338 354.631148 230.655353 354.611617 230.346759 L 353.912398 219.251056 C 353.83232 217.969806 353.344039 217.356525 352.447554 217.413166 C 352.189742 217.430744 351.838179 217.561603 351.388961 217.80965 C 350.943648 218.057697 350.660445 218.235431 350.537398 218.346759 Z M 364.83232 223.112384 C 366.984664 224.237384 368.664351 224.760822 369.867476 224.686603 C 370.635054 224.637775 371.002242 224.342853 370.967086 223.803791 C 370.943648 223.420978 370.246382 222.963947 368.873336 222.430744 C 365.594039 221.331134 363.861617 219.294025 363.674117 216.325275 C 363.554976 214.430744 364.152632 212.940509 365.470992 211.854572 C 366.791304 210.768634 368.418257 210.165119 370.351851 210.044025 C 372.285445 209.920978 373.933882 210.024494 375.30107 210.350666 C 376.674117 210.672931 377.379195 211.167072 377.422164 211.831134 C 377.45732 212.395588 377.228804 213.157306 376.732711 214.114338 C 376.242476 215.069416 375.896773 215.592853 375.695601 215.682697 C 374.554976 215.135822 373.347945 214.901447 372.070601 214.981525 C 371.379195 215.026447 371.05107 215.292072 371.08232 215.780353 C 371.099898 216.085041 371.250289 216.336994 371.529586 216.540119 C 371.812789 216.741291 372.322554 216.979572 373.058882 217.256916 C 373.795211 217.5284 374.406539 217.7784 374.89482 218.004963 C 375.385054 218.231525 375.941695 218.555744 376.562789 218.977619 C 377.853804 219.87215 378.549117 221.102619 378.646773 222.667072 C 378.775679 224.711994 378.201461 226.411213 376.922164 227.764728 C 375.64482 229.118244 373.635054 229.881916 370.896773 230.055744 C 369.080367 230.169025 367.408492 229.967853 365.883101 229.448322 C 364.361617 228.924884 363.566695 228.126056 363.498336 227.049884 C 363.453414 226.333088 363.580367 225.569416 363.877242 224.753009 C 364.174117 223.938556 364.492476 223.391681 364.83232 223.112384 Z M 364.83232 223.112384 " transform="matrix(2,0,0,2,-180.41464,-210.3693)"/>
<path style=" stroke:none;fill-rule:nonzero;fill:rgb(100%,100%,100%);fill-opacity:1;" d="M 197.894531 217.226562 C 201.628906 216.992188 204.949219 217.3125 207.855469 218.1875 C 210.765625 219.050781 212.277344 220.382812 212.390625 222.171875 C 212.503906 223.964844 211.960938 226.222656 210.765625 228.949219 C 209.578125 231.664062 208.523438 233.050781 207.609375 233.109375 C 207.351562 233.125 207.046875 233.007812 206.695312 232.753906 C 206.34375 232.492188 205.554688 232.234375 204.335938 231.972656 C 203.113281 231.714844 202.066406 231.613281 201.191406 231.667969 C 198.226562 231.855469 195.902344 233.058594 194.21875 235.269531 C 192.53125 237.484375 191.828125 240.757812 192.097656 245.085938 C 192.371094 249.40625 193.507812 252.558594 195.507812 254.539062 C 197.511719 256.519531 199.941406 257.421875 202.804688 257.242188 C 203.980469 257.167969 205.285156 256.917969 206.71875 256.492188 C 208.164062 256.0625 209.175781 255.527344 209.753906 254.878906 C 209.851562 254.769531 210.050781 254.707031 210.351562 254.6875 C 210.660156 254.667969 211.269531 255.210938 212.183594 256.3125 C 213.101562 257.410156 213.984375 258.867188 214.820312 260.691406 C 215.660156 262.515625 216.109375 263.9375 216.171875 264.957031 C 216.300781 266.953125 214.863281 268.640625 211.859375 270.015625 C 208.863281 271.382812 205.265625 272.199219 201.066406 272.464844 C 194.3125 272.890625 188.609375 270.863281 183.957031 266.382812 C 179.300781 261.890625 176.699219 255.308594 176.152344 246.632812 C 175.605469 237.949219 177.410156 230.988281 181.574219 225.742188 C 185.742188 220.488281 191.183594 217.648438 197.894531 217.226562 Z M 225.140625 242.1875 C 223.546875 239.714844 222.699219 237.675781 222.597656 236.0625 C 222.496094 234.453125 222.863281 233.386719 223.699219 232.871094 C 226.542969 231.410156 230.507812 230.515625 235.601562 230.195312 C 240.691406 229.875 244.363281 230.839844 246.613281 233.089844 C 248.863281 235.332031 250.132812 238.785156 250.429688 243.445312 L 251.195312 255.582031 L 253.804688 255.417969 C 254.679688 255.363281 255.386719 255.832031 255.929688 256.820312 C 256.484375 257.808594 256.816406 259.203125 256.929688 261.003906 C 257.042969 262.796875 256.707031 264.589844 255.914062 266.386719 C 255.132812 268.183594 253.976562 269.128906 252.441406 269.226562 C 249.679688 269.398438 247.40625 268.800781 245.617188 267.421875 C 244.8125 266.855469 244.179688 266.144531 243.714844 265.296875 C 241.542969 268.421875 237.976562 270.136719 233.015625 270.449219 C 229.277344 270.6875 226.042969 269.558594 223.3125 267.0625 C 220.589844 264.558594 219.117188 261.484375 218.886719 257.839844 C 218.359375 249.5 223.085938 245.015625 233.0625 244.386719 L 237.292969 244.121094 L 237.242188 243.347656 C 237.160156 242.019531 236.886719 241.175781 236.425781 240.820312 C 235.964844 240.460938 234.941406 240.332031 233.355469 240.429688 C 231.410156 240.554688 228.671875 241.140625 225.140625 242.1875 Z M 232.175781 255.929688 C 232.246094 257.054688 232.605469 257.890625 233.25 258.445312 C 233.90625 258.996094 234.703125 259.242188 235.648438 259.183594 C 236.597656 259.125 237.4375 258.683594 238.160156 257.863281 L 237.785156 251.949219 L 235.636719 252.085938 C 233.179688 252.242188 232.023438 253.523438 232.175781 255.929688 Z M 275.703125 266.363281 C 275.730469 266.828125 273.136719 267.222656 267.917969 267.550781 C 263.816406 267.757812 261.753906 267.683594 261.730469 267.324219 L 258.433594 215.035156 C 258.386719 214.261719 260.84375 213.722656 265.804688 213.40625 C 270.167969 213.289062 272.363281 213.40625 272.386719 213.765625 Z M 294.039062 246.710938 C 294.355469 251.726562 296.410156 254.113281 300.195312 253.875 C 302.65625 253.71875 304.675781 253.105469 306.25 252.035156 C 307.023438 251.984375 307.730469 253.265625 308.378906 255.875 C 309.03125 258.476562 309.390625 260.25 309.449219 261.203125 C 309.507812 262.144531 309.417969 262.78125 309.183594 263.105469 C 306.578125 264.964844 302.921875 266.042969 298.207031 266.339844 C 293.503906 266.636719 289.382812 265.136719 285.855469 261.839844 C 282.332031 258.53125 280.382812 253.851562 280 247.789062 C 279.617188 241.722656 280.933594 236.714844 283.945312 232.773438 C 286.964844 228.832031 291.175781 226.691406 296.578125 226.351562 C 301.976562 226.007812 305.808594 227.074219 308.074219 229.550781 C 308.570312 230.085938 308.855469 230.90625 308.925781 232.011719 C 308.992188 233.109375 308.871094 234.464844 308.5625 236.074219 C 307.851562 239.40625 306.765625 241.378906 305.308594 241.984375 C 305.105469 242.050781 304.8125 242.09375 304.425781 242.117188 C 304.046875 242.144531 303.558594 241.863281 302.953125 241.28125 C 300.828125 239.410156 299.164062 238.515625 297.953125 238.589844 C 296.753906 238.664062 295.757812 239.347656 294.960938 240.636719 C 294.171875 241.917969 293.863281 243.941406 294.039062 246.710938 Z M 312.4375 226.574219 C 312.402344 226.019531 314.582031 225.601562 318.980469 225.324219 C 323.382812 225.046875 325.605469 225.1875 325.640625 225.742188 L 327.054688 248.164062 C 327.214844 250.726562 328.113281 251.957031 329.75 251.855469 C 330.984375 251.777344 332.335938 251.152344 333.804688 249.984375 L 332.246094 225.328125 C 332.214844 224.820312 334.371094 224.429688 338.71875 224.15625 C 343.074219 223.882812 345.265625 223.996094 345.296875 224.503906 L 346.886719 249.691406 L 348.890625 249.5625 C 350.632812 249.453125 351.605469 251.066406 351.816406 254.398438 C 351.921875 256.089844 351.671875 257.824219 351.0625 259.609375 C 350.183594 261.929688 348.875 263.144531 347.136719 263.253906 C 343.699219 263.46875 341.070312 262.21875 339.257812 259.503906 L 339.183594 259.585938 C 336.238281 262.550781 332.976562 264.144531 329.390625 264.371094 C 324.421875 264.6875 320.679688 263.675781 318.164062 261.335938 C 315.660156 259 314.226562 254.964844 313.863281 249.230469 Z M 370.925781 260.359375 C 370.957031 260.820312 368.359375 261.21875 363.140625 261.546875 C 359.039062 261.753906 356.980469 261.675781 356.957031 261.316406 L 353.65625 209.027344 C 353.609375 208.257812 356.066406 207.714844 361.027344 207.402344 C 365.394531 207.28125 367.585938 207.402344 367.609375 207.761719 Z M 380.953125 232.363281 C 379.359375 229.890625 378.515625 227.847656 378.410156 226.234375 C 378.308594 224.625 378.679688 223.558594 379.515625 223.042969 C 382.355469 221.582031 386.324219 220.691406 391.414062 220.367188 C 396.507812 220.046875 400.175781 221.011719 402.425781 223.261719 C 404.675781 225.503906 405.949219 228.957031 406.242188 233.621094 L 407.007812 245.757812 L 409.617188 245.589844 C 410.492188 245.535156 411.203125 246.003906 411.746094 246.992188 C 412.296875 247.980469 412.632812 249.375 412.746094 251.175781 C 412.859375 252.96875 412.519531 254.761719 411.730469 256.558594 C 410.949219 258.355469 409.789062 259.300781 408.253906 259.398438 C 405.496094 259.574219 403.21875 258.972656 401.429688 257.597656 C 400.628906 257.027344 399.992188 256.316406 399.527344 255.46875 C 397.359375 258.59375 393.792969 260.3125 388.828125 260.625 C 385.09375 260.859375 381.859375 259.730469 379.128906 257.234375 C 376.40625 254.730469 374.929688 251.65625 374.699219 248.011719 C 374.175781 239.671875 378.898438 235.1875 388.875 234.558594 L 393.105469 234.292969 L 393.058594 233.519531 C 392.972656 232.191406 392.699219 231.347656 392.238281 230.992188 C 391.777344 230.632812 390.753906 230.503906 389.167969 230.605469 C 387.222656 230.726562 384.484375 231.3125 380.953125 232.363281 Z M 387.992188 246.101562 C 388.0625 247.226562 388.417969 248.0625 389.066406 248.617188 C 389.71875 249.167969 390.519531 249.417969 391.460938 249.355469 C 392.414062 249.296875 393.25 248.855469 393.972656 248.035156 L 393.601562 242.121094 L 391.453125 242.257812 C 388.992188 242.414062 387.839844 243.695312 387.992188 246.101562 Z M 435.214844 256.457031 C 435.253906 257.074219 433.125 257.519531 428.820312 257.792969 C 423.691406 257.910156 421.109375 257.734375 421.082031 257.273438 L 419.367188 230.09375 L 415.445312 230.339844 C 414.417969 230.40625 413.792969 228.671875 413.570312 225.140625 C 413.511719 224.214844 413.53125 223.082031 413.625 221.742188 C 413.722656 220.394531 414.050781 219.703125 414.617188 219.667969 L 418.695312 219.410156 L 418.269531 212.660156 C 418.203125 211.632812 420.332031 210.980469 424.652344 210.707031 C 428.980469 210.433594 431.167969 210.710938 431.222656 211.53125 L 431.53125 216.445312 L 431.742188 218.585938 L 438.273438 218.175781 C 439.140625 218.121094 439.6875 219.886719 439.914062 223.480469 C 440.140625 227.0625 439.820312 228.882812 438.953125 228.9375 L 433.503906 229.28125 Z M 459.863281 254.90625 C 459.890625 255.316406 457.558594 255.667969 452.871094 255.964844 C 448.191406 256.261719 445.839844 256.226562 445.816406 255.867188 L 443.4375 218.160156 C 443.414062 217.808594 445.746094 217.484375 450.425781 217.1875 C 455.113281 216.894531 457.464844 216.894531 457.484375 217.195312 Z M 457.199219 212.667969 C 457.222656 213.03125 454.890625 213.359375 450.199219 213.652344 C 445.519531 213.949219 443.171875 213.941406 443.152344 213.632812 L 442.453125 202.578125 C 442.421875 202.0625 444.746094 201.65625 449.425781 201.363281 C 454.113281 201.066406 456.46875 201.074219 456.488281 201.382812 Z M 469.847656 250.195312 C 466.429688 246.855469 464.523438 242.066406 464.128906 235.828125 C 463.734375 229.582031 465.023438 224.589844 468 220.855469 C 470.980469 217.121094 475.1875 215.085938 480.613281 214.742188 C 486.039062 214.402344 490.445312 215.894531 493.839844 219.226562 C 497.242188 222.558594 499.140625 227.347656 499.535156 233.59375 C 499.929688 239.835938 498.648438 244.824219 495.691406 248.566406 C 492.742188 252.296875 488.554688 254.332031 483.128906 254.675781 C 477.703125 255.019531 473.277344 253.523438 469.847656 250.195312 Z M 481.457031 227.558594 C 478.570312 227.742188 477.273438 230.1875 477.570312 234.902344 C 477.867188 239.609375 479.460938 241.871094 482.351562 241.6875 C 485.246094 241.503906 486.546875 239.0625 486.25 234.355469 C 485.953125 229.640625 484.355469 227.375 481.457031 227.558594 Z M 522.214844 250.972656 C 522.238281 251.332031 520.40625 251.628906 516.722656 251.859375 C 511.59375 252.027344 509.019531 251.90625 508.992188 251.496094 L 507.421875 226.617188 L 505.417969 226.746094 C 504.089844 226.828125 503.148438 225.757812 502.59375 223.527344 C 502.449219 222.875 502.355469 222.214844 502.316406 221.542969 C 502.214844 219.960938 502.421875 218.355469 502.941406 216.730469 C 503.722656 214.417969 505.089844 213.199219 507.035156 213.078125 C 508.980469 212.953125 510.75 213.308594 512.339844 214.136719 C 513.933594 214.957031 515.015625 215.808594 515.589844 216.691406 C 518.636719 213.730469 522.386719 212.109375 526.832031 211.828125 C 531.289062 211.546875 534.59375 212.546875 536.742188 214.828125 C 538.890625 217.105469 540.136719 220.980469 540.484375 226.457031 L 541.9375 249.496094 C 541.976562 250.113281 539.804688 250.558594 535.425781 250.835938 C 531.054688 251.109375 528.847656 250.941406 528.808594 250.324219 L 527.410156 228.132812 C 527.25 225.570312 526.273438 224.34375 524.480469 224.457031 C 523.964844 224.492188 523.261719 224.753906 522.363281 225.25 C 521.472656 225.746094 520.90625 226.101562 520.660156 226.324219 Z M 549.25 235.855469 C 553.554688 238.105469 556.914062 239.152344 559.320312 239.003906 C 560.855469 238.90625 561.589844 238.316406 561.519531 237.238281 C 561.472656 236.472656 560.078125 235.558594 557.332031 234.492188 C 550.773438 232.292969 547.308594 228.21875 546.933594 222.28125 C 546.695312 218.492188 547.890625 215.511719 550.527344 213.339844 C 553.167969 211.167969 556.421875 209.960938 560.289062 209.71875 C 564.152344 209.472656 567.453125 209.679688 570.1875 210.332031 C 572.933594 210.976562 574.34375 211.964844 574.429688 213.292969 C 574.5 214.421875 574.042969 215.945312 573.050781 217.859375 C 572.070312 219.769531 571.378906 220.816406 570.976562 220.996094 C 568.695312 219.902344 566.28125 219.433594 563.726562 219.59375 C 562.34375 219.683594 561.6875 220.214844 561.746094 221.191406 C 561.785156 221.800781 562.085938 222.304688 562.644531 222.710938 C 563.210938 223.113281 564.230469 223.589844 565.703125 224.144531 C 567.175781 224.6875 568.398438 225.1875 569.375 225.640625 C 570.355469 226.09375 571.46875 226.742188 572.710938 227.585938 C 575.292969 229.375 576.683594 231.835938 576.878906 234.964844 C 577.136719 239.054688 575.988281 242.453125 573.429688 245.160156 C 570.875 247.867188 566.855469 249.394531 561.378906 249.742188 C 557.746094 249.96875 554.402344 249.566406 551.351562 248.527344 C 548.308594 247.480469 546.71875 245.882812 546.582031 243.730469 C 546.492188 242.296875 546.746094 240.769531 547.339844 239.136719 C 547.933594 237.507812 548.570312 236.414062 549.25 235.855469 Z M 549.25 235.855469 "/>
</g>
</svg>
