<svg xmlns="http://www.w3.org/2000/svg" viewBox="0 0 600 300">
  <rect x="379.447" y="287.022" width="599.999" height="300.002" style="fill: rgb(46, 46, 46); transform-box: fill-box; transform-origin: 50% 50%;" transform="matrix(1, -0.000005, 0.000005, 1, -379.44674, -287.022464)"></rect>
  <rect width="550" height="250" rx="10" ry="10" style="fill: rgb(51, 51, 51);" y="25" x="25"></rect>
  <g transform="matrix(0.194489, 0, 0, 0.195644, 237.664634, 63.60787)" style="">
    <path d="M 773.23 362.44 C 792.828 349.026 813.872 337.942 834.434 325.894 L 834.434 301.798 C 816.603 261.637 798.049 222.441 781.343 182.121 C 771.705 158.828 757.97 152.322 734.676 161.719 C 695.399 177.783 667.368 170.555 634.437 136.418 C 597.409 98.025 574.598 66.058 597.248 13.127 C 600.461 5.737 591.867 -13.941 583.834 -17.717 C 549.798 -34.595 507.052 -52.504 463.181 -68.031 C 446.406 -73.62 426.006 -62.697 421.668 -53.62 C 401.106 -9.444 371.95 2.202 321.589 2.604 C 271.229 3.006 239.181 -7.838 217.977 -54.182 C 213.88 -63.178 191.31 -71.773 181.19 -68.479 C 141.03 -55.387 101.754 -37.555 62.316 -21.491 C 43.602 -13.861 36.372 -2.616 42.557 19.151 C 48.743 40.918 60.71 72.564 51.072 87.905 C 29.166 120.362 2.187 147.546 -29.03 169.008 C -41.939 178.185 -69.248 170.395 -87.24 163.889 C -118.32 152.563 -134.47 163.407 -145.47 191.599 C -160.89 231.358 -177.6 270.553 -193.66 310.071 L -193.66 326.135 C -190.84 326.743 -188.35 327.656 -186.03 328.864 C -162.1 345.412 -125.31 357.7 -117.84 379.949 C -106.12 414.727 -111.74 456.574 -115.67 494.807 C -116.8 506.133 -136.24 516.574 -148.77 525.329 C -162.82 535.128 -178.64 542.597 -193.66 551.031 L -193.66 567.095 C -175.59 609.825 -157.04 652.395 -139.53 695.606 C -130.05 718.738 -115.43 724.923 -92.3 715.445 C -52.944 699.381 -25.233 706.931 7.457 740.826 C 44.405 779.219 65.689 811.668 44.887 864.359 C 41.835 872.391 52.436 892.069 61.674 896.487 C 101.352 917.129 142.957 934.157 183.76 952.711 L 207.857 952.711 C 231.953 862.511 305.606 874.078 372.754 874.399 C 380.787 874.399 391.309 883.475 396.851 891.105 C 410.184 910.784 420.947 932.069 433.075 952.63 L 457.172 952.63 C 497.332 934.88 536.689 916.566 576.929 899.619 C 599.901 889.981 604.881 876.246 597.732 852.311 C 591.387 831.347 581.668 801.628 590.664 788.055 C 612.726 755.896 640.108 729.127 671.805 708.413 C 687.289 698.579 716.847 708.939 737.971 715.767 C 761.103 722.996 772.669 716.41 781.505 695.606 C 798.613 655.446 816.925 615.687 834.677 575.769 L 834.677 551.672 C 750.501 503.481 742.711 487.417 756.364 387.016 C 758.777 376.728 764.844 368.148 773.091 362.529 L 773.23 362.44 Z M 311.871 794.322 C 109.385 789.342 -40.734 627.336 -34.71 420.271 C -29.168 229.912 134.685 76.982 327.533 82.283 C 528.334 87.825 681.665 247.341 677.006 445.972 C 673.939 639.152 516.618 794.577 322.997 794.577 C 319.084 794.577 315.186 794.514 311.305 794.388 L 311.871 794.322 Z" style="stroke-width: 1; fill: rgb(255, 255, 255);"></path>
    <path d="M 542.068 609.263 C 536.365 565.167 526.727 532.477 485.844 515.209 C 454.179 502.088 426.9 485.172 402.861 464.583 C 361.187 428.062 322.955 387.099 283.919 346.457 C 272.342 334.607 263.349 320.178 257.888 304.117 C 240.788 247.101 224.081 232.804 157.255 227.503 L 207.776 285.896 L 160.709 338.184 L 95.167 281.237 C 103.2 328.063 108.34 369.589 151.391 378.906 C 191.552 386.939 217.254 411.034 243.439 437.46 C 280.868 475.612 319.422 512.56 355.887 551.435 C 367.299 563.409 376.136 577.947 381.442 594.088 C 397.733 648.944 416.929 664.686 483.033 668.863 L 432.432 611.273 C 470.986 557.378 470.986 557.378 542.068 609.264 L 542.068 609.263 Z" style="stroke-width: 1; fill: rgb(255, 255, 255);"></path>
    <path d="M 301.189 521.313 C 279.502 533.28 258.137 545.971 236.933 558.501 L 228.258 550.469 C 237.147 540.098 245.761 528.677 253.648 516.731 C 258.68 506.469 262.35 495.938 264.909 484.981 C 253.923 486.901 244.26 490.575 235.078 495.077 C 222.716 502.679 210.749 512.478 195.89 523.241 C 185.77 485.732 244.082 478.342 224.082 439.468 C 182.637 479.628 144.887 513.281 110.107 550.068 C 84.565 577.056 89.867 605.65 115.489 631.513 C 144.404 660.749 172.998 666.452 200.146 641.391 C 238.218 606.211 272.435 567.337 309.06 529.907 C 306.249 526.694 301.911 520.911 301.189 521.313 L 301.189 521.313 Z" style="stroke-width: 1; fill: rgb(255, 255, 255);"></path>
    <path d="M 372.272 356.978 L 393.718 376.657 L 551.787 240.515 L 507.45 199.631 L 372.272 356.978 Z" style="stroke-width: 1; fill: rgb(255, 255, 255);"></path>
    <path d="M 423.676 432.238 L 347.211 357.46 L 419.5 437.057 L 423.676 432.238 Z" style="stroke-width: 1; fill: rgb(255, 255, 255);"></path>
    <path d="M 318.216 325.412 L 316.128 327.019 L 347.212 357.46 L 318.216 325.412 Z" style="stroke-width: 1; fill: rgb(255, 255, 255);"></path>
  </g>
</svg>