<?xml version="1.0" encoding="UTF-8"?>
<svg xmlns="http://www.w3.org/2000/svg" xmlns:xlink="http://www.w3.org/1999/xlink" width="1828px" height="914px" viewBox="0 0 1828 914" version="1.1">
<defs>
<linearGradient id="linear0" gradientUnits="userSpaceOnUse" x1="240.00001" y1="105.24803" x2="240.00001" y2="254.75197" gradientTransform="matrix(6.093333,0,0,6.093333,-549.052474,-641.311329)">
<stop offset="0" style="stop-color:rgb(63.921569%,27.843137%,91.372549%);stop-opacity:1;"/>
<stop offset="1" style="stop-color:rgb(56.470588%,24.313725%,81.176471%);stop-opacity:1;"/>
</linearGradient>
</defs>
<g id="surface1">
<path style=" stroke:none;fill-rule:nonzero;fill:url(#linear0);" d="M 0 910.976562 L 0 0 L 1826.695312 0 L 1826.695312 910.976562 Z M 0 910.976562 "/>
<path style="fill:none;stroke-width:17.5;stroke-linecap:round;stroke-linejoin:miter;stroke:rgb(100%,100%,100%);stroke-opacity:1;stroke-miterlimit:10;" d="M 148.514279 165.860508 L 194.443701 153.133355 L 240.373765 158.293324 L 285.793537 130.776058 L 331.723601 143.158956 " transform="matrix(6.093333,0,0,6.093333,-549.052474,-641.311329)"/>
<path style="fill:none;stroke-width:16.5;stroke-linecap:round;stroke-linejoin:miter;stroke:rgb(100%,100%,100%);stroke-opacity:1;stroke-miterlimit:10;" d="M 321.953702 125.721866 L 338.406109 144.008373 L 315.693659 153.038477 " transform="matrix(6.093333,0,0,6.093333,-549.052474,-641.311329)"/>
<path style="fill:none;stroke-width:13;stroke-linecap:round;stroke-linejoin:miter;stroke:rgb(53.72549%,23.137255%,77.254902%);stroke-opacity:1;stroke-miterlimit:10;" d="M 148.514279 165.860508 L 194.443701 153.133355 L 240.373765 158.293324 L 285.793537 130.776058 L 331.723601 143.158956 " transform="matrix(6.093333,0,0,6.093333,-549.052474,-641.311329)"/>
<path style="fill:none;stroke-width:13;stroke-linecap:round;stroke-linejoin:miter;stroke:rgb(53.72549%,23.137255%,77.254902%);stroke-opacity:1;stroke-miterlimit:10;" d="M 321.953702 125.721866 L 338.406109 144.008373 L 315.693659 153.038477 " transform="matrix(6.093333,0,0,6.093333,-549.052474,-641.311329)"/>
<path style="fill:none;stroke-width:7.5;stroke-linecap:round;stroke-linejoin:miter;stroke:rgb(65.490196%,35.686275%,88.235294%);stroke-opacity:1;stroke-miterlimit:10;" d="M 321.953702 125.721866 L 338.406109 144.008373 L 315.693659 153.038477 " transform="matrix(6.093333,0,0,6.093333,-549.052474,-641.311329)"/>
<path style="fill:none;stroke-width:7.5;stroke-linecap:round;stroke-linejoin:miter;stroke:rgb(65.490196%,35.686275%,88.235294%);stroke-opacity:1;stroke-miterlimit:10;" d="M 148.514279 165.860508 L 194.443701 153.133355 L 240.373765 158.293324 L 285.793537 130.776058 L 331.723601 143.158956 " transform="matrix(6.093333,0,0,6.093333,-549.052474,-641.311329)"/>
<path style="fill-rule:nonzero;fill:rgb(100%,100%,100%);fill-opacity:1;stroke-width:10.5;stroke-linecap:butt;stroke-linejoin:miter;stroke:rgb(100%,100%,100%);stroke-opacity:1;stroke-miterlimit:10;" d="M 141.913186 245.156955 L 141.913186 194.420153 L 167.9124 194.420153 L 167.9124 245.156955 Z M 141.913186 245.156955 " transform="matrix(6.093333,0,0,6.093333,-549.052474,-641.311329)"/>
<path style="fill-rule:nonzero;fill:rgb(100%,100%,100%);fill-opacity:1;stroke-width:10.5;stroke-linecap:butt;stroke-linejoin:miter;stroke:rgb(100%,100%,100%);stroke-opacity:1;stroke-miterlimit:10;" d="M 184.457121 245.156955 L 184.457121 182.672555 L 210.455694 182.672555 L 210.455694 245.156955 Z M 184.457121 245.156955 " transform="matrix(6.093333,0,0,6.093333,-549.052474,-641.311329)"/>
<path style="fill-rule:nonzero;fill:rgb(100%,100%,100%);fill-opacity:1;stroke-width:10.5;stroke-linecap:butt;stroke-linejoin:miter;stroke:rgb(100%,100%,100%);stroke-opacity:1;stroke-miterlimit:10;" d="M 227.000415 245.156955 L 227.000415 187.50109 L 252.999628 187.50109 L 252.999628 245.156955 Z M 227.000415 245.156955 " transform="matrix(6.093333,0,0,6.093333,-549.052474,-641.311329)"/>
<path style="fill-rule:nonzero;fill:rgb(100%,100%,100%);fill-opacity:1;stroke-width:10.5;stroke-linecap:butt;stroke-linejoin:miter;stroke:rgb(100%,100%,100%);stroke-opacity:1;stroke-miterlimit:10;" d="M 269.544349 245.156955 L 269.544349 164.438616 L 295.542922 164.438616 L 295.542922 245.156955 Z M 269.544349 245.156955 " transform="matrix(6.093333,0,0,6.093333,-549.052474,-641.311329)"/>
<path style="fill-rule:nonzero;fill:rgb(100%,100%,100%);fill-opacity:1;stroke-width:10.5;stroke-linecap:butt;stroke-linejoin:miter;stroke:rgb(100%,100%,100%);stroke-opacity:1;stroke-miterlimit:10;" d="M 312.087643 245.156955 L 312.087643 171.357679 L 338.086856 171.357679 L 338.086856 245.156955 Z M 312.087643 245.156955 " transform="matrix(6.093333,0,0,6.093333,-549.052474,-641.311329)"/>
<path style="fill-rule:nonzero;fill:rgb(100%,100%,100%);fill-opacity:1;stroke-width:6;stroke-linecap:butt;stroke-linejoin:miter;stroke:rgb(53.72549%,23.137255%,77.254902%);stroke-opacity:1;stroke-miterlimit:10;" d="M 141.913186 245.156955 L 141.913186 194.420153 L 167.9124 194.420153 L 167.9124 245.156955 Z M 141.913186 245.156955 " transform="matrix(6.093333,0,0,6.093333,-549.052474,-641.311329)"/>
<path style="fill-rule:nonzero;fill:rgb(100%,100%,100%);fill-opacity:1;stroke-width:6;stroke-linecap:butt;stroke-linejoin:miter;stroke:rgb(53.72549%,23.137255%,77.254902%);stroke-opacity:1;stroke-miterlimit:10;" d="M 184.457121 245.156955 L 184.457121 182.672555 L 210.455694 182.672555 L 210.455694 245.156955 Z M 184.457121 245.156955 " transform="matrix(6.093333,0,0,6.093333,-549.052474,-641.311329)"/>
<path style="fill-rule:nonzero;fill:rgb(100%,100%,100%);fill-opacity:1;stroke-width:6;stroke-linecap:butt;stroke-linejoin:miter;stroke:rgb(53.72549%,23.137255%,77.254902%);stroke-opacity:1;stroke-miterlimit:10;" d="M 227.000415 245.156955 L 227.000415 187.50109 L 252.999628 187.50109 L 252.999628 245.156955 Z M 227.000415 245.156955 " transform="matrix(6.093333,0,0,6.093333,-549.052474,-641.311329)"/>
<path style="fill-rule:nonzero;fill:rgb(100%,100%,100%);fill-opacity:1;stroke-width:6;stroke-linecap:butt;stroke-linejoin:miter;stroke:rgb(53.72549%,23.137255%,77.254902%);stroke-opacity:1;stroke-miterlimit:10;" d="M 269.544349 245.156955 L 269.544349 164.438616 L 295.542922 164.438616 L 295.542922 245.156955 Z M 269.544349 245.156955 " transform="matrix(6.093333,0,0,6.093333,-549.052474,-641.311329)"/>
<path style="fill-rule:nonzero;fill:rgb(100%,100%,100%);fill-opacity:1;stroke-width:6;stroke-linecap:butt;stroke-linejoin:miter;stroke:rgb(53.72549%,23.137255%,77.254902%);stroke-opacity:1;stroke-miterlimit:10;" d="M 312.087643 245.156955 L 312.087643 171.357679 L 338.086856 171.357679 L 338.086856 245.156955 Z M 312.087643 245.156955 " transform="matrix(6.093333,0,0,6.093333,-549.052474,-641.311329)"/>
<path style=" stroke:none;fill-rule:nonzero;fill:rgb(65.490196%,35.686275%,88.235294%);fill-opacity:1;" d="M 315.671875 852.511719 L 315.671875 543.355469 L 474.09375 543.355469 L 474.09375 852.511719 Z M 315.671875 852.511719 "/>
<path style=" stroke:none;fill-rule:nonzero;fill:rgb(65.490196%,35.686275%,88.235294%);fill-opacity:1;" d="M 574.90625 852.511719 L 574.90625 471.773438 L 733.324219 471.773438 L 733.324219 852.511719 Z M 574.90625 852.511719 "/>
<path style=" stroke:none;fill-rule:nonzero;fill:rgb(65.490196%,35.686275%,88.235294%);fill-opacity:1;" d="M 834.136719 852.511719 L 834.136719 501.195312 L 992.558594 501.195312 L 992.558594 852.511719 Z M 834.136719 852.511719 "/>
<path style=" stroke:none;fill-rule:nonzero;fill:rgb(65.490196%,35.686275%,88.235294%);fill-opacity:1;" d="M 1093.371094 852.511719 L 1093.371094 360.667969 L 1251.789062 360.667969 L 1251.789062 852.511719 Z M 1093.371094 852.511719 "/>
<path style=" stroke:none;fill-rule:nonzero;fill:rgb(65.490196%,35.686275%,88.235294%);fill-opacity:1;" d="M 1352.601562 852.511719 L 1352.601562 402.828125 L 1511.023438 402.828125 L 1511.023438 852.511719 Z M 1352.601562 852.511719 "/>
</g>
</svg>
