<svg xmlns="http://www.w3.org/2000/svg" xmlns:xlink="http://www.w3.org/1999/xlink" width="600" zoomAndPan="magnify" viewBox="0 0 450 225" height="300" preserveAspectRatio="xMidYMid meet" version="1.0"><defs><g/><clipPath id="95725235a9"><path d="M 0 0 L 101 0 L 101 90 L 0 90 Z M 0 0 " clip-rule="nonzero"/></clipPath><clipPath id="4007a8788a"><path d="M -35.375 55.472656 L 72.042969 -35.0625 L 100.90625 -0.820312 L -6.515625 89.71875 Z M -35.375 55.472656 " clip-rule="nonzero"/></clipPath><clipPath id="153b76d291"><path d="M 0 0 L 204 0 L 204 178 L 0 178 Z M 0 0 " clip-rule="nonzero"/></clipPath><clipPath id="088f0dcdb9"><path d="M -39.515625 142.984375 L 174.832031 -37.671875 L 203.695312 -3.429688 L -10.652344 177.226562 Z M -39.515625 142.984375 " clip-rule="nonzero"/></clipPath><clipPath id="51a8ee334c"><path d="M 0 0 L 304 0 L 304 225 L 0 225 Z M 0 0 " clip-rule="nonzero"/></clipPath><clipPath id="de8e3c4ded"><path d="M -20.980469 211.378906 L 274.519531 -37.675781 L 303.378906 -3.433594 L 7.882812 245.621094 Z M -20.980469 211.378906 " clip-rule="nonzero"/></clipPath><clipPath id="0c6081b0ae"><path d="M 6 0 L 409 0 L 409 225 L 6 225 Z M 6 0 " clip-rule="nonzero"/></clipPath><clipPath id="3dc031c8d0"><path d="M 6.972656 271.839844 L 380.070312 -42.617188 L 408.933594 -8.375 L 35.835938 306.082031 Z M 6.972656 271.839844 " clip-rule="nonzero"/></clipPath><clipPath id="7741ab4701"><path d="M 73 0 L 450 0 L 450 225 L 73 225 Z M 73 0 " clip-rule="nonzero"/></clipPath><clipPath id="d1829ec5cd"><path d="M 73.609375 301.046875 L 446.707031 -13.410156 L 475.566406 20.832031 L 102.46875 335.289062 Z M 73.609375 301.046875 " clip-rule="nonzero"/></clipPath><clipPath id="4ed2b15f20"><path d="M 140 15 L 450 15 L 450 225 L 140 225 Z M 140 15 " clip-rule="nonzero"/></clipPath><clipPath id="13f0b5d859"><path d="M 140.246094 330.253906 L 513.339844 15.796875 L 542.203125 50.039062 L 169.105469 364.496094 Z M 140.246094 330.253906 " clip-rule="nonzero"/></clipPath><clipPath id="45d560f2a2"><path d="M 206 45 L 450 45 L 450 225 L 206 225 Z M 206 45 " clip-rule="nonzero"/></clipPath><clipPath id="a09e247aef"><path d="M 206.878906 359.460938 L 579.976562 45.003906 L 608.835938 79.246094 L 235.738281 393.703125 Z M 206.878906 359.460938 " clip-rule="nonzero"/></clipPath><clipPath id="5d3d67008a"><path d="M 32 45 L 147 45 L 147 93 L 32 93 Z M 32 45 " clip-rule="nonzero"/></clipPath><clipPath id="71dedde9fa"><path d="M 39.390625 28.332031 L 154.339844 62.855469 L 119.390625 179.222656 L 4.441406 144.699219 Z M 39.390625 28.332031 " clip-rule="nonzero"/></clipPath><clipPath id="feb30a2bf3"><path d="M 39.390625 28.332031 L 154.339844 62.855469 L 119.390625 179.222656 L 4.441406 144.699219 Z M 39.390625 28.332031 " clip-rule="nonzero"/></clipPath><clipPath id="e38f87feaf"><path d="M 11 52 L 83 52 L 83 163 L 11 163 Z M 11 52 " clip-rule="nonzero"/></clipPath><clipPath id="6e3bf7ef6f"><path d="M 39.390625 28.332031 L 154.339844 62.855469 L 119.390625 179.222656 L 4.441406 144.699219 Z M 39.390625 28.332031 " clip-rule="nonzero"/></clipPath><clipPath id="b7fb9599e6"><path d="M 39.390625 28.332031 L 154.339844 62.855469 L 119.390625 179.222656 L 4.441406 144.699219 Z M 39.390625 28.332031 " clip-rule="nonzero"/></clipPath><clipPath id="3109f74b5c"><path d="M 61 86 L 147 86 L 147 163 L 61 163 Z M 61 86 " clip-rule="nonzero"/></clipPath><clipPath id="67aa907905"><path d="M 39.390625 28.332031 L 154.339844 62.855469 L 119.390625 179.222656 L 4.441406 144.699219 Z M 39.390625 28.332031 " clip-rule="nonzero"/></clipPath><clipPath id="dc6dabda9f"><path d="M 39.390625 28.332031 L 154.339844 62.855469 L 119.390625 179.222656 L 4.441406 144.699219 Z M 39.390625 28.332031 " clip-rule="nonzero"/></clipPath><clipPath id="e240ba1f66"><path d="M 38 52 L 139 52 L 139 95 L 38 95 Z M 38 52 " clip-rule="nonzero"/></clipPath><clipPath id="a74e90b1b6"><path d="M 44.296875 37.632812 L 145.054688 67.894531 L 114.367188 170.070312 L 13.609375 139.808594 Z M 44.296875 37.632812 " clip-rule="nonzero"/></clipPath><clipPath id="77de871e26"><path d="M 44.296875 37.632812 L 145.054688 67.894531 L 114.367188 170.070312 L 13.609375 139.808594 Z M 44.296875 37.632812 " clip-rule="nonzero"/></clipPath><clipPath id="c9019df052"><path d="M 19 58 L 83 58 L 83 155 L 19 155 Z M 19 58 " clip-rule="nonzero"/></clipPath><clipPath id="4c93a5d73b"><path d="M 44.296875 37.632812 L 145.054688 67.894531 L 114.367188 170.070312 L 13.609375 139.808594 Z M 44.296875 37.632812 " clip-rule="nonzero"/></clipPath><clipPath id="a7c5662c04"><path d="M 44.296875 37.632812 L 145.054688 67.894531 L 114.367188 170.070312 L 13.609375 139.808594 Z M 44.296875 37.632812 " clip-rule="nonzero"/></clipPath><clipPath id="c548c143e1"><path d="M 63 88 L 139 88 L 139 155 L 63 155 Z M 63 88 " clip-rule="nonzero"/></clipPath><clipPath id="e616f0a0dd"><path d="M 44.296875 37.632812 L 145.054688 67.894531 L 114.367188 170.070312 L 13.609375 139.808594 Z M 44.296875 37.632812 " clip-rule="nonzero"/></clipPath><clipPath id="3e4c974559"><path d="M 44.296875 37.632812 L 145.054688 67.894531 L 114.367188 170.070312 L 13.609375 139.808594 Z M 44.296875 37.632812 " clip-rule="nonzero"/></clipPath><clipPath id="36bb828535"><path d="M 191 30 L 259 30 L 259 58 L 191 58 Z M 191 30 " clip-rule="nonzero"/></clipPath><clipPath id="7a61d48116"><path d="M 186.296875 42.851562 L 252.941406 17.351562 L 278.753906 84.816406 L 212.109375 110.316406 Z M 186.296875 42.851562 " clip-rule="nonzero"/></clipPath><clipPath id="d0fb5f0600"><path d="M 186.296875 42.851562 L 252.941406 17.351562 L 278.753906 84.816406 L 212.109375 110.316406 Z M 186.296875 42.851562 " clip-rule="nonzero"/></clipPath><clipPath id="1eec6868a3"><path d="M 191 56 L 246 56 L 246 98 L 191 98 Z M 191 56 " clip-rule="nonzero"/></clipPath><clipPath id="0e863a9b4d"><path d="M 186.296875 42.851562 L 252.941406 17.351562 L 278.753906 84.816406 L 212.109375 110.316406 Z M 186.296875 42.851562 " clip-rule="nonzero"/></clipPath><clipPath id="1a11248d86"><path d="M 186.296875 42.851562 L 252.941406 17.351562 L 278.753906 84.816406 L 212.109375 110.316406 Z M 186.296875 42.851562 " clip-rule="nonzero"/></clipPath><clipPath id="499b2e9bf2"><path d="M 230 31 L 274 31 L 274 98 L 230 98 Z M 230 31 " clip-rule="nonzero"/></clipPath><clipPath id="f118c7fb4d"><path d="M 186.296875 42.851562 L 252.941406 17.351562 L 278.753906 84.816406 L 212.109375 110.316406 Z M 186.296875 42.851562 " clip-rule="nonzero"/></clipPath><clipPath id="5781051857"><path d="M 186.296875 42.851562 L 252.941406 17.351562 L 278.753906 84.816406 L 212.109375 110.316406 Z M 186.296875 42.851562 " clip-rule="nonzero"/></clipPath><clipPath id="46c430c0a7"><path d="M 196 34 L 255 34 L 255 59 L 196 59 Z M 196 34 " clip-rule="nonzero"/></clipPath><clipPath id="644718f96e"><path d="M 191.984375 45.445312 L 250.398438 23.09375 L 273.066406 82.332031 L 214.648438 104.683594 Z M 191.984375 45.445312 " clip-rule="nonzero"/></clipPath><clipPath id="8065c5ee2d"><path d="M 191.984375 45.445312 L 250.398438 23.09375 L 273.066406 82.332031 L 214.648438 104.683594 Z M 191.984375 45.445312 " clip-rule="nonzero"/></clipPath><clipPath id="9347493a33"><path d="M 196 57 L 244 57 L 244 94 L 196 94 Z M 196 57 " clip-rule="nonzero"/></clipPath><clipPath id="51caf4291e"><path d="M 191.984375 45.445312 L 250.398438 23.09375 L 273.066406 82.332031 L 214.648438 104.683594 Z M 191.984375 45.445312 " clip-rule="nonzero"/></clipPath><clipPath id="cfe059f7da"><path d="M 191.984375 45.445312 L 250.398438 23.09375 L 273.066406 82.332031 L 214.648438 104.683594 Z M 191.984375 45.445312 " clip-rule="nonzero"/></clipPath><clipPath id="60f324b083"><path d="M 230 35 L 269 35 L 269 94 L 230 94 Z M 230 35 " clip-rule="nonzero"/></clipPath><clipPath id="20484170b9"><path d="M 191.984375 45.445312 L 250.398438 23.09375 L 273.066406 82.332031 L 214.648438 104.683594 Z M 191.984375 45.445312 " clip-rule="nonzero"/></clipPath><clipPath id="0bb09199fb"><path d="M 191.984375 45.445312 L 250.398438 23.09375 L 273.066406 82.332031 L 214.648438 104.683594 Z M 191.984375 45.445312 " clip-rule="nonzero"/></clipPath><clipPath id="e85adb3c9d"><path d="M 316 134 L 348 134 L 348 211 L 316 211 Z M 316 134 " clip-rule="nonzero"/></clipPath><clipPath id="fcfe2a3d15"><path d="M 342.496094 132.152344 L 352.957031 208.511719 L 275.65625 219.101562 L 265.195312 142.742188 Z M 342.496094 132.152344 " clip-rule="nonzero"/></clipPath><clipPath id="885a030270"><path d="M 342.496094 132.152344 L 352.957031 208.511719 L 275.65625 219.101562 L 265.195312 142.742188 Z M 342.496094 132.152344 " clip-rule="nonzero"/></clipPath><clipPath id="c5dfb6c2b5"><path d="M 270 134 L 327 134 L 327 181 L 270 181 Z M 270 134 " clip-rule="nonzero"/></clipPath><clipPath id="0a22d8440b"><path d="M 342.496094 132.152344 L 352.957031 208.511719 L 275.65625 219.101562 L 265.195312 142.742188 Z M 342.496094 132.152344 " clip-rule="nonzero"/></clipPath><clipPath id="9ef0ccebb4"><path d="M 342.496094 132.152344 L 352.957031 208.511719 L 275.65625 219.101562 L 265.195312 142.742188 Z M 342.496094 132.152344 " clip-rule="nonzero"/></clipPath><clipPath id="df9c7d161a"><path d="M 270 174 L 338 174 L 338 217 L 270 217 Z M 270 174 " clip-rule="nonzero"/></clipPath><clipPath id="ed30e0e4d6"><path d="M 342.496094 132.152344 L 352.957031 208.511719 L 275.65625 219.101562 L 265.195312 142.742188 Z M 342.496094 132.152344 " clip-rule="nonzero"/></clipPath><clipPath id="9b3df58fc8"><path d="M 342.496094 132.152344 L 352.957031 208.511719 L 275.65625 219.101562 L 265.195312 142.742188 Z M 342.496094 132.152344 " clip-rule="nonzero"/></clipPath><clipPath id="a76f3cee5a"><path d="M 315 139 L 343 139 L 343 207 L 315 207 Z M 315 139 " clip-rule="nonzero"/></clipPath><clipPath id="042692cc23"><path d="M 338.371094 137.496094 L 347.539062 204.429688 L 279.664062 213.726562 L 270.496094 146.792969 Z M 338.371094 137.496094 " clip-rule="nonzero"/></clipPath><clipPath id="737d0691b7"><path d="M 338.371094 137.496094 L 347.539062 204.429688 L 279.664062 213.726562 L 270.496094 146.792969 Z M 338.371094 137.496094 " clip-rule="nonzero"/></clipPath><clipPath id="1210269f2a"><path d="M 275 139 L 325 139 L 325 181 L 275 181 Z M 275 139 " clip-rule="nonzero"/></clipPath><clipPath id="d64d22e886"><path d="M 338.371094 137.496094 L 347.539062 204.429688 L 279.664062 213.726562 L 270.496094 146.792969 Z M 338.371094 137.496094 " clip-rule="nonzero"/></clipPath><clipPath id="81703e003f"><path d="M 338.371094 137.496094 L 347.539062 204.429688 L 279.664062 213.726562 L 270.496094 146.792969 Z M 338.371094 137.496094 " clip-rule="nonzero"/></clipPath><clipPath id="6f3f190fcb"><path d="M 275 174 L 334 174 L 334 212 L 275 212 Z M 275 174 " clip-rule="nonzero"/></clipPath><clipPath id="10bed63bf1"><path d="M 338.371094 137.496094 L 347.539062 204.429688 L 279.664062 213.726562 L 270.496094 146.792969 Z M 338.371094 137.496094 " clip-rule="nonzero"/></clipPath><clipPath id="e62f5dba43"><path d="M 338.371094 137.496094 L 347.539062 204.429688 L 279.664062 213.726562 L 270.496094 146.792969 Z M 338.371094 137.496094 " clip-rule="nonzero"/></clipPath><clipPath id="1700d536c5"><path d="M 321 58 L 424 58 L 424 101 L 321 101 Z M 321 58 " clip-rule="nonzero"/></clipPath><clipPath id="cc5e408752"><path d="M 420.136719 108.199219 L 317.847656 92.988281 L 333.246094 -10.5625 L 435.535156 4.644531 Z M 420.136719 108.199219 " clip-rule="nonzero"/></clipPath><clipPath id="bf90e228b7"><path d="M 420.136719 108.199219 L 317.847656 92.988281 L 333.246094 -10.5625 L 435.535156 4.644531 Z M 420.136719 108.199219 " clip-rule="nonzero"/></clipPath><clipPath id="2c31e6e98f"><path d="M 375 0 L 433 0 L 433 88 L 375 88 Z M 375 0 " clip-rule="nonzero"/></clipPath><clipPath id="dbb5cfe120"><path d="M 420.136719 108.199219 L 317.847656 92.988281 L 333.246094 -10.5625 L 435.535156 4.644531 Z M 420.136719 108.199219 " clip-rule="nonzero"/></clipPath><clipPath id="411e08d3c2"><path d="M 420.136719 108.199219 L 317.847656 92.988281 L 333.246094 -10.5625 L 435.535156 4.644531 Z M 420.136719 108.199219 " clip-rule="nonzero"/></clipPath><clipPath id="db41e60581"><path d="M 321 0 L 385 0 L 385 72 L 321 72 Z M 321 0 " clip-rule="nonzero"/></clipPath><clipPath id="de6e314452"><path d="M 420.136719 108.199219 L 317.847656 92.988281 L 333.246094 -10.5625 L 435.535156 4.644531 Z M 420.136719 108.199219 " clip-rule="nonzero"/></clipPath><clipPath id="664e93d2d5"><path d="M 420.136719 108.199219 L 317.847656 92.988281 L 333.246094 -10.5625 L 435.535156 4.644531 Z M 420.136719 108.199219 " clip-rule="nonzero"/></clipPath><clipPath id="7ac20f1307"><path d="M 328 57 L 418 57 L 418 95 L 328 95 Z M 328 57 " clip-rule="nonzero"/></clipPath><clipPath id="c437f1ad3f"><path d="M 414.804688 100.875 L 325.140625 87.542969 L 338.660156 -3.382812 L 428.324219 9.953125 Z M 414.804688 100.875 " clip-rule="nonzero"/></clipPath><clipPath id="c378dc99f7"><path d="M 414.804688 100.875 L 325.140625 87.542969 L 338.660156 -3.382812 L 428.324219 9.953125 Z M 414.804688 100.875 " clip-rule="nonzero"/></clipPath><clipPath id="5e935edc78"><path d="M 375 3 L 426 3 L 426 83 L 375 83 Z M 375 3 " clip-rule="nonzero"/></clipPath><clipPath id="dfbfc93535"><path d="M 414.804688 100.875 L 325.140625 87.542969 L 338.660156 -3.382812 L 428.324219 9.953125 Z M 414.804688 100.875 " clip-rule="nonzero"/></clipPath><clipPath id="bd500be8e2"><path d="M 414.804688 100.875 L 325.140625 87.542969 L 338.660156 -3.382812 L 428.324219 9.953125 Z M 414.804688 100.875 " clip-rule="nonzero"/></clipPath><clipPath id="24003c05ef"><path d="M 328 3 L 384 3 L 384 70 L 328 70 Z M 328 3 " clip-rule="nonzero"/></clipPath><clipPath id="52e5b91713"><path d="M 414.804688 100.875 L 325.140625 87.542969 L 338.660156 -3.382812 L 428.324219 9.953125 Z M 414.804688 100.875 " clip-rule="nonzero"/></clipPath><clipPath id="90e46868b2"><path d="M 414.804688 100.875 L 325.140625 87.542969 L 338.660156 -3.382812 L 428.324219 9.953125 Z M 414.804688 100.875 " clip-rule="nonzero"/></clipPath><clipPath id="8d08df57fc"><path d="M 129 137 L 159 137 L 159 207 L 129 207 Z M 129 137 " clip-rule="nonzero"/></clipPath><clipPath id="8d1df22e7c"><path d="M 133.1875 208.339844 L 125.511719 138.878906 L 195.828125 131.105469 L 203.507812 200.566406 Z M 133.1875 208.339844 " clip-rule="nonzero"/></clipPath><clipPath id="dd0ac0d878"><path d="M 133.1875 208.339844 L 125.511719 138.878906 L 195.828125 131.105469 L 203.507812 200.566406 Z M 133.1875 208.339844 " clip-rule="nonzero"/></clipPath><clipPath id="98919aabe1"><path d="M 147 165 L 200 165 L 200 207 L 147 207 Z M 147 165 " clip-rule="nonzero"/></clipPath><clipPath id="fef9f6aa63"><path d="M 133.1875 208.339844 L 125.511719 138.878906 L 195.828125 131.105469 L 203.507812 200.566406 Z M 133.1875 208.339844 " clip-rule="nonzero"/></clipPath><clipPath id="d1ca708dc5"><path d="M 133.1875 208.339844 L 125.511719 138.878906 L 195.828125 131.105469 L 203.507812 200.566406 Z M 133.1875 208.339844 " clip-rule="nonzero"/></clipPath><clipPath id="0b9d0d78dc"><path d="M 139 132 L 200 132 L 200 171 L 139 171 Z M 139 132 " clip-rule="nonzero"/></clipPath><clipPath id="d17bd38109"><path d="M 133.1875 208.339844 L 125.511719 138.878906 L 195.828125 131.105469 L 203.507812 200.566406 Z M 133.1875 208.339844 " clip-rule="nonzero"/></clipPath><clipPath id="15c5d54b69"><path d="M 133.1875 208.339844 L 125.511719 138.878906 L 195.828125 131.105469 L 203.507812 200.566406 Z M 133.1875 208.339844 " clip-rule="nonzero"/></clipPath><clipPath id="5e1be253c2"><path d="M 133 141 L 159 141 L 159 203 L 133 203 Z M 133 141 " clip-rule="nonzero"/></clipPath><clipPath id="33daac28cf"><path d="M 137.054688 203.59375 L 130.324219 142.707031 L 192.070312 135.882812 L 198.796875 196.769531 Z M 137.054688 203.59375 " clip-rule="nonzero"/></clipPath><clipPath id="ef6654d7f1"><path d="M 137.054688 203.59375 L 130.324219 142.707031 L 192.070312 135.882812 L 198.796875 196.769531 Z M 137.054688 203.59375 " clip-rule="nonzero"/></clipPath><clipPath id="a900ad0ee4"><path d="M 149 166 L 196 166 L 196 203 L 149 203 Z M 149 166 " clip-rule="nonzero"/></clipPath><clipPath id="35674aced7"><path d="M 137.054688 203.59375 L 130.324219 142.707031 L 192.070312 135.882812 L 198.796875 196.769531 Z M 137.054688 203.59375 " clip-rule="nonzero"/></clipPath><clipPath id="7ea5c14531"><path d="M 137.054688 203.59375 L 130.324219 142.707031 L 192.070312 135.882812 L 198.796875 196.769531 Z M 137.054688 203.59375 " clip-rule="nonzero"/></clipPath><clipPath id="a00ee3cd00"><path d="M 142 137 L 196 137 L 196 171 L 142 171 Z M 142 137 " clip-rule="nonzero"/></clipPath><clipPath id="d42e7691b6"><path d="M 137.054688 203.59375 L 130.324219 142.707031 L 192.070312 135.882812 L 198.796875 196.769531 Z M 137.054688 203.59375 " clip-rule="nonzero"/></clipPath><clipPath id="a5c44790ae"><path d="M 137.054688 203.59375 L 130.324219 142.707031 L 192.070312 135.882812 L 198.796875 196.769531 Z M 137.054688 203.59375 " clip-rule="nonzero"/></clipPath><clipPath id="1d2ea1e075"><path d="M 108 0 L 160 0 L 160 13 L 108 13 Z M 108 0 " clip-rule="nonzero"/></clipPath><clipPath id="210f9fdd6c"><path d="M 93.371094 2.351562 L 143.699219 -73.027344 L 220.011719 -22.078125 L 169.683594 53.300781 Z M 93.371094 2.351562 " clip-rule="nonzero"/></clipPath><clipPath id="3abb4bf72d"><path d="M 93.371094 2.351562 L 143.699219 -73.027344 L 220.011719 -22.078125 L 169.683594 53.300781 Z M 93.371094 2.351562 " clip-rule="nonzero"/></clipPath><clipPath id="278f052c8e"><path d="M 108 0 L 195 0 L 195 43 L 108 43 Z M 108 0 " clip-rule="nonzero"/></clipPath><clipPath id="131da0ac3a"><path d="M 93.371094 2.351562 L 143.699219 -73.027344 L 220.011719 -22.078125 L 169.683594 53.300781 Z M 93.371094 2.351562 " clip-rule="nonzero"/></clipPath><clipPath id="54cb86a3ba"><path d="M 93.371094 2.351562 L 143.699219 -73.027344 L 220.011719 -22.078125 L 169.683594 53.300781 Z M 93.371094 2.351562 " clip-rule="nonzero"/></clipPath><clipPath id="a98dc4b337"><path d="M 149 0 L 205 0 L 205 16 L 149 16 Z M 149 0 " clip-rule="nonzero"/></clipPath><clipPath id="3530d93c8a"><path d="M 93.371094 2.351562 L 143.699219 -73.027344 L 220.011719 -22.078125 L 169.683594 53.300781 Z M 93.371094 2.351562 " clip-rule="nonzero"/></clipPath><clipPath id="6caac19b7f"><path d="M 93.371094 2.351562 L 143.699219 -73.027344 L 220.011719 -22.078125 L 169.683594 53.300781 Z M 93.371094 2.351562 " clip-rule="nonzero"/></clipPath><clipPath id="02a74c4b3d"><path d="M 114 0 L 159 0 L 159 10 L 114 10 Z M 114 0 " clip-rule="nonzero"/></clipPath><clipPath id="a65bbf22ea"><path d="M 101.171875 0.863281 L 145.285156 -65.210938 L 212.292969 -20.476562 L 168.179688 45.601562 Z M 101.171875 0.863281 " clip-rule="nonzero"/></clipPath><clipPath id="ff4a79a0dc"><path d="M 101.171875 0.863281 L 145.285156 -65.210938 L 212.292969 -20.476562 L 168.179688 45.601562 Z M 101.171875 0.863281 " clip-rule="nonzero"/></clipPath><clipPath id="1af41a81c5"><path d="M 114 0 L 191 0 L 191 37 L 114 37 Z M 114 0 " clip-rule="nonzero"/></clipPath><clipPath id="770dc9e8ee"><path d="M 101.171875 0.863281 L 145.285156 -65.210938 L 212.292969 -20.476562 L 168.179688 45.601562 Z M 101.171875 0.863281 " clip-rule="nonzero"/></clipPath><clipPath id="3813e1b5e2"><path d="M 101.171875 0.863281 L 145.285156 -65.210938 L 212.292969 -20.476562 L 168.179688 45.601562 Z M 101.171875 0.863281 " clip-rule="nonzero"/></clipPath><clipPath id="ef02ca2f12"><path d="M 150 0 L 199 0 L 199 13 L 150 13 Z M 150 0 " clip-rule="nonzero"/></clipPath><clipPath id="457804e86a"><path d="M 101.171875 0.863281 L 145.285156 -65.210938 L 212.292969 -20.476562 L 168.179688 45.601562 Z M 101.171875 0.863281 " clip-rule="nonzero"/></clipPath><clipPath id="f6f1bd9d37"><path d="M 101.171875 0.863281 L 145.285156 -65.210938 L 212.292969 -20.476562 L 168.179688 45.601562 Z M 101.171875 0.863281 " clip-rule="nonzero"/></clipPath><clipPath id="44ac7212aa"><path d="M 446 131 L 450 131 L 450 219 L 446 219 Z M 446 131 " clip-rule="nonzero"/></clipPath><clipPath id="4980a0beb1"><path d="M 469.625 126.066406 L 494.761719 213.148438 L 406.605469 238.597656 L 381.464844 151.515625 Z M 469.625 126.066406 " clip-rule="nonzero"/></clipPath><clipPath id="0feb8d4142"><path d="M 469.625 126.066406 L 494.761719 213.148438 L 406.605469 238.597656 L 381.464844 151.515625 Z M 469.625 126.066406 " clip-rule="nonzero"/></clipPath><clipPath id="0f7fe9c46d"><path d="M 393 131 L 450 131 L 450 195 L 393 195 Z M 393 131 " clip-rule="nonzero"/></clipPath><clipPath id="7c37fe1092"><path d="M 469.625 126.066406 L 494.761719 213.148438 L 406.605469 238.597656 L 381.464844 151.515625 Z M 469.625 126.066406 " clip-rule="nonzero"/></clipPath><clipPath id="6daf17ae0a"><path d="M 469.625 126.066406 L 494.761719 213.148438 L 406.605469 238.597656 L 381.464844 151.515625 Z M 469.625 126.066406 " clip-rule="nonzero"/></clipPath><clipPath id="df6bd57e75"><path d="M 393 179 L 450 179 L 450 225 L 393 225 Z M 393 179 " clip-rule="nonzero"/></clipPath><clipPath id="5146f20e00"><path d="M 469.625 126.066406 L 494.761719 213.148438 L 406.605469 238.597656 L 381.464844 151.515625 Z M 469.625 126.066406 " clip-rule="nonzero"/></clipPath><clipPath id="c05498a9cb"><path d="M 469.625 126.066406 L 494.761719 213.148438 L 406.605469 238.597656 L 381.464844 151.515625 Z M 469.625 126.066406 " clip-rule="nonzero"/></clipPath><clipPath id="d4f337c670"><path d="M 445 137 L 450 137 L 450 214 L 445 214 Z M 445 137 " clip-rule="nonzero"/></clipPath><clipPath id="f5ea9457f4"><path d="M 465.730469 132.984375 L 487.765625 209.316406 L 410.359375 231.664062 L 388.324219 155.332031 Z M 465.730469 132.984375 " clip-rule="nonzero"/></clipPath><clipPath id="34caa9fc57"><path d="M 465.730469 132.984375 L 487.765625 209.316406 L 410.359375 231.664062 L 388.324219 155.332031 Z M 465.730469 132.984375 " clip-rule="nonzero"/></clipPath><clipPath id="b465128f16"><path d="M 399 137 L 450 137 L 450 194 L 399 194 Z M 399 137 " clip-rule="nonzero"/></clipPath><clipPath id="0d589afb72"><path d="M 465.730469 132.984375 L 487.765625 209.316406 L 410.359375 231.664062 L 388.324219 155.332031 Z M 465.730469 132.984375 " clip-rule="nonzero"/></clipPath><clipPath id="a3e7d576cb"><path d="M 465.730469 132.984375 L 487.765625 209.316406 L 410.359375 231.664062 L 388.324219 155.332031 Z M 465.730469 132.984375 " clip-rule="nonzero"/></clipPath><clipPath id="06b96337bc"><path d="M 399 180 L 450 180 L 450 225 L 399 225 Z M 399 180 " clip-rule="nonzero"/></clipPath><clipPath id="4610d4ef08"><path d="M 465.730469 132.984375 L 487.765625 209.316406 L 410.359375 231.664062 L 388.324219 155.332031 Z M 465.730469 132.984375 " clip-rule="nonzero"/></clipPath><clipPath id="91da33da54"><path d="M 465.730469 132.984375 L 487.765625 209.316406 L 410.359375 231.664062 L 388.324219 155.332031 Z M 465.730469 132.984375 " clip-rule="nonzero"/></clipPath><clipPath id="231e535417"><path d="M 0 164 L 59 164 L 59 203 L 0 203 Z M 0 164 " clip-rule="nonzero"/></clipPath><clipPath id="2f494d3496"><path d="M -30.550781 161.792969 L 59.878906 167.929688 L 53.664062 259.476562 L -36.765625 253.339844 Z M -30.550781 161.792969 " clip-rule="nonzero"/></clipPath><clipPath id="3ad9066ee1"><path d="M -30.550781 161.792969 L 59.878906 167.929688 L 53.664062 259.476562 L -36.765625 253.339844 Z M -30.550781 161.792969 " clip-rule="nonzero"/></clipPath><clipPath id="40dd45ec5c"><path d="M 0 180 L 13 180 L 13 225 L 0 225 Z M 0 180 " clip-rule="nonzero"/></clipPath><clipPath id="db4ae3780b"><path d="M -30.550781 161.792969 L 59.878906 167.929688 L 53.664062 259.476562 L -36.765625 253.339844 Z M -30.550781 161.792969 " clip-rule="nonzero"/></clipPath><clipPath id="7fbd74f33b"><path d="M -30.550781 161.792969 L 59.878906 167.929688 L 53.664062 259.476562 L -36.765625 253.339844 Z M -30.550781 161.792969 " clip-rule="nonzero"/></clipPath><clipPath id="44c881a4ea"><path d="M 8 186 L 59 186 L 59 225 L 8 225 Z M 8 186 " clip-rule="nonzero"/></clipPath><clipPath id="7a3a9fb722"><path d="M -30.550781 161.792969 L 59.878906 167.929688 L 53.664062 259.476562 L -36.765625 253.339844 Z M -30.550781 161.792969 " clip-rule="nonzero"/></clipPath><clipPath id="9a1f7d4c26"><path d="M -30.550781 161.792969 L 59.878906 167.929688 L 53.664062 259.476562 L -36.765625 253.339844 Z M -30.550781 161.792969 " clip-rule="nonzero"/></clipPath><clipPath id="c6af1c73c2"><path d="M 0 170 L 53 170 L 53 204 L 0 204 Z M 0 170 " clip-rule="nonzero"/></clipPath><clipPath id="f9deef7ba0"><path d="M -25.378906 167.816406 L 53.886719 173.195312 L 48.429688 253.578125 L -30.835938 248.199219 Z M -25.378906 167.816406 " clip-rule="nonzero"/></clipPath><clipPath id="a48bed784a"><path d="M -25.378906 167.816406 L 53.886719 173.195312 L 48.429688 253.578125 L -30.835938 248.199219 Z M -25.378906 167.816406 " clip-rule="nonzero"/></clipPath><clipPath id="477e3a5201"><path d="M 0 184 L 12 184 L 12 225 L 0 225 Z M 0 184 " clip-rule="nonzero"/></clipPath><clipPath id="aae17895b9"><path d="M -25.378906 167.816406 L 53.886719 173.195312 L 48.429688 253.578125 L -30.835938 248.199219 Z M -25.378906 167.816406 " clip-rule="nonzero"/></clipPath><clipPath id="5259ba2ec3"><path d="M -25.378906 167.816406 L 53.886719 173.195312 L 48.429688 253.578125 L -30.835938 248.199219 Z M -25.378906 167.816406 " clip-rule="nonzero"/></clipPath><clipPath id="4583a5c424"><path d="M 8 189 L 53 189 L 53 225 L 8 225 Z M 8 189 " clip-rule="nonzero"/></clipPath><clipPath id="e3429edf8f"><path d="M -25.378906 167.816406 L 53.886719 173.195312 L 48.429688 253.578125 L -30.835938 248.199219 Z M -25.378906 167.816406 " clip-rule="nonzero"/></clipPath><clipPath id="e5b22d4999"><path d="M -25.378906 167.816406 L 53.886719 173.195312 L 48.429688 253.578125 L -30.835938 248.199219 Z M -25.378906 167.816406 " clip-rule="nonzero"/></clipPath></defs><rect x="-45" width="540" fill="#ffffff" y="-22.5" height="270" fill-opacity="1"/><rect x="-45" width="540" fill="#38b6ff" y="-22.5" height="270" fill-opacity="1"/><g clip-path="url(#95725235a9)"><g clip-path="url(#4007a8788a)"><path fill="#3ea5f9" d="M -35.375 55.472656 L 72.035156 -35.054688 L 100.894531 -0.8125 L -6.515625 89.71875 Z M -35.375 55.472656 " fill-opacity="1" fill-rule="nonzero"/></g></g><g clip-path="url(#153b76d291)"><g clip-path="url(#088f0dcdb9)"><path fill="#3ea5f9" d="M -39.515625 142.984375 L 174.769531 -37.621094 L 203.632812 -3.378906 L -10.652344 177.226562 Z M -39.515625 142.984375 " fill-opacity="1" fill-rule="nonzero"/></g></g><g clip-path="url(#51a8ee334c)"><g clip-path="url(#de8e3c4ded)"><path fill="#3ea5f9" d="M -20.980469 211.378906 L 274.5 -37.65625 L 303.359375 -3.414062 L 7.882812 245.621094 Z M -20.980469 211.378906 " fill-opacity="1" fill-rule="nonzero"/></g></g><g clip-path="url(#0c6081b0ae)"><g clip-path="url(#3dc031c8d0)"><path fill="#3ea5f9" d="M 6.972656 271.839844 L 380.03125 -42.585938 L 408.894531 -8.34375 L 35.835938 306.082031 Z M 6.972656 271.839844 " fill-opacity="1" fill-rule="nonzero"/></g></g><g clip-path="url(#7741ab4701)"><g clip-path="url(#d1829ec5cd)"><path fill="#3ea5f9" d="M 73.609375 301.046875 L 446.667969 -13.378906 L 475.527344 20.863281 L 102.46875 335.289062 Z M 73.609375 301.046875 " fill-opacity="1" fill-rule="nonzero"/></g></g><g clip-path="url(#4ed2b15f20)"><g clip-path="url(#13f0b5d859)"><path fill="#3ea5f9" d="M 140.246094 330.253906 L 513.304688 15.828125 L 542.164062 50.070312 L 169.105469 364.496094 Z M 140.246094 330.253906 " fill-opacity="1" fill-rule="nonzero"/></g></g><g clip-path="url(#45d560f2a2)"><g clip-path="url(#a09e247aef)"><path fill="#3ea5f9" d="M 206.878906 359.460938 L 579.9375 45.035156 L 608.800781 79.28125 L 235.738281 393.703125 Z M 206.878906 359.460938 " fill-opacity="1" fill-rule="nonzero"/></g></g><g clip-path="url(#5d3d67008a)"><g clip-path="url(#71dedde9fa)"><g clip-path="url(#feb30a2bf3)"><path fill="#2d2c38" d="M 146.90625 86.46875 L 82.492188 92.96875 L 32.316406 52.054688 L 96.730469 45.554688 Z M 146.90625 86.46875 " fill-opacity="1" fill-rule="nonzero"/></g></g></g><g clip-path="url(#e38f87feaf)"><g clip-path="url(#6e3bf7ef6f)"><g clip-path="url(#b7fb9599e6)"><path fill="#2d2c38" d="M 82.492188 92.96875 L 61.722656 162.121094 L 11.546875 121.203125 L 32.316406 52.054688 Z M 82.492188 92.96875 " fill-opacity="1" fill-rule="nonzero"/></g></g></g><g clip-path="url(#3109f74b5c)"><g clip-path="url(#67aa907905)"><g clip-path="url(#dc6dabda9f)"><path fill="#2d2c38" d="M 146.90625 86.46875 L 126.136719 155.621094 L 61.722656 162.121094 L 82.492188 92.96875 Z M 146.90625 86.46875 " fill-opacity="1" fill-rule="nonzero"/></g></g></g><g clip-path="url(#e240ba1f66)"><g clip-path="url(#a74e90b1b6)"><g clip-path="url(#77de871e26)"><path fill="#ff6060" d="M 138.570312 88.609375 L 82.089844 94.308594 L 38.09375 58.429688 L 94.574219 52.730469 Z M 138.570312 88.609375 " fill-opacity="1" fill-rule="nonzero"/></g></g></g><g clip-path="url(#c9019df052)"><g clip-path="url(#4c93a5d73b)"><g clip-path="url(#a7c5662c04)"><path fill="#3bff37" d="M 82.089844 94.308594 L 63.878906 154.941406 L 19.882812 119.0625 L 38.09375 58.429688 Z M 82.089844 94.308594 " fill-opacity="1" fill-rule="nonzero"/></g></g></g><g clip-path="url(#c548c143e1)"><g clip-path="url(#e616f0a0dd)"><g clip-path="url(#3e4c974559)"><path fill="#0057ff" d="M 138.570312 88.609375 L 120.359375 149.242188 L 63.878906 154.941406 L 82.089844 94.308594 Z M 138.570312 88.609375 " fill-opacity="1" fill-rule="nonzero"/></g></g></g><g clip-path="url(#36bb828535)"><g clip-path="url(#7a61d48116)"><g clip-path="url(#d0fb5f0600)"><path fill="#2d2c38" d="M 258.019531 31.164062 L 230.058594 57.621094 L 191.582031 56.585938 L 219.539062 30.128906 Z M 258.019531 31.164062 " fill-opacity="1" fill-rule="nonzero"/></g></g></g><g clip-path="url(#1eec6868a3)"><g clip-path="url(#0e863a9b4d)"><g clip-path="url(#1a11248d86)"><path fill="#2d2c38" d="M 230.058594 57.621094 L 245.398438 97.710938 L 206.921875 96.675781 L 191.582031 56.585938 Z M 230.058594 57.621094 " fill-opacity="1" fill-rule="nonzero"/></g></g></g><g clip-path="url(#499b2e9bf2)"><g clip-path="url(#f118c7fb4d)"><g clip-path="url(#5781051857)"><path fill="#2d2c38" d="M 258.019531 31.164062 L 273.359375 71.257812 L 245.398438 97.710938 L 230.058594 57.621094 Z M 258.019531 31.164062 " fill-opacity="1" fill-rule="nonzero"/></g></g></g><g clip-path="url(#46c430c0a7)"><g clip-path="url(#644718f96e)"><g clip-path="url(#8065c5ee2d)"><path fill="#ff6060" d="M 254.871094 35.199219 L 230.355469 58.398438 L 196.617188 57.488281 L 221.132812 34.292969 Z M 254.871094 35.199219 " fill-opacity="1" fill-rule="nonzero"/></g></g></g><g clip-path="url(#9347493a33)"><g clip-path="url(#51caf4291e)"><g clip-path="url(#cfe059f7da)"><path fill="#3bff37" d="M 230.355469 58.398438 L 243.808594 93.550781 L 210.070312 92.644531 L 196.617188 57.488281 Z M 230.355469 58.398438 " fill-opacity="1" fill-rule="nonzero"/></g></g></g><g clip-path="url(#60f324b083)"><g clip-path="url(#20484170b9)"><g clip-path="url(#0bb09199fb)"><path fill="#0057ff" d="M 254.871094 35.199219 L 268.324219 70.351562 L 243.808594 93.550781 L 230.355469 58.398438 Z M 254.871094 35.199219 " fill-opacity="1" fill-rule="nonzero"/></g></g></g><g clip-path="url(#e85adb3c9d)"><g clip-path="url(#fcfe2a3d15)"><g clip-path="url(#885a030270)"><path fill="#2d2c38" d="M 337.179688 210.460938 L 316.21875 174.558594 L 326.753906 134.339844 L 347.714844 170.242188 Z M 337.179688 210.460938 " fill-opacity="1" fill-rule="nonzero"/></g></g></g><g clip-path="url(#c5dfb6c2b5)"><g clip-path="url(#0a22d8440b)"><g clip-path="url(#9ef0ccebb4)"><path fill="#2d2c38" d="M 316.21875 174.558594 L 270.28125 180.851562 L 280.816406 140.632812 L 326.753906 134.339844 Z M 316.21875 174.558594 " fill-opacity="1" fill-rule="nonzero"/></g></g></g><g clip-path="url(#df9c7d161a)"><g clip-path="url(#ed30e0e4d6)"><g clip-path="url(#9b3df58fc8)"><path fill="#2d2c38" d="M 337.179688 210.460938 L 291.246094 216.753906 L 270.28125 180.851562 L 316.21875 174.558594 Z M 337.179688 210.460938 " fill-opacity="1" fill-rule="nonzero"/></g></g></g><g clip-path="url(#a76f3cee5a)"><g clip-path="url(#042692cc23)"><g clip-path="url(#737d0691b7)"><path fill="#ff6060" d="M 333.707031 206.160156 L 315.328125 174.679688 L 324.566406 139.414062 L 342.945312 170.898438 Z M 333.707031 206.160156 " fill-opacity="1" fill-rule="nonzero"/></g></g></g><g clip-path="url(#1210269f2a)"><g clip-path="url(#d64d22e886)"><g clip-path="url(#81703e003f)"><path fill="#3bff37" d="M 315.328125 174.679688 L 275.050781 180.199219 L 284.289062 144.933594 L 324.566406 139.414062 Z M 315.328125 174.679688 " fill-opacity="1" fill-rule="nonzero"/></g></g></g><g clip-path="url(#6f3f190fcb)"><g clip-path="url(#10bed63bf1)"><g clip-path="url(#e62f5dba43)"><path fill="#0057ff" d="M 333.707031 206.160156 L 293.429688 211.679688 L 275.050781 180.199219 L 315.328125 174.679688 Z M 333.707031 206.160156 " fill-opacity="1" fill-rule="nonzero"/></g></g></g><path stroke-linecap="butt" transform="matrix(1.557658, 0, 0, 1.557658, 89.292183, 51.751364)" fill="none" stroke-linejoin="miter" d="M 6.548297 61.000678 L 0.614908 12.833901 L 9.803385 12.833901 L 13.329312 45.605466 L 16.461519 12.833901 L 25.647488 12.833901 L 19.7141 61.000678 Z M 28.396006 61.000678 L 28.396006 12.901611 L 47.660711 12.901611 L 47.660711 22.185383 L 38.186348 22.185383 L 38.186348 31.551912 L 47.264483 31.551912 L 47.264483 40.615 L 38.186348 40.615 L 38.186348 51.649196 L 48.275115 51.649196 L 48.275115 61.000678 Z M 62.667218 61.452077 C 59.156338 61.452077 56.345125 60.348657 54.231073 58.141818 C 52.124545 55.937486 51.071281 52.915621 51.071281 49.07873 L 51.071281 26.902502 C 51.071281 22.117673 52.024234 18.511497 53.930141 16.08899 C 55.83354 13.663974 58.820296 12.450212 62.885395 12.450212 C 66.431384 12.450212 69.282721 13.42072 71.44442 15.364243 C 73.613643 17.305259 74.697001 20.103932 74.697001 23.757756 L 74.697001 32.043435 L 65.127343 32.043435 L 65.127343 24.933901 C 65.127343 23.557135 64.959322 22.609197 64.620773 22.090088 C 64.284731 21.560948 63.705436 21.297632 62.885395 21.297632 C 62.027737 21.297632 61.440918 21.598565 61.119923 22.20043 C 60.801436 22.792264 60.643446 23.667476 60.643446 24.823559 L 60.643446 48.955849 C 60.643446 50.232305 60.829022 51.160181 61.20268 51.744492 C 61.576338 52.318771 62.138079 52.604658 62.885395 52.604658 C 64.380027 52.604658 65.127343 51.388388 65.127343 48.955849 L 65.127343 40.273943 L 74.819882 40.273943 L 74.819882 49.352077 C 74.819882 57.417072 70.76983 61.452077 62.667218 61.452077 Z M 82.155115 61.000678 L 82.155115 22.130212 L 76.439902 22.130212 L 76.439902 12.901611 L 97.495156 12.901611 L 97.495156 22.130212 L 91.779944 22.130212 L 91.779944 61.000678 Z M 111.659052 61.452077 C 107.777021 61.452077 104.827881 60.265901 102.81414 57.896056 C 100.800399 55.526212 99.792275 52.195891 99.792275 47.902585 L 99.792275 24.989072 C 99.792275 20.851249 100.800399 17.729072 102.81414 15.622544 C 104.827881 13.508492 107.777021 12.450212 111.659052 12.450212 C 115.541083 12.450212 118.490223 13.508492 120.503964 15.622544 C 122.527736 17.729072 123.540876 20.851249 123.540876 24.989072 L 123.540876 47.902585 C 123.540876 52.230999 122.527736 55.571352 120.503964 57.923642 C 118.490223 60.275932 115.541083 61.452077 111.659052 61.452077 Z M 111.659052 52.604658 C 112.524233 52.604658 113.103529 52.230999 113.396938 51.483683 C 113.695363 50.736367 113.845829 49.688119 113.845829 48.338937 L 113.845829 24.823559 C 113.845829 23.775311 113.705394 22.927684 113.422016 22.280679 C 113.148669 21.62615 112.579404 21.297632 111.714223 21.297632 C 110.109249 21.297632 109.306762 22.508886 109.306762 24.933901 L 109.306762 48.394108 C 109.306762 49.780906 109.47729 50.829155 109.813332 51.538854 C 110.151881 52.251062 110.766285 52.604658 111.659052 52.604658 Z M 127.405352 12.901611 L 142.183653 12.901611 C 144.535943 12.901611 146.354078 13.435767 147.638057 14.50157 C 148.934575 15.55985 149.804772 17.049466 150.251155 18.972927 C 150.697539 20.896388 150.92073 23.351497 150.92073 26.340761 C 150.92073 29.06671 150.564627 31.195808 149.854927 32.725549 C 149.14272 34.247767 147.911404 35.311062 146.163487 35.912927 C 147.620502 36.21386 148.673767 36.941114 149.320772 38.099704 C 149.977808 39.258295 150.306326 40.825652 150.306326 42.801777 L 150.195984 61.000678 L 140.789332 61.000678 L 140.789332 42.187373 C 140.789332 40.838191 140.526015 39.978026 139.996876 39.604367 C 139.477767 39.230709 138.524813 39.042627 137.138016 39.042627 L 137.138016 61.000678 L 127.405352 61.000678 Z M 139.490306 30.704285 C 140.839487 30.704285 141.514078 29.249777 141.514078 26.340761 C 141.514078 25.066813 141.453891 24.11386 141.336026 23.484409 C 141.228192 22.847435 141.022554 22.408575 140.721622 22.172844 C 140.43072 21.924575 140.001891 21.801694 139.435135 21.801694 L 137.193187 21.801694 L 137.193187 30.704285 Z M 165.533518 61.452077 C 161.167487 61.452077 158.01271 60.371227 156.071694 58.212036 C 154.130679 56.042813 153.160171 52.546979 153.160171 47.724533 L 153.160171 43.022461 L 162.619487 43.022461 L 162.619487 49.008512 C 162.619487 51.405942 163.386865 52.604658 164.916606 52.604658 C 165.774264 52.604658 166.371114 52.35388 166.709663 51.852326 C 167.045704 51.343248 167.213725 50.490606 167.213725 49.296906 C 167.213725 47.729549 167.02815 46.435538 166.654492 45.414875 C 166.280834 44.384181 165.801849 43.524015 165.217539 42.829362 C 164.643259 42.137217 163.610057 41.061383 162.115425 39.604367 L 157.972585 35.461528 C 154.765145 32.324305 153.160171 28.853549 153.160171 25.041736 C 153.160171 20.941528 154.103093 17.819352 155.988938 15.677715 C 157.87729 13.526047 160.628316 12.450212 164.247031 12.450212 C 168.577953 12.450212 171.695114 13.598772 173.598513 15.895891 C 175.504419 18.19301 176.457373 21.78414 176.457373 26.66928 L 166.654492 26.66928 L 166.599321 23.361528 C 166.599321 22.732078 166.421269 22.230523 166.065165 21.856865 C 165.71157 21.483207 165.217539 21.297632 164.590596 21.297632 C 163.843279 21.297632 163.281539 21.500761 162.907881 21.912036 C 162.534222 22.323311 162.34614 22.882544 162.34614 23.594751 C 162.34614 25.162109 163.241414 26.784637 165.026948 28.459829 L 170.631818 33.833984 C 171.93586 35.11044 173.016709 36.316678 173.87186 37.457715 C 174.739549 38.596243 175.431694 39.940409 175.950803 41.490212 C 176.469911 43.040015 176.73072 44.875704 176.73072 46.999787 C 176.73072 51.739476 175.863031 55.335621 174.132668 57.788222 C 172.399798 60.230792 169.533414 61.452077 165.533518 61.452077 Z M 165.533518 61.452077 " stroke="#2d2c38" stroke-width="10.01" stroke-opacity="1" stroke-miterlimit="4"/><g fill="#ffffff" fill-opacity="1"><g transform="translate(89.292183, 146.768475)"><g><path d="M 10.203125 0 L 0.953125 -75.015625 L 15.265625 -75.015625 L 20.765625 -23.984375 L 25.640625 -75.015625 L 39.953125 -75.015625 L 30.703125 0 Z M 10.203125 0 "/></g></g></g><g fill="#ffffff" fill-opacity="1"><g transform="translate(130.202489, 146.768475)"><g><path d="M 3.3125 0 L 3.3125 -74.9375 L 33.328125 -74.9375 L 33.328125 -60.453125 L 18.578125 -60.453125 L 18.578125 -45.890625 L 32.71875 -45.890625 L 32.71875 -31.75 L 18.578125 -31.75 L 18.578125 -14.5625 L 34.28125 -14.5625 L 34.28125 0 Z M 3.3125 0 "/></g></g></g><g fill="#ffffff" fill-opacity="1"><g transform="translate(166.14075, 146.768475)"><g><path d="M 20.765625 0.703125 C 15.296875 0.703125 10.914062 -1.007812 7.625 -4.4375 C 4.34375 -7.875 2.703125 -12.585938 2.703125 -18.578125 L 2.703125 -53.125 C 2.703125 -60.570312 4.1875 -66.179688 7.15625 -69.953125 C 10.125 -73.734375 14.773438 -75.625 21.109375 -75.625 C 26.628906 -75.625 31.078125 -74.113281 34.453125 -71.09375 C 37.828125 -68.070312 39.515625 -63.710938 39.515625 -58.015625 L 39.515625 -45.09375 L 24.59375 -45.09375 L 24.59375 -56.171875 C 24.59375 -58.328125 24.332031 -59.8125 23.8125 -60.625 C 23.289062 -61.4375 22.390625 -61.84375 21.109375 -61.84375 C 19.773438 -61.84375 18.859375 -61.378906 18.359375 -60.453125 C 17.867188 -59.523438 17.625 -58.160156 17.625 -56.359375 L 17.625 -18.75 C 17.625 -16.78125 17.910156 -15.34375 18.484375 -14.4375 C 19.066406 -13.53125 19.941406 -13.078125 21.109375 -13.078125 C 23.429688 -13.078125 24.59375 -14.96875 24.59375 -18.75 L 24.59375 -32.28125 L 39.6875 -32.28125 L 39.6875 -18.140625 C 39.6875 -5.578125 33.378906 0.703125 20.765625 0.703125 Z M 20.765625 0.703125 "/></g></g></g><g fill="#ffffff" fill-opacity="1"><g transform="translate(207.487199, 146.768475)"><g><path d="M 9.765625 0 L 9.765625 -60.546875 L 0.875 -60.546875 L 0.875 -74.9375 L 33.671875 -74.9375 L 33.671875 -60.546875 L 24.78125 -60.546875 L 24.78125 0 Z M 9.765625 0 "/></g></g></g><g fill="#ffffff" fill-opacity="1"><g transform="translate(242.029805, 146.768475)"><g><path d="M 21.203125 0.703125 C 15.148438 0.703125 10.550781 -1.140625 7.40625 -4.828125 C 4.269531 -8.523438 2.703125 -13.71875 2.703125 -20.40625 L 2.703125 -56.09375 C 2.703125 -62.550781 4.269531 -67.421875 7.40625 -70.703125 C 10.550781 -73.984375 15.148438 -75.625 21.203125 -75.625 C 27.242188 -75.625 31.832031 -73.984375 34.96875 -70.703125 C 38.113281 -67.421875 39.6875 -62.550781 39.6875 -56.09375 L 39.6875 -20.40625 C 39.6875 -13.664062 38.113281 -8.460938 34.96875 -4.796875 C 31.832031 -1.128906 27.242188 0.703125 21.203125 0.703125 Z M 21.203125 -13.078125 C 22.535156 -13.078125 23.429688 -13.660156 23.890625 -14.828125 C 24.359375 -15.992188 24.59375 -17.625 24.59375 -19.71875 L 24.59375 -56.359375 C 24.59375 -57.984375 24.375 -59.300781 23.9375 -60.3125 C 23.507812 -61.332031 22.625 -61.84375 21.28125 -61.84375 C 18.78125 -61.84375 17.53125 -59.953125 17.53125 -56.171875 L 17.53125 -19.625 C 17.53125 -17.476562 17.789062 -15.847656 18.3125 -14.734375 C 18.84375 -13.628906 19.804688 -13.078125 21.203125 -13.078125 Z M 21.203125 -13.078125 "/></g></g></g><g fill="#ffffff" fill-opacity="1"><g transform="translate(284.423018, 146.768475)"><g><path d="M 3.3125 -74.9375 L 26.34375 -74.9375 C 30.007812 -74.9375 32.84375 -74.109375 34.84375 -72.453125 C 36.851562 -70.796875 38.207031 -68.46875 38.90625 -65.46875 C 39.601562 -62.476562 39.953125 -58.65625 39.953125 -54 C 39.953125 -49.75 39.398438 -46.429688 38.296875 -44.046875 C 37.191406 -41.671875 35.269531 -40.015625 32.53125 -39.078125 C 34.800781 -38.617188 36.445312 -37.484375 37.46875 -35.671875 C 38.488281 -33.867188 39 -31.425781 39 -28.34375 L 38.8125 0 L 24.15625 0 L 24.15625 -29.3125 C 24.15625 -31.40625 23.75 -32.742188 22.9375 -33.328125 C 22.125 -33.910156 20.644531 -34.203125 18.5 -34.203125 L 18.5 0 L 3.3125 0 Z M 22.15625 -47.1875 C 24.25 -47.1875 25.296875 -49.457031 25.296875 -54 C 25.296875 -55.976562 25.207031 -57.460938 25.03125 -58.453125 C 24.863281 -59.441406 24.546875 -60.125 24.078125 -60.5 C 23.609375 -60.875 22.9375 -61.0625 22.0625 -61.0625 L 18.578125 -61.0625 L 18.578125 -47.1875 Z M 22.15625 -47.1875 "/></g></g></g><g fill="#ffffff" fill-opacity="1"><g transform="translate(326.031151, 146.768475)"><g><path d="M 21.109375 0.703125 C 14.304688 0.703125 9.390625 -0.984375 6.359375 -4.359375 C 3.335938 -7.734375 1.828125 -13.171875 1.828125 -20.671875 L 1.828125 -28 L 16.578125 -28 L 16.578125 -18.671875 C 16.578125 -14.941406 17.769531 -13.078125 20.15625 -13.078125 C 21.488281 -13.078125 22.414062 -13.46875 22.9375 -14.25 C 23.46875 -15.039062 23.734375 -16.367188 23.734375 -18.234375 C 23.734375 -20.671875 23.441406 -22.6875 22.859375 -24.28125 C 22.273438 -25.882812 21.53125 -27.222656 20.625 -28.296875 C 19.726562 -29.378906 18.117188 -31.054688 15.796875 -33.328125 L 9.328125 -39.78125 C 4.328125 -44.664062 1.828125 -50.070312 1.828125 -56 C 1.828125 -62.394531 3.296875 -67.265625 6.234375 -70.609375 C 9.171875 -73.953125 13.460938 -75.625 19.109375 -75.625 C 25.847656 -75.625 30.703125 -73.835938 33.671875 -70.265625 C 36.640625 -66.691406 38.125 -61.09375 38.125 -53.46875 L 22.859375 -53.46875 L 22.765625 -58.625 C 22.765625 -59.613281 22.488281 -60.394531 21.9375 -60.96875 C 21.382812 -61.550781 20.613281 -61.84375 19.625 -61.84375 C 18.46875 -61.84375 17.597656 -61.523438 17.015625 -60.890625 C 16.429688 -60.253906 16.140625 -59.378906 16.140625 -58.265625 C 16.140625 -55.828125 17.535156 -53.300781 20.328125 -50.6875 L 29.046875 -42.3125 C 31.085938 -40.332031 32.773438 -38.453125 34.109375 -36.671875 C 35.441406 -34.898438 36.515625 -32.804688 37.328125 -30.390625 C 38.148438 -27.984375 38.5625 -25.125 38.5625 -21.8125 C 38.5625 -14.425781 37.207031 -8.828125 34.5 -5.015625 C 31.789062 -1.203125 27.328125 0.703125 21.109375 0.703125 Z M 21.109375 0.703125 "/></g></g></g><g clip-path="url(#1700d536c5)"><g clip-path="url(#cc5e408752)"><g clip-path="url(#bf90e228b7)"><path fill="#2d2c38" d="M 321.261719 71.933594 L 375.386719 58.414062 L 423.234375 87.09375 L 369.113281 100.609375 Z M 321.261719 71.933594 " fill-opacity="1" fill-rule="nonzero"/></g></g></g><g clip-path="url(#2c31e6e98f)"><g clip-path="url(#dbb5cfe120)"><g clip-path="url(#411e08d3c2)"><path fill="#2d2c38" d="M 375.386719 58.414062 L 384.535156 -3.121094 L 432.382812 25.558594 L 423.234375 87.09375 Z M 375.386719 58.414062 " fill-opacity="1" fill-rule="nonzero"/></g></g></g><g clip-path="url(#db41e60581)"><g clip-path="url(#de6e314452)"><g clip-path="url(#664e93d2d5)"><path fill="#2d2c38" d="M 321.261719 71.933594 L 330.414062 10.398438 L 384.535156 -3.121094 L 375.386719 58.414062 Z M 321.261719 71.933594 " fill-opacity="1" fill-rule="nonzero"/></g></g></g><g clip-path="url(#7ac20f1307)"><g clip-path="url(#c437f1ad3f)"><g clip-path="url(#c378dc99f7)"><path fill="#ff6060" d="M 328.105469 69.074219 L 375.5625 57.222656 L 417.519531 82.371094 L 370.0625 94.222656 Z M 328.105469 69.074219 " fill-opacity="1" fill-rule="nonzero"/></g></g></g><g clip-path="url(#5e935edc78)"><g clip-path="url(#dfbfc93535)"><g clip-path="url(#bd500be8e2)"><path fill="#3bff37" d="M 375.5625 57.222656 L 383.585938 3.269531 L 425.542969 28.414062 L 417.519531 82.371094 Z M 375.5625 57.222656 " fill-opacity="1" fill-rule="nonzero"/></g></g></g><g clip-path="url(#24003c05ef)"><g clip-path="url(#52e5b91713)"><g clip-path="url(#90e46868b2)"><path fill="#0057ff" d="M 328.105469 69.074219 L 336.128906 15.121094 L 383.585938 3.269531 L 375.5625 57.222656 Z M 328.105469 69.074219 " fill-opacity="1" fill-rule="nonzero"/></g></g></g><g clip-path="url(#8d08df57fc)"><g clip-path="url(#8d1df22e7c)"><g clip-path="url(#dd0ac0d878)"><path fill="#2d2c38" d="M 139.859375 137.484375 L 158.011719 170.523438 L 147.511719 206.726562 L 129.359375 173.6875 Z M 139.859375 137.484375 " fill-opacity="1" fill-rule="nonzero"/></g></g></g><g clip-path="url(#98919aabe1)"><g clip-path="url(#fef9f6aa63)"><g clip-path="url(#d1ca708dc5)"><path fill="#2d2c38" d="M 158.011719 170.523438 L 199.796875 165.90625 L 189.296875 202.109375 L 147.511719 206.726562 Z M 158.011719 170.523438 " fill-opacity="1" fill-rule="nonzero"/></g></g></g><g clip-path="url(#0b9d0d78dc)"><g clip-path="url(#d17bd38109)"><g clip-path="url(#15c5d54b69)"><path fill="#2d2c38" d="M 139.859375 137.484375 L 181.644531 132.867188 L 199.796875 165.90625 L 158.011719 170.523438 Z M 139.859375 137.484375 " fill-opacity="1" fill-rule="nonzero"/></g></g></g><g clip-path="url(#5e1be253c2)"><g clip-path="url(#33daac28cf)"><g clip-path="url(#ef6654d7f1)"><path fill="#ff6060" d="M 142.902344 141.464844 L 158.820312 170.433594 L 149.613281 202.179688 L 133.695312 173.210938 Z M 142.902344 141.464844 " fill-opacity="1" fill-rule="nonzero"/></g></g></g><g clip-path="url(#a900ad0ee4)"><g clip-path="url(#35674aced7)"><g clip-path="url(#7ea5c14531)"><path fill="#3bff37" d="M 158.820312 170.433594 L 195.460938 166.382812 L 186.253906 198.128906 L 149.613281 202.179688 Z M 158.820312 170.433594 " fill-opacity="1" fill-rule="nonzero"/></g></g></g><g clip-path="url(#a00ee3cd00)"><g clip-path="url(#d42e7691b6)"><g clip-path="url(#a5c44790ae)"><path fill="#0057ff" d="M 142.902344 141.464844 L 179.542969 137.414062 L 195.460938 166.382812 L 158.820312 170.433594 Z M 142.902344 141.464844 " fill-opacity="1" fill-rule="nonzero"/></g></g></g><g clip-path="url(#1d2ea1e075)"><g clip-path="url(#210f9fdd6c)"><g clip-path="url(#3abb4bf72d)"><path fill="#2d2c38" d="M 159.109375 -62.445312 L 149.574219 -14.488281 L 108.941406 12.703125 L 118.476562 -35.25 Z M 159.109375 -62.445312 " fill-opacity="1" fill-rule="nonzero"/></g></g></g><g clip-path="url(#278f052c8e)"><g clip-path="url(#131da0ac3a)"><g clip-path="url(#54cb86a3ba)"><path fill="#2d2c38" d="M 149.574219 -14.488281 L 194.921875 15.785156 L 154.289062 42.980469 L 108.941406 12.703125 Z M 149.574219 -14.488281 " fill-opacity="1" fill-rule="nonzero"/></g></g></g><g clip-path="url(#a98dc4b337)"><g clip-path="url(#3530d93c8a)"><g clip-path="url(#6caac19b7f)"><path fill="#2d2c38" d="M 159.109375 -62.445312 L 204.457031 -32.167969 L 194.921875 15.785156 L 149.574219 -14.488281 Z M 159.109375 -62.445312 " fill-opacity="1" fill-rule="nonzero"/></g></g></g><g clip-path="url(#02a74c4b3d)"><g clip-path="url(#a65bbf22ea)"><g clip-path="url(#ff4a79a0dc)"><path fill="#ff6060" d="M 158.8125 -55.953125 L 150.453125 -13.902344 L 114.824219 9.941406 L 123.1875 -32.105469 Z M 158.8125 -55.953125 " fill-opacity="1" fill-rule="nonzero"/></g></g></g><g clip-path="url(#1af41a81c5)"><g clip-path="url(#770dc9e8ee)"><g clip-path="url(#3813e1b5e2)"><path fill="#3bff37" d="M 150.453125 -13.902344 L 190.214844 12.644531 L 154.585938 36.488281 L 114.824219 9.941406 Z M 150.453125 -13.902344 " fill-opacity="1" fill-rule="nonzero"/></g></g></g><g clip-path="url(#ef02ca2f12)"><g clip-path="url(#457804e86a)"><g clip-path="url(#f6f1bd9d37)"><path fill="#0057ff" d="M 158.8125 -55.953125 L 198.578125 -29.40625 L 190.214844 12.644531 L 150.453125 -13.902344 Z M 158.8125 -55.953125 " fill-opacity="1" fill-rule="nonzero"/></g></g></g><g clip-path="url(#44ac7212aa)"><g clip-path="url(#4980a0beb1)"><g clip-path="url(#0feb8d4142)"><path fill="#2d2c38" d="M 476.734375 218.097656 L 446.242188 179.875 L 451.671875 131.285156 L 482.164062 169.503906 Z M 476.734375 218.097656 " fill-opacity="1" fill-rule="nonzero"/></g></g></g><g clip-path="url(#0f7fe9c46d)"><g clip-path="url(#7c37fe1092)"><g clip-path="url(#6daf17ae0a)"><path fill="#2d2c38" d="M 446.242188 179.875 L 393.855469 195 L 399.285156 146.40625 L 451.671875 131.285156 Z M 446.242188 179.875 " fill-opacity="1" fill-rule="nonzero"/></g></g></g><g clip-path="url(#df6bd57e75)"><g clip-path="url(#5146f20e00)"><g clip-path="url(#c05498a9cb)"><path fill="#2d2c38" d="M 476.734375 218.097656 L 424.347656 233.21875 L 393.855469 195 L 446.242188 179.875 Z M 476.734375 218.097656 " fill-opacity="1" fill-rule="nonzero"/></g></g></g><g clip-path="url(#d4f337c670)"><g clip-path="url(#f5ea9457f4)"><g clip-path="url(#34caa9fc57)"><path fill="#ff6060" d="M 471.964844 213.679688 L 445.226562 180.167969 L 449.988281 137.5625 L 476.726562 171.074219 Z M 471.964844 213.679688 " fill-opacity="1" fill-rule="nonzero"/></g></g></g><g clip-path="url(#b465128f16)"><g clip-path="url(#0d589afb72)"><g clip-path="url(#a3e7d576cb)"><path fill="#3bff37" d="M 445.226562 180.167969 L 399.292969 193.429688 L 404.054688 150.824219 L 449.988281 137.5625 Z M 445.226562 180.167969 " fill-opacity="1" fill-rule="nonzero"/></g></g></g><g clip-path="url(#06b96337bc)"><g clip-path="url(#4610d4ef08)"><g clip-path="url(#91da33da54)"><path fill="#0057ff" d="M 471.964844 213.679688 L 426.03125 226.941406 L 399.292969 193.429688 L 445.226562 180.167969 Z M 471.964844 213.679688 " fill-opacity="1" fill-rule="nonzero"/></g></g></g><g clip-path="url(#231e535417)"><g clip-path="url(#2f494d3496)"><g clip-path="url(#3ad9066ee1)"><path fill="#2d2c38" d="M 58.367188 186.5625 L 12.027344 202.15625 L -31.78125 180.445312 L 14.558594 164.855469 Z M 58.367188 186.5625 " fill-opacity="1" fill-rule="nonzero"/></g></g></g><g clip-path="url(#40dd45ec5c)"><g clip-path="url(#db4ae3780b)"><g clip-path="url(#7fbd74f33b)"><path fill="#2d2c38" d="M 12.027344 202.15625 L 8.335938 256.558594 L -35.472656 234.847656 L -31.78125 180.445312 Z M 12.027344 202.15625 " fill-opacity="1" fill-rule="nonzero"/></g></g></g><g clip-path="url(#44c881a4ea)"><g clip-path="url(#7a3a9fb722)"><g clip-path="url(#9a1f7d4c26)"><path fill="#2d2c38" d="M 58.367188 186.5625 L 54.675781 240.964844 L 8.335938 256.558594 L 12.027344 202.15625 Z M 58.367188 186.5625 " fill-opacity="1" fill-rule="nonzero"/></g></g></g><g clip-path="url(#c6af1c73c2)"><g clip-path="url(#f9deef7ba0)"><g clip-path="url(#a48bed784a)"><path fill="#ff6060" d="M 52.585938 189.539062 L 11.957031 203.210938 L -26.457031 184.171875 L 14.175781 170.5 Z M 52.585938 189.539062 " fill-opacity="1" fill-rule="nonzero"/></g></g></g><g clip-path="url(#477e3a5201)"><g clip-path="url(#aae17895b9)"><g clip-path="url(#5259ba2ec3)"><path fill="#3bff37" d="M 11.957031 203.210938 L 8.71875 250.910156 L -29.695312 231.875 L -26.457031 184.171875 Z M 11.957031 203.210938 " fill-opacity="1" fill-rule="nonzero"/></g></g></g><g clip-path="url(#4583a5c424)"><g clip-path="url(#e3429edf8f)"><g clip-path="url(#e5b22d4999)"><path fill="#0057ff" d="M 52.585938 189.539062 L 49.351562 237.238281 L 8.71875 250.910156 L 11.957031 203.210938 Z M 52.585938 189.539062 " fill-opacity="1" fill-rule="nonzero"/></g></g></g></svg>