<svg width="600" height="300" viewBox="0 0 600 300" fill="none" xmlns="http://www.w3.org/2000/svg">
<g clip-path="url(#clip0_76_184)">
<rect width="600" height="300" fill="#767676"/>
<mask id="mask0_76_184" style="mask-type:alpha" maskUnits="userSpaceOnUse" x="0" y="0" width="600" height="300">
<rect width="600" height="300" fill="#D9D9D9"/>
</mask>
<g mask="url(#mask0_76_184)">
<rect x="143.371" y="-125" width="182.069" height="535.089" transform="rotate(18.4532 143.371 -125)" fill="#A2A2A2"/>
<rect x="452.45" y="-111.37" width="182.069" height="535.089" transform="rotate(18.4532 452.45 -111.37)" fill="#A2A2A2"/>
</g>
<path d="M24.12 215V89H134.28V120.5H61.38V183.5H137.52V215H24.12ZM43.74 166.04V136.52H127.62V166.04H43.74ZM171.578 215L164.558 195.92L198.758 164.96C201.998 162.2 205.358 159.2 208.838 155.96C212.318 152.72 215.498 149.42 218.378 146.06C221.378 142.58 223.778 139.28 225.578 136.16C227.378 133.04 228.278 130.28 228.278 127.88C228.278 126.2 227.858 124.76 227.018 123.56C226.178 122.24 224.918 121.16 223.238 120.32C221.558 119.48 219.518 119.06 217.118 119.06C214.238 119.06 211.478 119.6 208.838 120.68C206.318 121.64 203.738 123.38 201.098 125.9C198.458 128.3 195.638 131.66 192.638 135.98L164.198 120.68C168.038 114.32 172.838 108.44 178.598 103.04C184.358 97.64 190.838 93.32 198.038 90.08C205.358 86.84 213.098 85.28 221.258 85.4C229.778 85.4 237.398 87.02 244.118 90.26C250.958 93.38 256.358 97.76 260.318 103.4C264.278 109.04 266.258 115.52 266.258 122.84C266.258 126.32 265.718 129.8 264.638 133.28C263.558 136.76 261.998 140.18 259.958 143.54C257.918 146.9 255.458 150.32 252.578 153.8C249.818 157.28 246.758 160.7 243.398 164.06C240.158 167.3 236.678 170.6 232.958 173.96L199.298 203.3L199.118 181.88H273.098V215H171.578ZM304.843 215V89H415.003V120.5H342.103V183.5H418.243V215H304.843ZM324.463 166.04V136.52H408.343V166.04H324.463ZM460.761 215V89H570.921V120.5H498.021V183.5H574.161V215H460.761ZM480.381 166.04V136.52H564.261V166.04H480.381Z" fill="#575757"/>
<path d="M373.333 159.167C373.333 205 341.25 227.917 303.117 241.208C301.12 241.885 298.951 241.853 296.975 241.117C258.75 227.917 226.667 205 226.667 159.167V95C226.667 92.5689 227.633 90.2373 229.352 88.5182C231.071 86.7991 233.402 85.8333 235.833 85.8333C254.167 85.8333 277.083 74.8333 293.033 60.9C294.975 59.2408 297.446 58.3292 300 58.3292C302.554 58.3292 305.025 59.2408 306.967 60.9C323.008 74.925 345.833 85.8333 364.167 85.8333C366.598 85.8333 368.929 86.7991 370.649 88.5182C372.368 90.2373 373.333 92.5689 373.333 95V159.167Z" fill="#767676" stroke="white" stroke-width="5" stroke-linecap="round" stroke-linejoin="round"/>
<path d="M255 177V190.5C255 193.2 256.8 195 259.5 195H277.5V181.5H291V168H300L306.3 161.7C312.554 163.879 319.363 163.87 325.612 161.676C331.861 159.482 337.18 155.233 340.7 149.623C344.219 144.012 345.731 137.374 344.987 130.793C344.243 124.212 341.288 118.078 336.605 113.395C331.922 108.712 325.788 105.757 319.207 105.013C312.626 104.269 305.988 105.781 300.377 109.3C294.767 112.82 290.518 118.139 288.324 124.388C286.13 130.637 286.121 137.446 288.3 143.7L255 177Z" fill="white"/>
<circle cx="323.049" cy="126.951" r="9.87805" fill="#767676"/>
</g>
<defs>
<clipPath id="clip0_76_184">
<rect width="600" height="300" fill="white"/>
</clipPath>
</defs>
</svg>
