<svg width="600" height="300" viewBox="0 0 600 300" fill="none" xmlns="http://www.w3.org/2000/svg">
<g clip-path="url(#clip0_75_138)">
<rect width="600" height="300" fill="#A56D22"/>
<mask id="mask0_75_138" style="mask-type:alpha" maskUnits="userSpaceOnUse" x="0" y="0" width="600" height="300">
<rect width="600" height="300" fill="#D9D9D9"/>
</mask>
<g mask="url(#mask0_75_138)">
<rect x="143.371" y="-125" width="182.069" height="535.089" transform="rotate(18.4532 143.371 -125)" fill="#F9A83A"/>
<rect x="452.45" y="-111.37" width="182.069" height="535.089" transform="rotate(18.4532 452.45 -111.37)" fill="#F9A83A"/>
</g>
<g filter="url(#filter0_d_75_138)">
<path d="M231.432 257.4L226.046 237.422L220.591 257.4C220.167 258.915 219.826 260.006 219.568 260.673C219.326 261.324 218.894 261.915 218.273 262.446C217.652 262.961 216.826 263.218 215.796 263.218C214.962 263.218 214.273 263.059 213.727 262.741C213.197 262.438 212.765 262.006 212.432 261.446C212.099 260.87 211.826 260.196 211.614 259.423C211.402 258.635 211.212 257.908 211.046 257.241L205.5 234.809C205.167 233.506 205 232.513 205 231.831C205 230.968 205.303 230.24 205.909 229.65C206.515 229.059 207.265 228.763 208.159 228.763C209.386 228.763 210.212 229.157 210.637 229.945C211.061 230.733 211.432 231.877 211.75 233.377L216.114 252.832L221 234.627C221.364 233.233 221.69 232.173 221.978 231.445C222.266 230.718 222.735 230.089 223.387 229.559C224.038 229.028 224.925 228.763 226.046 228.763C227.182 228.763 228.061 229.044 228.682 229.604C229.319 230.15 229.758 230.748 230.001 231.4C230.243 232.051 230.569 233.127 230.978 234.627L235.91 252.832L240.274 233.377C240.486 232.362 240.683 231.566 240.865 230.99C241.062 230.415 241.387 229.899 241.842 229.445C242.312 228.99 242.986 228.763 243.865 228.763C244.744 228.763 245.486 229.059 246.092 229.65C246.713 230.225 247.024 230.953 247.024 231.831C247.024 232.453 246.857 233.445 246.524 234.809L240.978 257.241C240.599 258.756 240.281 259.87 240.024 260.582C239.781 261.279 239.357 261.893 238.751 262.423C238.16 262.953 237.319 263.219 236.228 263.219C235.198 263.219 234.372 262.961 233.751 262.446C233.13 261.931 232.698 261.355 232.455 260.718C232.213 260.067 231.872 258.961 231.432 257.4Z" fill="white"/>
<path d="M267.226 252.129H255.089C255.105 253.538 255.385 254.781 255.93 255.856C256.491 256.932 257.226 257.743 258.135 258.288C259.059 258.834 260.074 259.107 261.18 259.107C261.923 259.107 262.597 259.023 263.203 258.857C263.824 258.675 264.423 258.402 264.999 258.038C265.574 257.66 266.105 257.258 266.59 256.834C267.075 256.41 267.703 255.834 268.476 255.106C268.794 254.834 269.249 254.697 269.84 254.697C270.476 254.697 270.991 254.872 271.385 255.22C271.779 255.569 271.976 256.061 271.976 256.697C271.976 257.258 271.757 257.917 271.317 258.675C270.878 259.417 270.211 260.137 269.317 260.834C268.438 261.516 267.325 262.084 265.976 262.539C264.643 262.993 263.105 263.22 261.362 263.22C257.377 263.22 254.279 262.084 252.067 259.811C249.854 257.538 248.748 254.455 248.748 250.561C248.748 248.728 249.021 247.031 249.567 245.47C250.112 243.894 250.907 242.546 251.953 241.425C252.998 240.303 254.286 239.447 255.817 238.856C257.347 238.25 259.044 237.947 260.908 237.947C263.332 237.947 265.408 238.462 267.135 239.493C268.878 240.508 270.181 241.826 271.044 243.447C271.908 245.069 272.34 246.72 272.34 248.402C272.34 249.963 271.893 250.978 270.999 251.448C270.105 251.902 268.847 252.129 267.226 252.129ZM255.089 248.606H266.34C266.188 246.485 265.613 244.902 264.613 243.856C263.628 242.796 262.325 242.265 260.703 242.265C259.158 242.265 257.885 242.803 256.885 243.879C255.9 244.94 255.302 246.515 255.089 248.606Z" fill="white"/>
<path d="M282.637 232.311V241.788C283.804 240.576 284.994 239.652 286.206 239.016C287.418 238.364 288.918 238.038 290.706 238.038C292.766 238.038 294.57 238.531 296.115 239.516C297.676 240.485 298.88 241.902 299.729 243.766C300.593 245.614 301.024 247.811 301.024 250.357C301.024 252.236 300.782 253.963 300.297 255.539C299.827 257.1 299.138 258.456 298.229 259.607C297.32 260.759 296.214 261.653 294.911 262.289C293.623 262.91 292.198 263.221 290.638 263.221C289.683 263.221 288.782 263.107 287.933 262.88C287.1 262.653 286.388 262.357 285.797 261.994C285.206 261.615 284.698 261.228 284.274 260.834C283.865 260.44 283.319 259.85 282.637 259.062V259.675C282.637 260.842 282.357 261.728 281.796 262.334C281.236 262.925 280.524 263.221 279.66 263.221C278.781 263.221 278.077 262.925 277.546 262.334C277.031 261.728 276.774 260.842 276.774 259.675V232.584C276.774 231.326 277.024 230.379 277.524 229.743C278.039 229.091 278.751 228.766 279.66 228.766C280.615 228.766 281.35 229.076 281.865 229.697C282.38 230.304 282.637 231.174 282.637 232.311ZM282.933 250.743C282.933 253.213 283.494 255.114 284.615 256.448C285.751 257.766 287.236 258.425 289.069 258.425C290.63 258.425 291.971 257.751 293.092 256.402C294.229 255.039 294.797 253.092 294.797 250.561C294.797 248.925 294.562 247.516 294.092 246.334C293.623 245.152 292.956 244.243 292.092 243.607C291.229 242.955 290.221 242.629 289.069 242.629C287.888 242.629 286.835 242.955 285.91 243.607C284.986 244.243 284.259 245.175 283.728 246.402C283.198 247.614 282.933 249.061 282.933 250.743Z" fill="white"/>
<path d="M315.545 248.402H313.181V259.106C313.181 260.516 312.871 261.553 312.249 262.22C311.628 262.887 310.817 263.22 309.817 263.22C308.742 263.22 307.908 262.872 307.317 262.175C306.726 261.478 306.431 260.455 306.431 259.106V233.469C306.431 232.014 306.757 230.961 307.408 230.31C308.06 229.658 309.113 229.332 310.567 229.332H321.545C323.06 229.332 324.355 229.401 325.431 229.537C326.507 229.658 327.477 229.916 328.34 230.31C329.386 230.749 330.31 231.378 331.113 232.196C331.916 233.014 332.522 233.969 332.931 235.06C333.356 236.136 333.568 237.28 333.568 238.492C333.568 240.977 332.863 242.962 331.454 244.447C330.06 245.931 327.939 246.985 325.09 247.606C326.287 248.242 327.431 249.182 328.522 250.424C329.613 251.666 330.583 252.992 331.431 254.401C332.295 255.795 332.962 257.061 333.432 258.197C333.916 259.318 334.159 260.091 334.159 260.515C334.159 260.955 334.015 261.394 333.727 261.833C333.454 262.258 333.075 262.591 332.591 262.834C332.106 263.091 331.545 263.22 330.909 263.22C330.151 263.22 329.515 263.038 329 262.674C328.484 262.326 328.037 261.879 327.659 261.333C327.295 260.788 326.795 259.985 326.159 258.924L323.454 254.424C322.484 252.773 321.613 251.515 320.84 250.651C320.083 249.788 319.31 249.197 318.522 248.879C317.734 248.56 316.742 248.402 315.545 248.402ZM319.409 234.401H313.181V243.56H319.227C320.848 243.56 322.212 243.424 323.318 243.151C324.424 242.863 325.265 242.386 325.841 241.719C326.432 241.038 326.727 240.106 326.727 238.924C326.727 238 326.492 237.189 326.022 236.492C325.553 235.78 324.901 235.249 324.068 234.901C323.28 234.568 321.727 234.401 319.409 234.401Z" fill="white"/>
<path d="M359.341 234.904H351.977V259.109C351.977 260.503 351.667 261.541 351.046 262.222C350.424 262.889 349.621 263.222 348.636 263.222C347.636 263.222 346.818 262.882 346.182 262.2C345.561 261.518 345.25 260.488 345.25 259.109V234.904H337.886C336.735 234.904 335.879 234.654 335.318 234.154C334.757 233.639 334.477 232.964 334.477 232.131C334.477 231.267 334.765 230.586 335.341 230.085C335.932 229.585 336.78 229.335 337.886 229.335H359.341C360.508 229.335 361.372 229.593 361.932 230.108C362.508 230.623 362.796 231.298 362.796 232.131C362.796 232.964 362.508 233.639 361.932 234.154C361.357 234.654 360.493 234.904 359.341 234.904Z" fill="white"/>
<path d="M394 252.129C394 253.19 393.735 254.341 393.205 255.584C392.69 256.811 391.871 258.023 390.75 259.22C389.629 260.402 388.197 261.364 386.455 262.107C384.712 262.849 382.682 263.22 380.364 263.22C378.606 263.22 377.007 263.054 375.568 262.72C374.129 262.387 372.818 261.872 371.636 261.175C370.469 260.463 369.394 259.531 368.409 258.379C367.53 257.334 366.78 256.167 366.159 254.879C365.537 253.576 365.068 252.19 364.749 250.72C364.446 249.25 364.295 247.69 364.295 246.038C364.295 243.356 364.681 240.954 365.454 238.833C366.242 236.712 367.363 234.901 368.818 233.401C370.272 231.886 371.977 230.735 373.932 229.947C375.886 229.159 377.97 228.765 380.182 228.765C382.879 228.765 385.28 229.303 387.387 230.378C389.493 231.454 391.106 232.788 392.228 234.379C393.349 235.954 393.909 237.447 393.909 238.856C393.909 239.629 393.637 240.311 393.091 240.902C392.546 241.492 391.887 241.788 391.114 241.788C390.25 241.788 389.599 241.583 389.159 241.174C388.735 240.765 388.258 240.061 387.727 239.061C386.849 237.409 385.811 236.174 384.614 235.356C383.432 234.538 381.97 234.129 380.227 234.129C377.454 234.129 375.242 235.182 373.591 237.288C371.954 239.394 371.136 242.387 371.136 246.266C371.136 248.857 371.5 251.016 372.227 252.743C372.954 254.455 373.985 255.735 375.318 256.584C376.651 257.432 378.212 257.857 380 257.857C381.939 257.857 383.576 257.379 384.909 256.425C386.258 255.455 387.273 254.038 387.955 252.175C388.243 251.296 388.599 250.584 389.023 250.038C389.447 249.478 390.129 249.197 391.068 249.197C391.871 249.197 392.561 249.478 393.137 250.038C393.712 250.599 394 251.296 394 252.129Z" fill="white"/>
<path d="M309.656 173.635C309.656 196.592 291.048 215.203 268.091 215.203C245.131 215.203 226.523 196.592 226.523 173.635C226.523 150.678 245.131 132.067 268.091 132.067C291.048 132.067 309.656 150.678 309.656 173.635Z" fill="#FF6600"/>
<path d="M391.87 115.438C391.87 138.391 373.262 157.006 350.305 157.006C327.346 157.006 308.737 138.391 308.737 115.438C308.737 92.481 327.346 73.8665 350.305 73.8665C373.262 73.8665 391.87 92.481 391.87 115.438Z" fill="#FFCC00"/>
<path d="M290.263 114.519C290.263 137.473 271.654 156.088 248.694 156.088C225.741 156.088 207.129 137.473 207.129 114.519C207.129 91.5627 225.741 72.9481 248.694 72.9481C271.654 72.9481 290.263 91.5627 290.263 114.519Z" fill="#0089CC"/>
<path d="M373.395 173.635C373.395 196.592 354.786 215.203 331.823 215.203C308.87 215.203 290.258 196.592 290.258 173.635C290.258 150.678 308.87 132.067 331.823 132.067C354.786 132.067 373.395 150.678 373.395 173.635Z" fill="#009939"/>
<path d="M341.066 77.5682C341.066 100.525 322.455 119.136 299.498 119.136C276.541 119.136 257.93 100.525 257.93 77.5682C257.93 54.6116 276.541 36 299.498 36C322.455 36 341.066 54.6116 341.066 77.5682Z" fill="#BF0000"/>
<path d="M308.738 115.438C308.738 116.312 308.814 117.168 308.869 118.031C327.307 113.777 341.068 97.2924 341.068 77.5626C341.068 76.688 340.991 75.8288 340.937 74.9664C322.499 79.2232 308.738 95.7079 308.738 115.438Z" fill="#FC0007"/>
<path d="M314.225 136.02C321.389 148.544 334.851 157.005 350.312 157.005C356.613 157.005 362.564 155.561 367.918 153.05C360.757 140.527 347.295 132.065 331.831 132.065C325.53 132.065 319.579 133.509 314.225 136.02Z" fill="#1CD306"/>
<path d="M290.263 173.635C290.263 183.791 293.913 193.084 299.965 200.303C306.01 193.084 309.66 183.791 309.66 173.635C309.66 163.479 306.01 154.185 299.965 146.967C293.913 154.185 290.263 163.479 290.263 173.635Z" fill="#0F7504"/>
<path d="M232.235 152.682C237.284 154.864 242.842 156.086 248.692 156.086C264.001 156.086 277.338 147.789 284.553 135.469C279.504 133.287 273.943 132.069 268.096 132.069C252.787 132.069 239.447 140.366 232.235 152.682Z" fill="#0C5E87"/>
<path d="M258.111 74.0568C258.014 75.2147 257.932 76.3787 257.932 77.564C257.932 97.2786 271.671 113.748 290.087 118.02C290.182 116.862 290.264 115.698 290.264 114.516C290.264 94.8013 276.528 78.3258 258.111 74.0568Z" fill="#6B0001"/>
<path d="M261.994 168.487H255.491C249.75 168.487 245.082 163.835 245.082 158.109V99.2518C245.082 93.5263 249.75 88.8704 255.491 88.8704H337.028C342.769 88.8704 347.434 93.5263 347.434 99.2518V158.109C347.434 163.835 342.769 168.487 337.028 168.487H309.251L253.52 195.808L261.994 168.487Z" fill="white"/>
</g>
</g>
<defs>
<filter id="filter0_d_75_138" x="155" y="-10" width="289" height="327.222" filterUnits="userSpaceOnUse" color-interpolation-filters="sRGB">
<feFlood flood-opacity="0" result="BackgroundImageFix"/>
<feColorMatrix in="SourceAlpha" type="matrix" values="0 0 0 0 0 0 0 0 0 0 0 0 0 0 0 0 0 0 127 0" result="hardAlpha"/>
<feOffset dy="4"/>
<feGaussianBlur stdDeviation="25"/>
<feComposite in2="hardAlpha" operator="out"/>
<feColorMatrix type="matrix" values="0 0 0 0 0 0 0 0 0 0 0 0 0 0 0 0 0 0 0.75 0"/>
<feBlend mode="normal" in2="BackgroundImageFix" result="effect1_dropShadow_75_138"/>
<feBlend mode="normal" in="SourceGraphic" in2="effect1_dropShadow_75_138" result="shape"/>
</filter>
<clipPath id="clip0_75_138">
<rect width="600" height="300" fill="white"/>
</clipPath>
</defs>
</svg>
