<?xml version="1.0" encoding="UTF-8" standalone="no"?>
<svg
   viewBox="0 0 300 186"
   width="300px"
   height="186px"
   version="1.1"
   id="svg1"
   sodipodi:docname="dogeiscutObject.svg"
   inkscape:version="1.3 (0e150ed6c4, 2023-07-21)"
   xmlns:inkscape="http://www.inkscape.org/namespaces/inkscape"
   xmlns:sodipodi="http://sodipodi.sourceforge.net/DTD/sodipodi-0.dtd"
   xmlns="http://www.w3.org/2000/svg"
   xmlns:svg="http://www.w3.org/2000/svg"
   xmlns:bx="https://boxy-svg.com">
  <sodipodi:namedview
     id="namedview1"
     pagecolor="#505050"
     bordercolor="#ffffff"
     borderopacity="1"
     inkscape:showpageshadow="0"
     inkscape:pageopacity="0"
     inkscape:pagecheckerboard="1"
     inkscape:deskcolor="#505050"
     inkscape:zoom="1.8078363"
     inkscape:cx="104.26829"
     inkscape:cy="72.462312"
     inkscape:window-width="1920"
     inkscape:window-height="1027"
     inkscape:window-x="-8"
     inkscape:window-y="251"
     inkscape:window-maximized="1"
     inkscape:current-layer="svg1" />
  <defs
     id="defs1">
    <bx:export>
      <bx:file
         format="png"
         width="600"
         height="372" />
    </bx:export>
  </defs>
  <rect
     width="300"
     height="186"
     style="fill:#f9bb58;stroke:#c79546;stroke-width:32px;fill-opacity:1;stroke-opacity:1"
     id="rect1" />
  <path
     d="m 130.23432,37.762137 c -1.31847,0 -2.5651,0.0269 -3.7451,0.08503 -1.17999,0.05813 -2.29135,0.150015 -3.33843,0.271138 -1.04698,0.121123 -2.02915,0.268796 -2.9486,0.457508 -0.91952,0.188713 -1.7784,0.416729 -2.57585,0.67789 -0.39391,0.124246 -0.77394,0.259338 -1.15232,0.406664 -0.37829,0.147413 -0.75485,0.307059 -1.11848,0.474514 -0.36354,0.167369 -0.72014,0.340116 -1.06755,0.525358 -0.34706,0.185242 -0.68544,0.383065 -1.01679,0.593121 -0.33144,0.210057 -0.65247,0.42905 -0.96595,0.660884 -0.31322,0.231834 -0.61949,0.47651 -0.9151,0.728647 -0.295,0.252137 -0.58826,0.523449 -0.86417,0.796496 -0.27591,0.273047 -0.53968,0.55347 -0.7965,0.84734 -0.25856,0.296301 -0.51104,0.600583 -0.7453,0.915095 -0.23427,0.314434 -0.45031,0.633987 -0.66115,0.96593 -0.20997,0.33196 -0.40692,0.685004 -0.59347,1.033719 -0.18654,0.348705 -0.36267,0.702791 -0.52492,1.067608 -0.16225,0.364844 -0.30194,0.740621 -0.44076,1.118445 -0.13883,0.377771 -0.27505,0.757539 -0.38957,1.152334 -0.11453,0.394864 -0.21518,0.793112 -0.30542,1.203178 -0.0902,0.410048 -0.17005,0.831983 -0.23686,1.254022 v 0.01649 c -0.11887,0.80552 -0.21778,1.702837 -0.30541,2.69444 -0.0876,0.991595 -0.16312,2.070839 -0.22038,3.253662 -0.0607,1.182814 -0.10759,2.467629 -0.13536,3.846774 -0.026,1.379145 -0.0347,2.859309 -0.0347,4.439895 0,1.006171 -0.009,1.971008 -0.0521,2.880844 -0.0347,0.909837 -0.098,1.764283 -0.16919,2.575816 -0.0694,0.811507 -0.15618,1.576482 -0.25422,2.287732 -0.098,0.711207 -0.21865,1.373722 -0.33925,1.982695 -0.1206,0.608999 -0.25335,1.155995 -0.38957,1.66073 -0.13709,0.504708 -0.27591,0.957175 -0.42341,1.355692 -0.14837,0.398509 -0.30368,0.743397 -0.45725,1.03371 -0.15357,0.290313 -0.30367,0.531605 -0.45725,0.711728 v 0.01735 c -0.19695,0.224719 -0.40605,0.445014 -0.6273,0.643964 -0.22038,0.198951 -0.44771,0.36953 -0.69498,0.542277 -0.24641,0.172661 -0.5041,0.345496 -0.77915,0.491433 -0.27504,0.145938 -0.575245,0.271139 -0.881176,0.389746 -0.305411,0.118607 -0.627306,0.231227 -0.965947,0.321982 -0.339249,0.09076 -0.693247,0.157911 -1.067635,0.220295 -0.373954,0.06247 -0.756585,0.118954 -1.169236,0.152531 -0.412131,0.03384 -0.852026,0.04685 -1.304849,0.05119 l -2.150974,0.01629 v 17.607066 l 2.084339,0.0677 c 0.477204,0.0173 0.930721,0.0442 1.355693,0.085 0.425145,0.0408 0.828599,0.0908 1.203247,0.15253 0.374822,0.0616 0.724482,0.14039 1.050629,0.2203 0.326234,0.0798 0.61863,0.15877 0.898185,0.25421 0.279381,0.0954 0.544884,0.19679 0.779144,0.30507 0.23426,0.10828 0.43642,0.23756 0.62731,0.35582 0.19088,0.11843 0.3592,0.22992 0.50843,0.35591 0.14924,0.12589 0.28112,0.25899 0.38958,0.38974 h 0.0174 v 0.0174 c 0.32103,0.37743 0.61516,0.76188 0.88118,1.15235 0.26636,0.39044 0.49976,0.77992 0.71146,1.18622 0.21258,0.40632 0.39912,0.82921 0.55963,1.25402 0.16052,0.4248 0.29674,0.85871 0.40693,1.30485 0.0946,0.38324 0.18654,0.98116 0.2707,1.77935 0.0868,0.79823 0.15531,1.79655 0.22039,2.98252 0.0694,1.18599 0.13188,2.55438 0.16919,4.10098 0.0347,1.54658 0.0521,3.27159 0.0521,5.15163 0,1.75427 0.0434,3.38608 0.13536,4.91438 0.0434,0.76413 0.10064,1.51042 0.16919,2.21994 0.0694,0.70956 0.14229,1.39433 0.23686,2.05049 0.0946,0.65611 0.19956,1.27699 0.3219,1.88102 0.12234,0.60406 0.27244,1.1923 0.42341,1.74546 0.15097,0.55312 0.30975,1.07246 0.49108,1.57599 0.18221,0.5035 0.37916,0.98526 0.59347,1.44042 0.20737,0.44111 0.43469,0.87441 0.67763,1.28791 0.24294,0.41352 0.50237,0.80144 0.77915,1.18624 0.27677,0.3848 0.5709,0.76335 0.88117,1.11844 0.31062,0.35504 0.64032,0.69255 0.98287,1.01676 0.34185,0.32416 0.69498,0.63981 1.06764,0.93204 0.37308,0.29223 0.76699,0.55426 1.16932,0.81342 0.40258,0.25917 0.80604,0.50367 1.23708,0.72865 0.43035,0.22498 0.8811,0.43729 1.33869,0.62704 0.45898,0.19505 0.92873,0.37491 1.42346,0.54228 0.49455,0.16737 1.01063,0.31704 1.54214,0.45751 0.53187,0.14064 1.09202,0.27495 1.66076,0.38974 0.56831,0.11488 1.15587,0.21501 1.76236,0.30507 0.60648,0.09 1.2376,0.17309 1.88105,0.23721 0.64292,0.0642 1.29903,0.10941 1.98265,0.15253 1.3674,0.0859 2.8122,0.13561 4.33821,0.13561 h 5.06695 V 131.3727 h -2.1691 c -1.09913,0 -2.09354,-0.0495 -2.98253,-0.1186 -0.8889,-0.0694 -1.67472,-0.15488 -2.32164,-0.25422 -0.64726,-0.0993 -1.16915,-0.21431 -1.54206,-0.30506 -0.37309,-0.0908 -0.59347,-0.16 -0.66114,-0.20338 h -0.0174 l -0.0174,-0.0174 c -0.19348,-0.11922 -0.36007,-0.23722 -0.50844,-0.37283 -0.14836,-0.13561 -0.27938,-0.29257 -0.38957,-0.45759 -0.11106,-0.16503 -0.20737,-0.35175 -0.28806,-0.5592 -0.0781,-0.20745 -0.14489,-0.43174 -0.20303,-0.69481 l -0.81298,-15.87855 c -0.0694,-1.35561 -0.17266,-2.64727 -0.32189,-3.86372 -0.0781,-0.60822 -0.15791,-1.18862 -0.25422,-1.7624 -0.0963,-0.57378 -0.20216,-1.13812 -0.3219,-1.67767 -0.11973,-0.53959 -0.26289,-1.0535 -0.40692,-1.55904 -0.14316,-0.50558 -0.28893,-1.00255 -0.45725,-1.47432 -0.16832,-0.47182 -0.34793,-0.91746 -0.54228,-1.35569 -0.19435,-0.43825 -0.40605,-0.866083 -0.6273,-1.270968 -0.16225,-0.303068 -0.34793,-0.595117 -0.54228,-0.881196 -0.19435,-0.285541 -0.3887,-0.558589 -0.60995,-0.829814 -0.44337,-0.542103 -0.94513,-1.062429 -1.4743,-1.559077 -0.52927,-0.496639 -1.09601,-0.972081 -1.67768,-1.440417 -0.58132,-0.468354 -1.1786,-0.931919 -1.77936,-1.389592 0.61603,-0.469134 1.2232,-0.931345 1.81329,-1.406527 0.58999,-0.475209 1.16724,-0.965783 1.69459,-1.457372 0.52753,-0.491607 1.0128,-0.989859 1.44046,-1.508207 0.21344,-0.259165 0.41127,-0.528655 0.5926,-0.796496 0.18221,-0.267842 0.34619,-0.535683 0.49196,-0.813416 0.35226,-0.664961 0.67589,-1.333845 0.96586,-2.016593 0.28979,-0.682749 0.55442,-1.384733 0.78001,-2.084374 0.22559,-0.699668 0.41647,-1.402667 0.57611,-2.118273 0.15965,-0.715632 0.28025,-1.438457 0.37309,-2.169108 v -0.03384 c 0.10151,-0.735848 0.20216,-1.639212 0.28806,-2.72833 0.0868,-1.089118 0.16398,-2.357291 0.23686,-3.812884 0.14577,-2.911194 0.26116,-6.575408 0.37309,-11.031944 v -0.01735 c 0.0173,-0.745045 0.0781,-1.416497 0.15271,-1.999648 0.0781,-0.583143 0.16398,-1.070273 0.2707,-1.491262 0.10759,-0.42098 0.22819,-0.775152 0.33925,-1.033719 0.11106,-0.258557 0.21864,-0.429396 0.30541,-0.525358 h 0.0174 c -0.0347,0.04165 0.11974,-0.04946 0.45725,-0.186369 0.16919,-0.06854 0.38263,-0.143595 0.64379,-0.220295 0.26116,-0.07635 0.56397,-0.159733 0.9151,-0.220295 0.708,-0.12199 1.57564,-0.208407 2.59278,-0.271138 1.01705,-0.06247 2.18317,-0.101688 3.49088,-0.101688 h 2.16911 V 37.761781 Z m 33.45172,0 v 17.640947 h 2.16911 c 1.13349,0 2.15384,0.01475 3.05029,0.05119 0.89644,0.03644 1.66908,0.09371 2.32163,0.169451 0.65247,0.07549 1.18668,0.191663 1.55907,0.288058 0.37222,0.09648 0.58306,0.173442 0.57612,0.16945 l 0.0174,0.01735 c 0.21084,0.122425 0.3809,0.244936 0.52579,0.355908 0.1449,0.110971 0.26463,0.205891 0.35574,0.305063 0.18394,0.198256 0.27417,0.376817 0.32189,0.525358 -0.026,-0.07635 0.0347,0.213353 0.10152,0.745652 0.0694,0.532299 0.15704,1.307209 0.22038,2.203007 0.12667,1.791588 0.24554,4.295372 0.35573,7.490199 0.0521,1.605825 0.10325,3.086423 0.16919,4.439895 0.0694,1.353471 0.15357,2.579841 0.23687,3.694259 0.0868,1.114419 0.18567,2.115349 0.28806,2.999469 0.10238,0.88412 0.2143,1.657528 0.33924,2.321622 0.12321,0.64891 0.27505,1.285778 0.45725,1.914915 0.18221,0.629128 0.38784,1.256842 0.62731,1.864079 0.23947,0.607263 0.51798,1.196142 0.81298,1.779345 0.29587,0.58323 0.61516,1.154504 0.96586,1.711565 0.27938,0.444233 0.6247,0.880927 1.01679,1.304849 0.39218,0.42393 0.83294,0.843436 1.30485,1.254022 0.47113,0.410569 0.97428,0.816018 1.4913,1.220123 0.51712,0.404148 1.04708,0.798579 1.57599,1.203178 -0.51278,0.381069 -1.03683,0.767604 -1.54215,1.152343 -0.50497,0.384713 -0.99024,0.764828 -1.45738,1.169279 -0.46679,0.404496 -0.9072,0.830682 -1.30485,1.270967 -0.19869,0.220122 -0.38349,0.445622 -0.55876,0.67789 -0.17526,0.232095 -0.34272,0.465664 -0.49108,0.711728 l -0.0174,0.01735 c -0.37569,0.639366 -0.71841,1.298063 -1.03371,1.965752 -0.31495,0.66765 -0.60995,1.33996 -0.86417,2.03354 -0.25422,0.69359 -0.46766,1.40122 -0.66114,2.11826 -0.19349,0.71703 -0.36008,1.44796 -0.49109,2.18606 v 0.0174 c -0.12581,0.75624 -0.236,1.693 -0.33925,2.83001 -0.10325,1.13702 -0.20476,2.48133 -0.28806,4.01624 -0.0868,1.5349 -0.15183,3.26949 -0.22038,5.21941 -0.0694,1.94994 -0.13014,4.1083 -0.18654,6.49038 -0.0173,0.76197 -0.0694,1.43079 -0.15271,2.0166 -0.0868,0.58583 -0.20216,1.09356 -0.32189,1.5082 -0.11974,0.41465 -0.24901,0.73438 -0.37309,0.98289 -0.12407,0.24849 -0.24207,0.42098 -0.33925,0.50835 v 0.0173 h -0.0347 c 0.008,-0.007 -0.18394,0.0997 -0.54228,0.23721 -0.1796,0.0685 -0.39651,0.14612 -0.66114,0.2203 -0.26463,0.0737 -0.56918,0.14438 -0.91511,0.20337 -0.69238,0.11809 -1.52809,0.20746 -2.50801,0.27114 -0.97991,0.0633 -2.1036,0.10169 -3.35535,0.10169 h -2.1691 v 17.69178 h 5.11779 c 1.32021,0 2.56328,-0.0269 3.7451,-0.085 1.18181,-0.0581 2.30671,-0.15018 3.35534,-0.27113 1.04855,-0.12095 2.02803,-0.26863 2.9486,-0.45751 0.92057,-0.18889 1.77798,-0.41604 2.57586,-0.67789 0.39391,-0.12425 0.79043,-0.25934 1.16924,-0.40667 0.37829,-0.14741 0.73836,-0.30706 1.10147,-0.47451 0.36268,-0.16737 0.72015,-0.34012 1.06764,-0.52536 0.34792,-0.18524 0.6863,-0.38306 1.01679,-0.59312 0.3297,-0.21006 0.65594,-0.42905 0.96594,-0.66088 0.30975,-0.23184 0.60388,-0.47651 0.8981,-0.72865 0.29413,-0.25214 0.58826,-0.52345 0.86417,-0.7965 0.27591,-0.27304 0.53968,-0.55355 0.7965,-0.84734 0.25856,-0.29647 0.51191,-0.60006 0.74531,-0.91508 0.23426,-0.31504 0.45117,-0.63321 0.66114,-0.96593 0.2091,-0.33274 0.40866,-0.68405 0.59347,-1.03372 0.18481,-0.34966 0.34792,-0.70184 0.50844,-1.06761 0.16051,-0.3658 0.30454,-0.73732 0.44076,-1.11844 0.13535,-0.38107 0.26203,-0.77368 0.37309,-1.16929 0.11105,-0.39565 0.21691,-0.79329 0.30541,-1.20318 0.0885,-0.40987 0.15791,-0.8319 0.22038,-1.25401 v -0.0174 c 0.11887,-0.80569 0.23426,-1.70031 0.32189,-2.69444 0.0876,-0.99412 0.14664,-2.08333 0.20303,-3.2706 0.0607,-1.18729 0.12494,-2.47851 0.15271,-3.86373 0.026,-1.3852 0.0173,-2.86894 0.0173,-4.45683 0,-0.99784 0.026,-1.94452 0.0694,-2.84696 0.0347,-0.90245 0.0989,-1.75375 0.16919,-2.55887 0.0694,-0.80517 0.15618,-1.56493 0.25422,-2.27078 0.0981,-0.70583 0.21865,-1.36111 0.33925,-1.96576 0.11973,-0.60466 0.236,-1.15923 0.37309,-1.66072 0.13708,-0.5015 0.29239,-0.9593 0.44076,-1.3557 0.14837,-0.39642 0.30367,-0.72743 0.45725,-1.01676 0.15444,-0.28936 0.3028,-0.53135 0.45725,-0.71173 0.19782,-0.23027 0.40605,-0.44059 0.6273,-0.64396 0.22125,-0.20338 0.44771,-0.40007 0.69498,-0.57621 0.24641,-0.17613 0.52146,-0.34297 0.7965,-0.49143 0.27504,-0.14845 0.55876,-0.28632 0.86417,-0.40666 0.30541,-0.12043 0.62731,-0.2131 0.96595,-0.30507 0.33838,-0.092 0.69325,-0.17422 1.06763,-0.23721 0.37396,-0.0633 0.75659,-0.11869 1.16924,-0.15253 0.41213,-0.0338 0.85203,-0.0469 1.30485,-0.0512 l 2.15219,-0.0174 v -2.15187 -15.454892 l -2.08434,-0.06768 c -0.46853,-0.01735 -0.92152,-0.04425 -1.33877,-0.08503 -0.41734,-0.03991 -0.7991,-0.0931 -1.16933,-0.152532 -0.37048,-0.05987 -0.72535,-0.126502 -1.05063,-0.203375 -0.32536,-0.07722 -0.62036,-0.163464 -0.89818,-0.25422 -0.27765,-0.09067 -0.54488,-0.185936 -0.77914,-0.288057 -0.23514,-0.102122 -0.4373,-0.211098 -0.62731,-0.321983 -0.19001,-0.110884 -0.34359,-0.222116 -0.49109,-0.338901 -0.14836,-0.116785 -0.28198,-0.235912 -0.38957,-0.355907 -0.31061,-0.368488 -0.60214,-0.737063 -0.86417,-1.118444 -0.26203,-0.381416 -0.49716,-0.773504 -0.71147,-1.169288 -0.21517,-0.395819 -0.40692,-0.808383 -0.57611,-1.220123 -0.16919,-0.411697 -0.31409,-0.824869 -0.44077,-1.254014 -0.0928,-0.339595 -0.1822,-0.919198 -0.2707,-1.711556 -0.0885,-0.792332 -0.18221,-1.804082 -0.25422,-3.016422 -0.0694,-1.212332 -0.12668,-2.620092 -0.16919,-4.219592 -0.0434,-1.599492 -0.0694,-3.38419 -0.0694,-5.338036 0,-1.754279 -0.0434,-3.38609 -0.13535,-4.914391 -0.0434,-0.764134 -0.10065,-1.51042 -0.16919,-2.219944 -0.0694,-0.709558 -0.1423,-1.394328 -0.23687,-2.050483 -0.0946,-0.656199 -0.19956,-1.276998 -0.3219,-1.881025 -0.12233,-0.604053 -0.27244,-1.192298 -0.42341,-1.745455 -0.15097,-0.553122 -0.30975,-1.072459 -0.49108,-1.575987 -0.18221,-0.503493 -0.37916,-0.985269 -0.59347,-1.440426 -0.20737,-0.44111 -0.43469,-0.874411 -0.67763,-1.287913 -0.24294,-0.413518 -0.50237,-0.801442 -0.77914,-1.186224 -0.27678,-0.3848 -0.57091,-0.763352 -0.88118,-1.118453 -0.31062,-0.355039 -0.64032,-0.692552 -0.98287,-1.016765 -0.34185,-0.324151 -0.69498,-0.6398 -1.06763,-0.932039 -0.37309,-0.292223 -0.767,-0.554251 -1.16924,-0.813416 -0.40259,-0.259165 -0.80691,-0.503667 -1.23708,-0.728647 -0.43036,-0.224979 -0.88118,-0.437205 -1.33878,-0.627045 h -0.0347 c -0.45812,-0.194526 -0.92908,-0.375169 -1.42346,-0.542277 -0.49456,-0.167108 -1.01124,-0.317037 -1.54206,-0.457508 -0.531,-0.140559 -1.07579,-0.27487 -1.64384,-0.389746 -0.5683,-0.114876 -1.15665,-0.214915 -1.76235,-0.305063 -0.60562,-0.09006 -1.22034,-0.173182 -1.86414,-0.237214 -0.64379,-0.06421 -1.31682,-0.109236 -1.99965,-0.152531 -1.36559,-0.08676 -2.81386,-0.135613 -4.33822,-0.135613 z"
     style="-inkscape-font-specification:Impact;fill:#ffffff;stroke-width:1"
     id="path6" />
</svg>
