<?xml version="1.0" encoding="UTF-8" standalone="no"?>
<!DOCTYPE svg PUBLIC "-//W3C//DTD SVG 1.1//EN" "http://www.w3.org/Graphics/SVG/1.1/DTD/svg11.dtd">
<svg width="100%" height="100%" viewBox="0 0 600 300" version="1.1" xmlns="http://www.w3.org/2000/svg" xmlns:xlink="http://www.w3.org/1999/xlink" xml:space="preserve" xmlns:serif="http://www.serif.com/" style="fill-rule:evenodd;clip-rule:evenodd;">
    <rect id="rect1" x="0" y="0" width="600" height="300" style="fill:rgb(187,46,173);stroke:rgb(149,36,138);stroke-width:64px;"/>
    <g transform="matrix(10.764929,0,0,10.764929,-1862.202623,-1368.354867)">
        <path d="M195.978,146.677C195.244,145.923 194.694,145.078 194.329,144.14C193.964,143.203 193.781,142.171 193.781,141.046C193.781,139.921 193.964,138.89 194.329,137.953C194.694,137.015 195.244,136.169 195.978,135.416L196.916,136.57C196.385,137.175 195.987,137.849 195.723,138.591C195.46,139.334 195.328,140.152 195.328,141.046C195.328,141.941 195.46,142.76 195.723,143.504C195.987,144.249 196.385,144.923 196.916,145.529L195.978,146.677Z" style="fill:white;fill-rule:nonzero;"/>
        <rect x="197.472" y="143.238" width="1.605" height="1.605" style="fill:white;"/>
        <path d="M201.72,138.263L202.711,137.548L204.029,139.359L203.039,140.08L201.72,138.263ZM200.402,139.359L201.72,137.548L202.711,138.263L201.392,140.08L200.402,139.359ZM199.892,137.794L200.273,136.628L202.406,137.326L202.025,138.486L199.892,137.794ZM201.603,135.662L202.828,135.662L202.828,137.906L201.603,137.906L201.603,135.662ZM202.025,137.326L204.158,136.628L204.539,137.794L202.406,138.486L202.025,137.326Z" style="fill:white;fill-rule:nonzero;"/>
        <path d="M204.797,145.529C205.328,144.923 205.725,144.249 205.989,143.504C206.253,142.76 206.385,141.941 206.385,141.046C206.385,140.152 206.253,139.334 205.989,138.591C205.725,137.849 205.328,137.175 204.797,136.57L205.734,135.416C206.468,136.169 207.018,137.015 207.384,137.953C207.749,138.89 207.931,139.921 207.931,141.046C207.931,142.171 207.749,143.203 207.384,144.14C207.018,145.078 206.468,145.923 205.734,146.677L204.797,145.529Z" style="fill:white;fill-rule:nonzero;"/>
    </g>
</svg>
