<?xml version="1.0" encoding="UTF-8" standalone="no"?>
<svg
   viewBox="0 0 300 186"
   width="300px"
   height="186px"
   version="1.1"
   id="svg1"
   sodipodi:docname="dogeiscutObject.svg"
   inkscape:version="1.3 (0e150ed6c4, 2023-07-21)"
   xml:space="preserve"
   xmlns:inkscape="http://www.inkscape.org/namespaces/inkscape"
   xmlns:sodipodi="http://sodipodi.sourceforge.net/DTD/sodipodi-0.dtd"
   xmlns="http://www.w3.org/2000/svg"
   xmlns:svg="http://www.w3.org/2000/svg"
   xmlns:bx="https://boxy-svg.com"><sodipodi:namedview
     id="namedview1"
     pagecolor="#505050"
     bordercolor="#ffffff"
     borderopacity="1"
     inkscape:showpageshadow="0"
     inkscape:pageopacity="0"
     inkscape:pagecheckerboard="1"
     inkscape:deskcolor="#505050"
     inkscape:zoom="1.8078363"
     inkscape:cx="235.91738"
     inkscape:cy="139.9463"
     inkscape:window-width="2560"
     inkscape:window-height="1387"
     inkscape:window-x="1912"
     inkscape:window-y="-8"
     inkscape:window-maximized="1"
     inkscape:current-layer="svg1" /><defs
     id="defs1"><bx:export><bx:file
         format="png"
         width="600"
         height="372" /></bx:export></defs><rect
     width="300"
     height="186"
     style="fill:#009dff;stroke:#007dcc;stroke-width:32px;fill-opacity:1;stroke-opacity:1"
     id="rect1" /><g
     fill="#ffffff"
     stroke="none"
     stroke-width="0"
     stroke-miterlimit="10"
     id="g18"
     transform="translate(-90.442934,-87.90575)"><g
       id="g9"><path
         d="m 243.4071,226.623 c 2.677,-6.5778 6.802,-4.6181 6.802,-4.6181 4.3025,1.5599 7.0625,4.6181 7.0625,4.6181 h -13.8645"
         fill-rule="nonzero"
         id="path1" /><path
         d="m 249.9591,221.9118 c 4.3025,1.5595 7.3125,4.7112 7.3125,4.7112 h -14.125"
         fill-rule="evenodd"
         id="path2" /><path
         d="m 238.9591,226.623 c 3.0835,-3.1421 8.1245,-3.7278 8.1245,-3.7278 4.3025,1.56 5.74,3.7278 5.74,3.7278 h -13.8645"
         fill-rule="nonzero"
         id="path3" /><path
         d="m 247.0836,222.8952 c 4.3025,1.56 5.74,3.7278 5.74,3.7278 h -14.125"
         fill-rule="evenodd"
         id="path4" /><path
         d="m 248.2611,138.6448 c 3.4375,3.8017 -0.5625,8.4208 -0.5625,8.4208 0,0 -1.405,2.7962 0.3855,3.5995 0.0245,13.3782 -0.625,41.1381 -0.625,41.6046 0,0.6702 1.5,27.9856 1.6455,28.5095 0.2415,0.8682 1.1045,1.655 1.1045,1.655 -1.354,-0.1679 -2.4375,-1.4876 -2.4375,-1.4876 0.3335,1.1729 1.521,1.9481 1.521,1.9481 -1.021,-0.1232 -2.042,-0.0453 -2.5005,-0.0422 -0.4165,0.002 -5.7495,1.3402 -7.833,3.7705 h -12.5835 c -0.25,0 -10.833,-11.1436 -11.1665,-24.2986 -0.3335,-13.155 3.263,-25.8284 6,-31.7058 3.1775,-6.8251 8.4895,-19.775 8.8645,-21.3149 0.375,-1.5393 0.014,-7.7999 2.4205,-10.9108 1.672,-2.1617 4.944,-3.2044 7.111,-3.2044 2.1665,0 6.747,1.3448 8.656,3.4563"
         fill-rule="nonzero"
         id="path5" /><path
         d="m 248.6654,151.3918 c 0,0 2.0955,2.843 3.6895,6.2314 3.5,7.7501 5.75,19.2506 4.504,33.0139 -1.149,12.6945 -2.233,20.8413 -5.9425,27.3024 -0.5085,0.8858 1.4595,2.0225 1.4595,2.0225 -0.8335,0 -1.9395,0.1021 -1.9395,0.1021 0.083,1.0476 1.8145,1.3639 1.8145,1.3639 -2.396,1.1733 -3.1045,-0.4907 -3.1045,-0.4907 0.396,0.9743 0.9545,1.479 0.9545,1.479 -0.667,0.0418 -2.3295,-1.4694 -2.3295,-1.4694 0,1.1311 1.521,1.948 1.521,1.948 -9.9065,0.0644 -14.5835,-12.0238 -13.8335,-15.459 0.75,-3.4351 7.667,-36.6999 8.112,-44.073 0.4445,-7.3736 5.0945,-11.9711 5.0945,-11.9711"
         fill-rule="nonzero"
         id="path6-2" /><path
         d="m 243.7403,161.2739 c 0.3336,-9.3066 4.3435,-10.6087 4.3435,-10.6087 l 1.661,2.2432 c -3.1544,0.4087 -6.0084,8.4786 -6.0045,8.3655"
         fill-rule="nonzero"
         id="path7" /><path
         d="m 247.2508,148.2804 c 0,0 -0.45,0.9859 0.125,1.5922 0.7155,0.7541 11.6175,11.9529 9.5836,39.4645 -1.6671,22.539 -5.4056,27.1153 -5.8266,28.0424 -0.2804,0.6168 -0.7669,1.5765 1.243,2.582 0,0 -1.2404,0.1548 -1.9395,0.1026 0,0 0.4711,0.9446 1.8145,1.3639 0,0 -0.6664,0.9074 -2.9164,0.2373"
         fill-rule="evenodd"
         id="path8" /><path
         d="m 249.1048,220.7792 c 0.1875,0.8813 1.104,1.655 1.104,1.655 -1.354,-0.1679 -2.4375,-1.4876 -2.4375,-1.4876 0.3335,1.1729 1.521,1.9481 1.521,1.9481 -1.021,-0.1232 -2.042,-0.0453 -2.5,-0.0422 -0.4165,0.002 -5.75,1.3402 -7.8334,3.7705 h -12.5831 c -0.25,0 -10.8335,-11.1436 -11.167,-24.2986 -0.3329,-13.155 3.2636,-25.8284 6,-31.7058 3.1781,-6.8251 8.4895,-19.775 8.8645,-21.3149 0.375,-1.5393 0.0145,-7.7999 2.4205,-10.9108 1.6726,-2.1617 4.9445,-3.2044 7.111,-3.2044 2.1666,0 6.823,1.278 8.6566,3.4563"
         fill-rule="evenodd"
         id="path9" /></g><g
       id="g12"><path
         d="m 244.6361,146.6257 c -0.098,0.0141 4.2355,-2.4267 4.5625,-4.3989 0.25,-1.5082 -1.375,-3.1738 -0.9375,-3.582 0.2915,-0.2725 0.943,1.1774 2.219,1.8224 1.3655,0.6908 3.281,1.6967 6.437,2.1366 3.1565,0.4399 5.8755,1.2885 7.0315,2.5137 1.1565,1.2256 1.75,2.5765 1.75,2.5765 0,0 -1.4685,-2.294 -10.219,-1.4137 -6.7185,0.3454 -7.229,1.3614 -8.229,2.0004 -1,0.6384 0.198,-2.0632 -2.6145,-1.655"
         fill-rule="nonzero"
         id="path10" /><path
         d="m 246.8861,146.4057 c 0,0 0.2795,-0.0975 0.776,-0.2272 0.2495,-0.0618 0.5525,-0.1367 0.9,-0.2232 0.1745,-0.0407 0.3605,-0.084 0.556,-0.1297 0.1965,-0.0427 0.4075,-0.0548 0.6245,-0.09 1.7425,-0.2373 4.078,-0.4866 6.427,-0.5254 1.1745,-0.0206 2.351,0.01 3.451,0.1086 0.5505,0.0493 1.0805,0.1212 1.5815,0.2011 0.5005,0.089 0.971,0.1921 1.401,0.3077 0.2115,0.0704 0.423,0.1106 0.6115,0.19 0.185,0.0855 0.361,0.1669 0.526,0.2428 0.3215,0.174 0.598,0.3243 0.809,0.4792 0.2205,0.1372 0.368,0.281 0.4735,0.3695 0.104,0.0905 0.16,0.1382 0.16,0.1382 0,0 -0.0635,-0.0372 -0.1825,-0.1071 -0.1185,-0.0699 -0.2875,-0.1764 -0.521,-0.2785 -0.2245,-0.1176 -0.516,-0.2217 -0.8455,-0.3393 -0.338,-0.1001 -0.7185,-0.1996 -1.13,-0.3313 -0.417,-0.1121 -0.875,-0.2127 -1.3645,-0.2992 -0.491,-0.0784 -1.011,-0.1488 -1.5525,-0.1975 -1.0835,-0.0976 -2.247,-0.1272 -3.4105,-0.1071 -2.3285,0.0382 -4.6515,0.286 -6.383,0.5223 -0.4305,0.0764 -0.831,0.1071 -1.187,0.1297 -0.355,0.0312 -0.6645,0.0589 -0.9195,0.0815 -0.255,0.0246 -0.4555,0.0442 -0.5925,0.0578 -0.1345,0.0131 -0.2085,0.0271 -0.2085,0.0271"
         fill-rule="nonzero"
         id="path11" /><path
         d="m 244.6361,146.6257 c -0.098,0.0141 4.2355,-2.4267 4.5625,-4.3989 0.25,-1.5082 -1.375,-3.1738 -0.9375,-3.582 0.2915,-0.2725 0.943,1.1774 2.219,1.8224 1.3655,0.6908 3.281,1.6967 6.437,2.1366 3.1565,0.4399 5.8755,1.2885 7.0315,2.5137 1.1565,1.2256 1.75,2.5765 1.75,2.5765 0,0 -1.4685,-2.294 -10.219,-1.4137 -6.7185,0.3454 -7.229,1.3614 -8.229,2.0004 -1,0.6384 0.198,-2.0632 -2.6145,-1.655 z"
         fill-rule="evenodd"
         id="path12" /></g><g
       id="g15"><path
         d="m 241.1986,140.8958 c 0.078,-0.6596 1.0315,-1.2568 2.5,-1.194 1.953,0.1569 2.257,1.1467 2.25,1.5394 -0.008,0.4756 -0.1385,1.1628 -2.373,1.1628 -1.9085,0 -2.447,-0.9155 -2.377,-1.5082"
         fill-rule="nonzero"
         id="path13" /><path
         d="m 243.9642,142.3839 c 0,0 -0.7654,-0.4711 -0.6095,-1.3669 0.1561,-0.8929 1.073,-1.09 1.4186,-1.0583 0.3454,0.0312 0.623,0.3273 0.623,0.3273 0,0 0.74,0.558 0.5525,1.1708 -0.1875,0.6129 -1.1145,0.8859 -1.1145,0.8859 0,0 -0.7466,0.104 -0.8701,0.0412"
         fill-rule="nonzero"
         id="path14" /><path
         d="m 241.1986,140.9385 c 0.078,-0.6596 1.0315,-1.2568 2.5,-1.194 1.953,0.1569 2.257,1.1468 2.25,1.5394 -0.008,0.4756 -0.1385,1.1628 -2.373,1.1628 -1.9085,0 -2.447,-0.9155 -2.377,-1.5082 z"
         fill-rule="evenodd"
         id="path15" /></g><g
       id="g17"><path
         d="m 241.1928,168.0546 c 1.4006,5.7815 1.3495,17.5957 -0.817,27.9017 -2.1664,10.306 -12.0835,21.1147 -12.8335,20.612 -0.75,-0.5027 -0.5,-1.5916 -0.3335,-4.8594 0.167,-3.2678 -1.1665,-7.2062 -2.1664,-9.0492 -1,-1.843 -0.5836,-6.0328 -0.5836,-6.0328 0,0 3.7356,-22.1061 4.507,-25.0054 0.993,-3.7343 3.7325,-5.0751 3.7325,-5.0751"
         fill-rule="nonzero"
         id="path16" /><path
         d="m 241.1928,168.0546 c 1.4006,5.7815 1.3495,17.5957 -0.817,27.9017 -2.1664,10.306 -12.0835,21.1147 -12.8335,20.612 -0.75,-0.5027 -0.5,-1.5916 -0.3335,-4.8594 0.167,-3.2678 -1.1665,-7.2062 -2.1664,-9.0492 -1,-1.843 -0.5836,-6.0328 -0.5836,-6.0328 0,0 3.7356,-22.1061 4.507,-25.0054 0.993,-3.7343 3.7325,-5.0751 3.7325,-5.0751"
         fill-rule="evenodd"
         id="path17" /></g></g><g
     id="g30"><path
       id="rect2"
       style="fill:none;fill-opacity:1;fill-rule:evenodd;stroke:#ffffff;stroke-width:7.99999;stroke-linecap:round;stroke-linejoin:round;stroke-dasharray:none;stroke-opacity:1;paint-order:markers fill stroke"
       d="m 71.91348,70.60191 v -27.126859 0 h 42.77595" /><path
       id="path25"
       style="fill:none;fill-opacity:1;fill-rule:evenodd;stroke:#ffffff;stroke-width:7.99999;stroke-linecap:round;stroke-linejoin:round;stroke-dasharray:none;stroke-opacity:1;paint-order:markers fill stroke"
       d="m 114.68947,142.52495 -42.77599,1e-5 v -27.12685" /><path
       id="path23"
       style="fill:none;fill-opacity:1;fill-rule:evenodd;stroke:#ffffff;stroke-width:7.99999;stroke-linecap:round;stroke-linejoin:round;stroke-dasharray:none;stroke-opacity:1;paint-order:markers fill stroke"
       d="m 228.08652,115.3981 v 27.12686 l -42.78349,-1e-5" /><path
       id="path21"
       style="fill:none;fill-opacity:1;fill-rule:evenodd;stroke:#ffffff;stroke-width:7.99999;stroke-linecap:round;stroke-linejoin:round;stroke-dasharray:none;stroke-opacity:1;paint-order:markers fill stroke"
       d="m 185.30299,43.475051 h 42.78353 V 70.60191" /></g><g
     id="g31"
     style="stroke:#ffffff;stroke-opacity:0.49800798"><path
       id="path26"
       style="fill:none;fill-opacity:1;fill-rule:evenodd;stroke:#ffffff;stroke-width:7.99999;stroke-linecap:round;stroke-linejoin:round;stroke-dasharray:none;stroke-opacity:0.49800798;paint-order:markers fill stroke"
       d="m 114.69697,62.154142 v -37.358154 0 h 19.33907" /><path
       id="path27"
       style="fill:none;fill-opacity:1;fill-rule:evenodd;stroke:#ffffff;stroke-width:7.99999;stroke-linecap:round;stroke-linejoin:round;stroke-dasharray:none;stroke-opacity:0.49800798;paint-order:markers fill stroke"
       d="m 134.03606,161.20402 -19.33909,10e-6 v -37.35814" /><path
       id="path28"
       style="fill:none;fill-opacity:1;fill-rule:evenodd;stroke:#ffffff;stroke-width:7.99999;stroke-linecap:round;stroke-linejoin:round;stroke-dasharray:none;stroke-opacity:0.49800798;paint-order:markers fill stroke"
       d="m 185.30303,123.84588 v 37.35815 l -19.34248,-10e-6" /><path
       id="path29"
       style="fill:none;fill-opacity:1;fill-rule:evenodd;stroke:#ffffff;stroke-width:7.99999;stroke-linecap:round;stroke-linejoin:round;stroke-dasharray:none;stroke-opacity:0.49800798;paint-order:markers fill stroke"
       d="m 165.96054,24.795988 h 19.34249 v 37.358154" /></g></svg>
