<svg width="1629" height="817" viewBox="0 0 1629 817" fill="none" xmlns="http://www.w3.org/2000/svg">
<rect x="16" y="-16" width="1597" height="785" transform="matrix(1 0 0 -1 0 785)" fill="#5970BC" stroke="#475B9D" stroke-width="32"/>
<rect x="67" y="63.5" width="40" height="40" rx="10" fill="#6679B8"/>
<rect x="119" y="63.5" width="40" height="40" rx="10" fill="#6679B8"/>
<rect x="171" y="63.5" width="40" height="40" rx="10" fill="#6679B8"/>
<rect x="223" y="63.5" width="40" height="40" rx="10" fill="#6679B8"/>
<rect x="275" y="63.5" width="40" height="40" rx="10" fill="#6679B8"/>
<rect x="327" y="63.5" width="40" height="40" rx="10" fill="#6679B8"/>
<rect x="379" y="63.5" width="40" height="40" rx="10" fill="#566DB9"/>
<rect x="431" y="63.5" width="40" height="40" rx="10" fill="#7887B8"/>
<rect x="483" y="63.5" width="40" height="40" rx="10" fill="#4962B2"/>
<rect x="535" y="63.5" width="40" height="40" rx="10" fill="#6679B8"/>
<rect x="587" y="63.5" width="40" height="40" rx="10" fill="#6679B8"/>
<rect x="639" y="63.5" width="40" height="40" rx="10" fill="#6679B8"/>
<rect x="691" y="63.5" width="40" height="40" rx="10" fill="#6679B8"/>
<rect x="743" y="63.5" width="40" height="40" rx="10" fill="#6679B8"/>
<rect x="795" y="63.5" width="40" height="40" rx="10" fill="#6679B8"/>
<rect x="847" y="63.5" width="40" height="40" rx="10" fill="#536AB4"/>
<rect x="899" y="63.5" width="40" height="40" rx="10" fill="#6679B8"/>
<rect x="951" y="63.5" width="40" height="40" rx="10" fill="#6679B8"/>
<rect x="1003" y="63.5" width="40" height="40" rx="10" fill="#6679B8"/>
<rect x="1055" y="63.5" width="40" height="40" rx="10" fill="#6679B8"/>
<rect x="1107" y="63.5" width="40" height="40" rx="10" fill="#6679B8"/>
<rect x="1159" y="63.5" width="40" height="40" rx="10" fill="#6679B8"/>
<rect x="1211" y="63.5" width="40" height="40" rx="10" fill="#566DB9"/>
<rect x="1263" y="63.5" width="40" height="40" rx="10" fill="#6679B8"/>
<rect x="1315" y="63.5" width="40" height="40" rx="10" fill="#6679B8"/>
<rect x="1367" y="63.5" width="40" height="40" rx="10" fill="#6679B8"/>
<rect x="1419" y="63.5" width="40" height="40" rx="10" fill="#7887B8"/>
<rect x="1471" y="63.5" width="40" height="40" rx="10" fill="#6679B8"/>
<rect x="1523" y="63.5" width="40" height="40" rx="10" fill="#6679B8"/>
<rect x="67" y="115.5" width="40" height="40" rx="10" fill="#6679B8"/>
<rect x="119" y="115.5" width="40" height="40" rx="10" fill="#6679B8"/>
<rect x="171" y="115.5" width="40" height="40" rx="10" fill="#566DB9"/>
<rect x="223" y="115.5" width="40" height="40" rx="10" fill="#536AB4"/>
<rect x="275" y="115.5" width="40" height="40" rx="10" fill="#6679B8"/>
<rect x="327" y="115.5" width="40" height="40" rx="10" fill="#6679B8"/>
<rect x="379" y="115.5" width="40" height="40" rx="10" fill="#536AB4"/>
<rect x="431" y="115.5" width="40" height="40" rx="10" fill="#6679B8"/>
<rect x="483" y="115.5" width="40" height="40" rx="10" fill="#6679B8"/>
<rect x="535" y="115.5" width="40" height="40" rx="10" fill="#6679B8"/>
<rect x="587" y="115.5" width="40" height="40" rx="10" fill="#6679B8"/>
<rect x="639" y="115.5" width="40" height="40" rx="10" fill="#6679B8"/>
<rect x="691" y="115.5" width="40" height="40" rx="10" fill="#6679B8"/>
<rect x="743" y="115.5" width="40" height="40" rx="10" fill="#6679B8"/>
<rect x="795" y="115.5" width="40" height="40" rx="10" fill="#6679B8"/>
<rect x="847" y="115.5" width="40" height="40" rx="10" fill="#6679B8"/>
<rect x="899" y="115.5" width="40" height="40" rx="10" fill="#6679B8"/>
<rect x="951" y="115.5" width="40" height="40" rx="10" fill="#7887B8"/>
<rect x="1003" y="115.5" width="40" height="40" rx="10" fill="#6679B8"/>
<rect x="1055" y="115.5" width="40" height="40" rx="10" fill="#6679B8"/>
<rect x="1107" y="115.5" width="40" height="40" rx="10" fill="#6679B8"/>
<rect x="1159" y="115.5" width="40" height="40" rx="10" fill="#4962B2"/>
<rect x="1211" y="115.5" width="40" height="40" rx="10" fill="#6679B8"/>
<rect x="1263" y="115.5" width="40" height="40" rx="10" fill="#6679B8"/>
<rect x="1315" y="115.5" width="40" height="40" rx="10" fill="#6679B8"/>
<rect x="1367" y="115.5" width="40" height="40" rx="10" fill="#4962B2"/>
<rect x="1419" y="115.5" width="40" height="40" rx="10" fill="#6679B8"/>
<rect x="1471" y="115.5" width="40" height="40" rx="10" fill="#6679B8"/>
<rect x="1523" y="115.5" width="40" height="40" rx="10" fill="#6679B8"/>
<rect x="67" y="167.5" width="40" height="40" rx="10" fill="#6679B8"/>
<rect x="119" y="167.5" width="40" height="40" rx="10" fill="#7887B8"/>
<rect x="171" y="167.5" width="40" height="40" rx="10" fill="#6679B8"/>
<rect x="223" y="167.5" width="40" height="40" rx="10" fill="#6679B8"/>
<rect x="275" y="167.5" width="40" height="40" rx="10" fill="#6679B8"/>
<rect x="327" y="167.5" width="40" height="40" rx="10" fill="#6679B8"/>
<rect x="379" y="167.5" width="40" height="40" rx="10" fill="#6679B8"/>
<rect x="431" y="167.5" width="40" height="40" rx="10" fill="#6679B8"/>
<rect x="483" y="167.5" width="40" height="40" rx="10" fill="#6679B8"/>
<rect x="535" y="167.5" width="40" height="40" rx="10" fill="#6679B8"/>
<rect x="587" y="167.5" width="40" height="40" rx="10" fill="#6679B8"/>
<rect x="639" y="167.5" width="40" height="40" rx="10" fill="#6679B8"/>
<rect x="691" y="167.5" width="40" height="40" rx="10" fill="#7887B8"/>
<rect x="743" y="167.5" width="40" height="40" rx="10" fill="#6679B8"/>
<rect x="795" y="167.5" width="40" height="40" rx="10" fill="#6679B8"/>
<rect x="847" y="167.5" width="40" height="40" rx="10" fill="#6679B8"/>
<rect x="899" y="167.5" width="40" height="40" rx="10" fill="#6679B8"/>
<rect x="951" y="167.5" width="40" height="40" rx="10" fill="#566DB9"/>
<rect x="1003" y="167.5" width="40" height="40" rx="10" fill="#6679B8"/>
<rect x="1055" y="167.5" width="40" height="40" rx="10" fill="#6679B8"/>
<rect x="1107" y="167.5" width="40" height="40" rx="10" fill="#6679B8"/>
<rect x="1159" y="167.5" width="40" height="40" rx="10" fill="#6679B8"/>
<rect x="1211" y="167.5" width="40" height="40" rx="10" fill="#6679B8"/>
<rect x="1263" y="167.5" width="40" height="40" rx="10" fill="#6679B8"/>
<rect x="1315" y="167.5" width="40" height="40" rx="10" fill="#6679B8"/>
<rect x="1367" y="167.5" width="40" height="40" rx="10" fill="#536AB4"/>
<rect x="1419" y="167.5" width="40" height="40" rx="10" fill="#6679B8"/>
<rect x="1471" y="167.5" width="40" height="40" rx="10" fill="#6679B8"/>
<rect x="1523" y="167.5" width="40" height="40" rx="10" fill="#4962B2"/>
<rect x="67" y="219.5" width="40" height="40" rx="10" fill="#6679B8"/>
<rect x="119" y="219.5" width="40" height="40" rx="10" fill="#6679B8"/>
<rect x="171" y="219.5" width="40" height="40" rx="10" fill="#6679B8"/>
<rect x="223" y="219.5" width="40" height="40" rx="10" fill="#6679B8"/>
<rect x="275" y="219.5" width="40" height="40" rx="10" fill="#6679B8"/>
<rect x="327" y="219.5" width="40" height="40" rx="10" fill="#6679B8"/>
<rect x="379" y="219.5" width="40" height="40" rx="10" fill="#6679B8"/>
<rect x="431" y="219.5" width="40" height="40" rx="10" fill="#6679B8"/>
<rect x="483" y="219.5" width="40" height="40" rx="10" fill="#6679B8"/>
<rect x="535" y="219.5" width="40" height="40" rx="10" fill="#6679B8"/>
<rect x="587" y="219.5" width="40" height="40" rx="10" fill="#6679B8"/>
<rect x="639" y="219.5" width="40" height="40" rx="10" fill="#7887B8"/>
<rect x="691" y="219.5" width="40" height="40" rx="10" fill="#536AB4"/>
<rect x="743" y="219.5" width="40" height="40" rx="10" fill="#6679B8"/>
<rect x="795" y="219.5" width="40" height="40" rx="10" fill="#6679B8"/>
<rect x="847" y="219.5" width="40" height="40" rx="10" fill="#6679B8"/>
<rect x="899" y="219.5" width="40" height="40" rx="10" fill="#6679B8"/>
<rect x="951" y="219.5" width="40" height="40" rx="10" fill="#6679B8"/>
<rect x="1003" y="219.5" width="40" height="40" rx="10" fill="#6679B8"/>
<rect x="1055" y="219.5" width="40" height="40" rx="10" fill="#6679B8"/>
<rect x="1107" y="219.5" width="40" height="40" rx="10" fill="#6679B8"/>
<rect x="1159" y="219.5" width="40" height="40" rx="10" fill="#6679B8"/>
<rect x="1211" y="219.5" width="40" height="40" rx="10" fill="#6679B8"/>
<rect x="1263" y="219.5" width="40" height="40" rx="10" fill="#6679B8"/>
<rect x="1315" y="219.5" width="40" height="40" rx="10" fill="#6679B8"/>
<rect x="1367" y="219.5" width="40" height="40" rx="10" fill="#6679B8"/>
<rect x="1419" y="219.5" width="40" height="40" rx="10" fill="#6679B8"/>
<rect x="1471" y="219.5" width="40" height="40" rx="10" fill="#6679B8"/>
<rect x="1523" y="219.5" width="40" height="40" rx="10" fill="#6679B8"/>
<rect x="67" y="271.5" width="40" height="40" rx="10" fill="#6679B8"/>
<rect x="119" y="271.5" width="40" height="40" rx="10" fill="#6679B8"/>
<rect x="171" y="271.5" width="40" height="40" rx="10" fill="#566DB9"/>
<rect x="223" y="271.5" width="40" height="40" rx="10" fill="#6679B8"/>
<rect x="275" y="271.5" width="40" height="40" rx="10" fill="#6679B8"/>
<rect x="327" y="271.5" width="40" height="40" rx="10" fill="#6679B8"/>
<rect x="379" y="271.5" width="40" height="40" rx="10" fill="#6679B8"/>
<rect x="431" y="271.5" width="40" height="40" rx="10" fill="#6679B8"/>
<rect x="483" y="271.5" width="40" height="40" rx="10" fill="#6679B8"/>
<rect x="535" y="271.5" width="40" height="40" rx="10" fill="#6679B8"/>
<rect x="587" y="271.5" width="40" height="40" rx="10" fill="#6679B8"/>
<rect x="639" y="271.5" width="40" height="40" rx="10" fill="#6679B8"/>
<rect x="691" y="271.5" width="40" height="40" rx="10" fill="#6679B8"/>
<rect x="743" y="271.5" width="40" height="40" rx="10" fill="#6679B8"/>
<rect x="795" y="271.5" width="40" height="40" rx="10" fill="#6679B8"/>
<rect x="847" y="271.5" width="40" height="40" rx="10" fill="#6679B8"/>
<rect x="899" y="271.5" width="40" height="40" rx="10" fill="#566DB9"/>
<rect x="951" y="271.5" width="40" height="40" rx="10" fill="#6679B8"/>
<rect x="1003" y="271.5" width="40" height="40" rx="10" fill="#6679B8"/>
<rect x="1055" y="271.5" width="40" height="40" rx="10" fill="#6679B8"/>
<rect x="1107" y="271.5" width="40" height="40" rx="10" fill="#6679B8"/>
<rect x="1159" y="271.5" width="40" height="40" rx="10" fill="#6679B8"/>
<rect x="1211" y="271.5" width="40" height="40" rx="10" fill="#566DB9"/>
<rect x="1263" y="271.5" width="40" height="40" rx="10" fill="#6679B8"/>
<rect x="1315" y="271.5" width="40" height="40" rx="10" fill="#6679B8"/>
<rect x="1367" y="271.5" width="40" height="40" rx="10" fill="#6679B8"/>
<rect x="1419" y="271.5" width="40" height="40" rx="10" fill="#566DB9"/>
<rect x="1471" y="271.5" width="40" height="40" rx="10" fill="#6679B8"/>
<rect x="1523" y="271.5" width="40" height="40" rx="10" fill="#7887B8"/>
<rect x="67" y="323.5" width="40" height="40" rx="10" fill="#6679B8"/>
<rect x="119" y="323.5" width="40" height="40" rx="10" fill="#4962B2"/>
<rect x="171" y="323.5" width="40" height="40" rx="10" fill="#6679B8"/>
<rect x="223" y="323.5" width="40" height="40" rx="10" fill="#6679B8"/>
<rect x="275" y="323.5" width="40" height="40" rx="10" fill="#6679B8"/>
<rect x="327" y="323.5" width="40" height="40" rx="10" fill="#566DB9"/>
<rect x="379" y="323.5" width="40" height="40" rx="10" fill="#6679B8"/>
<rect x="431" y="323.5" width="40" height="40" rx="10" fill="#6679B8"/>
<rect x="483" y="323.5" width="40" height="40" rx="10" fill="#6679B8"/>
<rect x="535" y="323.5" width="40" height="40" rx="10" fill="#6679B8"/>
<rect x="587" y="323.5" width="40" height="40" rx="10" fill="#6679B8"/>
<rect x="639" y="323.5" width="40" height="40" rx="10" fill="#6679B8"/>
<rect x="691" y="323.5" width="40" height="40" rx="10" fill="#6679B8"/>
<rect x="743" y="323.5" width="40" height="40" rx="10" fill="#7887B8"/>
<rect x="795" y="323.5" width="40" height="40" rx="10" fill="#6679B8"/>
<rect x="847" y="323.5" width="40" height="40" rx="10" fill="#6679B8"/>
<rect x="899" y="323.5" width="40" height="40" rx="10" fill="#6679B8"/>
<rect x="951" y="323.5" width="40" height="40" rx="10" fill="#566DB9"/>
<rect x="1003" y="323.5" width="40" height="40" rx="10" fill="#6679B8"/>
<rect x="1055" y="323.5" width="40" height="40" rx="10" fill="#6679B8"/>
<rect x="1107" y="323.5" width="40" height="40" rx="10" fill="#536AB4"/>
<rect x="1159" y="323.5" width="40" height="40" rx="10" fill="#6679B8"/>
<rect x="1211" y="323.5" width="40" height="40" rx="10" fill="#6679B8"/>
<rect x="1263" y="323.5" width="40" height="40" rx="10" fill="#6679B8"/>
<rect x="1315" y="323.5" width="40" height="40" rx="10" fill="#6679B8"/>
<rect x="1367" y="323.5" width="40" height="40" rx="10" fill="#6679B8"/>
<rect x="1419" y="323.5" width="40" height="40" rx="10" fill="#6679B8"/>
<rect x="1471" y="323.5" width="40" height="40" rx="10" fill="#6679B8"/>
<rect x="1523" y="323.5" width="40" height="40" rx="10" fill="#536AB4"/>
<rect x="67" y="375.5" width="40" height="40" rx="10" fill="#6679B8"/>
<rect x="119" y="375.5" width="40" height="40" rx="10" fill="#6679B8"/>
<rect x="171" y="375.5" width="40" height="40" rx="10" fill="#6679B8"/>
<rect x="223" y="375.5" width="40" height="40" rx="10" fill="#6679B8"/>
<rect x="275" y="375.5" width="40" height="40" rx="10" fill="#6679B8"/>
<rect x="327" y="375.5" width="40" height="40" rx="10" fill="#6679B8"/>
<rect x="379" y="375.5" width="40" height="40" rx="10" fill="#6679B8"/>
<rect x="431" y="375.5" width="40" height="40" rx="10" fill="#536AB4"/>
<rect x="483" y="375.5" width="40" height="40" rx="10" fill="#6679B8"/>
<rect x="535" y="375.5" width="40" height="40" rx="10" fill="#6679B8"/>
<rect x="587" y="375.5" width="40" height="40" rx="10" fill="#6679B8"/>
<rect x="639" y="375.5" width="40" height="40" rx="10" fill="#6679B8"/>
<rect x="691" y="375.5" width="40" height="40" rx="10" fill="#6679B8"/>
<rect x="743" y="375.5" width="40" height="40" rx="10" fill="#6679B8"/>
<rect x="795" y="375.5" width="40" height="40" rx="10" fill="#6679B8"/>
<rect x="847" y="375.5" width="40" height="40" rx="10" fill="#6679B8"/>
<rect x="899" y="375.5" width="40" height="40" rx="10" fill="#6679B8"/>
<rect x="951" y="375.5" width="40" height="40" rx="10" fill="#6679B8"/>
<rect x="1003" y="375.5" width="40" height="40" rx="10" fill="#6679B8"/>
<rect x="1055" y="375.5" width="40" height="40" rx="10" fill="#6679B8"/>
<rect x="1107" y="375.5" width="40" height="40" rx="10" fill="#6679B8"/>
<rect x="1159" y="375.5" width="40" height="40" rx="10" fill="#6679B8"/>
<rect x="1211" y="375.5" width="40" height="40" rx="10" fill="#6679B8"/>
<rect x="1263" y="375.5" width="40" height="40" rx="10" fill="#6679B8"/>
<rect x="1315" y="375.5" width="40" height="40" rx="10" fill="#6679B8"/>
<rect x="1367" y="375.5" width="40" height="40" rx="10" fill="#6679B8"/>
<rect x="1419" y="375.5" width="40" height="40" rx="10" fill="#6679B8"/>
<rect x="1471" y="375.5" width="40" height="40" rx="10" fill="#6679B8"/>
<rect x="1523" y="375.5" width="40" height="40" rx="10" fill="#6679B8"/>
<rect x="67" y="427.5" width="40" height="40" rx="10" fill="#6679B8"/>
<rect x="119" y="427.5" width="40" height="40" rx="10" fill="#6679B8"/>
<rect x="171" y="427.5" width="40" height="40" rx="10" fill="#6679B8"/>
<rect x="223" y="427.5" width="40" height="40" rx="10" fill="#6679B8"/>
<rect x="275" y="427.5" width="40" height="40" rx="10" fill="#6679B8"/>
<rect x="327" y="427.5" width="40" height="40" rx="10" fill="#4962B2"/>
<rect x="379" y="427.5" width="40" height="40" rx="10" fill="#6679B8"/>
<rect x="431" y="427.5" width="40" height="40" rx="10" fill="#6679B8"/>
<rect x="483" y="427.5" width="40" height="40" rx="10" fill="#6679B8"/>
<rect x="535" y="427.5" width="40" height="40" rx="10" fill="#4962B2"/>
<rect x="587" y="427.5" width="40" height="40" rx="10" fill="#6679B8"/>
<rect x="639" y="427.5" width="40" height="40" rx="10" fill="#6679B8"/>
<rect x="691" y="427.5" width="40" height="40" rx="10" fill="#4962B2"/>
<rect x="743" y="427.5" width="40" height="40" rx="10" fill="#6679B8"/>
<rect x="795" y="427.5" width="40" height="40" rx="10" fill="#6679B8"/>
<rect x="847" y="427.5" width="40" height="40" rx="10" fill="#6679B8"/>
<rect x="899" y="427.5" width="40" height="40" rx="10" fill="#6679B8"/>
<rect x="951" y="427.5" width="40" height="40" rx="10" fill="#6679B8"/>
<rect x="1003" y="427.5" width="40" height="40" rx="10" fill="#6679B8"/>
<rect x="1055" y="427.5" width="40" height="40" rx="10" fill="#6679B8"/>
<rect x="1107" y="427.5" width="40" height="40" rx="10" fill="#4962B2"/>
<rect x="1159" y="427.5" width="40" height="40" rx="10" fill="#6679B8"/>
<rect x="1211" y="427.5" width="40" height="40" rx="10" fill="#6679B8"/>
<rect x="1263" y="427.5" width="40" height="40" rx="10" fill="#6679B8"/>
<rect x="1315" y="427.5" width="40" height="40" rx="10" fill="#6679B8"/>
<rect x="1367" y="427.5" width="40" height="40" rx="10" fill="#6679B8"/>
<rect x="1419" y="427.5" width="40" height="40" rx="10" fill="#6679B8"/>
<rect x="1471" y="427.5" width="40" height="40" rx="10" fill="#7887B8"/>
<rect x="1523" y="427.5" width="40" height="40" rx="10" fill="#6679B8"/>
<rect x="67" y="479.5" width="40" height="40" rx="10" fill="#6679B8"/>
<rect x="119" y="479.5" width="40" height="40" rx="10" fill="#6679B8"/>
<rect x="171" y="479.5" width="40" height="40" rx="10" fill="#6679B8"/>
<rect x="223" y="479.5" width="40" height="40" rx="10" fill="#6679B8"/>
<rect x="275" y="479.5" width="40" height="40" rx="10" fill="#6679B8"/>
<rect x="327" y="479.5" width="40" height="40" rx="10" fill="#536AB4"/>
<rect x="379" y="479.5" width="40" height="40" rx="10" fill="#536AB4"/>
<rect x="431" y="479.5" width="40" height="40" rx="10" fill="#536AB4"/>
<rect x="483" y="479.5" width="40" height="40" rx="10" fill="#4962B2"/>
<rect x="535" y="479.5" width="40" height="40" rx="10" fill="#7887B8"/>
<rect x="587" y="479.5" width="40" height="40" rx="10" fill="#4962B2"/>
<rect x="639" y="479.5" width="40" height="40" rx="10" fill="#4962B2"/>
<rect x="691" y="479.5" width="40" height="40" rx="10" fill="#6679B8"/>
<rect x="743" y="479.5" width="40" height="40" rx="10" fill="#6679B8"/>
<rect x="795" y="479.5" width="40" height="40" rx="10" fill="#6679B8"/>
<rect x="847" y="479.5" width="40" height="40" rx="10" fill="#6679B8"/>
<rect x="899" y="479.5" width="40" height="40" rx="10" fill="#6679B8"/>
<rect x="951" y="479.5" width="40" height="40" rx="10" fill="#6679B8"/>
<rect x="1003" y="479.5" width="40" height="40" rx="10" fill="#6679B8"/>
<rect x="1055" y="479.5" width="40" height="40" rx="10" fill="#6679B8"/>
<rect x="1107" y="479.5" width="40" height="40" rx="10" fill="#6679B8"/>
<rect x="1159" y="479.5" width="40" height="40" rx="10" fill="#6679B8"/>
<rect x="1211" y="479.5" width="40" height="40" rx="10" fill="#6679B8"/>
<rect x="1263" y="479.5" width="40" height="40" rx="10" fill="#6679B8"/>
<rect x="1315" y="479.5" width="40" height="40" rx="10" fill="#6679B8"/>
<rect x="1367" y="479.5" width="40" height="40" rx="10" fill="#6679B8"/>
<rect x="1419" y="479.5" width="40" height="40" rx="10" fill="#6679B8"/>
<rect x="1471" y="479.5" width="40" height="40" rx="10" fill="#4962B2"/>
<rect x="1523" y="479.5" width="40" height="40" rx="10" fill="#6679B8"/>
<rect x="67" y="531.5" width="40" height="40" rx="10" fill="#6679B8"/>
<rect x="119" y="531.5" width="40" height="40" rx="10" fill="#536AB4"/>
<rect x="171" y="531.5" width="40" height="40" rx="10" fill="#6679B8"/>
<rect x="223" y="531.5" width="40" height="40" rx="10" fill="#6679B8"/>
<rect x="275" y="531.5" width="40" height="40" rx="10" fill="#6679B8"/>
<rect x="327" y="531.5" width="40" height="40" rx="10" fill="#6679B8"/>
<rect x="379" y="531.5" width="40" height="40" rx="10" fill="#6679B8"/>
<rect x="431" y="531.5" width="40" height="40" rx="10" fill="#4962B2"/>
<rect x="483" y="531.5" width="40" height="40" rx="10" fill="#4962B2"/>
<rect x="535" y="531.5" width="40" height="40" rx="10" fill="#6679B8"/>
<rect x="587" y="531.5" width="40" height="40" rx="10" fill="#6679B8"/>
<rect x="639" y="531.5" width="40" height="40" rx="10" fill="#6679B8"/>
<rect x="691" y="531.5" width="40" height="40" rx="10" fill="#6679B8"/>
<rect x="743" y="531.5" width="40" height="40" rx="10" fill="#6679B8"/>
<rect x="795" y="531.5" width="40" height="40" rx="10" fill="#4962B2"/>
<rect x="847" y="531.5" width="40" height="40" rx="10" fill="#536AB4"/>
<rect x="899" y="531.5" width="40" height="40" rx="10" fill="#566DB9"/>
<rect x="951" y="531.5" width="40" height="40" rx="10" fill="#6679B8"/>
<rect x="1003" y="531.5" width="40" height="40" rx="10" fill="#6679B8"/>
<rect x="1055" y="531.5" width="40" height="40" rx="10" fill="#6679B8"/>
<rect x="1107" y="531.5" width="40" height="40" rx="10" fill="#6679B8"/>
<rect x="1159" y="531.5" width="40" height="40" rx="10" fill="#4962B2"/>
<rect x="1211" y="531.5" width="40" height="40" rx="10" fill="#6679B8"/>
<rect x="1263" y="531.5" width="40" height="40" rx="10" fill="#6679B8"/>
<rect x="1315" y="531.5" width="40" height="40" rx="10" fill="#566DB9"/>
<rect x="1367" y="531.5" width="40" height="40" rx="10" fill="#566DB9"/>
<rect x="1419" y="531.5" width="40" height="40" rx="10" fill="#6679B8"/>
<rect x="1471" y="531.5" width="40" height="40" rx="10" fill="#6679B8"/>
<rect x="1523" y="531.5" width="40" height="40" rx="10" fill="#566DB9"/>
<rect x="67" y="583.5" width="40" height="40" rx="10" fill="#6679B8"/>
<rect x="119" y="583.5" width="40" height="40" rx="10" fill="#6679B8"/>
<rect x="171" y="583.5" width="40" height="40" rx="10" fill="#6679B8"/>
<rect x="223" y="583.5" width="40" height="40" rx="10" fill="#6679B8"/>
<rect x="275" y="583.5" width="40" height="40" rx="10" fill="#6679B8"/>
<rect x="327" y="583.5" width="40" height="40" rx="10" fill="#6679B8"/>
<rect x="379" y="583.5" width="40" height="40" rx="10" fill="#6679B8"/>
<rect x="431" y="583.5" width="40" height="40" rx="10" fill="#6679B8"/>
<rect x="483" y="583.5" width="40" height="40" rx="10" fill="#6679B8"/>
<rect x="535" y="583.5" width="40" height="40" rx="10" fill="#536AB4"/>
<rect x="587" y="583.5" width="40" height="40" rx="10" fill="#7887B8"/>
<rect x="639" y="583.5" width="40" height="40" rx="10" fill="#6679B8"/>
<rect x="691" y="583.5" width="40" height="40" rx="10" fill="#6679B8"/>
<rect x="743" y="583.5" width="40" height="40" rx="10" fill="#6679B8"/>
<rect x="795" y="583.5" width="40" height="40" rx="10" fill="#6679B8"/>
<rect x="847" y="583.5" width="40" height="40" rx="10" fill="#566DB9"/>
<rect x="899" y="583.5" width="40" height="40" rx="10" fill="#6679B8"/>
<rect x="951" y="583.5" width="40" height="40" rx="10" fill="#566DB9"/>
<rect x="1003" y="583.5" width="40" height="40" rx="10" fill="#6679B8"/>
<rect x="1055" y="583.5" width="40" height="40" rx="10" fill="#6679B8"/>
<rect x="1107" y="583.5" width="40" height="40" rx="10" fill="#6679B8"/>
<rect x="1159" y="583.5" width="40" height="40" rx="10" fill="#6679B8"/>
<rect x="1211" y="583.5" width="40" height="40" rx="10" fill="#6679B8"/>
<rect x="1263" y="583.5" width="40" height="40" rx="10" fill="#566DB9"/>
<rect x="1315" y="583.5" width="40" height="40" rx="10" fill="#536AB4"/>
<rect x="1367" y="583.5" width="40" height="40" rx="10" fill="#6679B8"/>
<rect x="1419" y="583.5" width="40" height="40" rx="10" fill="#7887B8"/>
<rect x="1471" y="583.5" width="40" height="40" rx="10" fill="#536AB4"/>
<rect x="1523" y="583.5" width="40" height="40" rx="10" fill="#6679B8"/>
<rect x="67" y="635.5" width="40" height="40" rx="10" fill="#6679B8"/>
<rect x="119" y="635.5" width="40" height="40" rx="10" fill="#6679B8"/>
<rect x="171" y="635.5" width="40" height="40" rx="10" fill="#6679B8"/>
<rect x="223" y="635.5" width="40" height="40" rx="10" fill="#6679B8"/>
<rect x="275" y="635.5" width="40" height="40" rx="10" fill="#6679B8"/>
<rect x="327" y="635.5" width="40" height="40" rx="10" fill="#4962B2"/>
<rect x="379" y="635.5" width="40" height="40" rx="10" fill="#6679B8"/>
<rect x="431" y="635.5" width="40" height="40" rx="10" fill="#6679B8"/>
<rect x="483" y="635.5" width="40" height="40" rx="10" fill="#6679B8"/>
<rect x="535" y="635.5" width="40" height="40" rx="10" fill="#6679B8"/>
<rect x="587" y="635.5" width="40" height="40" rx="10" fill="#6679B8"/>
<rect x="639" y="635.5" width="40" height="40" rx="10" fill="#6679B8"/>
<rect x="691" y="635.5" width="40" height="40" rx="10" fill="#6679B8"/>
<rect x="743" y="635.5" width="40" height="40" rx="10" fill="#6679B8"/>
<rect x="795" y="635.5" width="40" height="40" rx="10" fill="#6679B8"/>
<rect x="847" y="635.5" width="40" height="40" rx="10" fill="#6679B8"/>
<rect x="899" y="635.5" width="40" height="40" rx="10" fill="#6679B8"/>
<rect x="951" y="635.5" width="40" height="40" rx="10" fill="#6679B8"/>
<rect x="1003" y="635.5" width="40" height="40" rx="10" fill="#6679B8"/>
<rect x="1055" y="635.5" width="40" height="40" rx="10" fill="#6679B8"/>
<rect x="1107" y="635.5" width="40" height="40" rx="10" fill="#6679B8"/>
<rect x="1159" y="635.5" width="40" height="40" rx="10" fill="#6679B8"/>
<rect x="1211" y="635.5" width="40" height="40" rx="10" fill="#6679B8"/>
<rect x="1263" y="635.5" width="40" height="40" rx="10" fill="#6679B8"/>
<rect x="1315" y="635.5" width="40" height="40" rx="10" fill="#6679B8"/>
<rect x="1367" y="635.5" width="40" height="40" rx="10" fill="#6679B8"/>
<rect x="1419" y="635.5" width="40" height="40" rx="10" fill="#6679B8"/>
<rect x="1471" y="635.5" width="40" height="40" rx="10" fill="#6679B8"/>
<rect x="1523" y="635.5" width="40" height="40" rx="10" fill="#6679B8"/>
<rect x="67" y="687.5" width="40" height="40" rx="10" fill="#6679B8"/>
<rect x="119" y="687.5" width="40" height="40" rx="10" fill="#6679B8"/>
<rect x="171" y="687.5" width="40" height="40" rx="10" fill="#6679B8"/>
<rect x="223" y="687.5" width="40" height="40" rx="10" fill="#6679B8"/>
<rect x="275" y="687.5" width="40" height="40" rx="10" fill="#6679B8"/>
<rect x="327" y="687.5" width="40" height="40" rx="10" fill="#6679B8"/>
<rect x="379" y="687.5" width="40" height="40" rx="10" fill="#6679B8"/>
<rect x="431" y="687.5" width="40" height="40" rx="10" fill="#6679B8"/>
<rect x="483" y="687.5" width="40" height="40" rx="10" fill="#6679B8"/>
<rect x="535" y="687.5" width="40" height="40" rx="10" fill="#6679B8"/>
<rect x="587" y="687.5" width="40" height="40" rx="10" fill="#6679B8"/>
<rect x="639" y="687.5" width="40" height="40" rx="10" fill="#6679B8"/>
<rect x="691" y="687.5" width="40" height="40" rx="10" fill="#6679B8"/>
<rect x="743" y="687.5" width="40" height="40" rx="10" fill="#536AB4"/>
<rect x="795" y="687.5" width="40" height="40" rx="10" fill="#6679B8"/>
<rect x="847" y="687.5" width="40" height="40" rx="10" fill="#6679B8"/>
<rect x="899" y="687.5" width="40" height="40" rx="10" fill="#6679B8"/>
<rect x="951" y="687.5" width="40" height="40" rx="10" fill="#6679B8"/>
<rect x="1003" y="687.5" width="40" height="40" rx="10" fill="#6679B8"/>
<rect x="1055" y="687.5" width="40" height="40" rx="10" fill="#6679B8"/>
<rect x="1107" y="687.5" width="40" height="40" rx="10" fill="#6679B8"/>
<rect x="1159" y="687.5" width="40" height="40" rx="10" fill="#7887B8"/>
<rect x="1211" y="687.5" width="40" height="40" rx="10" fill="#6679B8"/>
<rect x="1263" y="687.5" width="40" height="40" rx="10" fill="#6679B8"/>
<rect x="1315" y="687.5" width="40" height="40" rx="10" fill="#6679B8"/>
<rect x="1367" y="687.5" width="40" height="40" rx="10" fill="#6679B8"/>
<rect x="1419" y="687.5" width="40" height="40" rx="10" fill="#6679B8"/>
<rect x="1471" y="687.5" width="40" height="40" rx="10" fill="#6679B8"/>
<rect x="1523" y="687.5" width="40" height="40" rx="10" fill="#7887B8"/>
<rect x="67" y="739.5" width="40" height="40" rx="10" fill="#566DB9"/>
<rect x="119" y="739.5" width="40" height="40" rx="10" fill="#6679B8"/>
<rect x="171" y="739.5" width="40" height="40" rx="10" fill="#6679B8"/>
<rect x="223" y="739.5" width="40" height="40" rx="10" fill="#6679B8"/>
<rect x="275" y="739.5" width="40" height="40" rx="10" fill="#7887B8"/>
<rect x="327" y="739.5" width="40" height="40" rx="10" fill="#6679B8"/>
<rect x="379" y="739.5" width="40" height="40" rx="10" fill="#6679B8"/>
<rect x="431" y="739.5" width="40" height="40" rx="10" fill="#6679B8"/>
<rect x="483" y="739.5" width="40" height="40" rx="10" fill="#536AB4"/>
<rect x="535" y="739.5" width="40" height="40" rx="10" fill="#7887B8"/>
<rect x="587" y="739.5" width="40" height="40" rx="10" fill="#6679B8"/>
<rect x="639" y="739.5" width="40" height="40" rx="10" fill="#4962B2"/>
<rect x="691" y="739.5" width="40" height="40" rx="10" fill="#6679B8"/>
<rect x="743" y="739.5" width="40" height="40" rx="10" fill="#6679B8"/>
<rect x="795" y="739.5" width="40" height="40" rx="10" fill="#6679B8"/>
<rect x="847" y="739.5" width="40" height="40" rx="10" fill="#6679B8"/>
<rect x="899" y="739.5" width="40" height="40" rx="10" fill="#566DB9"/>
<rect x="951" y="739.5" width="40" height="40" rx="10" fill="#6679B8"/>
<rect x="1003" y="739.5" width="40" height="40" rx="10" fill="#6679B8"/>
<rect x="1055" y="739.5" width="40" height="40" rx="10" fill="#6679B8"/>
<rect x="1107" y="739.5" width="40" height="40" rx="10" fill="#6679B8"/>
<rect x="1159" y="739.5" width="40" height="40" rx="10" fill="#536AB4"/>
<rect x="1211" y="739.5" width="40" height="40" rx="10" fill="#6679B8"/>
<rect x="1263" y="739.5" width="40" height="40" rx="10" fill="#6679B8"/>
<rect x="1315" y="739.5" width="40" height="40" rx="10" fill="#4962B2"/>
<rect x="1367" y="739.5" width="40" height="40" rx="10" fill="#566DB9"/>
<rect x="1419" y="739.5" width="40" height="40" rx="10" fill="#6679B8"/>
<rect x="1471" y="739.5" width="40" height="40" rx="10" fill="#6679B8"/>
<rect x="1523" y="739.5" width="40" height="40" rx="10" fill="#6679B8"/>
<rect x="212" y="328.57" width="177.82" height="293.012" rx="22" fill="#D9D9D9" stroke="#BABABA" stroke-width="18"/>
<rect x="213.423" y="345.225" width="177.82" height="276.236" rx="22" fill="#D9D9D9" stroke="#BABABA" stroke-width="18"/>
<rect x="1139" y="357" width="380" height="244" rx="22" fill="#D9D9D9" stroke="#BABABA" stroke-width="18"/>
<rect x="1156" y="357" width="363" height="244" rx="22" fill="#D9D9D9" stroke="#BABABA" stroke-width="18"/>
<rect x="710" y="427" width="150" height="102" rx="22" fill="#D9D9D9" stroke="#BABABA" stroke-width="18"/>
<rect x="658" y="517" width="254" height="34" rx="17" fill="#D9D9D9" stroke="#BABABA" stroke-width="18"/>
<rect x="530" y="137" width="510" height="346" rx="22" fill="#D9D9D9" stroke="#BABABA" stroke-width="18"/>
<rect x="530" y="448" width="510" height="35" rx="17.5" fill="#BABABA" stroke="#BABABA" stroke-width="18"/>
<circle cx="301.861" cy="337.861" r="12.8612" fill="#969696" stroke="#BABABA" stroke-width="6"/>
<circle cx="784.5" cy="148.5" r="11.5" fill="#969696" stroke="#BABABA" stroke-width="6"/>
<circle cx="1149.61" cy="491.254" r="10.5" fill="#969696" stroke="#BABABA" stroke-width="6"/>
<path d="M261.405 483.83C263.905 484.33 265.788 484.58 267.055 484.58C268.321 484.58 269.455 484.18 270.455 483.38C271.488 482.58 272.088 481.33 272.255 479.63C270.588 480.097 269.255 480.33 268.255 480.33C264.755 480.33 262.055 479.364 260.155 477.43C258.255 475.464 257.305 472.697 257.305 469.13C257.305 465.53 258.388 462.614 260.555 460.38C262.755 458.147 265.755 457.03 269.555 457.03C273.355 457.03 276.338 458.364 278.505 461.03C280.705 463.697 281.805 467.63 281.805 472.83C281.805 479.33 280.638 484.33 278.305 487.83C276.005 491.297 272.571 493.03 268.005 493.03C262.338 493.03 259.505 492.08 259.505 490.18C259.505 489.18 259.705 487.88 260.105 486.28C260.505 484.647 260.938 483.83 261.405 483.83ZM269.455 466.03C268.388 466.03 267.555 466.38 266.955 467.08C266.388 467.747 266.105 468.614 266.105 469.68C266.105 470.747 266.438 471.614 267.105 472.28C267.805 472.914 268.688 473.23 269.755 473.23C270.821 473.23 271.688 472.997 272.355 472.53C272.355 470.23 272.138 468.58 271.705 467.58C271.271 466.547 270.521 466.03 269.455 466.03ZM295.926 492.68C295.926 492.914 294.343 493.03 291.176 493.03C288.043 493.03 286.476 492.93 286.476 492.73V483.73C286.476 483.43 288.043 483.28 291.176 483.28C294.343 483.28 295.926 483.364 295.926 483.53V492.68ZM295.926 476.63C295.926 476.864 294.343 476.98 291.176 476.98C288.043 476.98 286.476 476.88 286.476 476.68V467.68C286.476 467.38 288.043 467.23 291.176 467.23C294.343 467.23 295.926 467.314 295.926 467.48V476.63ZM315.243 491.68C315.243 492.247 313.543 492.53 310.143 492.53C306.777 492.53 305.093 492.247 305.093 491.68V467.03L299.693 467.08C298.693 467.08 298.193 465.48 298.193 462.28C298.193 461.18 298.293 460.114 298.493 459.08C298.727 458.047 299.11 457.53 299.643 457.53H313.343C313.91 457.53 314.36 457.664 314.693 457.93C315.06 458.164 315.243 458.464 315.243 458.83V491.68ZM339.106 467.13C337.773 466.397 336.223 466.03 334.456 466.03C331.356 466.03 329.589 468.03 329.156 472.03C330.889 471.53 332.739 471.28 334.706 471.28C338.073 471.28 340.539 472.164 342.106 473.93C343.706 475.664 344.506 478.047 344.506 481.08C344.506 484.747 343.373 487.664 341.106 489.83C338.839 491.964 335.773 493.03 331.906 493.03C328.039 493.03 325.006 491.63 322.806 488.83C320.606 485.997 319.506 481.98 319.506 476.78C319.506 470.714 320.873 465.914 323.606 462.38C326.373 458.814 329.956 457.03 334.356 457.03C339.356 457.03 341.856 458.047 341.856 460.08C341.856 461.547 341.389 463.114 340.456 464.78C340.123 465.514 339.673 466.297 339.106 467.13ZM335.856 481.13C335.856 480.097 335.539 479.264 334.906 478.63C334.273 477.964 333.306 477.63 332.006 477.63C330.739 477.63 329.773 477.864 329.106 478.33C329.073 478.764 329.056 479.247 329.056 479.78C329.056 480.314 329.106 480.98 329.206 481.78C329.339 482.547 329.673 483.314 330.206 484.08C330.773 484.814 331.506 485.18 332.406 485.18C334.706 485.18 335.856 483.83 335.856 481.13Z" fill="#878787"/>
<path d="M728.889 350.3C728.889 351.433 725.489 352 718.689 352C711.956 352 708.589 351.433 708.589 350.3V301L697.789 301.1C695.789 301.1 694.789 297.9 694.789 291.5C694.789 289.3 694.989 287.167 695.389 285.1C695.856 283.033 696.622 282 697.689 282H725.089C726.222 282 727.122 282.267 727.789 282.8C728.522 283.267 728.889 283.867 728.889 284.6V350.3ZM776.614 301.2C773.947 299.733 770.847 299 767.314 299C761.114 299 757.581 303 756.714 311C760.181 310 763.881 309.5 767.814 309.5C774.547 309.5 779.481 311.267 782.614 314.8C785.814 318.267 787.414 323.033 787.414 329.1C787.414 336.433 785.147 342.267 780.614 346.6C776.081 350.867 769.947 353 762.214 353C754.481 353 748.414 350.2 744.014 344.6C739.614 338.933 737.414 330.9 737.414 320.5C737.414 308.367 740.147 298.767 745.614 291.7C751.147 284.567 758.314 281 767.114 281C777.114 281 782.114 283.033 782.114 287.1C782.114 290.033 781.181 293.167 779.314 296.5C778.647 297.967 777.747 299.533 776.614 301.2ZM770.114 329.2C770.114 327.133 769.481 325.467 768.214 324.2C766.947 322.867 765.014 322.2 762.414 322.2C759.881 322.2 757.947 322.667 756.614 323.6C756.547 324.467 756.514 325.433 756.514 326.5C756.514 327.567 756.614 328.9 756.814 330.5C757.081 332.033 757.747 333.567 758.814 335.1C759.947 336.567 761.414 337.3 763.214 337.3C767.814 337.3 770.114 334.6 770.114 329.2ZM816.134 352.3C816.134 352.767 812.967 353 806.634 353C800.367 353 797.234 352.8 797.234 352.4V334.4C797.234 333.8 800.367 333.5 806.634 333.5C812.967 333.5 816.134 333.667 816.134 334V352.3ZM816.134 320.2C816.134 320.667 812.967 320.9 806.634 320.9C800.367 320.9 797.234 320.7 797.234 320.3V302.3C797.234 301.7 800.367 301.4 806.634 301.4C812.967 301.4 816.134 301.567 816.134 301.9V320.2ZM831.368 334.6C836.368 335.6 840.135 336.1 842.668 336.1C845.201 336.1 847.468 335.3 849.468 333.7C851.535 332.1 852.735 329.6 853.068 326.2C849.735 327.133 847.068 327.6 845.068 327.6C838.068 327.6 832.668 325.667 828.868 321.8C825.068 317.867 823.168 312.333 823.168 305.2C823.168 298 825.335 292.167 829.668 287.7C834.068 283.233 840.068 281 847.668 281C855.268 281 861.235 283.667 865.568 289C869.968 294.333 872.168 302.2 872.168 312.6C872.168 325.6 869.835 335.6 865.168 342.6C860.568 349.533 853.701 353 844.568 353C833.235 353 827.568 351.1 827.568 347.3C827.568 345.3 827.968 342.7 828.768 339.5C829.568 336.233 830.435 334.6 831.368 334.6ZM847.468 299C845.335 299 843.668 299.7 842.468 301.1C841.335 302.433 840.768 304.167 840.768 306.3C840.768 308.433 841.435 310.167 842.768 311.5C844.168 312.767 845.935 313.4 848.068 313.4C850.201 313.4 851.935 312.933 853.268 312C853.268 307.4 852.835 304.1 851.968 302.1C851.101 300.033 849.601 299 847.468 299Z" fill="#878787"/>
<path d="M1316.13 483.085C1316.66 483.085 1316.93 485.112 1316.93 489.165C1316.93 493.165 1316.66 495.165 1316.13 495.165L1310.85 495.245L1310.85 505.325C1310.85 505.912 1309.75 506.338 1307.57 506.605C1305.38 506.872 1303.49 507.005 1301.89 507.005L1298.61 506.845C1295.89 506.632 1294.53 506.152 1294.53 505.405L1294.53 495.485L1278.61 495.485C1277.22 494.098 1275.97 492.312 1274.85 490.125C1273.73 487.885 1273.17 486.285 1273.17 485.325C1273.17 484.312 1273.33 483.512 1273.65 482.925L1291.17 451.885C1291.38 451.458 1293.01 451.138 1296.05 450.925C1299.14 450.712 1302.37 450.605 1305.73 450.605C1309.09 450.605 1310.77 450.738 1310.77 451.005L1310.85 483.085L1316.13 483.085ZM1296.85 483.165L1296.85 466.445L1287.49 483.165L1296.85 483.165ZM1339.94 507.245C1339.94 507.618 1337.41 507.805 1332.34 507.805C1327.33 507.805 1324.82 507.645 1324.82 507.325L1324.82 492.925C1324.82 492.445 1327.33 492.205 1332.34 492.205C1337.41 492.205 1339.94 492.338 1339.94 492.605L1339.94 507.245ZM1339.94 481.565C1339.94 481.938 1337.41 482.125 1332.34 482.125C1327.33 482.125 1324.82 481.965 1324.82 481.645L1324.82 467.245C1324.82 466.765 1327.33 466.525 1332.34 466.525C1337.41 466.525 1339.94 466.658 1339.94 466.925L1339.94 481.565ZM1343.97 501.725C1343.97 500.232 1344.34 498.552 1345.09 496.685C1345.83 494.765 1346.55 493.245 1347.25 492.125C1347.94 490.952 1348.34 490.365 1348.45 490.365C1351.54 492.232 1354.79 493.165 1358.21 493.165C1360.34 493.165 1362.05 492.738 1363.33 491.885C1364.66 491.032 1365.33 489.858 1365.33 488.365C1365.33 486.818 1364.71 485.832 1363.49 485.405C1362.31 484.978 1360.42 484.685 1357.81 484.525L1354.93 484.525C1354.29 484.525 1353.67 483.752 1353.09 482.205C1352.55 480.605 1352.29 479.058 1352.29 477.565C1352.29 475.058 1353.03 473.778 1354.53 473.725L1356.85 473.645C1358.29 473.645 1359.78 473.245 1361.33 472.445C1362.93 471.592 1363.73 470.525 1363.73 469.245C1363.73 467.005 1361.73 465.885 1357.73 465.885C1354.74 465.885 1351.86 466.472 1349.09 467.645C1346.69 463.325 1345.49 459.965 1345.49 457.565C1345.49 455.112 1347.17 453.272 1350.53 452.045C1353.94 450.818 1358.21 450.205 1363.33 450.205C1368.45 450.205 1372.45 451.272 1375.33 453.405C1378.21 455.538 1379.65 458.445 1379.65 462.125C1379.65 468.578 1376.87 473.538 1371.33 477.005C1378.05 479.725 1381.41 484.338 1381.41 490.845C1381.41 495.912 1379.62 500.018 1376.05 503.165C1372.47 506.258 1367.35 507.805 1360.69 507.805C1356.47 507.805 1352.63 507.218 1349.17 506.045C1345.7 504.818 1343.97 503.378 1343.97 501.725Z" fill="#878787"/>
<path d="M457.716 730.76C457.716 732.467 452.65 733.32 442.516 733.32C432.276 733.32 427.156 732.52 427.156 730.92V626.6C427.156 622.867 429.13 621 433.076 621H463.636C491.69 621 505.716 631.933 505.716 653.8C505.716 660.413 504.436 666.44 501.876 671.88C499.316 677.213 495.69 681.48 490.996 684.68L511.156 718.28C510.303 720.84 507.53 723.773 502.836 727.08C496.436 731.667 491.156 733.96 486.996 733.96C482.836 733.96 479.743 732.467 477.716 729.48L462.676 694.44H457.716V730.76ZM457.716 649.32V673.32H458.516C468.65 673.32 473.716 669.107 473.716 660.68C473.716 656.84 472.703 654.013 470.676 652.2C468.756 650.28 465.556 649.32 461.076 649.32H457.716ZM581.211 728.68C574.491 732.627 565.851 734.6 555.291 734.6C544.731 734.6 535.825 731.027 528.571 723.88C521.318 716.627 517.691 706.653 517.691 693.96C517.691 681.16 521.158 670.867 528.091 663.08C535.131 655.293 543.985 651.4 554.651 651.4C565.318 651.4 573.531 654.12 579.291 659.56C585.158 665 588.091 671.613 588.091 679.4C588.091 696.68 578.171 705.32 558.331 705.32H547.291C547.291 708.52 548.145 710.76 549.851 712.04C551.665 713.213 554.278 713.8 557.691 713.8C565.158 713.8 572.251 712.093 578.971 708.68C579.078 708.573 579.558 709.32 580.411 710.92C582.971 715.507 584.251 719.4 584.251 722.6C584.251 725.693 583.238 727.72 581.211 728.68ZM561.211 682.44C561.211 677.96 559.025 675.72 554.651 675.72C552.625 675.72 550.865 676.36 549.371 677.64C547.985 678.813 547.291 680.573 547.291 682.92V687.88H555.931C559.451 687.88 561.211 686.067 561.211 682.44ZM601.904 704.2C610.544 709.427 617.37 712.04 622.384 712.04C625.584 712.04 627.184 710.92 627.184 708.68C627.184 707.08 624.41 705 618.864 702.44C605.53 697 598.864 688.093 598.864 675.72C598.864 667.827 601.744 661.8 607.504 657.64C613.264 653.48 620.144 651.4 628.144 651.4C636.25 651.4 643.077 652.253 648.624 653.96C654.277 655.667 657.104 657.907 657.104 660.68C657.104 663.027 655.93 666.12 653.584 669.96C651.344 673.8 649.797 675.88 648.944 676.2C644.357 673.64 639.397 672.36 634.064 672.36C631.184 672.36 629.744 673.373 629.744 675.4C629.744 676.68 630.277 677.8 631.344 678.76C632.517 679.613 634.597 680.733 637.584 682.12C640.57 683.4 643.024 684.573 644.944 685.64C646.97 686.707 649.21 688.2 651.664 690.12C656.784 694.173 659.344 699.453 659.344 705.96C659.344 714.493 656.517 721.427 650.864 726.76C645.21 731.987 636.677 734.6 625.264 734.6C617.69 734.6 610.81 733.32 604.624 730.76C598.437 728.2 595.344 724.68 595.344 720.2C595.344 717.213 596.037 714.067 597.424 710.76C598.917 707.453 600.41 705.267 601.904 704.2ZM677.455 723.56C670.842 716.2 667.535 706.013 667.535 693C667.535 679.987 670.842 669.8 677.455 662.44C684.175 655.08 693.188 651.4 704.495 651.4C715.802 651.4 724.762 655.08 731.375 662.44C737.988 669.8 741.295 679.987 741.295 693C741.295 706.013 737.988 716.2 731.375 723.56C724.762 730.92 715.802 734.6 704.495 734.6C693.188 734.6 684.175 730.92 677.455 723.56ZM704.495 678.12C698.522 678.12 695.535 683.027 695.535 692.84C695.535 702.653 698.522 707.56 704.495 707.56C710.575 707.56 713.615 702.653 713.615 692.84C713.615 683.027 710.575 678.12 704.495 678.12ZM781.726 731.72C781.726 732.68 776.286 733.16 765.406 733.16C756.873 733.053 752.606 732.627 752.606 731.88V622.92C752.606 621.32 757.78 620.52 768.126 620.52C777.193 620.84 781.726 621.373 781.726 622.12V731.72ZM795.4 653.96C795.4 652.787 799.987 652.2 809.16 652.2C818.333 652.2 822.92 652.787 822.92 653.96V700.68C822.92 706.013 824.627 708.68 828.04 708.68C830.6 708.68 833.48 707.56 836.68 705.32V653.96C836.68 652.893 841.213 652.36 850.28 652.36C859.347 652.36 863.88 652.893 863.88 653.96V706.44H868.04C871.667 706.44 873.48 709.907 873.48 716.84C873.48 720.36 872.733 723.933 871.24 727.56C869.107 732.253 866.227 734.6 862.6 734.6C855.453 734.6 850.173 731.667 846.76 725.8L846.6 725.96C840.093 731.72 833.107 734.6 825.64 734.6C815.293 734.6 807.667 732.04 802.76 726.92C797.853 721.693 795.4 713.107 795.4 701.16V653.96ZM920.031 732.04C920.031 733.32 915.551 733.96 906.591 733.96C895.925 733.533 890.591 732.84 890.591 731.88V675.24H882.431C880.298 675.24 879.231 671.56 879.231 664.2C879.231 662.28 879.391 659.933 879.711 657.16C880.138 654.387 880.938 653 882.111 653H890.591V638.92C890.591 636.787 895.071 635.72 904.031 635.72C913.098 635.72 917.631 636.573 917.631 638.28V648.52L917.791 653H931.391C933.205 653 934.111 656.733 934.111 664.2C934.111 671.667 933.205 675.4 931.391 675.4H920.031V732.04ZM971.418 732.04C971.418 732.893 966.511 733.32 956.698 733.32C946.991 733.32 942.138 732.947 942.138 732.2V653.64C942.138 652.893 946.991 652.52 956.698 652.52C966.511 652.52 971.418 652.84 971.418 653.48V732.04ZM971.418 644.04C971.418 644.787 966.511 645.16 956.698 645.16C946.991 645.16 942.138 644.84 942.138 644.2V621.16C942.138 620.093 946.991 619.56 956.698 619.56C966.511 619.56 971.418 619.88 971.418 620.52V644.04ZM992.768 723.56C986.154 716.2 982.848 706.013 982.848 693C982.848 679.987 986.154 669.8 992.768 662.44C999.488 655.08 1008.5 651.4 1019.81 651.4C1031.11 651.4 1040.07 655.08 1046.69 662.44C1053.3 669.8 1056.61 679.987 1056.61 693C1056.61 706.013 1053.3 716.2 1046.69 723.56C1040.07 730.92 1031.11 734.6 1019.81 734.6C1008.5 734.6 999.488 730.92 992.768 723.56ZM1019.81 678.12C1013.83 678.12 1010.85 683.027 1010.85 692.84C1010.85 702.653 1013.83 707.56 1019.81 707.56C1025.89 707.56 1028.93 702.653 1028.93 692.84C1028.93 683.027 1025.89 678.12 1019.81 678.12ZM1101.36 732.04C1101.36 732.787 1097.52 733.16 1089.84 733.16C1079.17 732.84 1073.84 732.253 1073.84 731.4V679.56H1069.68C1066.91 679.56 1065.09 677.213 1064.24 672.52C1064.03 671.133 1063.92 669.747 1063.92 668.36C1063.92 665.053 1064.56 661.747 1065.84 658.44C1067.76 653.747 1070.75 651.4 1074.8 651.4C1078.85 651.4 1082.48 652.36 1085.68 654.28C1088.88 656.2 1091.01 658.12 1092.08 660.04C1098.8 654.28 1106.8 651.4 1116.08 651.4C1125.36 651.4 1132.08 653.907 1136.24 658.92C1140.4 663.933 1142.48 672.147 1142.48 683.56V731.56C1142.48 732.84 1137.89 733.48 1128.72 733.48C1119.65 733.48 1115.12 732.84 1115.12 731.56V685.32C1115.12 679.987 1113.25 677.32 1109.52 677.32C1108.45 677.32 1106.96 677.8 1105.04 678.76C1103.12 679.613 1101.89 680.253 1101.36 680.68V732.04Z" fill="white"/>
<rect x="391" y="393" width="11" height="27" rx="3" fill="#BABABA" stroke="#BABABA" stroke-width="12"/>
<rect x="964" y="481" width="29" height="12" rx="3" fill="#BABABA" stroke="#BABABA" stroke-width="12"/>
<rect x="391" y="441" width="11" height="42" rx="3" fill="#BABABA" stroke="#BABABA" stroke-width="12"/>
<rect x="1217" y="359" width="11" height="27" rx="3" transform="rotate(-90 1217 359)" fill="#BABABA" stroke="#BABABA" stroke-width="12"/>
<rect x="1265" y="359" width="11" height="55" rx="3" transform="rotate(-90 1265 359)" fill="#BABABA" stroke="#BABABA" stroke-width="12"/>
</svg>
