<svg xmlns="http://www.w3.org/2000/svg" viewBox="0 0 20 20">
  <ellipse style="fill: rgb(216, 0, 82);" cx="10" cy="10" rx="10" ry="10"></ellipse>
  <ellipse style="fill: rgb(255, 0, 97);" cx="10" cy="10" rx="9" ry="9"></ellipse>
  <rect x="6.983" y="7.015" width="7.216" height="7.216" style="fill: none; stroke: rgb(255, 255, 255);"></rect>
  <g transform="matrix(0.085039, 0, 0, 0.085039, -2.164778, 2.289894)" style="">
    <g transform="matrix(-2.49995, 0, 0, 1.948804, 154.998904, 4.11433)" style="">
      <path d="M1.99974 12.9999L1.9996 11L15.5858 11V5.58582L22 12L15.5858 18.4142V13L1.99974 12.9999Z" style="fill: rgb(255, 255, 255);"></path>
    </g>
    <g transform="matrix(2.49995, 0, 0, 1.948804, 145.001101, 4.114331)" style="">
      <path d="M1.99974 12.9999L1.9996 11L15.5858 11V5.58582L22 12L15.5858 18.4142V13L1.99974 12.9999Z" style="fill: rgb(255, 255, 255);"></path>
    </g>
  </g>
  <g transform="matrix(0, -0.212592, -0.165723, 0, 6.839572, 11.133789)" style="">
    <path d="M1.99974 12.9999L1.9996 11L15.5858 11V5.58582L22 12L15.5858 18.4142V13L1.99974 12.9999Z" style="fill: rgb(255, 255, 255);"></path>
  </g>
  <path d="M 2.725 13 L 2.725 12.669 L 5.613 12.669 L 5.613 11.771 L 6.977 12.834 L 5.613 13.898 L 5.613 13 L 2.725 13 Z" style="fill: rgb(255, 255, 255); stroke-width: 2.224; transform-box: fill-box; transform-origin: 50% 50%;" transform="matrix(0, 1.000007, -0.999993, 0, 0.000002, 0)"></path>
</svg>